<svg width="50" height="50" viewBox="0 0 50 50" fill="none" xmlns="http://www.w3.org/2000/svg">
<mask id="path-1-outside-1_975_128791" maskUnits="userSpaceOnUse" x="0.191406" y="-0.21875" width="50" height="50" fill="black">
<rect fill="white" x="0.191406" y="-0.21875" width="50" height="50"/>
<path d="M47.9174 31.0286C47.7559 30.877 47.6114 30.7429 47.4815 30.6224C46.9722 30.15 46.7166 29.9128 46.5906 29.6945C46.4645 29.4763 46.3871 29.1364 46.2325 28.4592C46.193 28.2864 46.1492 28.0941 46.0986 27.8784C45.812 26.6551 44.7765 25.7862 43.522 25.7164C43.3008 25.7041 43.1038 25.6942 42.9268 25.6855C42.2331 25.651 41.8849 25.6336 41.648 25.5474C41.4112 25.4612 41.1333 25.2506 40.5796 24.8312C40.4384 24.7242 40.2812 24.6051 40.1039 24.4724C39.0981 23.7194 37.7463 23.7194 36.7405 24.4724C36.5632 24.6051 36.406 24.7241 36.2648 24.8311C35.7111 25.2506 35.4332 25.4611 35.1963 25.5474C35.0971 25.5835 34.978 25.6074 34.8226 25.6257C32.2603 23.3255 29.1926 21.7396 25.8939 20.9758C29.4619 19.2627 31.9312 15.6136 31.9312 11.3983C31.9313 5.54404 27.1685 0.78125 21.3142 0.78125C15.4599 0.78125 10.6971 5.54404 10.6971 11.3983C10.6971 15.6138 13.1667 19.2631 16.7349 20.9761C13.4121 21.7461 10.3187 23.3497 7.74732 25.6751C4.05064 29.0182 1.72389 33.5769 1.19586 38.5114C1.17223 38.7318 1.24342 38.9519 1.39156 39.1167C1.53971 39.2815 1.75094 39.3758 1.97262 39.3758L21.3129 39.3757C21.3132 39.3757 21.3137 39.3758 21.3141 39.3758C21.3145 39.3758 21.315 39.3757 21.3154 39.3757H29.1849C29.4616 40.0156 29.9745 40.544 30.6563 40.8361C30.8599 40.9233 31.0418 41 31.2049 41.0688C31.288 41.1037 31.3655 41.1364 31.4382 41.1673L29.2613 45.8431C29.1095 46.1691 29.1512 46.5489 29.37 46.8341C29.5886 47.1192 29.9443 47.2578 30.2986 47.1959L32.4956 46.8121L33.6161 48.7403C33.7892 49.0384 34.1046 49.2188 34.4468 49.2188C34.4615 49.2188 34.4762 49.2186 34.491 49.2179C34.85 49.2016 35.1673 48.9891 35.3193 48.663L37.4616 44.0615C37.9387 43.9159 38.2097 43.8426 38.4222 43.8426C38.6347 43.8426 38.9057 43.9159 39.383 44.0615L41.5252 48.6629C41.6768 48.9889 41.9941 49.2015 42.3532 49.2179C42.368 49.2186 42.3829 49.2188 42.3976 49.2188C42.7398 49.2188 43.0551 49.0384 43.2284 48.7403L44.3489 46.8121L46.5459 47.196C46.9004 47.2578 47.2562 47.119 47.4749 46.8336C47.6934 46.5482 47.7348 46.1685 47.583 45.8429L45.4061 41.1673C45.4789 41.1364 45.5563 41.1038 45.6394 41.0688C45.8026 41 45.9844 40.9233 46.188 40.8361C47.343 40.3415 48.0189 39.1709 47.8698 37.9232C47.8435 37.7032 47.8189 37.5075 47.7969 37.3317C47.7105 36.6425 47.667 36.2966 47.7109 36.0483C47.7547 35.8001 47.9137 35.4898 48.2307 34.8718C48.3115 34.7142 48.4015 34.5387 48.5014 34.341C49.0683 33.2196 48.8337 31.8886 47.9174 31.0286ZM28.343 34.341C28.4429 34.5387 28.533 34.7142 28.6137 34.8719C28.9307 35.49 29.0898 35.8002 29.1336 36.0484C29.1773 36.2967 29.1339 36.6426 29.0475 37.3318C29.0293 37.4775 29.0092 37.6378 28.9879 37.8133H23.0743L25.045 35.6346C25.212 35.4499 25.281 35.1966 25.2307 34.9527L24.2266 30.0848L24.4219 30.3163C24.5712 30.4933 24.7901 30.5938 25.019 30.5938C25.0435 30.5938 25.0682 30.5927 25.0929 30.5903C25.348 30.5661 25.5751 30.4184 25.7004 30.1949L29.2885 23.8006C30.4665 24.3576 31.5883 25.0397 32.6355 25.84C31.7019 26.1294 30.9781 26.8875 30.7459 27.8787C30.6953 28.0943 30.6514 28.2867 30.6121 28.4594C30.4576 29.1366 30.38 29.4766 30.254 29.6948C30.1279 29.9131 29.8723 30.1503 29.363 30.6227C29.2332 30.7431 29.0885 30.8772 28.927 31.0289C28.0109 31.8885 27.7762 33.2196 28.343 34.341ZM17.7389 28.447L14.7851 23.1831C15.3327 22.9798 15.8923 22.8019 16.4624 22.6497L20.192 25.5384L17.7389 28.447ZM20.5135 27.5806L21.3141 26.6313L22.1146 27.5805L23.6203 34.8803L21.314 37.43L19.0078 34.8803L20.5135 27.5806ZM22.4365 25.5384L26.162 22.6529C26.7299 22.8053 27.2897 22.9844 27.8396 23.1895L24.8894 28.447L22.4365 25.5384ZM12.2596 11.3983C12.2596 6.40566 16.3215 2.34375 21.3142 2.34375C26.3069 2.34375 30.3688 6.40566 30.3688 11.3983C30.3688 16.3897 26.309 20.4508 21.3181 20.4529C21.3168 20.4529 21.3155 20.4529 21.3141 20.4529C21.3129 20.4529 21.3116 20.4529 21.3102 20.4529C16.3194 20.4507 12.2596 16.3897 12.2596 11.3983ZM21.3142 22.0154H21.3181C22.2746 22.0156 23.2218 22.0896 24.1537 22.232L21.3141 24.4313L18.4723 22.2303C19.3986 22.0896 20.3462 22.0156 21.3102 22.0154C21.3116 22.0153 21.313 22.0154 21.3142 22.0154ZM13.3355 23.7927L16.928 30.1947C17.0534 30.4182 17.2803 30.5659 17.5355 30.5901C17.5602 30.5925 17.5848 30.5937 17.6094 30.5937C17.8383 30.5937 18.0574 30.493 18.2065 30.3161L18.4017 30.0847L17.3976 34.9526C17.3473 35.1966 17.4163 35.4498 17.5834 35.6346L19.5541 37.8133L2.86207 37.8134C3.82769 31.5309 7.86275 26.37 13.3355 23.7927ZM34.3887 46.9599L33.5731 45.5562C33.4087 45.2733 33.0858 45.123 32.7631 45.1791L31.164 45.4585L32.7334 42.0877C32.8387 42.2411 32.9624 42.4325 33.1186 42.6744C33.2147 42.8231 33.3217 42.9889 33.4429 43.1743C33.9326 43.923 34.7178 44.3709 35.5634 44.4367L34.3887 46.9599ZM44.0814 45.1791C43.7591 45.1228 43.4358 45.2731 43.2714 45.5562L42.4558 46.9598L41.2817 44.4378C42.1271 44.3718 42.9122 43.9229 43.4016 43.1742C43.5228 42.9889 43.6298 42.8231 43.7259 42.6744C43.8822 42.4324 44.0058 42.2411 44.1112 42.0877L45.6805 45.4585L44.0814 45.1791ZM47.107 33.6361C47.0086 33.8308 46.92 34.0036 46.8404 34.1588C46.0621 35.6766 46.0344 35.8339 46.2466 37.5262C46.2683 37.6992 46.2925 37.892 46.3184 38.1086C46.3856 38.6702 46.0929 39.1771 45.573 39.3997C45.3724 39.4855 45.1934 39.561 45.0327 39.6288C43.461 40.2912 43.3385 40.3938 42.4133 41.8268C42.3187 41.9732 42.2134 42.1364 42.094 42.319C41.7844 42.7924 41.2343 42.9926 40.6931 42.8289C40.4843 42.7658 40.2987 42.7085 40.132 42.657C39.3171 42.4056 38.8697 42.2799 38.4223 42.2799C37.975 42.2799 37.5275 42.4057 36.7127 42.657C36.546 42.7085 36.3604 42.7657 36.1515 42.8289C35.6102 42.9922 35.0602 42.7924 34.7506 42.319C34.6312 42.1364 34.5259 41.9732 34.4313 41.8268C33.506 40.3939 33.3837 40.2912 31.812 39.6288C31.6512 39.5611 31.4722 39.4856 31.2716 39.3997C30.7517 39.1771 30.4591 38.6702 30.5262 38.1086C30.5521 37.892 30.5763 37.6992 30.598 37.5262C30.8102 35.8339 30.7826 35.6766 30.0042 34.1588C29.9246 34.0036 29.836 33.8308 29.7376 33.6361C29.4824 33.1313 29.584 32.555 29.9963 32.168C30.1554 32.0187 30.2978 31.8865 30.4257 31.7679C31.6761 30.608 31.756 30.4696 32.1354 28.8066C32.1742 28.6366 32.2174 28.4473 32.2671 28.2349C32.3962 27.6841 32.8445 27.3079 33.4092 27.2766C33.6271 27.2644 33.8212 27.2548 33.9954 27.2461C35.6988 27.1612 35.8489 27.1065 37.2086 26.0765C37.3475 25.9712 37.5023 25.8539 37.6769 25.7231C38.1298 25.3842 38.7149 25.3843 39.1677 25.7231C39.3424 25.8538 39.4972 25.9712 39.6363 26.0766C40.9958 27.1064 41.1459 27.1611 42.8493 27.246C43.0235 27.2547 43.2175 27.2644 43.4354 27.2765C44.0002 27.3078 44.4485 27.684 44.5775 28.2348C44.6273 28.4472 44.6705 28.6366 44.7093 28.8066C45.0887 30.4694 45.1686 30.6078 46.419 31.7678C46.5469 31.8864 46.6893 32.0185 46.8483 32.1678C47.2606 32.555 47.3623 33.1313 47.107 33.6361ZM38.4222 28.3278C35.1969 28.3278 32.5729 30.9519 32.5729 34.1771C32.5729 37.4022 35.1969 40.0263 38.4222 40.0263C41.6475 40.0263 44.2715 37.4023 44.2715 34.1771C44.2715 30.952 41.6476 28.3278 38.4222 28.3278ZM38.4222 38.4639C36.0585 38.4639 34.1354 36.5408 34.1354 34.1771C34.1354 31.8135 36.0585 29.8904 38.4222 29.8904C40.786 29.8904 42.709 31.8135 42.709 34.1771C42.709 36.5408 40.786 38.4639 38.4222 38.4639Z"/>
</mask>
<path d="M47.9174 31.0286C47.7559 30.877 47.6114 30.7429 47.4815 30.6224C46.9722 30.15 46.7166 29.9128 46.5906 29.6945C46.4645 29.4763 46.3871 29.1364 46.2325 28.4592C46.193 28.2864 46.1492 28.0941 46.0986 27.8784C45.812 26.6551 44.7765 25.7862 43.522 25.7164C43.3008 25.7041 43.1038 25.6942 42.9268 25.6855C42.2331 25.651 41.8849 25.6336 41.648 25.5474C41.4112 25.4612 41.1333 25.2506 40.5796 24.8312C40.4384 24.7242 40.2812 24.6051 40.1039 24.4724C39.0981 23.7194 37.7463 23.7194 36.7405 24.4724C36.5632 24.6051 36.406 24.7241 36.2648 24.8311C35.7111 25.2506 35.4332 25.4611 35.1963 25.5474C35.0971 25.5835 34.978 25.6074 34.8226 25.6257C32.2603 23.3255 29.1926 21.7396 25.8939 20.9758C29.4619 19.2627 31.9312 15.6136 31.9312 11.3983C31.9313 5.54404 27.1685 0.78125 21.3142 0.78125C15.4599 0.78125 10.6971 5.54404 10.6971 11.3983C10.6971 15.6138 13.1667 19.2631 16.7349 20.9761C13.4121 21.7461 10.3187 23.3497 7.74732 25.6751C4.05064 29.0182 1.72389 33.5769 1.19586 38.5114C1.17223 38.7318 1.24342 38.9519 1.39156 39.1167C1.53971 39.2815 1.75094 39.3758 1.97262 39.3758L21.3129 39.3757C21.3132 39.3757 21.3137 39.3758 21.3141 39.3758C21.3145 39.3758 21.315 39.3757 21.3154 39.3757H29.1849C29.4616 40.0156 29.9745 40.544 30.6563 40.8361C30.8599 40.9233 31.0418 41 31.2049 41.0688C31.288 41.1037 31.3655 41.1364 31.4382 41.1673L29.2613 45.8431C29.1095 46.1691 29.1512 46.5489 29.37 46.8341C29.5886 47.1192 29.9443 47.2578 30.2986 47.1959L32.4956 46.8121L33.6161 48.7403C33.7892 49.0384 34.1046 49.2188 34.4468 49.2188C34.4615 49.2188 34.4762 49.2186 34.491 49.2179C34.85 49.2016 35.1673 48.9891 35.3193 48.663L37.4616 44.0615C37.9387 43.9159 38.2097 43.8426 38.4222 43.8426C38.6347 43.8426 38.9057 43.9159 39.383 44.0615L41.5252 48.6629C41.6768 48.9889 41.9941 49.2015 42.3532 49.2179C42.368 49.2186 42.3829 49.2188 42.3976 49.2188C42.7398 49.2188 43.0551 49.0384 43.2284 48.7403L44.3489 46.8121L46.5459 47.196C46.9004 47.2578 47.2562 47.119 47.4749 46.8336C47.6934 46.5482 47.7348 46.1685 47.583 45.8429L45.4061 41.1673C45.4789 41.1364 45.5563 41.1038 45.6394 41.0688C45.8026 41 45.9844 40.9233 46.188 40.8361C47.343 40.3415 48.0189 39.1709 47.8698 37.9232C47.8435 37.7032 47.8189 37.5075 47.7969 37.3317C47.7105 36.6425 47.667 36.2966 47.7109 36.0483C47.7547 35.8001 47.9137 35.4898 48.2307 34.8718C48.3115 34.7142 48.4015 34.5387 48.5014 34.341C49.0683 33.2196 48.8337 31.8886 47.9174 31.0286ZM28.343 34.341C28.4429 34.5387 28.533 34.7142 28.6137 34.8719C28.9307 35.49 29.0898 35.8002 29.1336 36.0484C29.1773 36.2967 29.1339 36.6426 29.0475 37.3318C29.0293 37.4775 29.0092 37.6378 28.9879 37.8133H23.0743L25.045 35.6346C25.212 35.4499 25.281 35.1966 25.2307 34.9527L24.2266 30.0848L24.4219 30.3163C24.5712 30.4933 24.7901 30.5938 25.019 30.5938C25.0435 30.5938 25.0682 30.5927 25.0929 30.5903C25.348 30.5661 25.5751 30.4184 25.7004 30.1949L29.2885 23.8006C30.4665 24.3576 31.5883 25.0397 32.6355 25.84C31.7019 26.1294 30.9781 26.8875 30.7459 27.8787C30.6953 28.0943 30.6514 28.2867 30.6121 28.4594C30.4576 29.1366 30.38 29.4766 30.254 29.6948C30.1279 29.9131 29.8723 30.1503 29.363 30.6227C29.2332 30.7431 29.0885 30.8772 28.927 31.0289C28.0109 31.8885 27.7762 33.2196 28.343 34.341ZM17.7389 28.447L14.7851 23.1831C15.3327 22.9798 15.8923 22.8019 16.4624 22.6497L20.192 25.5384L17.7389 28.447ZM20.5135 27.5806L21.3141 26.6313L22.1146 27.5805L23.6203 34.8803L21.314 37.43L19.0078 34.8803L20.5135 27.5806ZM22.4365 25.5384L26.162 22.6529C26.7299 22.8053 27.2897 22.9844 27.8396 23.1895L24.8894 28.447L22.4365 25.5384ZM12.2596 11.3983C12.2596 6.40566 16.3215 2.34375 21.3142 2.34375C26.3069 2.34375 30.3688 6.40566 30.3688 11.3983C30.3688 16.3897 26.309 20.4508 21.3181 20.4529C21.3168 20.4529 21.3155 20.4529 21.3141 20.4529C21.3129 20.4529 21.3116 20.4529 21.3102 20.4529C16.3194 20.4507 12.2596 16.3897 12.2596 11.3983ZM21.3142 22.0154H21.3181C22.2746 22.0156 23.2218 22.0896 24.1537 22.232L21.3141 24.4313L18.4723 22.2303C19.3986 22.0896 20.3462 22.0156 21.3102 22.0154C21.3116 22.0153 21.313 22.0154 21.3142 22.0154ZM13.3355 23.7927L16.928 30.1947C17.0534 30.4182 17.2803 30.5659 17.5355 30.5901C17.5602 30.5925 17.5848 30.5937 17.6094 30.5937C17.8383 30.5937 18.0574 30.493 18.2065 30.3161L18.4017 30.0847L17.3976 34.9526C17.3473 35.1966 17.4163 35.4498 17.5834 35.6346L19.5541 37.8133L2.86207 37.8134C3.82769 31.5309 7.86275 26.37 13.3355 23.7927ZM34.3887 46.9599L33.5731 45.5562C33.4087 45.2733 33.0858 45.123 32.7631 45.1791L31.164 45.4585L32.7334 42.0877C32.8387 42.2411 32.9624 42.4325 33.1186 42.6744C33.2147 42.8231 33.3217 42.9889 33.4429 43.1743C33.9326 43.923 34.7178 44.3709 35.5634 44.4367L34.3887 46.9599ZM44.0814 45.1791C43.7591 45.1228 43.4358 45.2731 43.2714 45.5562L42.4558 46.9598L41.2817 44.4378C42.1271 44.3718 42.9122 43.9229 43.4016 43.1742C43.5228 42.9889 43.6298 42.8231 43.7259 42.6744C43.8822 42.4324 44.0058 42.2411 44.1112 42.0877L45.6805 45.4585L44.0814 45.1791ZM47.107 33.6361C47.0086 33.8308 46.92 34.0036 46.8404 34.1588C46.0621 35.6766 46.0344 35.8339 46.2466 37.5262C46.2683 37.6992 46.2925 37.892 46.3184 38.1086C46.3856 38.6702 46.0929 39.1771 45.573 39.3997C45.3724 39.4855 45.1934 39.561 45.0327 39.6288C43.461 40.2912 43.3385 40.3938 42.4133 41.8268C42.3187 41.9732 42.2134 42.1364 42.094 42.319C41.7844 42.7924 41.2343 42.9926 40.6931 42.8289C40.4843 42.7658 40.2987 42.7085 40.132 42.657C39.3171 42.4056 38.8697 42.2799 38.4223 42.2799C37.975 42.2799 37.5275 42.4057 36.7127 42.657C36.546 42.7085 36.3604 42.7657 36.1515 42.8289C35.6102 42.9922 35.0602 42.7924 34.7506 42.319C34.6312 42.1364 34.5259 41.9732 34.4313 41.8268C33.506 40.3939 33.3837 40.2912 31.812 39.6288C31.6512 39.5611 31.4722 39.4856 31.2716 39.3997C30.7517 39.1771 30.4591 38.6702 30.5262 38.1086C30.5521 37.892 30.5763 37.6992 30.598 37.5262C30.8102 35.8339 30.7826 35.6766 30.0042 34.1588C29.9246 34.0036 29.836 33.8308 29.7376 33.6361C29.4824 33.1313 29.584 32.555 29.9963 32.168C30.1554 32.0187 30.2978 31.8865 30.4257 31.7679C31.6761 30.608 31.756 30.4696 32.1354 28.8066C32.1742 28.6366 32.2174 28.4473 32.2671 28.2349C32.3962 27.6841 32.8445 27.3079 33.4092 27.2766C33.6271 27.2644 33.8212 27.2548 33.9954 27.2461C35.6988 27.1612 35.8489 27.1065 37.2086 26.0765C37.3475 25.9712 37.5023 25.8539 37.6769 25.7231C38.1298 25.3842 38.7149 25.3843 39.1677 25.7231C39.3424 25.8538 39.4972 25.9712 39.6363 26.0766C40.9958 27.1064 41.1459 27.1611 42.8493 27.246C43.0235 27.2547 43.2175 27.2644 43.4354 27.2765C44.0002 27.3078 44.4485 27.684 44.5775 28.2348C44.6273 28.4472 44.6705 28.6366 44.7093 28.8066C45.0887 30.4694 45.1686 30.6078 46.419 31.7678C46.5469 31.8864 46.6893 32.0185 46.8483 32.1678C47.2606 32.555 47.3623 33.1313 47.107 33.6361ZM38.4222 28.3278C35.1969 28.3278 32.5729 30.9519 32.5729 34.1771C32.5729 37.4022 35.1969 40.0263 38.4222 40.0263C41.6475 40.0263 44.2715 37.4023 44.2715 34.1771C44.2715 30.952 41.6476 28.3278 38.4222 28.3278ZM38.4222 38.4639C36.0585 38.4639 34.1354 36.5408 34.1354 34.1771C34.1354 31.8135 36.0585 29.8904 38.4222 29.8904C40.786 29.8904 42.709 31.8135 42.709 34.1771C42.709 36.5408 40.786 38.4639 38.4222 38.4639Z" fill="#9775F6"/>
<path d="M47.9174 31.0286C47.7559 30.877 47.6114 30.7429 47.4815 30.6224C46.9722 30.15 46.7166 29.9128 46.5906 29.6945C46.4645 29.4763 46.3871 29.1364 46.2325 28.4592C46.193 28.2864 46.1492 28.0941 46.0986 27.8784C45.812 26.6551 44.7765 25.7862 43.522 25.7164C43.3008 25.7041 43.1038 25.6942 42.9268 25.6855C42.2331 25.651 41.8849 25.6336 41.648 25.5474C41.4112 25.4612 41.1333 25.2506 40.5796 24.8312C40.4384 24.7242 40.2812 24.6051 40.1039 24.4724C39.0981 23.7194 37.7463 23.7194 36.7405 24.4724C36.5632 24.6051 36.406 24.7241 36.2648 24.8311C35.7111 25.2506 35.4332 25.4611 35.1963 25.5474C35.0971 25.5835 34.978 25.6074 34.8226 25.6257C32.2603 23.3255 29.1926 21.7396 25.8939 20.9758C29.4619 19.2627 31.9312 15.6136 31.9312 11.3983C31.9313 5.54404 27.1685 0.78125 21.3142 0.78125C15.4599 0.78125 10.6971 5.54404 10.6971 11.3983C10.6971 15.6138 13.1667 19.2631 16.7349 20.9761C13.4121 21.7461 10.3187 23.3497 7.74732 25.6751C4.05064 29.0182 1.72389 33.5769 1.19586 38.5114C1.17223 38.7318 1.24342 38.9519 1.39156 39.1167C1.53971 39.2815 1.75094 39.3758 1.97262 39.3758L21.3129 39.3757C21.3132 39.3757 21.3137 39.3758 21.3141 39.3758C21.3145 39.3758 21.315 39.3757 21.3154 39.3757H29.1849C29.4616 40.0156 29.9745 40.544 30.6563 40.8361C30.8599 40.9233 31.0418 41 31.2049 41.0688C31.288 41.1037 31.3655 41.1364 31.4382 41.1673L29.2613 45.8431C29.1095 46.1691 29.1512 46.5489 29.37 46.8341C29.5886 47.1192 29.9443 47.2578 30.2986 47.1959L32.4956 46.8121L33.6161 48.7403C33.7892 49.0384 34.1046 49.2188 34.4468 49.2188C34.4615 49.2188 34.4762 49.2186 34.491 49.2179C34.85 49.2016 35.1673 48.9891 35.3193 48.663L37.4616 44.0615C37.9387 43.9159 38.2097 43.8426 38.4222 43.8426C38.6347 43.8426 38.9057 43.9159 39.383 44.0615L41.5252 48.6629C41.6768 48.9889 41.9941 49.2015 42.3532 49.2179C42.368 49.2186 42.3829 49.2188 42.3976 49.2188C42.7398 49.2188 43.0551 49.0384 43.2284 48.7403L44.3489 46.8121L46.5459 47.196C46.9004 47.2578 47.2562 47.119 47.4749 46.8336C47.6934 46.5482 47.7348 46.1685 47.583 45.8429L45.4061 41.1673C45.4789 41.1364 45.5563 41.1038 45.6394 41.0688C45.8026 41 45.9844 40.9233 46.188 40.8361C47.343 40.3415 48.0189 39.1709 47.8698 37.9232C47.8435 37.7032 47.8189 37.5075 47.7969 37.3317C47.7105 36.6425 47.667 36.2966 47.7109 36.0483C47.7547 35.8001 47.9137 35.4898 48.2307 34.8718C48.3115 34.7142 48.4015 34.5387 48.5014 34.341C49.0683 33.2196 48.8337 31.8886 47.9174 31.0286ZM28.343 34.341C28.4429 34.5387 28.533 34.7142 28.6137 34.8719C28.9307 35.49 29.0898 35.8002 29.1336 36.0484C29.1773 36.2967 29.1339 36.6426 29.0475 37.3318C29.0293 37.4775 29.0092 37.6378 28.9879 37.8133H23.0743L25.045 35.6346C25.212 35.4499 25.281 35.1966 25.2307 34.9527L24.2266 30.0848L24.4219 30.3163C24.5712 30.4933 24.7901 30.5938 25.019 30.5938C25.0435 30.5938 25.0682 30.5927 25.0929 30.5903C25.348 30.5661 25.5751 30.4184 25.7004 30.1949L29.2885 23.8006C30.4665 24.3576 31.5883 25.0397 32.6355 25.84C31.7019 26.1294 30.9781 26.8875 30.7459 27.8787C30.6953 28.0943 30.6514 28.2867 30.6121 28.4594C30.4576 29.1366 30.38 29.4766 30.254 29.6948C30.1279 29.9131 29.8723 30.1503 29.363 30.6227C29.2332 30.7431 29.0885 30.8772 28.927 31.0289C28.0109 31.8885 27.7762 33.2196 28.343 34.341ZM17.7389 28.447L14.7851 23.1831C15.3327 22.9798 15.8923 22.8019 16.4624 22.6497L20.192 25.5384L17.7389 28.447ZM20.5135 27.5806L21.3141 26.6313L22.1146 27.5805L23.6203 34.8803L21.314 37.43L19.0078 34.8803L20.5135 27.5806ZM22.4365 25.5384L26.162 22.6529C26.7299 22.8053 27.2897 22.9844 27.8396 23.1895L24.8894 28.447L22.4365 25.5384ZM12.2596 11.3983C12.2596 6.40566 16.3215 2.34375 21.3142 2.34375C26.3069 2.34375 30.3688 6.40566 30.3688 11.3983C30.3688 16.3897 26.309 20.4508 21.3181 20.4529C21.3168 20.4529 21.3155 20.4529 21.3141 20.4529C21.3129 20.4529 21.3116 20.4529 21.3102 20.4529C16.3194 20.4507 12.2596 16.3897 12.2596 11.3983ZM21.3142 22.0154H21.3181C22.2746 22.0156 23.2218 22.0896 24.1537 22.232L21.3141 24.4313L18.4723 22.2303C19.3986 22.0896 20.3462 22.0156 21.3102 22.0154C21.3116 22.0153 21.313 22.0154 21.3142 22.0154ZM13.3355 23.7927L16.928 30.1947C17.0534 30.4182 17.2803 30.5659 17.5355 30.5901C17.5602 30.5925 17.5848 30.5937 17.6094 30.5937C17.8383 30.5937 18.0574 30.493 18.2065 30.3161L18.4017 30.0847L17.3976 34.9526C17.3473 35.1966 17.4163 35.4498 17.5834 35.6346L19.5541 37.8133L2.86207 37.8134C3.82769 31.5309 7.86275 26.37 13.3355 23.7927ZM34.3887 46.9599L33.5731 45.5562C33.4087 45.2733 33.0858 45.123 32.7631 45.1791L31.164 45.4585L32.7334 42.0877C32.8387 42.2411 32.9624 42.4325 33.1186 42.6744C33.2147 42.8231 33.3217 42.9889 33.4429 43.1743C33.9326 43.923 34.7178 44.3709 35.5634 44.4367L34.3887 46.9599ZM44.0814 45.1791C43.7591 45.1228 43.4358 45.2731 43.2714 45.5562L42.4558 46.9598L41.2817 44.4378C42.1271 44.3718 42.9122 43.9229 43.4016 43.1742C43.5228 42.9889 43.6298 42.8231 43.7259 42.6744C43.8822 42.4324 44.0058 42.2411 44.1112 42.0877L45.6805 45.4585L44.0814 45.1791ZM47.107 33.6361C47.0086 33.8308 46.92 34.0036 46.8404 34.1588C46.0621 35.6766 46.0344 35.8339 46.2466 37.5262C46.2683 37.6992 46.2925 37.892 46.3184 38.1086C46.3856 38.6702 46.0929 39.1771 45.573 39.3997C45.3724 39.4855 45.1934 39.561 45.0327 39.6288C43.461 40.2912 43.3385 40.3938 42.4133 41.8268C42.3187 41.9732 42.2134 42.1364 42.094 42.319C41.7844 42.7924 41.2343 42.9926 40.6931 42.8289C40.4843 42.7658 40.2987 42.7085 40.132 42.657C39.3171 42.4056 38.8697 42.2799 38.4223 42.2799C37.975 42.2799 37.5275 42.4057 36.7127 42.657C36.546 42.7085 36.3604 42.7657 36.1515 42.8289C35.6102 42.9922 35.0602 42.7924 34.7506 42.319C34.6312 42.1364 34.5259 41.9732 34.4313 41.8268C33.506 40.3939 33.3837 40.2912 31.812 39.6288C31.6512 39.5611 31.4722 39.4856 31.2716 39.3997C30.7517 39.1771 30.4591 38.6702 30.5262 38.1086C30.5521 37.892 30.5763 37.6992 30.598 37.5262C30.8102 35.8339 30.7826 35.6766 30.0042 34.1588C29.9246 34.0036 29.836 33.8308 29.7376 33.6361C29.4824 33.1313 29.584 32.555 29.9963 32.168C30.1554 32.0187 30.2978 31.8865 30.4257 31.7679C31.6761 30.608 31.756 30.4696 32.1354 28.8066C32.1742 28.6366 32.2174 28.4473 32.2671 28.2349C32.3962 27.6841 32.8445 27.3079 33.4092 27.2766C33.6271 27.2644 33.8212 27.2548 33.9954 27.2461C35.6988 27.1612 35.8489 27.1065 37.2086 26.0765C37.3475 25.9712 37.5023 25.8539 37.6769 25.7231C38.1298 25.3842 38.7149 25.3843 39.1677 25.7231C39.3424 25.8538 39.4972 25.9712 39.6363 26.0766C40.9958 27.1064 41.1459 27.1611 42.8493 27.246C43.0235 27.2547 43.2175 27.2644 43.4354 27.2765C44.0002 27.3078 44.4485 27.684 44.5775 28.2348C44.6273 28.4472 44.6705 28.6366 44.7093 28.8066C45.0887 30.4694 45.1686 30.6078 46.419 31.7678C46.5469 31.8864 46.6893 32.0185 46.8483 32.1678C47.2606 32.555 47.3623 33.1313 47.107 33.6361ZM38.4222 28.3278C35.1969 28.3278 32.5729 30.9519 32.5729 34.1771C32.5729 37.4022 35.1969 40.0263 38.4222 40.0263C41.6475 40.0263 44.2715 37.4023 44.2715 34.1771C44.2715 30.952 41.6476 28.3278 38.4222 28.3278ZM38.4222 38.4639C36.0585 38.4639 34.1354 36.5408 34.1354 34.1771C34.1354 31.8135 36.0585 29.8904 38.4222 29.8904C40.786 29.8904 42.709 31.8135 42.709 34.1771C42.709 36.5408 40.786 38.4639 38.4222 38.4639Z" stroke="#9775F6" mask="url(#path-1-outside-1_975_128791)"/>
</svg>
