<svg width="45" height="36" viewBox="0 0 45 36" fill="none" xmlns="http://www.w3.org/2000/svg">
<path d="M44.6138 26.3949L41.1283 22.9047V10.933L43.4039 10.1115C43.9262 9.92286 44.2746 9.42681 44.275 8.87066C44.2755 8.31468 43.9278 7.81793 43.4056 7.62864L22.5863 0.078869C22.2964 -0.0262897 21.9785 -0.0262897 21.6886 0.078869L0.869426 7.62864C0.349252 7.81731 0.00211729 8.31098 8.11903e-06 8.86494C-0.00192529 9.41889 0.341606 9.91512 0.860286 10.1076L8.54373 12.9576V21.6568C8.54373 21.9268 8.62634 22.1903 8.78058 22.4117C8.86538 22.5335 9.66871 23.632 11.7255 24.6687C14.3239 25.9784 17.732 26.6426 21.8549 26.6426C25.9748 26.6426 29.4001 25.9798 32.0356 24.6726C34.1127 23.6424 34.9427 22.5554 35.0306 22.4349C35.1951 22.209 35.2838 21.9366 35.2838 21.657V13.0428L38.4919 11.8846V22.9047L35.0064 26.3949C34.7591 26.6425 34.6202 26.9782 34.6202 27.3282C34.6202 27.6783 34.7591 28.0141 35.0064 28.2616L38.4919 31.7517V34.68C38.4919 35.409 39.0822 36 39.8102 36C40.5382 36 41.1284 35.409 41.1284 34.68V31.7517L44.6139 28.2616C45.1287 27.7462 45.1287 26.9103 44.6138 26.3949ZM22.1375 2.72385L39.0778 8.86696L21.8611 15.0822L5.15087 8.88377L22.1375 2.72385ZM32.6473 21.1307C28.1407 25.1912 14.7494 24.7256 11.1802 21.1439V13.9356L21.3969 17.7254C21.5591 17.7511 21.7122 17.8911 22.3019 17.7294L32.6473 13.9947L32.6473 21.1307ZM39.8101 29.3383L37.8026 27.3282L39.8101 25.3181L41.8175 27.3282L39.8101 29.3383Z" fill="#9775F6"/>
</svg>
