<svg width="40" height="40" viewBox="0 0 40 40" fill="none" xmlns="http://www.w3.org/2000/svg">
<path d="M18.3246 3.6379L17.9969 5.10608C17.9556 5.29162 18.0284 5.48407 18.1822 5.59581C18.336 5.70747 18.5415 5.71731 18.7052 5.62041L19.999 4.85506L21.295 5.62057C21.3701 5.66493 21.454 5.68692 21.5375 5.68692C21.6363 5.68692 21.7347 5.65628 21.818 5.59581C21.9718 5.48407 22.0445 5.29162 22.0031 5.10615L21.6754 3.63798L22.8045 2.64343C22.9472 2.51772 23.0016 2.31924 22.9428 2.1383C22.8842 1.95743 22.7236 1.82871 22.5343 1.81078L21.0353 1.66864L20.4365 0.287207C20.3609 0.112851 20.189 0 19.9989 0H19.9986C19.8084 0.000158722 19.6365 0.113248 19.5611 0.287762L18.9643 1.66864L17.4658 1.81078C17.2764 1.82871 17.1159 1.95743 17.0572 2.1383C16.9985 2.31916 17.0529 2.51764 17.1956 2.64343L18.3246 3.6379ZM19.3353 2.59145C19.5085 2.57502 19.659 2.46558 19.728 2.30583L19.9995 1.67745L20.2722 2.30638C20.3413 2.46582 20.4918 2.5751 20.6647 2.59145L21.3468 2.65613L20.8331 3.10848C20.7026 3.22348 20.645 3.40053 20.6829 3.57021L20.8323 4.23938L20.2414 3.89043C20.1666 3.84614 20.0827 3.82408 19.9988 3.82408C19.9149 3.82408 19.8309 3.84622 19.756 3.89058L19.1678 4.2385L19.3169 3.57028C19.3549 3.40053 19.2973 3.22356 19.1667 3.10856L18.6531 2.65621L19.3352 2.59153L19.3353 2.59145ZM22.5342 36.1216L21.0353 35.9794L20.4364 34.598C20.3609 34.4235 20.1889 34.3107 19.9988 34.3107H19.9985C19.8083 34.3109 19.6364 34.4239 19.561 34.5985L18.9643 35.9794L17.4657 36.1216C17.2764 36.1395 17.1158 36.2682 17.0572 36.4491C16.9984 36.6299 17.0528 36.8284 17.1955 36.9542L18.3246 37.9488L17.9969 39.4192C17.9555 39.6049 18.0283 39.7975 18.1823 39.9091C18.3364 40.0208 18.5419 40.0304 18.7056 39.9333L19.999 39.1663L21.2945 39.9334C21.3697 39.9779 21.4536 40 21.5374 40C21.6361 40 21.7344 39.9694 21.8176 39.909C21.9715 39.7974 22.0443 39.6049 22.003 39.4193L21.6752 37.9489L22.8044 36.9543C22.9471 36.8286 23.0015 36.6301 22.9428 36.4492C22.8841 36.2683 22.7235 36.1396 22.5342 36.1216V36.1216ZM20.8331 37.4194C20.7026 37.5344 20.645 37.7113 20.6829 37.8811L20.8323 38.5511L20.2418 38.2015C20.1669 38.1571 20.0829 38.1349 19.9988 38.1349C19.9148 38.1349 19.8306 38.1572 19.7556 38.2017L19.1679 38.5502L19.317 37.8811C19.355 37.7112 19.2973 37.5344 19.1668 37.4194L18.6532 36.9671L19.3353 36.9024C19.5085 36.886 19.659 36.7765 19.728 36.6168L19.9995 35.9884L20.2722 36.6172C20.3413 36.7768 20.4918 36.886 20.6647 36.9024L21.3468 36.9671L20.8331 37.4194ZM39.9767 19.2936C39.918 19.1128 39.7574 18.9841 39.5681 18.9661L38.0691 18.824L37.4703 17.4426C37.3948 17.2681 37.2229 17.1553 37.0327 17.1553H37.0325C36.8423 17.1554 36.6704 17.2685 36.5949 17.443L35.9981 18.824L34.4995 18.9661C34.3102 18.9841 34.1496 19.1128 34.091 19.2936C34.0323 19.4746 34.0866 19.6731 34.2293 19.7988L35.3585 20.7933L35.0308 22.2613C34.9894 22.447 35.0622 22.6394 35.216 22.7512C35.3698 22.8628 35.5753 22.8726 35.7391 22.7758L37.0329 22.0105L38.3289 22.776C38.4039 22.8204 38.4878 22.8423 38.5714 22.8423C38.6701 22.8423 38.7685 22.8116 38.8518 22.7512C39.0056 22.6394 39.0783 22.447 39.0369 22.2614L38.7092 20.7934L39.8383 19.7989C39.981 19.6732 40.0354 19.4746 39.9767 19.2936ZM37.867 20.2641C37.7365 20.3791 37.679 20.5561 37.7168 20.7259L37.8662 21.395L37.2752 21.0459C37.2005 21.0017 37.1166 20.9797 37.0327 20.9797C36.9488 20.9797 36.8648 21.0018 36.7899 21.0461L36.2017 21.394L36.3509 20.726C36.3888 20.5561 36.3312 20.3791 36.2006 20.2642L35.6869 19.8118L36.369 19.7471C36.5423 19.7307 36.6927 19.6212 36.7618 19.4615L37.0334 18.833L37.306 19.462C37.3751 19.6215 37.5255 19.7308 37.6985 19.7471L38.3807 19.8118L37.867 20.2642L37.867 20.2641ZM4.26125 22.776C4.42489 22.8727 4.63043 22.8629 4.78415 22.7512C4.93795 22.6394 5.01065 22.447 4.96922 22.2614L4.64146 20.7934L5.7706 19.7989C5.91329 19.6732 5.96766 19.4747 5.90893 19.2937C5.85028 19.1129 5.68966 18.9841 5.50038 18.9662L4.00142 18.8241L3.40257 17.4426C3.32702 17.2682 3.15505 17.1553 2.96498 17.1553H2.96466C2.77451 17.1555 2.60262 17.2686 2.52715 17.4431L1.93043 18.8241L0.431873 18.9662C0.242519 18.9841 0.0819729 19.1129 0.0233255 19.2937C-0.0354012 19.4747 0.0189607 19.6732 0.161651 19.7989L1.29079 20.7934L0.963032 22.2614C0.921685 22.4471 0.994459 22.6395 1.14826 22.7512C1.23151 22.8117 1.32984 22.8423 1.42856 22.8423C1.51228 22.8423 1.59617 22.8203 1.67132 22.7758L2.96514 22.0105L4.26125 22.776ZM2.72213 21.046L2.13399 21.3939L2.28319 20.7259C2.32113 20.556 2.26351 20.3791 2.13296 20.2641L1.61926 19.8117L2.30137 19.747C2.47461 19.7306 2.62508 19.6212 2.69412 19.4614L2.96561 18.833L3.23829 19.4619C3.30742 19.6214 3.45788 19.7307 3.63081 19.747L4.31291 19.8117L3.79921 20.2641C3.66867 20.3791 3.61113 20.5561 3.64898 20.7259L3.79834 21.395L3.20742 21.0459C3.13267 21.0017 3.04878 20.9797 2.9649 20.9797C2.88101 20.9797 2.79697 21.0018 2.72205 21.0461L2.72213 21.046ZM7.77628 10.3658L6.27835 10.2256L5.68172 8.84302C5.60641 8.66834 5.43435 8.55518 5.24413 8.55502H5.24381C5.05366 8.55502 4.88169 8.66803 4.80614 8.84246L4.20736 10.2256L2.70904 10.3658C2.51953 10.3836 2.35874 10.5122 2.29994 10.6932C2.24113 10.8741 2.29541 11.0727 2.43818 11.1985L3.5674 12.1931L3.23956 13.6636C3.19822 13.8492 3.27099 14.0416 3.42495 14.1533C3.50812 14.2138 3.60645 14.2442 3.70509 14.2442C3.78882 14.2442 3.87278 14.2222 3.94801 14.1777L5.24365 13.4106L6.53699 14.1775C6.70055 14.2746 6.90609 14.2651 7.06029 14.1534C7.21425 14.0417 7.2871 13.8492 7.24576 13.6635L6.91792 12.193L8.04714 11.1984C8.18991 11.0727 8.24419 10.874 8.18538 10.6931C8.12658 10.5121 7.96571 10.3836 7.77628 10.3658ZM6.07582 11.6637C5.94528 11.7787 5.88774 11.9557 5.9256 12.1254L6.07479 12.7946L5.48713 12.446C5.33722 12.3572 5.1508 12.3572 5.00089 12.4458L4.41045 12.7954L4.5598 12.1254C4.59774 11.9556 4.54012 11.7787 4.40957 11.6637L3.89738 11.2126L4.57734 11.1489C4.75074 11.1327 4.90145 11.0233 4.97057 10.8635L5.24318 10.234L5.51459 10.863C5.58363 11.0231 5.7345 11.1326 5.90806 11.1489L6.58802 11.2126L6.07582 11.6637ZM9.27206 5.60573L8.94248 7.07383C8.90082 7.25953 8.97351 7.45222 9.12739 7.56412C9.21064 7.62467 9.30905 7.65522 9.40785 7.65522C9.49157 7.65522 9.57562 7.63316 9.65077 7.58864L10.9465 6.82146L12.2423 7.58864C12.406 7.68554 12.6118 7.67602 12.7657 7.56404C12.9195 7.45214 12.9922 7.25945 12.9506 7.07375L12.621 5.60565L13.7502 4.60904C13.8928 4.48317 13.9469 4.28461 13.8881 4.10375C13.8292 3.92288 13.6684 3.7944 13.479 3.77662L11.981 3.63647L11.3843 2.25583C11.3088 2.08116 11.1368 1.96807 10.9465 1.96807C10.7562 1.96807 10.5842 2.08124 10.5087 2.25583L9.9121 3.63647L8.41402 3.77662C8.22459 3.7944 8.06388 3.92288 8.005 4.10375C7.94611 4.28461 8.00023 4.48317 8.14285 4.60904L9.27206 5.60573ZM10.2822 4.55991C10.4557 4.54372 10.6065 4.43413 10.6756 4.27422L10.9464 3.64742L11.2173 4.27422C11.2864 4.43413 11.4372 4.54372 11.6107 4.55991L12.2921 4.62372L11.7781 5.07727C11.6476 5.19242 11.5903 5.36955 11.6284 5.53931L11.7779 6.2053L11.1893 5.85683C11.1144 5.81247 11.0304 5.79024 10.9463 5.79024C10.8623 5.79024 10.7782 5.81247 10.7033 5.85683L10.1149 6.2053L10.2644 5.53931C10.3025 5.36947 10.2452 5.19242 10.1146 5.07727L9.60062 4.62372L10.2821 4.55991H10.2822ZM32.4954 13.6636C32.454 13.8492 32.5268 14.0416 32.6808 14.1533C32.7639 14.2138 32.8623 14.2442 32.9609 14.2442C33.0446 14.2442 33.1286 14.2222 33.2038 14.1777L34.4995 13.4106L35.7928 14.1775C35.9564 14.2746 36.1619 14.2651 36.3161 14.1534C36.4701 14.0417 36.5429 13.8492 36.5016 13.6635L36.1737 12.193L37.3029 11.1984C37.4457 11.0727 37.5 10.874 37.4412 10.6931C37.3824 10.5121 37.2215 10.3835 37.0321 10.3657L35.5342 10.2256L34.9375 8.84294C34.8622 8.66827 34.6902 8.5551 34.4999 8.55494H34.4996C34.3095 8.55494 34.1375 8.66795 34.0619 8.84238L33.4632 10.2255L31.9648 10.3657C31.7753 10.3835 31.6145 10.5121 31.5557 10.6931C31.4969 10.874 31.5512 11.0727 31.694 11.1984L32.8232 12.193L32.4954 13.6636ZM33.8331 11.1489C34.0065 11.1327 34.1572 11.0233 34.2263 10.8635L34.4989 10.234L34.7703 10.863C34.8394 11.0231 34.9902 11.1326 35.1638 11.1489L35.8437 11.2126L35.3316 11.6637C35.201 11.7787 35.1435 11.9557 35.1813 12.1254L35.3305 12.7946L34.7429 12.446C34.593 12.3572 34.4066 12.3572 34.2566 12.4458L33.6662 12.7954L33.8155 12.1254C33.8535 11.9556 33.7958 11.7787 33.6653 11.6637L33.1531 11.2126L33.8331 11.1489ZM27.1205 5.60589L26.7927 7.07438C26.7513 7.26001 26.8241 7.45262 26.9782 7.56428C27.1321 7.67602 27.3378 7.68546 27.5015 7.58848L28.7948 6.82154L30.0904 7.58864C30.1655 7.63316 30.2495 7.65522 30.3333 7.65522C30.432 7.65522 30.5305 7.62459 30.6137 7.56412C30.7676 7.45222 30.8403 7.25953 30.7986 7.07383L30.4691 5.60597L31.6002 4.60936C31.743 4.48357 31.7972 4.28493 31.7384 4.10407C31.6795 3.92312 31.5188 3.79448 31.3293 3.7767L29.8308 3.63647L29.2322 2.25543C29.1567 2.081 28.9848 1.96815 28.7946 1.96815H28.7944C28.6043 1.96831 28.4323 2.0814 28.3568 2.25591L27.7602 3.63655L26.2621 3.7767C26.0727 3.79448 25.912 3.92296 25.8531 4.10383C25.7942 4.28469 25.8483 4.48325 25.9909 4.60912L27.1204 5.60597L27.1205 5.60589ZM28.1304 4.55983C28.3039 4.54364 28.4547 4.43405 28.5238 4.27414L28.7954 3.64568L29.068 4.27461C29.1372 4.43429 29.2879 4.54364 29.4611 4.55983L30.1412 4.62348L29.6267 5.07695C29.496 5.19202 29.4384 5.36932 29.4766 5.53923L29.6261 6.20522L29.0376 5.85675C28.8876 5.76787 28.7013 5.76794 28.5514 5.85691L27.9641 6.20522L28.1129 5.53867C28.1507 5.36908 28.0933 5.19226 27.9629 5.07727L27.4489 4.62372L28.1304 4.55983ZM13.9108 33.5614L12.4124 33.4211L11.8137 32.0402C11.7382 31.8657 11.5662 31.7529 11.3761 31.7529H11.3759C11.1858 31.7531 11.0139 31.8661 10.9383 32.0407L10.3417 33.4212L8.8436 33.5614C8.65416 33.5792 8.49346 33.7076 8.43457 33.8885C8.37569 34.0694 8.42981 34.2679 8.57242 34.3938L9.70188 35.3906L9.37404 36.8591C9.33262 37.0448 9.40547 37.2374 9.55951 37.349C9.64268 37.4094 9.74092 37.44 9.83957 37.44C9.92345 37.44 10.0075 37.4179 10.0827 37.3732L11.3761 36.6063L12.6717 37.3734C12.8354 37.4703 13.0412 37.4608 13.1951 37.3488C13.349 37.2369 13.4217 37.0442 13.38 36.8585L13.0505 35.3906L14.1815 34.394C14.3243 34.2682 14.3786 34.0696 14.3198 33.8887C14.2609 33.7078 14.1001 33.5792 13.9107 33.5614H13.9108ZM12.2082 34.8617C12.0775 34.9768 12.0199 35.1541 12.0581 35.324L12.2076 35.99L11.6191 35.6415C11.4691 35.5526 11.2828 35.5527 11.1329 35.6417L10.5456 35.99L10.6944 35.3235C10.7323 35.1538 10.6748 34.977 10.5444 34.862L10.0304 34.4085L10.7119 34.3447C10.8854 34.3285 11.0362 34.2189 11.1053 34.059L11.3769 33.4306L11.6495 34.0594C11.7187 34.2192 11.8694 34.3285 12.0426 34.3447L12.7227 34.4083L12.2082 34.8618V34.8617ZM7.71604 26.9747L6.21748 26.8325L5.62077 25.4516C5.5453 25.277 5.37325 25.1638 5.18294 25.1638C4.99263 25.1638 4.82066 25.277 4.74511 25.4516L4.14832 26.8325L2.64976 26.9747C2.4604 26.9926 2.29986 27.1213 2.24121 27.3022C2.18248 27.4831 2.23685 27.6816 2.37954 27.8073L3.50836 28.8015L3.17893 30.2694C3.13727 30.4551 3.20996 30.6478 3.36384 30.7597C3.51764 30.8715 3.7235 30.8813 3.88722 30.7843L5.18294 30.0171L6.47866 30.7843C6.55381 30.8288 6.63778 30.8509 6.72158 30.8509C6.8203 30.8509 6.91879 30.8202 7.00204 30.7598C7.15592 30.6479 7.22861 30.4552 7.18695 30.2695L6.85744 28.8016L7.98627 27.8074C8.12896 27.6817 8.18332 27.4832 8.12459 27.3023C8.06594 27.1214 7.90532 26.9927 7.71604 26.9747V26.9747ZM6.01496 28.2725C5.88433 28.3877 5.82671 28.565 5.86488 28.7349L6.0144 29.4009L5.42594 29.0524C5.27619 28.9638 5.08977 28.9638 4.94002 29.0524L4.35148 29.4009L4.501 28.7349C4.53917 28.5649 4.48163 28.3877 4.35093 28.2725L3.83723 27.8202L4.51933 27.7555C4.69257 27.7391 4.84304 27.6296 4.91208 27.4699L5.18294 26.8431L5.45372 27.4699C5.52276 27.6296 5.67331 27.7391 5.84647 27.7555L6.52858 27.8202L6.01496 28.2725ZM31.1854 33.5614L29.6873 33.4212L29.0907 32.0407C29.0152 31.866 28.8431 31.7529 28.6528 31.7529C28.4625 31.7529 28.2905 31.8661 28.215 32.0407L27.6184 33.4212L26.1204 33.5614C25.9309 33.5792 25.7702 33.7076 25.7113 33.8885C25.6524 34.0694 25.7066 34.2679 25.8492 34.3938L26.9783 35.3904L26.6488 36.8585C26.6071 37.0442 26.6798 37.2369 26.8337 37.3488C26.9876 37.4606 27.1933 37.4704 27.3571 37.3734L28.6528 36.6062L29.9485 37.3734C30.0237 37.4179 30.1077 37.44 30.1915 37.44C30.2902 37.44 30.3887 37.4093 30.4719 37.3489C30.6258 37.237 30.6985 37.0443 30.6568 36.8586L30.3273 35.3905L31.4565 34.3939C31.5992 34.268 31.6533 34.0694 31.5944 33.8886C31.5355 33.7077 31.3747 33.5792 31.1854 33.5615V33.5614ZM29.4846 34.8619C29.3541 34.9771 29.2968 35.1542 29.3348 35.324L29.4844 35.99L28.8958 35.6415C28.821 35.5971 28.7369 35.5749 28.6528 35.5749C28.5688 35.5749 28.4847 35.5971 28.4098 35.6415L27.8213 35.99L27.9708 35.324C28.0089 35.1541 27.9516 34.9771 27.821 34.8619L27.3071 34.4084L27.9886 34.3446C28.1621 34.3284 28.3128 34.2188 28.382 34.0589L28.6527 33.4322L28.9236 34.0589C28.9927 34.2188 29.1435 34.3284 29.317 34.3446L29.9985 34.4084L29.4844 34.8619H29.4846ZM37.3813 26.9747L35.8823 26.8325L35.2835 25.4511C35.208 25.2767 35.0361 25.1638 34.8459 25.1638H34.8457C34.6556 25.164 34.4836 25.2771 34.4081 25.4516L33.8113 26.8325L32.3128 26.9747C32.1234 26.9926 31.9629 27.1213 31.9042 27.3022C31.8455 27.4831 31.8999 27.6816 32.0425 27.8073L33.1717 28.8019L32.844 30.27C32.8026 30.4557 32.8754 30.6483 33.0295 30.7599C33.1126 30.8203 33.2109 30.8509 33.3095 30.8509C33.3934 30.8509 33.4775 30.8288 33.5527 30.7841L34.846 30.0172L36.1416 30.7843C36.3053 30.8813 36.511 30.8717 36.665 30.7597C36.8189 30.6477 36.8915 30.4551 36.8499 30.2694L36.5205 28.8019L37.6511 27.8076C37.7939 27.6819 37.8485 27.4834 37.7898 27.3024C37.7312 27.1215 37.5705 26.9927 37.3812 26.9747H37.3813ZM35.6784 28.2724C35.5475 28.3875 35.4898 28.5649 35.528 28.735L35.6775 29.401L35.0889 29.0525C34.9389 28.9636 34.7526 28.9637 34.6027 29.0526L34.0154 29.401L34.1642 28.7344C34.2021 28.5647 34.1445 28.3877 34.0139 28.2727L33.5002 27.8203L34.1823 27.7557C34.3556 27.7392 34.506 27.6298 34.5751 27.47L34.8467 26.8417L35.1193 27.4705C35.1884 27.63 35.3388 27.7393 35.5118 27.7557L36.1926 27.8202L35.6784 28.2725V28.2724ZM13.8687 15.6525C12.4323 15.6525 11.2637 16.8212 11.2637 18.2575V26.1807C11.2637 27.6171 12.4324 28.7857 13.8687 28.7857H26.1312C27.5676 28.7857 28.7362 27.617 28.7362 26.1807V18.2575C28.7362 16.8211 27.5676 15.6525 26.1312 15.6525H25.7532C25.7615 15.5281 25.7668 15.404 25.7668 15.2813V13.6796C25.7668 10.5003 23.1793 7.91386 19.9988 7.91386C16.8183 7.91386 14.2331 10.5004 14.2331 13.6796V15.2813C14.2331 15.404 14.2384 15.5281 14.2467 15.6525H13.8687ZM27.7823 18.2575V26.1807C27.7823 27.0912 27.0416 27.8318 26.1311 27.8318H13.8687C12.9582 27.8318 12.2175 27.0912 12.2175 26.1807V18.2575C12.2175 17.347 12.9582 16.6063 13.8687 16.6063H26.1312C27.0417 16.6063 27.7824 17.347 27.7824 18.2575H27.7823ZM22.2709 15.6525H17.729V13.6797C17.729 12.4268 18.7472 11.4076 19.9989 11.4076C21.2506 11.4076 22.271 12.4268 22.271 13.6797V15.6525H22.2709ZM15.187 15.2813V13.6796C15.187 11.0262 17.3455 8.8677 19.9988 8.8677C22.6521 8.8677 24.8129 11.0262 24.8129 13.6796V15.2813C24.8129 15.4037 24.8077 15.5277 24.7977 15.6525H23.2248V13.6797C23.2248 11.9009 21.7777 10.4537 19.9989 10.4537C18.2201 10.4537 16.7752 11.9009 16.7752 13.6797V15.6525H15.2023C15.1923 15.5277 15.1871 15.4037 15.1871 15.2813H15.187ZM18.6738 23.2289V24.8916C18.6738 25.6223 19.2682 26.2167 19.9988 26.2167C20.7294 26.2167 21.3261 25.6223 21.3261 24.8916V23.2288C22.1569 22.7577 22.6781 21.8757 22.6781 20.9009C22.6781 19.4236 21.4761 18.2216 19.9988 18.2216C18.5215 18.2216 17.3195 19.4236 17.3195 20.9009C17.3195 21.8753 17.8417 22.7575 18.6737 23.2289H18.6738ZM19.9988 19.1755C20.9502 19.1755 21.7242 19.9495 21.7242 20.9009C21.7242 21.5997 21.3088 22.2243 20.6658 22.492C20.4881 22.566 20.3722 22.7397 20.3722 22.9323V24.8916C20.3722 25.0929 20.2013 25.2629 19.9988 25.2629C19.7976 25.2629 19.6276 25.0929 19.6276 24.8916V22.9323C19.6276 22.7397 19.5118 22.566 19.3341 22.492C18.6898 22.2236 18.2734 21.5991 18.2734 20.9009C18.2734 19.9495 19.0474 19.1755 19.9988 19.1755Z" fill="#9775F6"/>
</svg>
