<svg width="50" height="50" viewBox="0 0 50 50" fill="none" xmlns="http://www.w3.org/2000/svg">
<path d="M37.9609 16.2021C38.4139 16.2021 38.7812 15.8349 38.7812 15.3818V6.46094C38.7812 5.10398 37.6773 4 36.3203 4H6.46094C5.10398 4 4 5.10398 4 6.46094V43.5391C4 44.896 5.10398 46 6.46094 46H36.3203C37.6773 46 38.7812 44.896 38.7812 43.5391V37.4957C38.7812 37.0426 38.4139 36.6753 37.9609 36.6753C37.508 36.6753 37.1406 37.0426 37.1406 37.4957V43.5391C37.1406 43.9914 36.7726 44.3594 36.3203 44.3594H6.46094C6.00862 44.3594 5.64062 43.9914 5.64062 43.5391V6.46094C5.64062 6.00862 6.00862 5.64062 6.46094 5.64062H36.3203C36.7726 5.64062 37.1406 6.00862 37.1406 6.46094V15.3818C37.1406 15.8349 37.508 16.2021 37.9609 16.2021Z" fill="#9775F6"/>
<path d="M21.3906 8.42969C17.2293 8.42969 13.8438 11.8152 13.8438 15.9766C13.8438 18.1354 14.7551 20.0851 16.213 21.4619C16.2403 21.4911 16.2693 21.5188 16.3011 21.5439C17.644 22.7727 19.4312 23.5234 21.3905 23.5234C23.3499 23.5234 25.1371 22.7726 26.48 21.5439C26.5118 21.5188 26.5408 21.491 26.5681 21.4619C28.0261 20.0851 28.9375 18.1354 28.9375 15.9766C28.9375 11.8152 25.552 8.42969 21.3906 8.42969ZM21.3906 21.8828C20.0511 21.8828 18.8149 21.4339 17.823 20.6796C18.544 19.4011 19.8894 18.6016 21.3906 18.6016C22.8919 18.6016 24.2373 19.4011 24.9582 20.6796C23.9662 21.4339 22.7301 21.8828 21.3906 21.8828ZM20.0781 15.6484V15.1152C20.0781 14.3916 20.6669 13.8027 21.3906 13.8027C22.1143 13.8027 22.7031 14.3916 22.7031 15.1152V15.6484C22.7031 16.3721 22.1143 16.9609 21.3906 16.9609C20.6669 16.9609 20.0781 16.3721 20.0781 15.6484ZM26.1435 19.4779C25.5385 18.5806 24.7001 17.8828 23.7266 17.452C24.113 16.9527 24.3438 16.3272 24.3438 15.6484V15.1152C24.3438 13.4868 23.019 12.1621 21.3906 12.1621C19.7622 12.1621 18.4375 13.4868 18.4375 15.1152V15.6484C18.4375 16.3272 18.6683 16.9527 19.0546 17.452C18.0812 17.8828 17.2427 18.5806 16.6377 19.4779C15.9135 18.4974 15.4844 17.2864 15.4844 15.9766C15.4844 12.7198 18.1339 10.0703 21.3906 10.0703C24.6473 10.0703 27.2969 12.7198 27.2969 15.9766C27.2969 17.2864 26.8678 18.4974 26.1435 19.4779Z" fill="#9775F6"/>
<path d="M25.8203 39.9297H21.3906C20.9376 39.9297 20.5703 40.2969 20.5703 40.75C20.5703 41.2031 20.9376 41.5703 21.3906 41.5703H25.8203C26.2733 41.5703 26.6406 41.2031 26.6406 40.75C26.6406 40.2969 26.2733 39.9297 25.8203 39.9297Z" fill="#9775F6"/>
<path d="M25.8203 35.3359H14.1719C13.7189 35.3359 13.3516 35.7032 13.3516 36.1562C13.3516 36.6093 13.7189 36.9766 14.1719 36.9766H25.8203C26.2733 36.9766 26.6406 36.6093 26.6406 36.1562C26.6406 35.7032 26.2733 35.3359 25.8203 35.3359Z" fill="#9775F6"/>
<path d="M25.8203 30.7422H14.1719C13.7189 30.7422 13.3516 31.1094 13.3516 31.5625C13.3516 32.0156 13.7189 32.3828 14.1719 32.3828H25.8203C26.2733 32.3828 26.6406 32.0156 26.6406 31.5625C26.6406 31.1094 26.2733 30.7422 25.8203 30.7422Z" fill="#9775F6"/>
<path d="M11.2487 26.3888C11.0962 26.2362 10.8845 26.1484 10.668 26.1484C10.4521 26.1484 10.2405 26.2362 10.088 26.3888C9.93543 26.5414 9.84766 26.753 9.84766 26.9688C9.84766 27.1845 9.93535 27.3961 10.088 27.5487C10.2414 27.7013 10.4521 27.7891 10.668 27.7891C10.8845 27.7891 11.0954 27.7013 11.2487 27.5487C11.4012 27.3961 11.4891 27.1845 11.4891 26.9688C11.4891 26.753 11.4013 26.5414 11.2487 26.3888Z" fill="#9775F6"/>
<path d="M11.2487 30.9825C11.0954 30.83 10.8845 30.7422 10.668 30.7422C10.4521 30.7422 10.2414 30.83 10.088 30.9825C9.93543 31.1351 9.84766 31.3468 9.84766 31.5625C9.84766 31.7782 9.93535 31.9899 10.088 32.1425C10.2414 32.295 10.4521 32.3828 10.668 32.3828C10.8845 32.3828 11.0954 32.295 11.2487 32.1425C11.4012 31.9899 11.4891 31.7782 11.4891 31.5625C11.4891 31.3468 11.4013 31.1351 11.2487 30.9825Z" fill="#9775F6"/>
<path d="M11.2487 35.5763C11.0954 35.4237 10.8845 35.3359 10.668 35.3359C10.4521 35.3359 10.2414 35.4237 10.088 35.5763C9.93543 35.7289 9.84766 35.9405 9.84766 36.1562C9.84766 36.372 9.93535 36.5836 10.088 36.7362C10.2405 36.8888 10.4521 36.9766 10.668 36.9766C10.8845 36.9766 11.0962 36.8888 11.2487 36.7362C11.4012 36.5836 11.4891 36.372 11.4891 36.1562C11.4891 35.9405 11.4013 35.7289 11.2487 35.5763Z" fill="#9775F6"/>
<path d="M25.8203 26.1484H14.1719C13.7189 26.1484 13.3516 26.5157 13.3516 26.9688C13.3516 27.4218 13.7189 27.7891 14.1719 27.7891H25.8203C26.2733 27.7891 26.6406 27.4218 26.6406 26.9688C26.6406 26.5157 26.2733 26.1484 25.8203 26.1484Z" fill="#9775F6"/>
<path d="M41.6006 14.1035C42.5537 13.8482 43.5509 13.9794 44.4053 14.4727C46.17 15.4916 46.7768 17.7567 45.7578 19.5215L35.4346 37.4004C35.3608 37.5284 35.2614 37.64 35.1426 37.7275L29.8691 41.6113C29.6813 41.7497 29.4581 41.8193 29.2344 41.8193C29.0502 41.8193 28.8652 41.7725 28.6992 41.6768V41.6758C28.3312 41.4631 28.1239 41.0533 28.1709 40.6309L28.8975 34.1221C28.9138 33.9753 28.9606 33.8337 29.0342 33.7061V33.7051L39.3574 15.8252C39.8506 14.9711 40.6479 14.3589 41.6006 14.1035ZM30.5693 38.4365L32.5557 36.9736L30.8428 35.9854L30.5693 38.4365ZM31.4229 33.8477L34.1152 35.4033L42.1494 21.4883L39.457 19.9336L31.4229 33.8477ZM43.335 16.3271C42.9751 16.1193 42.5569 16.0643 42.1553 16.1719C41.7538 16.2794 41.4188 16.5357 41.2109 16.8955L40.5264 18.0801L43.2197 19.6338L43.9033 18.4502C44.1111 18.0902 44.1662 17.672 44.0586 17.2705C43.9509 16.8693 43.6946 16.5349 43.335 16.3271Z" fill="#9775F6" stroke="#9775F6" stroke-width="0.5"/>
</svg>
