<svg width="50" height="50" viewBox="0 0 50 50" fill="none" xmlns="http://www.w3.org/2000/svg">
<path d="M42.2857 6.14286H36V4.57143C36 4.15466 35.8344 3.75496 35.5397 3.46026C35.245 3.16556 34.8453 3 34.4286 3C34.0118 3 33.6121 3.16556 33.3174 3.46026C33.0227 3.75496 32.8571 4.15466 32.8571 4.57143V6.14286H17.1429V4.57143C17.1429 4.15466 16.9773 3.75496 16.6826 3.46026C16.3879 3.16556 15.9882 3 15.5714 3C15.1547 3 14.755 3.16556 14.4603 3.46026C14.1656 3.75496 14 4.15466 14 4.57143V6.14286H7.71429C6.46398 6.14286 5.26488 6.63954 4.38078 7.52364C3.49668 8.40774 3 9.60684 3 10.8571V42.2857C3 43.536 3.49668 44.7351 4.38078 45.6192C5.26488 46.5033 6.46398 47 7.71429 47H42.2857C43.536 47 44.7351 46.5033 45.6192 45.6192C46.5033 44.7351 47 43.536 47 42.2857V10.8571C47 9.60684 46.5033 8.40774 45.6192 7.52364C44.7351 6.63954 43.536 6.14286 42.2857 6.14286ZM7.71429 9.28571H42.2857C42.7025 9.28571 43.1022 9.45128 43.3969 9.74598C43.6916 10.0407 43.8571 10.4404 43.8571 10.8571V15.5714H6.14286V10.8571C6.14286 10.4404 6.30842 10.0407 6.60312 9.74598C6.89782 9.45128 7.29752 9.28571 7.71429 9.28571ZM42.2857 43.8571H7.71429C7.29752 43.8571 6.89782 43.6916 6.60312 43.3969C6.30842 43.1022 6.14286 42.7025 6.14286 42.2857V18.7143H43.8571V42.2857C43.8571 42.7025 43.6916 43.1022 43.3969 43.3969C43.1022 43.6916 42.7025 43.8571 42.2857 43.8571Z" fill="#9775F6"/>
<path d="M31.8373 23.8109L21.9373 32.2967L18.2508 28.6117C17.9544 28.3254 17.5574 28.167 17.1454 28.1706C16.7334 28.1742 16.3393 28.3394 16.0479 28.6308C15.7566 28.9222 15.5913 29.3163 15.5877 29.7283C15.5841 30.1403 15.7425 30.5373 16.0288 30.8337L20.7431 35.5479C21.023 35.8275 21.398 35.9911 21.7933 36.0063C22.1885 36.0214 22.575 35.8869 22.8755 35.6297L33.8755 26.2011C34.0411 26.0698 34.1785 25.9064 34.2795 25.7207C34.3804 25.5351 34.4429 25.3309 34.4632 25.1206C34.4835 24.9102 34.4611 24.6979 34.3974 24.4964C34.3337 24.2948 34.23 24.1082 34.0926 23.9477C33.9551 23.7872 33.7867 23.656 33.5973 23.5621C33.408 23.4682 33.2017 23.4134 32.9907 23.4011C32.7797 23.3888 32.5684 23.4191 32.3694 23.4904C32.1704 23.5616 31.9879 23.6722 31.8326 23.8157L31.8373 23.8109Z" fill="#9775F6"/>
</svg>
