<svg width="50" height="50" viewBox="0 0 50 50" fill="none" xmlns="http://www.w3.org/2000/svg">
<path d="M24.9998 40.2308C24.8193 40.2308 24.6388 40.2014 24.465 40.1428C16.3623 37.4418 9.76904 28.2944 9.76904 19.7538V18.2082C9.76904 9.82113 16.5902 3 24.9772 3H25.0224C33.4095 3 40.2306 9.82113 40.2306 18.2082V19.7538C40.2306 28.2944 33.6396 37.4418 25.5346 40.1428C25.3608 40.2014 25.1803 40.2308 24.9998 40.2308ZM24.9772 6.38462C18.4562 6.38462 13.1537 11.6894 13.1537 18.2082V19.7538C13.1537 26.6404 18.5239 34.2761 24.9998 36.7401C31.4757 34.2738 36.846 26.6382 36.846 19.7538V18.2082C36.846 11.6872 31.5411 6.38462 25.0224 6.38462H24.9772Z" fill="#9775F6"/>
<path d="M25.0011 24.4323C20.9576 24.4323 17.6677 21.1424 17.6677 17.099C17.6677 13.0555 20.9576 9.76562 25.0011 9.76562C29.0445 9.76562 32.3344 13.0555 32.3344 17.099C32.3344 21.1424 29.0445 24.4323 25.0011 24.4323ZM25.0011 13.1502C22.8236 13.1502 21.0523 14.9215 21.0523 17.099C21.0523 19.2764 22.8236 21.0477 25.0011 21.0477C27.1785 21.0477 28.9498 19.2764 28.9498 17.099C28.9498 14.9215 27.1785 13.1502 25.0011 13.1502Z" fill="#9775F6"/>
<path d="M42.1725 47.0012H7.82989C6.55501 47.0012 5.35235 46.3852 4.61224 45.3563C3.8744 44.3274 3.67583 42.9938 4.08424 41.7889L7.08301 32.77C7.64937 31.1499 9.1544 30.0781 10.8332 30.0781H15.9101C16.8442 30.0781 17.6024 30.8363 17.6024 31.7704C17.6024 32.7046 16.8442 33.4627 15.9101 33.4627H10.8332C10.594 33.4627 10.3683 33.6275 10.2871 33.8644L7.29512 42.8652C7.20937 43.1134 7.30189 43.2939 7.36507 43.3819C7.42824 43.4699 7.57266 43.6166 7.8344 43.6166H42.177C42.4364 43.6166 42.5831 43.4699 42.6463 43.3819C42.7072 43.2939 42.7997 43.1134 42.7185 42.872L39.713 33.8396C39.6385 33.6275 39.4151 33.4627 39.1759 33.4627H34.099C33.1649 33.4627 32.4067 32.7046 32.4067 31.7704C32.4067 30.8363 33.1649 30.0781 34.099 30.0781H39.1759C40.8547 30.0781 42.3597 31.1499 42.9171 32.7475L45.9271 41.7979C46.331 42.9938 46.1325 44.3274 45.3946 45.3563C44.6545 46.3875 43.4518 47.0012 42.177 47.0012H42.1725Z" fill="#9775F6"/>
</svg>
