<svg width="50" height="50" viewBox="0 0 50 50" fill="none" xmlns="http://www.w3.org/2000/svg">
<path d="M42.1374 13.6024H39.1246V10.6017C39.1246 6.95995 36.1528 4 32.4964 4H8.39383C4.73747 4 1.76562 6.95995 1.76562 10.6017V32.3992C1.76562 33.4987 2.36819 34.5093 3.33711 35.0351C3.79024 35.2799 4.28434 35.4 4.77845 35.4C5.34968 35.4 5.92091 35.2391 6.41983 34.915L10.7969 32.0895C10.9873 31.9671 11.197 31.8855 11.4067 31.8087V34.6078C11.4067 38.2495 14.3785 41.2094 18.0349 41.2094H36.671C38.187 41.2094 39.6597 41.6439 40.9347 42.4626L44.1114 44.5151C44.6103 44.8392 45.1792 45 45.7528 45C46.2469 45 46.741 44.8776 47.1941 44.6351C48.1631 44.1094 48.7656 43.0987 48.7656 41.9992V20.2017C48.7656 16.56 45.7938 13.6024 42.1374 13.6024ZM8.82768 29.0696L5.38101 31.2949V10.6017C5.38101 8.94765 6.73316 7.60091 8.39383 7.60091H32.4964C34.1571 7.60091 35.5092 8.94765 35.5092 10.6017V25.0053C35.5092 26.6593 34.1571 28.0061 32.4964 28.0061H12.4334C11.1488 28.0061 9.90024 28.3734 8.82768 29.0696ZM45.1502 40.895L42.8991 39.4426C41.0408 38.2447 38.886 37.6085 36.671 37.6085H18.0349C16.3742 37.6085 15.022 36.2618 15.022 34.6078V31.607H32.4964C36.1528 31.607 39.1246 28.6471 39.1246 25.0053V17.2033H42.1374C43.7981 17.2033 45.1502 18.5501 45.1502 20.2041V40.895Z" fill="#9775F6"/>
</svg>
