<svg width="50" height="50" viewBox="0 0 50 50" fill="none" xmlns="http://www.w3.org/2000/svg">
<path d="M32.9094 22.0469C32.9094 21.1408 32.1749 20.4062 31.2688 20.4062H14.3704C13.4642 20.4062 12.7297 21.1408 12.7297 22.0469C12.7297 22.953 13.4642 23.6875 14.3704 23.6875H31.2688C32.1749 23.6875 32.9094 22.953 32.9094 22.0469Z" fill="#9775F6"/>
<path d="M14.3704 26.9688C13.4642 26.9688 12.7297 27.7033 12.7297 28.6094C12.7297 29.5155 13.4642 30.25 14.3704 30.25H24.6334C25.5395 30.25 26.274 29.5155 26.274 28.6094C26.274 27.7033 25.5395 26.9688 24.6334 26.9688H14.3704Z" fill="#9775F6"/>
<path d="M18.2258 42.7187H12.7388C10.9295 42.7187 9.45752 41.2468 9.45752 39.4375V10.5625C9.45752 8.75322 10.9295 7.28125 12.7388 7.28125H32.9094C34.7186 7.28125 36.1906 8.75322 36.1906 10.5625V20.6523C36.1906 21.5585 36.9251 22.293 37.8312 22.293C38.7373 22.293 39.4719 21.5585 39.4719 20.6523V10.5625C39.4719 6.94394 36.5279 4 32.9094 4H12.7388C9.12021 4 6.17627 6.94394 6.17627 10.5625V39.4375C6.17627 43.0561 9.12021 46 12.7388 46H18.2258C19.1319 46 19.8664 45.2655 19.8664 44.3594C19.8664 43.4533 19.1319 42.7187 18.2258 42.7187Z" fill="#9775F6"/>
<path d="M42.378 27.752C40.459 25.8329 37.3366 25.8329 35.4188 27.7507L26.4115 36.738C26.2202 36.9289 26.0791 37.164 26.0005 37.4226L24.0389 43.8805C23.865 44.453 24.0165 45.0748 24.4344 45.503C24.7474 45.8239 25.1726 45.998 25.6088 45.998C25.7547 45.998 25.9021 45.9785 26.0467 45.9384L32.6687 44.1041C32.9412 44.0286 33.1896 43.884 33.3897 43.6842L42.3781 34.7127C44.2972 32.7936 44.2972 29.6712 42.378 27.752ZM31.377 41.0571L28.0455 41.98L29.0205 38.7702L35.0981 32.706L37.4188 35.0267L31.377 41.0571ZM40.0591 32.3915L39.7412 32.7087L37.421 30.3885L37.7378 30.0723C38.3775 29.4326 39.4183 29.4326 40.058 30.0723C40.6976 30.712 40.6976 31.7528 40.0591 32.3915Z" fill="#9775F6"/>
<path d="M31.2688 13.8438H14.3704C13.4642 13.8438 12.7297 14.5783 12.7297 15.4844C12.7297 16.3905 13.4642 17.125 14.3704 17.125H31.2688C32.1749 17.125 32.9094 16.3905 32.9094 15.4844C32.9094 14.5783 32.1749 13.8438 31.2688 13.8438Z" fill="#9775F6"/>
</svg>
