<svg width="50" height="50" viewBox="0 0 50 50" fill="none" xmlns="http://www.w3.org/2000/svg">
<path d="M32.3548 21.9329C32.965 21.3227 32.965 20.3335 32.3548 19.7233C31.7446 19.1131 30.7554 19.1131 30.1452 19.7233L22.9167 26.9517L19.8548 23.89C19.2447 23.2798 18.2553 23.2798 17.6451 23.89C17.035 24.5002 17.035 25.4894 17.6451 26.0996L21.8119 30.2662C22.1048 30.5594 22.5023 30.724 22.9167 30.724C23.331 30.724 23.7285 30.5594 24.0215 30.2662L32.3548 21.9329Z" fill="#9775F6"/>
<path fill-rule="evenodd" clip-rule="evenodd" d="M29.4243 4.63067C26.6383 3.23769 23.3591 3.23769 20.5732 4.63067L9.93653 9.94896C7.99559 10.9194 6.76953 12.9033 6.76953 15.0733V30.7961C6.76953 34.2082 8.52722 37.3794 11.4206 39.1877L21.9622 45.7763C23.8199 46.9373 26.1775 46.9373 28.0352 45.7763L38.5768 39.1877C41.4702 37.3794 43.2279 34.2082 43.2279 30.7961V15.0733C43.2279 12.9033 42.0018 10.9194 40.0608 9.94899L29.4243 4.63067ZM21.9708 7.42576C23.8768 6.47267 26.1206 6.47267 28.0266 7.42576L38.6633 12.7441C39.5456 13.1852 40.1029 14.0869 40.1029 15.0733V30.7961C40.1029 33.1307 38.9002 35.3004 36.9206 36.5377L26.3789 43.1263C25.5345 43.654 24.4629 43.654 23.6185 43.1263L13.0768 36.5377C11.0972 35.3004 9.89453 33.1307 9.89453 30.7961V15.0733C9.89453 14.0869 10.4518 13.1852 11.3341 12.7441L21.9708 7.42576Z" fill="#9775F6"/>
</svg>
