<svg width="50" height="50" viewBox="0 0 50 50" fill="none" xmlns="http://www.w3.org/2000/svg">
<path d="M37.622 5H26.6697H15.1079C12.3264 5.00512 10.0691 7.25177 10.0508 10.0333V39.9665C10.0691 42.748 12.3264 44.9946 15.1079 44.9998H37.6363C38.2549 45.0089 38.8514 44.7707 39.2935 44.3379C39.7152 43.9045 39.9511 43.3236 39.9506 42.7188V7.32856C39.948 6.04357 38.907 5.00262 37.622 5ZM27.6316 6.90475H33.2268V15.838L31.2411 12.6714C31.1607 12.5373 31.0485 12.4251 30.9145 12.3447C30.4634 12.0741 29.8784 12.2203 29.6078 12.6714L27.6316 15.8237V6.90475ZM11.9793 10.0333C11.9872 8.30867 13.3833 6.91261 15.1079 6.90475H25.7269V16.619C25.691 17.3922 26.1765 18.094 26.9126 18.3333C27.7507 18.5856 28.5031 18.0428 28.9507 17.3285L30.4316 14.9476L31.9126 17.3285C32.3554 18.0333 33.1078 18.5761 33.9697 18.3333C34.7023 18.0949 35.1868 17.3983 35.1554 16.6285V6.92856H37.6363C37.8562 6.93118 38.0337 7.10868 38.0363 7.32856V34.9468C37.9042 34.9245 37.7704 34.9134 37.6363 34.9141H15.1079C13.9718 34.9138 12.8691 35.2982 11.9793 36.0046V10.0333ZM38.0363 39.0236L16.0793 39.0474C15.5534 39.0474 15.1269 39.4738 15.1269 39.9998C15.1269 40.5257 15.5534 40.9522 16.0793 40.9522L38.0363 40.9284V42.6998C38.0373 42.8063 37.9963 42.9091 37.922 42.9855C37.8456 43.0597 37.7429 43.1007 37.6363 43.0998H15.1079C13.3787 43.0998 11.977 41.698 11.977 39.9688C11.977 38.2397 13.3787 36.8379 15.1079 36.8379H37.6363C37.8562 36.8405 38.0337 37.018 38.0363 37.2379V39.0236Z" fill="#9775F6"/>
</svg>
