<svg width="23" height="23" viewBox="0 0 23 23" fill="none" xmlns="http://www.w3.org/2000/svg">
<path d="M22.5 16.775V21.1951C22.5 21.8514 21.9926 22.3959 21.3381 22.4421C20.7914 22.4807 20.3454 22.5 20 22.5C8.95425 22.5 0 13.5458 0 2.5C0 2.15464 0.0193125 1.70859 0.0579375 1.16188C0.104213 0.50735 0.648675 0 1.30482 0H5.72513C6.04598 0 6.3147 0.243025 6.34691 0.56225C6.37584 0.848837 6.40272 1.07892 6.42759 1.25252C6.68044 3.0184 7.19691 4.6992 7.93587 6.25379C8.05449 6.50331 7.97714 6.80199 7.75231 6.96257L5.05444 8.88975C6.6969 12.7264 9.77362 15.8031 13.6102 17.4456L15.5339 14.7524C15.6965 14.5249 15.9987 14.4466 16.2512 14.5665C17.8057 15.3049 19.4864 15.8208 21.252 16.073C21.4245 16.0977 21.6531 16.1244 21.9377 16.1531C22.257 16.1854 22.5 16.4541 22.5 16.775Z" fill="#9775F6"/>
</svg>
