<svg width="76" height="76" viewBox="0 0 76 76" fill="none" xmlns="http://www.w3.org/2000/svg">
<g clip-path="url(#clip0_975_129048)">
<path d="M26.8672 45.9076V36.7034C21.3443 33.0026 17.9609 26.7339 17.9609 20.0389C17.9609 8.98893 26.9499 0 38 0C49.0501 0 58.0391 8.98893 58.0391 20.0391C58.0391 30.9088 49.3415 39.7845 38.5393 40.0716L26.8672 45.9076Z" fill="#FF5959"/>
<path d="M38.5393 40.0716C49.3415 39.7845 58.0391 30.9088 58.0391 20.0391C58.0391 8.98893 49.0501 0 38 0V40.3412L38.5393 40.0716Z" fill="#E63A57"/>
<path d="M30.0812 68.5041L16.9219 58.6324L19.592 55.0708L27.8112 61.233L31.2859 50.8047L35.5128 52.2137L30.0812 68.5041Z" fill="#3D9CCC"/>
<path d="M35.7734 8.90625H40.2266V22.2656H35.7734V8.90625Z" fill="#F3F5F9"/>
<path d="M40.2266 44.5312H49.1328V48.9844H40.2266V44.5312Z" fill="#FFBE40"/>
<path d="M42.3984 57.0703L50.1092 52.6184L52.3361 56.4754L44.6254 60.9274L42.3984 57.0703Z" fill="#FFBE40"/>
<path d="M35.7734 26.7188H40.2266V31.1719H35.7734V26.7188Z" fill="#F3F5F9"/>
<path d="M11.1328 53.7344C6.22309 53.7344 2.22656 49.7401 2.22656 44.8281C2.22656 39.9162 6.22309 35.9219 11.1328 35.9219C16.0425 35.9219 20.0391 39.9162 20.0391 44.8281C20.0391 49.7401 16.0425 53.7344 11.1328 53.7344Z" fill="#5CCFE6"/>
<path d="M38 8.90625H40.2266V22.2656H38V8.90625Z" fill="#E1E6F0"/>
<path d="M38 26.7188H40.2266V31.1719H38V26.7188Z" fill="#E1E6F0"/>
<path d="M20.0391 44.8281C20.0391 39.9162 16.0425 35.9219 11.1328 35.9219V53.7344C16.0425 53.7344 20.0391 49.7401 20.0391 44.8281Z" fill="#3D9CCC"/>
<path d="M22.2656 76H0V60.4141C0 56.7307 2.99636 53.7344 6.67969 53.7344H15.5859C19.2693 53.7344 22.2656 56.7307 22.2656 60.4141V76Z" fill="#5CCFE6"/>
<path d="M15.5859 53.7344H11.1328V76H22.2656V60.4141C22.2656 56.7307 19.2693 53.7344 15.5859 53.7344Z" fill="#3D9CCC"/>
<path d="M64.8672 53.7344C59.9575 53.7344 55.9609 49.7401 55.9609 44.8281C55.9609 39.9162 59.9575 35.9219 64.8672 35.9219C69.7769 35.9219 73.7734 39.9162 73.7734 44.8281C73.7734 49.7401 69.7769 53.7344 64.8672 53.7344Z" fill="#5CCFE6"/>
<path d="M73.7734 44.8281C73.7734 39.9162 69.7769 35.9219 64.8672 35.9219V53.7344C69.7769 53.7344 73.7734 49.7401 73.7734 44.8281Z" fill="#3D9CCC"/>
<path d="M76 76H53.7344V60.4141C53.7344 56.7307 56.7307 53.7344 60.4141 53.7344H69.3203C73.0036 53.7344 76 56.7307 76 60.4141V76Z" fill="#5CCFE6"/>
<path d="M69.3203 53.7344H64.8672V76H76V60.4141C76 56.7307 73.0036 53.7344 69.3203 53.7344Z" fill="#3D9CCC"/>
</g>
<defs>
<clipPath id="clip0_975_129048">
<rect width="76" height="76" fill="white"/>
</clipPath>
</defs>
</svg>
