<svg width="74" height="74" viewBox="0 0 74 74" fill="none" xmlns="http://www.w3.org/2000/svg">
<path d="M29.6875 43.9375H43.9375V56.4062H29.6875V43.9375Z" fill="url(#paint0_linear_975_128968)"/>
<path d="M29.6875 51.0625C31.3126 52.7927 33.899 54.0312 36.8125 54.0312C39.7925 54.0312 42.3207 52.8604 43.9375 51.0625V73.6256H36.8125H29.6875V51.0625Z" fill="url(#paint1_linear_975_128968)"/>
<path d="M29.6867 51.0625C31.3118 52.7927 33.8982 54.0312 36.8117 54.0312C39.7918 54.0312 42.3199 52.8604 43.9367 51.0625C44.5946 51.208 45.4086 51.4045 46.3266 51.6414C44.9455 54.4148 41.2126 56.4062 36.8117 56.4062C32.4108 56.4062 28.6779 54.4148 27.2969 51.6414C28.2148 51.4045 29.0288 51.2086 29.6867 51.0625Z" fill="url(#paint2_linear_975_128968)"/>
<path d="M19.5938 57.5932L8.90625 56.4062C8.90625 56.4062 2.96875 62.3438 0 73.625H19.5938V57.5932Z" fill="url(#paint3_linear_975_128968)"/>
<path d="M27.3125 50.4688C23.0797 51.4063 12.4159 53.8323 8.90625 56.4062L14.8438 73.625H34.4375L27.3125 50.4688Z" fill="url(#paint4_linear_975_128968)"/>
<path d="M54.0312 57.5932L64.7188 56.4062C64.7188 56.4062 70.6562 62.3438 73.625 73.625H54.0312V57.5932Z" fill="url(#paint5_linear_975_128968)"/>
<path d="M46.3125 50.4688C50.5453 51.4063 61.2091 53.8323 64.7188 56.4062L58.7812 73.625H39.1875L46.3125 50.4688Z" fill="url(#paint6_linear_975_128968)"/>
<path d="M58.1875 30.1963C58.1875 32.8195 56.3267 35.625 54.0312 35.625C51.7358 35.625 49.875 32.8195 49.875 30.1963C49.875 27.5732 51.7358 26.125 54.0312 26.125C56.3267 26.125 58.1875 27.5732 58.1875 30.1963Z" fill="url(#paint7_linear_975_128968)"/>
<path d="M23.1562 30.1963C23.1562 32.8195 21.2954 35.625 19 35.625C16.7046 35.625 14.8438 32.8195 14.8438 30.1963C14.8438 27.5732 16.7046 26.125 19 26.125C21.2954 26.125 23.1562 27.5732 23.1562 30.1963Z" fill="url(#paint8_linear_975_128968)"/>
<path d="M51.6562 15.4375H21.9688C20.6399 15.7599 19.5938 17.0388 19.5938 18.4062V30.2854C19.5938 40.375 27.3125 48.0938 36.8125 48.0938C46.3125 48.0938 54.0312 40.375 54.0312 30.2854V18.4062C54.0312 17.0347 52.9904 15.7563 51.6562 15.4375Z" fill="url(#paint9_linear_975_128968)"/>
<path d="M36.8125 0C46.1255 0 56.4062 7.23662 56.4062 18.4062C56.3754 25.479 54.0312 30.2812 54.0312 30.2812C54.0312 26.7188 52.25 18.4062 52.25 18.4062C42.1562 20.7812 21.9688 16.0312 21.9688 16.0312C21.9688 16.0312 19.5938 19.5938 19.5938 30.2812C19.5938 30.2812 16.0312 26.125 16.0312 19C16.0312 10.1151 20.1875 8.3125 20.1875 8.3125C20.1875 8.3125 21.375 0 36.8125 0Z" fill="url(#paint10_linear_975_128968)"/>
<path d="M36.8023 43.9362C35.4605 43.9362 34.1221 43.504 32.9061 42.6407C32.639 42.4507 32.576 42.0802 32.766 41.8124C32.956 41.5446 33.3265 41.4829 33.5943 41.6723C35.6267 43.1169 37.9738 43.1163 40.0347 41.6705C40.3025 41.4817 40.6736 41.547 40.8618 41.8154C41.05 42.0837 40.9853 42.4542 40.7169 42.6425C39.4873 43.5046 38.143 43.9362 36.8023 43.9362Z" fill="url(#paint11_linear_975_128968)"/>
<path d="M29.0938 32.6562C30.0775 32.6562 30.875 31.8588 30.875 30.875C30.875 29.8912 30.0775 29.0938 29.0938 29.0938C28.11 29.0938 27.3125 29.8912 27.3125 30.875C27.3125 31.8588 28.11 32.6562 29.0938 32.6562Z" fill="url(#paint12_linear_975_128968)"/>
<path d="M44.5312 32.6562C45.515 32.6562 46.3125 31.8588 46.3125 30.875C46.3125 29.8912 45.515 29.0938 44.5312 29.0938C43.5475 29.0938 42.75 29.8912 42.75 30.875C42.75 31.8588 43.5475 32.6562 44.5312 32.6562Z" fill="url(#paint13_linear_975_128968)"/>
<path d="M32.6556 26.1208C32.5481 26.1208 32.44 26.0917 32.3421 26.0312C29.0414 23.9762 26.8914 25.3584 25.9735 25.9492L25.8488 26.0294C25.5709 26.2045 25.2046 26.1214 25.0294 25.8447C24.8543 25.5674 24.9368 25.2011 25.2141 25.0253L25.3317 24.9505C26.3434 24.2992 29.0331 22.5714 32.9702 25.0236C33.2487 25.1969 33.3336 25.5633 33.1602 25.8412C33.0474 26.0217 32.8539 26.1208 32.6556 26.1208Z" fill="url(#paint14_linear_975_128968)"/>
<path d="M40.9696 26.1212C40.7713 26.1212 40.5777 26.022 40.4649 25.8415C40.2915 25.563 40.3764 25.1967 40.6549 25.0239C44.5927 22.5705 47.2817 24.3001 48.2941 24.9509L48.4111 25.0257C48.6883 25.2009 48.7703 25.5678 48.5957 25.8451C48.4206 26.1224 48.0536 26.2049 47.7763 26.0297L47.6516 25.9502C46.7343 25.36 44.5832 23.9771 41.2825 26.0321C41.1851 26.0921 41.0771 26.1212 40.9696 26.1212Z" fill="url(#paint15_linear_975_128968)"/>
<path d="M36.8101 38.5942C36.8089 38.5942 36.8084 38.5942 36.8072 38.5942C36.2283 38.593 35.6695 38.3229 35.1916 37.8128C34.9677 37.5736 34.9796 37.1977 35.2189 36.9733C35.4582 36.75 35.834 36.7613 36.0585 37.0006C36.2318 37.1853 36.5026 37.4061 36.809 37.4067H36.8101C37.1189 37.4067 37.3926 37.1853 37.5684 36.9988C37.7934 36.7601 38.1692 36.7494 38.4079 36.9745C38.646 37.1995 38.6573 37.5753 38.4323 37.814C37.9501 38.3247 37.3896 38.5942 36.8101 38.5942Z" fill="url(#paint16_linear_975_128968)"/>
<path d="M29.6875 48.6875L34.4375 73.625L24.9375 64.7188L26.125 59.9688L21.9688 59.3744L26.7188 50.4682C27.2009 49.5959 28.5742 48.6881 29.6875 48.6875Z" fill="url(#paint17_linear_975_128968)"/>
<path d="M43.9375 48.6875L39.1875 73.625L48.6875 64.7188L47.5 59.9688L51.6562 59.3744L46.9062 50.4682C46.4241 49.5959 45.0508 48.6881 43.9375 48.6875Z" fill="url(#paint18_linear_975_128968)"/>
<path d="M26.7188 69.4688H23.75C23.4222 69.4688 23.1562 69.2033 23.1562 68.875C23.1562 68.5467 23.4222 68.2812 23.75 68.2812H26.7188C27.3737 68.2812 27.9062 67.7487 27.9062 67.0938V61.1562C27.9062 58.2095 25.5087 55.8125 22.5625 55.8125C19.6163 55.8125 17.2188 58.2095 17.2188 61.1562V67.0938C17.2188 67.7487 17.7513 68.2812 18.4062 68.2812H20.7812C21.109 68.2812 21.375 68.5467 21.375 68.875C21.375 69.2033 21.109 69.4688 20.7812 69.4688H18.4062C17.0964 69.4688 16.0312 68.4036 16.0312 67.0938V61.1562C16.0312 57.5552 18.9614 54.625 22.5625 54.625C26.1636 54.625 29.0938 57.5552 29.0938 61.1562V67.0938C29.0938 68.4036 28.0286 69.4688 26.7188 69.4688Z" fill="white"/>
<path d="M22.5625 54.625C18.9614 54.625 16.0312 57.5552 16.0312 61.1562H17.2188C17.2188 58.2095 19.6163 55.8125 22.5625 55.8125C25.5087 55.8125 27.9062 58.2095 27.9062 61.1562H29.0938C29.0938 57.5552 26.1636 54.625 22.5625 54.625Z" fill="url(#paint19_linear_975_128968)"/>
<path d="M20.7812 68.2812H19.5938V69.4688H20.7812C21.109 69.4688 21.375 69.2033 21.375 68.875C21.375 68.5467 21.109 68.2812 20.7812 68.2812Z" fill="url(#paint20_linear_975_128968)"/>
<path d="M23.75 68.2812H24.9375V69.4688H23.75C23.4223 69.4688 23.1562 69.2033 23.1562 68.875C23.1562 68.5467 23.4223 68.2812 23.75 68.2812Z" fill="url(#paint21_linear_975_128968)"/>
<path d="M46.3039 45.2031C45.6971 45.6116 45.0635 45.9815 44.4062 46.3099H45.1265C49.7102 46.3099 53.439 50.0386 53.439 54.6224V61.7474C53.439 62.0757 53.705 62.3411 54.0327 62.3411C54.3605 62.3411 54.6265 62.0757 54.6265 61.7474V54.6224C54.6265 49.7839 50.9874 45.7862 46.3039 45.2031Z" fill="url(#paint22_linear_975_128968)"/>
<path d="M27.3606 45.2266C24.3016 45.7675 21.9688 48.4393 21.9688 51.6515V55.214C21.9688 55.5424 22.2348 55.8078 22.5625 55.8078C22.8902 55.8078 23.1562 55.5424 23.1562 55.214V51.6515C23.1562 48.7047 25.5538 46.3078 28.5 46.3078C28.6573 46.3078 28.7987 46.2442 28.9049 46.1439C28.3735 45.8648 27.8582 45.5591 27.3606 45.2266Z" fill="url(#paint23_linear_975_128968)"/>
<path d="M54.0312 67.0938C55.6708 67.0938 57 65.7646 57 64.125C57 62.4854 55.6708 61.1562 54.0312 61.1562C52.3917 61.1562 51.0625 62.4854 51.0625 64.125C51.0625 65.7646 52.3917 67.0938 54.0312 67.0938Z" fill="url(#paint24_linear_975_128968)"/>
<path d="M54.0312 67.0938C55.6708 67.0938 57 65.7646 57 64.125C57 62.4854 55.6708 61.1562 54.0312 61.1562C52.3917 61.1562 51.0625 62.4854 51.0625 64.125C51.0625 65.7646 52.3917 67.0938 54.0312 67.0938Z" fill="url(#paint25_linear_975_128968)"/>
<mask id="mask0_975_128968" style="mask-type:luminance" maskUnits="userSpaceOnUse" x="51" y="61" width="6" height="7">
<path d="M54.0312 67.0938C55.6708 67.0938 57 65.7646 57 64.125C57 62.4854 55.6708 61.1562 54.0312 61.1562C52.3917 61.1562 51.0625 62.4854 51.0625 64.125C51.0625 65.7646 52.3917 67.0938 54.0312 67.0938Z" fill="white"/>
</mask>
<g mask="url(#mask0_975_128968)">
<path d="M51.0625 61.1562H57V67.0938H51.0625V61.1562Z" fill="url(#paint26_linear_975_128968)"/>
</g>
<path d="M54.0312 67.6875C52.0665 67.6875 50.4688 66.0897 50.4688 64.125C50.4688 62.1603 52.0665 60.5625 54.0312 60.5625C55.996 60.5625 57.5938 62.1603 57.5938 64.125C57.5938 66.0897 55.996 67.6875 54.0312 67.6875ZM54.0312 61.75C52.7214 61.75 51.6562 62.8152 51.6562 64.125C51.6562 65.4348 52.7214 66.5 54.0312 66.5C55.3411 66.5 56.4062 65.4348 56.4062 64.125C56.4062 62.8152 55.3411 61.75 54.0312 61.75Z" fill="white"/>
<defs>
<linearGradient id="paint0_linear_975_128968" x1="36.8125" y1="54.5258" x2="36.8125" y2="48.2915" gradientUnits="userSpaceOnUse">
<stop stop-color="#F6CFBE"/>
<stop offset="1" stop-color="#EDAD99"/>
</linearGradient>
<linearGradient id="paint1_linear_975_128968" x1="36.3102" y1="43.5094" x2="36.1552" y2="37.693" gradientUnits="userSpaceOnUse">
<stop stop-color="#FFCF97"/>
<stop offset="1" stop-color="#FFAC6A"/>
</linearGradient>
<linearGradient id="paint2_linear_975_128968" x1="38.0728" y1="30.4137" x2="37.4791" y2="40.4082" gradientUnits="userSpaceOnUse">
<stop stop-color="#FFCF97"/>
<stop offset="1" stop-color="#FFAC6A"/>
</linearGradient>
<linearGradient id="paint3_linear_975_128968" x1="11.4356" y1="89.373" x2="9.40559" y2="69.8636" gradientUnits="userSpaceOnUse">
<stop stop-color="#9B67C6"/>
<stop offset="1" stop-color="#9775F6"/>
</linearGradient>
<linearGradient id="paint4_linear_975_128968" x1="19.3539" y1="84.9508" x2="17.4877" y2="101.001" gradientUnits="userSpaceOnUse">
<stop stop-color="#9B67C6"/>
<stop offset="1" stop-color="#9775F6"/>
</linearGradient>
<linearGradient id="paint5_linear_975_128968" x1="65.4669" y1="89.373" x2="63.4368" y2="69.8636" gradientUnits="userSpaceOnUse">
<stop stop-color="#9B67C6"/>
<stop offset="1" stop-color="#9775F6"/>
</linearGradient>
<linearGradient id="paint6_linear_975_128968" x1="49.6351" y1="84.9508" x2="47.769" y2="101.001" gradientUnits="userSpaceOnUse">
<stop stop-color="#9B67C6"/>
<stop offset="1" stop-color="#9775F6"/>
</linearGradient>
<linearGradient id="paint7_linear_975_128968" x1="54.0313" y1="12.8648" x2="54.0313" y2="41.765" gradientUnits="userSpaceOnUse">
<stop stop-color="#F6CFBE"/>
<stop offset="1" stop-color="#EDAD99"/>
</linearGradient>
<linearGradient id="paint8_linear_975_128968" x1="19" y1="12.8648" x2="19" y2="41.765" gradientUnits="userSpaceOnUse">
<stop stop-color="#F6CFBE"/>
<stop offset="1" stop-color="#EDAD99"/>
</linearGradient>
<linearGradient id="paint9_linear_975_128968" x1="39.6963" y1="10.1947" x2="41.3292" y2="1.73375" gradientUnits="userSpaceOnUse">
<stop stop-color="#F6CFBE"/>
<stop offset="1" stop-color="#EDAD99"/>
</linearGradient>
<linearGradient id="paint10_linear_975_128968" x1="36.2187" y1="-11.4297" x2="36.2187" y2="37.9697" gradientUnits="userSpaceOnUse">
<stop stop-color="#957E7F"/>
<stop offset="1" stop-color="#373638"/>
</linearGradient>
<linearGradient id="paint11_linear_975_128968" x1="37.5321" y1="31.3719" x2="37.2352" y2="35.825" gradientUnits="userSpaceOnUse">
<stop stop-color="#F6CFBE"/>
<stop offset="1" stop-color="#EDAD99"/>
</linearGradient>
<linearGradient id="paint12_linear_975_128968" x1="28.9489" y1="50.1725" x2="29.0231" y2="40.302" gradientUnits="userSpaceOnUse">
<stop stop-color="#58595B"/>
<stop offset="1" stop-color="#414042"/>
</linearGradient>
<linearGradient id="paint13_linear_975_128968" x1="44.3858" y1="50.2597" x2="44.46" y2="40.3887" gradientUnits="userSpaceOnUse">
<stop stop-color="#58595B"/>
<stop offset="1" stop-color="#414042"/>
</linearGradient>
<linearGradient id="paint14_linear_975_128968" x1="28.8556" y1="57.1983" x2="28.9547" y2="44.0372" gradientUnits="userSpaceOnUse">
<stop stop-color="#58595B"/>
<stop offset="1" stop-color="#414042"/>
</linearGradient>
<linearGradient id="paint15_linear_975_128968" x1="44.2922" y1="57.315" x2="44.3914" y2="44.1534" gradientUnits="userSpaceOnUse">
<stop stop-color="#58595B"/>
<stop offset="1" stop-color="#414042"/>
</linearGradient>
<linearGradient id="paint16_linear_975_128968" x1="23.1367" y1="40.3951" x2="27.8499" y2="39.4302" gradientUnits="userSpaceOnUse">
<stop stop-color="#F6CFBE"/>
<stop offset="1" stop-color="#EDAD99"/>
</linearGradient>
<linearGradient id="paint17_linear_975_128968" x1="34.374" y1="92.9605" x2="33.1989" y2="87.6072" gradientUnits="userSpaceOnUse">
<stop stop-color="#EFF0F0"/>
<stop offset="1" stop-color="#E4E5E6"/>
</linearGradient>
<linearGradient id="paint18_linear_975_128968" x1="39.2516" y1="92.9605" x2="40.4267" y2="87.6072" gradientUnits="userSpaceOnUse">
<stop stop-color="#EFF0F0"/>
<stop offset="1" stop-color="#E4E5E6"/>
</linearGradient>
<linearGradient id="paint19_linear_975_128968" x1="20.5616" y1="44.9421" x2="20.71" y2="46.1296" gradientUnits="userSpaceOnUse">
<stop stop-color="#58595B"/>
<stop offset="1" stop-color="#414042"/>
</linearGradient>
<linearGradient id="paint20_linear_975_128968" x1="20.5455" y1="69.866" x2="20.5343" y2="69.7342" gradientUnits="userSpaceOnUse">
<stop stop-color="#58595B"/>
<stop offset="1" stop-color="#414042"/>
</linearGradient>
<linearGradient id="paint21_linear_975_128968" x1="23.9857" y1="69.866" x2="23.997" y2="69.7342" gradientUnits="userSpaceOnUse">
<stop stop-color="#58595B"/>
<stop offset="1" stop-color="#414042"/>
</linearGradient>
<linearGradient id="paint22_linear_975_128968" x1="48.4277" y1="41.4566" x2="48.5762" y2="42.6441" gradientUnits="userSpaceOnUse">
<stop stop-color="#58595B"/>
<stop offset="1" stop-color="#414042"/>
</linearGradient>
<linearGradient id="paint23_linear_975_128968" x1="24.6525" y1="44.4262" x2="24.8009" y2="45.6137" gradientUnits="userSpaceOnUse">
<stop stop-color="#58595B"/>
<stop offset="1" stop-color="#414042"/>
</linearGradient>
<linearGradient id="paint24_linear_975_128968" x1="60.0703" y1="66.2678" x2="61.5083" y2="66.7779" gradientUnits="userSpaceOnUse">
<stop stop-color="#6C6F73"/>
<stop offset="1" stop-color="#56585B"/>
</linearGradient>
<linearGradient id="paint25_linear_975_128968" x1="42.4228" y1="62.5813" x2="47.0743" y2="63.1999" gradientUnits="userSpaceOnUse">
<stop stop-color="#58595B"/>
<stop offset="1" stop-color="#414042"/>
</linearGradient>
<linearGradient id="paint26_linear_975_128968" x1="42.4228" y1="62.5813" x2="47.0743" y2="63.1999" gradientUnits="userSpaceOnUse">
<stop stop-color="#6C6F73"/>
<stop offset="1" stop-color="#56585B"/>
</linearGradient>
</defs>
</svg>
