<svg width="76" height="76" viewBox="0 0 76 76" fill="none" xmlns="http://www.w3.org/2000/svg">
<path d="M31.2824 62.2093L33.5766 65.4356C26.8809 64.9811 20.7214 63.4973 15.9011 61.1437C10.6208 58.5656 7.59252 55.1883 7.59252 51.8779C7.59252 48.5675 10.621 45.1902 15.9011 42.6121C21.6164 39.8214 29.2143 38.2531 37.3568 38.1744V33.7188C28.5468 33.7993 20.255 35.5277 13.946 38.6081C6.97554 42.0116 3.13672 46.7243 3.13672 51.8781C3.13672 57.0318 6.97568 61.7445 13.946 65.148C19.3921 67.8069 26.3153 69.4591 33.774 69.9132L31.2824 73.4171L34.9137 75.9994L40.7349 67.8132L34.9137 59.627L31.2824 62.2093Z" fill="#FFE797"/>
<path d="M62.0579 38.6069C55.7958 35.5495 47.5805 33.823 38.8438 33.7188V38.1751C46.912 38.277 54.4334 39.8428 60.1028 42.6109C65.3831 45.189 68.4114 48.5664 68.4114 51.8767C68.4114 53.6987 67.5036 56.4804 63.1783 59.3862C59.7569 61.6847 54.9038 63.4988 49.4135 64.5441V69.0736C55.906 67.9366 61.5168 65.8704 65.6632 63.085C70.3761 59.9188 72.8673 56.043 72.8673 51.8769C72.8673 46.723 69.0284 42.0104 62.0579 38.6069Z" fill="#FFB54C"/>
<path d="M16.7109 21.2888C16.7109 37.6812 35.6931 55.1261 36.5011 55.8607L37.9997 57.2231L39.1879 24.3584L37.9997 0C26.261 0 16.7109 9.55011 16.7109 21.2888Z" fill="#FF637B"/>
<path d="M38 0V57.2231L39.4986 55.8607C40.3066 55.1261 59.2888 37.6812 59.2888 21.2888C59.2888 9.55011 49.7388 0 38 0Z" fill="#E20A6C"/>
<path d="M29.3359 21.2891C29.3359 26.0742 33.215 29.9531 37.9999 29.9531L40.8219 22.7248L37.9999 12.625C33.215 12.6251 29.3359 16.5042 29.3359 21.2891Z" fill="#F5F8F9"/>
<path d="M38 12.625V29.9531C42.7851 29.9531 46.664 26.0741 46.664 21.2891C46.6641 16.5041 42.7851 12.625 38 12.625Z" fill="#E6E6FF"/>
</svg>
