<svg width="34" height="34" viewBox="0 0 34 34" fill="none" xmlns="http://www.w3.org/2000/svg">
<path d="M20.4693 5.6645C20.1089 5.06611 19.6 4.57105 18.9918 4.22739C18.3837 3.88372 17.697 3.70312 16.9985 3.70312C16.2999 3.70312 15.6133 3.88372 15.0051 4.22739C14.397 4.57105 13.888 5.06611 13.5276 5.6645L2.36431 23.897C1.98997 24.5133 1.78625 25.218 1.77402 25.9389C1.76179 26.6598 1.9415 27.371 2.29472 27.9996C2.64794 28.6282 3.16197 29.1516 3.78411 29.516C4.40624 29.8805 5.11411 30.0729 5.83514 30.0737H28.1618C28.8828 30.0729 29.5907 29.8805 30.2128 29.516C30.835 29.1516 31.349 28.6282 31.7022 27.9996C32.0554 27.371 32.2352 26.6598 32.2229 25.9389C32.2107 25.218 32.007 24.5133 31.6326 23.897L20.4693 5.6645Z" fill="#ED4040"/>
<path d="M16.9998 20.8906C16.7191 20.887 16.451 20.7738 16.2525 20.5754C16.054 20.3769 15.9409 20.1088 15.9373 19.8281V13.4531C15.9373 13.1713 16.0492 12.9011 16.2485 12.7018C16.4477 12.5026 16.718 12.3906 16.9998 12.3906C17.2815 12.3906 17.5518 12.5026 17.7511 12.7018C17.9503 12.9011 18.0623 13.1713 18.0623 13.4531V19.8281C18.0586 20.1088 17.9455 20.3769 17.747 20.5754C17.5485 20.7738 17.2804 20.887 16.9998 20.8906Z" fill="white"/>
<path d="M16.9985 24.7865C17.7809 24.7865 18.4151 24.1522 18.4151 23.3698C18.4151 22.5874 17.7809 21.9531 16.9985 21.9531C16.2161 21.9531 15.5818 22.5874 15.5818 23.3698C15.5818 24.1522 16.2161 24.7865 16.9985 24.7865Z" fill="white"/>
</svg>
