<svg width="24" height="24" viewBox="0 0 24 24" fill="none" xmlns="http://www.w3.org/2000/svg">
<path d="M17.5274 4.38281H16.8557V3.70313C16.8557 3.31479 16.5409 3 16.1526 3C15.7642 3 15.4494 3.31479 15.4494 3.70313V4.38281H8.5508V3.70313C8.5508 3.31479 8.23601 3 7.84767 3C7.45933 3 7.14455 3.31479 7.14455 3.70313V4.38281H6.47288C4.55577 4.38281 2.99609 5.94248 2.99609 7.85956V17.5233C2.99609 19.4404 4.55577 21.0001 6.47288 21.0001H17.5274C19.4445 21.0001 21.0042 19.4404 21.0042 17.5233V7.85956C21.0042 5.94248 19.4445 4.38281 17.5274 4.38281ZM6.47288 5.78906H7.14455V7.16016C7.14455 7.5485 7.45933 7.86329 7.84767 7.86329C8.23601 7.86329 8.5508 7.5485 8.5508 7.16016V5.78906H15.4495V7.16016C15.4495 7.5485 15.7643 7.86329 16.1526 7.86329C16.5409 7.86329 16.8557 7.5485 16.8557 7.16016V5.78906H17.5274C18.6691 5.78906 19.5979 6.71789 19.5979 7.85956V8.53126H4.40235V7.85956C4.40235 6.71789 5.33118 5.78906 6.47288 5.78906ZM17.5274 19.5938H6.47288C5.33118 19.5938 4.40235 18.665 4.40235 17.5233V9.93751H19.5979V17.5233C19.5979 18.665 18.6691 19.5938 17.5274 19.5938ZM9.24222 12.7032C9.24222 13.0915 8.92743 13.4063 8.53909 13.4063H7.15629C6.76795 13.4063 6.45316 13.0915 6.45316 12.7032C6.45316 12.3148 6.76795 12 7.15629 12H8.53909C8.92739 12 9.24222 12.3148 9.24222 12.7032ZM17.5471 12.7032C17.5471 13.0915 17.2323 13.4063 16.844 13.4063H15.4612C15.0729 13.4063 14.7581 13.0915 14.7581 12.7032C14.7581 12.3148 15.0729 12 15.4612 12H16.844C17.2323 12 17.5471 12.3148 17.5471 12.7032ZM13.3907 12.7032C13.3907 13.0915 13.0759 13.4063 12.6875 13.4063H11.3047C10.9164 13.4063 10.6016 13.0915 10.6016 12.7032C10.6016 12.3148 10.9164 12 11.3047 12H12.6875C13.0758 12 13.3907 12.3148 13.3907 12.7032ZM9.24222 16.8516C9.24222 17.2399 8.92743 17.5547 8.53909 17.5547H7.15629C6.76795 17.5547 6.45316 17.2399 6.45316 16.8516C6.45316 16.4633 6.76795 16.1485 7.15629 16.1485H8.53909C8.92739 16.1485 9.24222 16.4633 9.24222 16.8516ZM17.5471 16.8516C17.5471 17.2399 17.2323 17.5547 16.844 17.5547H15.4612C15.0729 17.5547 14.7581 17.2399 14.7581 16.8516C14.7581 16.4633 15.0729 16.1485 15.4612 16.1485H16.844C17.2323 16.1485 17.5471 16.4633 17.5471 16.8516ZM13.3907 16.8516C13.3907 17.2399 13.0759 17.5547 12.6875 17.5547H11.3047C10.9164 17.5547 10.6016 17.2399 10.6016 16.8516C10.6016 16.4633 10.9164 16.1485 11.3047 16.1485H12.6875C13.0758 16.1485 13.3907 16.4633 13.3907 16.8516Z" fill="black"/>
</svg>
