<svg width="36" height="36" viewBox="0 0 36 36" fill="none" xmlns="http://www.w3.org/2000/svg">
<rect width="36" height="36" rx="18" fill="#F9F9F9"/>
<path d="M15.4179 24.9952C15.9377 25.0341 16.422 24.8467 16.7685 24.5002C17.0795 24.375 18.8171 20.0727 19.0171 19.7273L15.6937 16.4039C15.4957 16.2059 15.4992 15.8912 15.6937 15.6967C15.8917 15.4988 16.2028 15.4988 16.4008 15.6967L19.7242 19.0202L23.9739 17.1322C24.6527 16.8281 25.0522 16.1599 24.9957 15.4174C24.9356 14.6785 24.4335 14.0775 23.7194 13.8866L13.1764 11.0581C12.5718 10.899 11.946 11.0652 11.5041 11.5071C11.0657 11.9455 10.8995 12.5713 11.0586 13.1759L13.887 23.7189C14.0779 24.4331 14.679 24.9351 15.4179 24.9952Z" fill="#9775F6"/>
</svg>
