<svg width="18" height="18" viewBox="0 0 18 18" fill="none" xmlns="http://www.w3.org/2000/svg">
<path d="M8.03903 0C3.60881 0 0 3.60881 0 8.03904C0 12.4692 3.60881 16.0851 8.03903 16.0851C9.9313 16.0851 11.6716 15.4219 13.0471 14.3209L16.3956 17.6677C16.5646 17.8297 16.7903 17.9191 17.0244 17.9167C17.2585 17.9143 17.4823 17.8203 17.6479 17.6549C17.8136 17.4895 17.9078 17.2659 17.9106 17.0318C17.9133 16.7977 17.8242 16.5719 17.6625 16.4027L14.3139 13.0541C15.4159 11.6766 16.0798 9.9335 16.0798 8.03904C16.0798 3.60881 12.4692 0 8.03903 0ZM8.03903 1.78686C11.5036 1.78686 14.2912 4.57451 14.2912 8.03904C14.2912 11.5036 11.5036 14.2982 8.03903 14.2982C4.57449 14.2982 1.78684 11.5036 1.78684 8.03904C1.78684 4.57451 4.57449 1.78686 8.03903 1.78686Z" fill="white"/>
</svg>
