<svg width="20" height="20" viewBox="0 0 20 20" fill="none" xmlns="http://www.w3.org/2000/svg">
<path d="M10 7.09089C8.39272 7.09089 7.09092 8.39272 7.09092 9.99997C7.09092 11.6072 8.39272 12.9091 10 12.9091C11.6073 12.9091 12.9091 11.6072 12.9091 10C12.9091 8.39275 11.6072 7.09089 10 7.09089ZM16.5018 9.2727C16.1672 6.23998 13.76 3.83272 10.7273 3.49819V2H9.2727V3.49819C6.23998 3.83272 3.83272 6.23998 3.49819 9.2727H2V10.7273H3.49819C3.83272 13.76 6.24002 16.1672 9.27274 16.5018V18H10.7273V16.5018C13.76 16.1672 16.1672 13.76 16.5018 10.7273H18V9.2727H16.5018ZM10 15.0909C7.18911 15.0909 4.90911 12.8109 4.90911 10C4.90911 7.18911 7.18911 4.90911 10 4.90911C12.8109 4.90911 15.0909 7.18907 15.0909 10C15.0909 12.8109 12.8109 15.0909 10 15.0909Z" fill="black"/>
</svg>
