<svg width="24" height="24" viewBox="0 0 24 24" fill="none" xmlns="http://www.w3.org/2000/svg">
<path d="M12 21C16.962 21 21 16.962 21 12C21 7.03801 16.962 3 12 3C7.03796 3 3 7.03801 3 12C3 16.962 7.03801 21 12 21ZM12 4.19998C16.302 4.19998 19.8 7.69797 19.8 12C19.8 16.302 16.302 19.8 12 19.8C7.69797 19.8 4.19998 16.302 4.19998 12C4.19998 7.69797 7.69802 4.19998 12 4.19998Z" fill="black"/>
<path d="M14.6249 14.8676C14.7359 14.9576 14.8679 14.9996 14.9999 14.9996C15.1769 14.9996 15.3509 14.9216 15.4679 14.7746C15.6749 14.5166 15.6328 14.1386 15.3749 13.9316L12.5999 11.7116V7.1996C12.5999 6.86959 12.3299 6.59961 11.9999 6.59961C11.6699 6.59961 11.3999 6.86959 11.3999 7.1996V11.9996C11.3999 12.1826 11.4839 12.3536 11.6249 12.4676L14.6249 14.8676Z" fill="black"/>
</svg>
