<svg width="296" height="287" viewBox="0 0 296 287" fill="none" xmlns="http://www.w3.org/2000/svg">
<path d="M68.3009 17.4859C71.2902 17.5547 73.9894 18.3521 76.3981 19.8802C78.8064 21.4091 80.6955 23.5539 82.0658 26.3153C83.03 28.2595 83.579 30.0733 83.7126 31.756C83.8463 33.4395 83.5865 34.8977 82.9339 36.1314C82.2808 37.3659 81.2707 38.3238 79.904 39.0044C78.7793 39.5644 77.7107 39.7938 76.6979 39.692C75.6846 39.591 74.7658 39.1522 73.9427 38.3775C73.7052 40.8925 72.2963 42.7928 69.7158 44.0777C68.3046 44.7807 66.8388 45.0701 65.3197 44.9448C63.7999 44.8203 62.3892 44.2896 61.0863 43.3538C59.7829 42.4189 58.7265 41.1336 57.915 39.4983C57.1153 37.8859 56.7358 36.2771 56.7784 34.6707C56.8207 33.0658 57.2455 31.6214 58.0524 30.3375C58.8594 29.0543 59.9792 28.0554 61.4127 27.3415C63.5957 26.254 65.6556 26.1378 67.5923 26.9923L66.6226 25.0369L71.1213 22.7969L76.4482 33.5346C77.15 34.9484 78.0296 35.3917 79.0881 34.8649C79.86 34.4805 80.2307 33.7177 80.1999 32.5752C80.17 31.4331 79.6888 29.9233 78.7569 28.0449C77.6499 25.8137 76.1592 24.0968 74.2843 22.8951C72.4094 21.6935 70.3016 21.0765 67.9613 21.0427C65.6212 21.0096 63.238 21.5973 60.8128 22.8046C58.3871 24.0127 56.4972 25.5944 55.1436 27.5494C53.7888 29.5054 53.0494 31.6444 52.9229 33.9662C52.7967 36.2888 53.303 38.5989 54.4432 40.8965C55.6051 43.2387 57.1454 45.0686 59.0639 46.3861C60.9826 47.7043 63.1173 48.4182 65.469 48.5284C67.8199 48.6387 70.1972 48.0955 72.6014 46.8988C74.9832 45.713 76.9141 44.1447 78.3951 42.1952L80.9659 44.7171C80.2254 45.7192 79.2457 46.6958 78.027 47.6476C76.8075 48.5989 75.525 49.4102 74.18 50.08C71.0487 51.6393 67.9551 52.3599 64.8994 52.2425C61.8435 52.1244 59.0784 51.2353 56.604 49.5744C54.1303 47.9134 52.1756 45.6365 50.7394 42.741C49.315 39.8691 48.6997 36.9522 48.8938 33.9895C49.0881 31.0275 50.0744 28.2911 51.8539 25.7793C53.6333 23.2675 56.099 21.2274 59.2532 19.6563C62.2941 18.1423 65.3105 17.4187 68.3009 17.4859ZM71.2272 37.0643C71.5992 35.8737 71.4292 34.5602 70.7166 33.1239C70.0157 31.7106 69.0812 30.7974 67.9147 30.3862C66.7476 29.9751 65.5586 30.0717 64.346 30.675C63.1104 31.2901 62.3179 32.1878 61.969 33.3673C61.6188 34.5479 61.7898 35.8334 62.4799 37.225C63.1816 38.6389 64.1098 39.5688 65.2651 40.0118C66.42 40.4564 67.6152 40.3708 68.8507 39.7557C70.0627 39.1526 70.8555 38.2562 71.2272 37.0643Z" fill="#F3A391"/>
<path d="M68.3009 17.4859C71.2902 17.5547 73.9894 18.3521 76.3981 19.8802C78.8064 21.4091 80.6955 23.5539 82.0658 26.3153C83.03 28.2595 83.579 30.0733 83.7126 31.756C83.8463 33.4395 83.5865 34.8977 82.9339 36.1314C82.2808 37.3659 81.2707 38.3238 79.904 39.0044C78.7793 39.5644 77.7107 39.7938 76.6979 39.692C75.6846 39.591 74.7658 39.1522 73.9427 38.3775C73.7052 40.8925 72.2963 42.7928 69.7158 44.0777C68.3046 44.7807 66.8388 45.0701 65.3197 44.9448C63.7999 44.8203 62.3892 44.2896 61.0863 43.3538C59.7829 42.4189 58.7265 41.1336 57.915 39.4983C57.1153 37.8859 56.7358 36.2771 56.7784 34.6707C56.8207 33.0658 57.2455 31.6214 58.0524 30.3375C58.8594 29.0543 59.9792 28.0554 61.4127 27.3415C63.5957 26.254 65.6556 26.1378 67.5923 26.9923L66.6226 25.0369L71.1213 22.7969L76.4482 33.5346C77.15 34.9484 78.0296 35.3917 79.0881 34.8649C79.86 34.4805 80.2307 33.7177 80.1999 32.5752C80.17 31.4331 79.6888 29.9233 78.7569 28.0449C77.6499 25.8137 76.1592 24.0968 74.2843 22.8951C72.4094 21.6935 70.3016 21.0765 67.9613 21.0427C65.6212 21.0096 63.238 21.5973 60.8128 22.8046C58.3871 24.0127 56.4972 25.5944 55.1436 27.5494C53.7888 29.5054 53.0494 31.6444 52.9229 33.9662C52.7967 36.2888 53.303 38.5989 54.4432 40.8965C55.6051 43.2387 57.1454 45.0686 59.0639 46.3861C60.9826 47.7043 63.1173 48.4182 65.469 48.5284C67.8199 48.6387 70.1972 48.0955 72.6014 46.8988C74.9832 45.713 76.9141 44.1447 78.3951 42.1952L80.9659 44.7171C80.2254 45.7192 79.2457 46.6958 78.027 47.6476C76.8075 48.5989 75.525 49.4102 74.18 50.08C71.0487 51.6393 67.9551 52.3599 64.8994 52.2425C61.8435 52.1244 59.0784 51.2353 56.604 49.5744C54.1303 47.9134 52.1756 45.6365 50.7394 42.741C49.315 39.8691 48.6997 36.9522 48.8938 33.9895C49.0881 31.0275 50.0744 28.2911 51.8539 25.7793C53.6333 23.2675 56.099 21.2274 59.2532 19.6563C62.2941 18.1423 65.3105 17.4187 68.3009 17.4859ZM71.2272 37.0643C71.5992 35.8737 71.4292 34.5602 70.7166 33.1239C70.0157 31.7106 69.0812 30.7974 67.9147 30.3862C66.7476 29.9751 65.5586 30.0717 64.346 30.675C63.1104 31.2901 62.3179 32.1878 61.969 33.3673C61.6188 34.5479 61.7898 35.8334 62.4799 37.225C63.1816 38.6389 64.1098 39.5688 65.2651 40.0118C66.42 40.4564 67.6152 40.3708 68.8507 39.7557C70.0627 39.1526 70.8555 38.2562 71.2272 37.0643Z" stroke="#272626" stroke-width="1.5" stroke-miterlimit="10" stroke-linecap="round" stroke-linejoin="round"/>
<path d="M143.549 30.4728C167.296 26.5569 185.687 18.1478 184.627 11.6907C183.566 5.23348 163.455 3.17338 139.708 7.0893C115.961 11.0052 97.5699 19.4143 98.6307 25.8714C99.6914 32.3286 119.802 34.3887 143.549 30.4728Z" stroke="#272626" stroke-width="1.5" stroke-miterlimit="10" stroke-linejoin="round"/>
<path d="M118.822 32.2683C118.822 33.215 118.056 33.982 117.112 33.982C116.167 33.982 115.401 33.215 115.401 32.2683C115.401 31.3217 116.167 30.5547 117.112 30.5547C118.057 30.554 118.822 31.3217 118.822 32.2683Z" fill="#272626"/>
<path d="M164.852 5.14333C164.852 6.08997 164.087 6.85697 163.142 6.85697C162.197 6.85697 161.432 6.08997 161.432 5.14333C161.432 4.19669 162.197 3.42969 163.142 3.42969C164.086 3.42969 164.852 4.19669 164.852 5.14333Z" fill="#272626"/>
<path d="M226.229 138.525C226.419 137.77 226.813 136.869 227.421 136.886C227.38 136.207 227.493 135.523 227.625 134.835C227.651 134.607 227.684 134.378 227.723 134.149C227.244 133.332 227.172 133.158 227.056 132.886C225.389 128.943 226.099 124.355 229.051 121.283L229.615 120.775C228.955 120.478 228.513 119.759 228.981 118.952C231.174 115.167 235.334 113.83 239.486 113.601C241.49 113.489 243.852 113.307 245.695 114.263C247.301 115.096 248.219 116.655 248.101 118.421C248.096 118.525 248.086 118.63 248.071 118.735C247.957 119.537 247.346 119.863 246.728 119.819C246.728 119.88 246.73 119.82 246.728 119.88C246.972 119.96 247.2 120.229 247.397 120.47C249.997 123.661 252.816 127.535 253.129 131.791C253.385 135.279 251.988 138.88 249.259 141.1C248.013 142.113 246.53 142.804 244.96 143.13C244.465 143.233 244.039 143.09 243.721 142.827C243.324 143.594 242.758 144.275 242.023 144.794C239.871 146.313 237.844 146.336 235.707 144.924C235.38 144.708 234.527 143.905 234.489 143.612C233.23 145.428 231.415 146.752 229.007 145.93C225.66 144.787 225.483 141.485 226.229 138.525Z" fill="white" stroke="#272626" stroke-width="1.5" stroke-miterlimit="10" stroke-linecap="round" stroke-linejoin="round"/>
<path d="M240.827 101.35C237.402 95.2985 231.376 90.9758 224.598 89.5261C217.292 87.9627 209.403 89.9819 203.707 94.8204C203.691 94.8336 203.681 94.8516 203.667 94.8651C203.512 94.9485 203.391 95.0973 203.352 95.326C202.957 97.6362 203.386 100.004 204.505 102.057C205.046 103.052 205.772 103.964 206.625 104.71C207.512 105.486 208.64 106.03 209.819 105.735C209.972 105.75 210.126 105.719 210.245 105.617C212.08 104.054 214.093 102.615 216.37 101.779C218.23 101.095 220.215 100.877 222.154 101.342C223.872 101.755 225.451 102.647 226.792 103.787C230.07 106.574 231.729 110.704 232.911 114.737C233.036 115.165 235.994 113.881 238.977 113.538C241.477 113.251 244.096 113.971 244.096 113.561C244.088 109.29 242.928 105.06 240.827 101.35Z" fill="#272626"/>
<path d="M228.862 139.123C228.862 139.123 225.41 135.943 229.466 132.43" stroke="#272626" stroke-width="1.5" stroke-miterlimit="10" stroke-linecap="round" stroke-linejoin="round"/>
<path d="M234.491 143.608C234.491 143.608 235.45 142.31 236.387 140.022" stroke="#272626" stroke-width="1.5" stroke-miterlimit="10" stroke-linecap="round" stroke-linejoin="round"/>
<path d="M243.732 142.825C243.732 142.825 244.652 141.384 244.439 139.634" stroke="#272626" stroke-width="1.5" stroke-miterlimit="10" stroke-linecap="round" stroke-linejoin="round"/>
<path d="M242.789 118.477C242.789 118.477 244.82 118.47 246.943 120.01" stroke="#272626" stroke-width="1.5" stroke-miterlimit="10" stroke-linecap="round" stroke-linejoin="round"/>
<path d="M229.31 121.063C229.31 121.063 231.509 119.051 233.564 118.422" stroke="#272626" stroke-width="1.5" stroke-miterlimit="10" stroke-linecap="round" stroke-linejoin="round"/>
<path d="M228.425 134.648C223.513 145.933 225.154 159.999 228.652 168.091C230.78 173.012 234.329 175.963 239.955 176.102C243.881 176.2 246.681 173.551 246.681 170.321C246.681 165.254 243.048 163.132 238.461 163.541C231.268 164.183 229.287 173.274 229.757 179.906C230.444 189.581 242.897 203.171 255.612 202.17" stroke="#272626" stroke-width="1.5" stroke-miterlimit="10"/>
<path d="M276.6 217.762C276.171 217.762 275.74 217.752 275.3 217.732C274.536 217.697 271.44 217.527 269.162 217.367C268.694 217.334 268.265 217.302 267.898 217.273C267.312 217.224 266.981 217.189 266.789 217.156C258.542 215.86 254.224 211.332 253.595 203.317C253.567 202.979 253.56 202.625 253.578 202.24C253.595 201.856 253.633 201.505 253.694 201.163C255.039 193.241 259.745 189.123 268.083 188.58C268.233 188.567 268.497 188.562 268.836 188.562L269.314 188.563C269.657 188.563 270.052 188.571 270.47 188.584C272.699 188.623 275.821 188.731 276.603 188.768C282 189.011 286.583 190.675 289.859 193.578C293.005 196.367 294.639 200.098 294.459 204.085C294.096 212.138 286.752 217.762 276.6 217.762Z" fill="#F3A391"/>
<path d="M268.833 189.1C268.945 189.1 269.066 189.101 269.194 189.102C269.235 189.102 269.278 189.102 269.321 189.102C269.66 189.102 270.05 189.109 270.463 189.122C272.734 189.162 275.844 189.272 276.589 189.305C287.584 189.801 294.282 196.362 293.936 204.065C293.604 211.471 286.887 217.231 276.61 217.231C276.191 217.231 275.767 217.221 275.335 217.202C274.583 217.167 271.476 216.996 269.21 216.838C268.745 216.805 268.317 216.773 267.95 216.744C267.467 216.703 267.088 216.668 266.89 216.634C257.657 215.181 254.649 209.792 254.138 203.279C254.11 202.947 254.106 202.61 254.121 202.268C254.137 201.926 254.17 201.59 254.229 201.262C255.322 194.829 258.802 189.726 268.127 189.117C268.275 189.105 268.52 189.1 268.833 189.1ZM268.833 188.031C268.447 188.031 268.211 188.037 268.044 188.05C259.44 188.612 254.572 192.875 253.178 201.082C253.115 201.435 253.075 201.81 253.056 202.219C253.038 202.628 253.044 203.005 253.076 203.371C253.726 211.66 258.191 216.346 266.725 217.688C266.919 217.722 267.242 217.756 267.862 217.808C268.236 217.838 268.666 217.87 269.135 217.904C271.432 218.064 274.527 218.235 275.287 218.269C275.73 218.289 276.175 218.299 276.61 218.299C287.064 218.299 294.627 212.466 295.003 204.112C295.394 195.41 287.67 188.734 276.638 188.236C275.844 188.2 272.703 188.091 270.482 188.052C270.071 188.039 269.67 188.031 269.321 188.031H269.188H268.833Z" fill="#272626"/>
<path d="M254.15 201.637L254.094 202.883L270.546 203.625L270.602 202.38L254.15 201.637Z" fill="#272626"/>
<path d="M261.366 205.018C260.591 204.983 259.989 204.322 260.023 203.546L260.113 201.535C260.148 200.779 260.766 200.188 261.519 200.188L266.535 200.412C267.31 200.447 267.913 201.108 267.878 201.884L267.788 203.895C267.755 204.651 267.137 205.242 266.383 205.242C266.374 205.242 261.366 205.018 261.366 205.018Z" fill="#EFC941"/>
<path d="M261.515 200.718C261.528 200.718 261.541 200.718 261.554 200.718L266.506 200.942C266.988 200.964 267.361 201.373 267.34 201.857L267.25 203.868C267.228 204.337 266.841 204.705 266.377 204.705C266.363 204.705 266.35 204.705 266.337 204.704L261.386 204.481C260.904 204.459 260.531 204.049 260.552 203.566L260.642 201.555C260.663 201.084 261.05 200.718 261.515 200.718ZM261.515 199.648C260.474 199.648 259.622 200.465 259.576 201.507L259.485 203.518C259.437 204.589 260.268 205.501 261.338 205.549L266.289 205.772C266.318 205.774 266.348 205.774 266.377 205.774C267.418 205.774 268.269 204.958 268.316 203.916L268.406 201.905C268.454 200.833 267.623 199.922 266.553 199.874L261.603 199.651C261.573 199.649 261.544 199.648 261.515 199.648Z" fill="#272626"/>
<path d="M270.47 189.122C271.165 193.765 271.404 198.411 271.196 203.038C270.988 207.665 270.332 212.271 269.218 216.837C268.753 216.804 268.324 216.772 267.958 216.743C270.198 207.648 270.615 198.363 269.201 189.102C269.568 189.1 270.004 189.108 270.47 189.122Z" fill="#272626"/>
<path d="M187.91 286.363C187.37 286.363 186.825 286.342 186.29 286.301C181.361 285.921 174.468 283.724 169.617 275.417C167.459 271.719 166.562 267.533 167.094 263.633C167.8 258.441 170.983 252.252 182.138 252.252C182.485 252.252 182.837 252.258 183.2 252.269L186.456 244.262L188.263 224.988C188.272 224.892 188.307 224.8 188.364 224.723C188.513 224.518 192.083 219.719 198.134 219.719C200.82 219.719 203.576 220.684 206.324 222.585C211.591 226.23 217.123 237.627 217.265 250.388C217.408 263.253 212.005 274.314 202.055 281.535C197.702 284.693 192.811 286.363 187.91 286.363Z" fill="#9775F6"/>
<path d="M198.129 220.249C200.42 220.249 203.07 220.982 206.016 223.02C215.821 229.808 225.961 263.52 201.737 281.097C197.686 284.038 192.87 285.823 187.906 285.823C187.381 285.823 186.855 285.803 186.327 285.762C181.006 285.352 174.636 282.954 170.074 275.142C168.056 271.685 167.078 267.668 167.618 263.7C168.303 258.672 171.396 252.781 182.133 252.781C182.591 252.781 183.062 252.792 183.548 252.814L186.976 244.385L188.791 225.032C188.791 225.033 192.28 220.25 198.129 220.249ZM198.131 219.18H198.129C191.81 219.18 188.084 224.189 187.928 224.403C187.814 224.558 187.745 224.741 187.728 224.934L185.928 244.129L182.84 251.721C182.601 251.715 182.365 251.713 182.133 251.713C169.985 251.713 167.162 259.134 166.56 263.557C166.013 267.576 166.934 271.883 169.152 275.683C174.118 284.19 181.188 286.439 186.244 286.829C186.793 286.871 187.352 286.893 187.905 286.893C192.92 286.893 197.92 285.188 202.363 281.964C212.458 274.638 217.938 263.421 217.793 250.378C217.65 237.445 212.001 225.864 206.622 222.141C203.784 220.176 200.927 219.18 198.131 219.18Z" fill="#272626"/>
<path d="M159.027 188.719C163.696 188.719 167.404 192.629 167.174 197.3C166.748 205.915 168.837 219.503 182.944 230.87L186.759 228.627L194.589 230.162L195.043 237.61L190.163 241.93L186.872 242.726L186.041 241.916C185.307 241.649 155.139 235.592 150.912 197.815C150.369 192.969 154.158 188.719 159.027 188.719Z" fill="#272626"/>
<path d="M190.091 244.794C188.091 244.794 186.198 243.939 184.616 242.319C184.458 242.158 184.419 241.915 184.517 241.712C184.606 241.526 184.794 241.41 184.997 241.41C185.016 241.41 185.127 241.42 185.162 241.42C185.505 241.42 185.89 241.251 186.23 241.103C187.59 240.509 188.997 239.895 190.094 238.909C191.424 237.713 191.95 236.083 191.657 234.065C191.5 232.98 191.027 232.058 190.327 231.469C189.684 230.93 188.891 230.679 187.832 230.679C187.514 230.679 187.162 230.702 186.757 230.748C186.683 230.756 186.579 230.765 186.451 230.776C184.355 230.959 183.948 231.233 183.869 231.342C183.834 231.608 183.616 231.782 183.352 231.782C183.339 231.782 183.326 231.782 183.312 231.782C183.031 231.763 182.821 231.506 182.821 231.225C182.821 231.157 183.727 224.5 189.404 224.5C190.285 224.5 191.244 224.666 192.253 224.993C195.166 225.938 197.421 228.187 198.438 231.166C199.543 234.392 199.072 237.981 197.18 240.766C195.733 242.897 193.568 244.331 191.241 244.701C190.858 244.763 190.47 244.794 190.091 244.794Z" fill="#9775F6"/>
<path d="M189.415 225.038C190.206 225.038 191.096 225.179 192.099 225.505C198.341 227.531 200.279 235.273 196.751 240.469C195.46 242.37 193.437 243.815 191.17 244.176C190.807 244.234 190.45 244.262 190.101 244.262C188.142 244.262 186.409 243.382 185.007 241.948C185.063 241.954 185.118 241.957 185.173 241.957C185.614 241.957 186.045 241.775 186.454 241.596C187.87 240.978 189.311 240.343 190.461 239.31C192.028 237.901 192.49 236.025 192.196 233.992C192.035 232.879 191.541 231.785 190.68 231.063C189.841 230.359 188.861 230.148 187.843 230.148C187.468 230.148 187.088 230.176 186.708 230.22C186.134 230.285 183.485 230.403 183.368 231.224C183.39 231.056 184.263 225.038 189.415 225.038ZM183.366 231.225C183.365 231.227 183.365 231.228 183.365 231.228C183.365 231.227 183.366 231.226 183.366 231.225ZM189.415 223.969C183.387 223.969 182.356 230.745 182.309 231.074L182.309 231.077V231.079C182.308 231.082 182.308 231.086 182.307 231.089V231.09V231.091C182.306 231.103 182.305 231.116 182.303 231.128C182.3 231.16 182.299 231.194 182.299 231.226C182.299 231.788 182.734 232.255 183.294 232.293C183.318 232.295 183.343 232.296 183.367 232.296C183.787 232.296 184.159 232.05 184.332 231.683C184.552 231.582 185.106 231.433 186.506 231.311C186.641 231.299 186.751 231.289 186.828 231.28C187.212 231.236 187.545 231.215 187.843 231.215C188.77 231.215 189.453 231.427 189.995 231.881C190.586 232.377 191.004 233.202 191.14 234.144C191.404 235.975 190.936 237.445 189.747 238.513C188.715 239.441 187.348 240.038 186.027 240.615C185.75 240.737 185.404 240.887 185.173 240.887C185.157 240.887 185.14 240.886 185.123 240.884C185.084 240.88 185.045 240.878 185.007 240.878C184.602 240.878 184.227 241.109 184.047 241.48C183.85 241.886 183.929 242.373 184.245 242.695C185.93 244.419 187.954 245.33 190.1 245.33C190.508 245.33 190.924 245.297 191.337 245.231C193.809 244.838 196.104 243.321 197.633 241.069C199.618 238.146 200.112 234.38 198.955 230.995C197.882 227.857 195.503 225.484 192.428 224.486C191.366 224.143 190.352 223.969 189.415 223.969Z" fill="#272626"/>
<path d="M183.011 252.105C183.011 252.105 188.067 251.573 192.099 257.964" stroke="#272626" stroke-width="1.5" stroke-miterlimit="10" stroke-linecap="round" stroke-linejoin="round"/>
<path d="M122.024 185.9C124.837 189.633 123.955 194.955 120.094 197.584C112.974 202.433 103.406 212.288 102.847 230.417L106.932 232.116L105.409 239.321L104.764 244.152L98.3824 242.852L95.7663 240.699L95.91 239.546C95.6809 238.799 82.3357 211.022 109.887 184.888C113.424 181.536 119.092 182.007 122.024 185.9Z" fill="#272626"/>
<path d="M50.084 240.942C50.084 240.942 50.1494 226.964 63.2215 224.05C67.2862 223.145 71.5359 223.725 75.348 225.405C79.0214 227.023 84.2031 229.552 87.1529 232.081C87.1529 232.081 87.3051 225.293 95.5149 225.701C103.725 226.109 109.212 225.714 108.144 239.827C108.144 239.827 111.292 259.995 108.247 262.314L50.084 240.942Z" fill="#9775F6" stroke="#272626" stroke-width="1.5" stroke-miterlimit="10" stroke-linejoin="round"/>
<path d="M62.6331 238.567C58.3172 236.388 52.942 237.553 50.2341 241.565C48.7321 243.79 48.0256 246.887 49.9096 251.004C54.5464 261.14 79.4994 265.218 79.4994 265.218C79.4994 265.218 86.4549 266.107 92.9948 269.173C99.534 272.238 115.027 266.109 105.51 254.485C105.509 254.484 105.51 254.484 105.508 254.482C105.47 254.443 100.271 249.211 88.5324 249.719C79.8324 250.095 69.7756 242.173 62.6331 238.567Z" fill="white" stroke="#272626" stroke-width="1.5" stroke-miterlimit="10" stroke-linejoin="round"/>
<path d="M86.5068 231.562C86.5068 231.562 91.8821 235.372 94.627 240.337" stroke="#272626" stroke-width="1.5" stroke-miterlimit="10" stroke-linecap="round" stroke-linejoin="round"/>
<path d="M108.151 239.827C108.151 239.827 102.467 240.235 99.2793 239.031" stroke="#272626" stroke-width="1.5" stroke-miterlimit="10" stroke-linecap="round" stroke-linejoin="round"/>
<path d="M16.9596 70.1287C17.0098 70.2365 17.0762 70.3453 17.1427 70.4548C18.2111 72.1753 19.2556 73.9152 20.2842 75.6591C21.3742 77.5008 22.4473 79.3523 23.5263 81.1983C24.436 82.7527 25.351 84.3016 26.2777 85.8462C27.7059 88.2185 29.164 90.5654 30.7014 92.8711C33.0763 96.4365 35.6544 99.8621 38.3898 103.155C40.821 106.084 43.7205 109.059 47.2771 110.561C53.2918 113.096 59.0859 109.32 63.265 105.446L78.4051 84.8153C76.753 87.4788 67.0782 86.6066 61.3439 92.5808C59.4375 95.1784 57.2957 97.8574 54.8704 99.9954C53.0279 101.625 51.9096 101.939 49.8788 100.361C44.5322 96.2224 40.6111 89.6546 37.0698 84.0019C36.0811 82.4194 35.1108 80.8159 34.1567 79.2148C33.1142 77.4529 32.0829 75.6816 31.0456 73.9151C30.8055 73.5022 30.565 73.095 30.3249 72.6821C29.2415 70.8244 28.1461 68.9774 27.0289 67.1384C26.6218 66.4661 26.2148 65.7937 25.7961 65.1264C24.3474 62.8015 21.9979 62.3749 19.9988 63.0779C18.7611 63.5111 17.6589 64.3811 16.9949 65.5012C16.2181 66.8011 16.0453 68.4434 16.9596 70.1287Z" fill="#272626"/>
<path d="M24.86 58.7796C24.8311 58.7487 24.6589 57.645 23.9816 56.6394C22.9625 55.1281 20.8273 53.4686 19.1307 52.6917C17.6486 52.0134 15.947 51.8853 14.4824 52.7231C12.8647 53.6486 12.5534 55.6814 13.3615 57.2556C13.2003 57.1586 12.958 57.0333 12.6469 56.9284C12.4476 56.8613 12.3025 56.8315 12.263 56.8243C11.6997 56.7299 11.1206 56.7124 10.5556 56.7964C9.23828 56.9909 8.13811 57.8375 7.53347 58.9795C6.84427 60.2795 6.96112 61.7034 7.12212 63.1156C7.08135 63.1183 6.64034 63.1288 6.60023 63.1322C3.83786 63.3723 2.16782 65.8256 2.52551 68.5115C3.3802 74.9264 11.2585 76.8749 11.2585 76.8749C12.3 85.6096 19.3748 83.8415 20.4602 83.5166C20.5407 83.4927 20.6244 83.5375 20.6555 83.6157C22.7167 88.8195 28.1183 86.8505 34.5196 79.3276C40.3807 72.4406 34.2033 71.4327 33.0076 71.305C32.8858 71.2923 32.7805 71.2141 32.7276 71.104C29.1783 63.6922 28.4354 62.5487 24.86 58.7796Z" fill="white"/>
<path d="M24.7047 58.9046C24.6758 58.8737 24.5036 57.77 23.8263 56.7644C22.8072 55.2531 20.6721 53.5936 18.9754 52.8167C17.4933 52.1384 15.7917 52.0103 14.3272 52.8481C12.7094 53.7736 12.3981 55.8064 13.2062 57.3806C13.0443 57.2835 12.8027 57.1583 12.4916 57.0534C12.2923 56.9863 12.1472 56.9565 12.1077 56.9493C11.5444 56.8549 10.9653 56.8374 10.4004 56.9214C9.083 57.1159 7.98283 57.9625 7.37819 59.1045C6.68896 60.4052 6.80514 61.8284 6.96685 63.2407C6.92607 63.2433 6.48507 63.2537 6.44496 63.2572C3.68259 63.4973 2.01254 65.9506 2.37024 68.6365C3.22492 75.0514 11.1032 76.9999 11.1032 76.9999C12.1447 85.7346 19.2196 83.9664 20.3049 83.6416C20.3854 83.6177 20.4691 83.6625 20.4995 83.7406C22.5607 88.9444 27.9623 86.9755 34.3636 79.4526C40.2247 72.5656 34.0473 71.5577 32.8516 71.4299C32.7298 71.4172 32.6245 71.3398 32.5709 71.2289C29.023 63.8172 28.2808 62.6744 24.7047 58.9046Z" fill="white"/>
<path d="M24.86 58.7796C24.8311 58.7487 24.6589 57.645 23.9816 56.6394C22.9625 55.1281 20.8273 53.4686 19.1307 52.6917C17.6486 52.0134 15.947 51.8853 14.4824 52.7231C12.8647 53.6486 12.5534 55.6814 13.3615 57.2556C13.2003 57.1586 12.958 57.0333 12.6469 56.9284C12.4476 56.8613 12.3025 56.8315 12.263 56.8243C11.6997 56.7299 11.1206 56.7124 10.5556 56.7964C9.23828 56.9909 8.13811 57.8375 7.53347 58.9795C6.84427 60.2795 6.96112 61.7034 7.12212 63.1156C7.08135 63.1183 6.64034 63.1288 6.60023 63.1322C3.83786 63.3723 2.16782 65.8256 2.52551 68.5115C3.3802 74.9264 11.2585 76.8749 11.2585 76.8749C12.3 85.6096 19.3748 83.8415 20.4602 83.5166C20.5407 83.4927 20.6244 83.5375 20.6555 83.6157C22.7167 88.8195 28.1183 86.8505 34.5196 79.3276C40.3807 72.4406 34.2033 71.4327 33.0076 71.305C32.8858 71.2923 32.7805 71.2141 32.7276 71.104C29.1783 63.6922 28.4354 62.5487 24.86 58.7796Z" stroke="#272626" stroke-width="1.5" stroke-miterlimit="10" stroke-linecap="round" stroke-linejoin="round"/>
<path d="M6.16959 71.169C6.16959 71.169 16.1343 76.1423 17.0827 71.3236C18.0452 66.4344 7.13235 63.1147 7.13235 63.1147" fill="white"/>
<path d="M9.45158 63.9771C16.955 67.0623 17.2117 71.2796 17.2117 71.2796C28.8818 66.6995 13.1583 57.1167 13.1583 57.1167C18.3897 60.3023 20.4016 63.4984 20.4016 63.4984C30.2534 59.4489 21.3882 52.3288 17.1195 52.1657" fill="white"/>
<path d="M9.45158 63.9771C16.955 67.0623 17.2117 71.2796 17.2117 71.2796C28.8818 66.6995 13.1583 57.1167 13.1583 57.1167C18.3897 60.3023 20.4016 63.4984 20.4016 63.4984C30.2534 59.4489 21.3882 52.3288 17.1195 52.1657" stroke="#272626" stroke-width="1.5" stroke-miterlimit="10" stroke-linecap="round" stroke-linejoin="round"/>
<path d="M6.16959 71.169C6.16959 71.169 16.1343 76.1423 17.0827 71.3236C18.0452 66.4344 7.13235 63.1147 7.13235 63.1147" stroke="#272626" stroke-width="1.5" stroke-miterlimit="10" stroke-linecap="round" stroke-linejoin="round"/>
<path d="M32.8948 71.2697C34.1093 68.5562 34.3063 65.9164 34.1824 64.7405C33.8668 61.7422 31.4292 60.0382 27.6258 59.1142C22.6513 57.9061 19.9645 58.1342 17.4387 58.4371C15.6376 58.6531 14.0935 59.9862 13.8862 61.7451C13.2886 66.8109 24.0879 68.2863 24.0879 68.2863C24.0879 68.2863 16.8269 74.2406 25.9624 77.8105" fill="white"/>
<path d="M32.8948 71.2697C34.1093 68.5562 34.3063 65.9164 34.1824 64.7405C33.8668 61.7422 31.4292 60.0382 27.6258 59.1142C22.6513 57.9061 19.9645 58.1342 17.4387 58.4371C15.6376 58.6531 14.0935 59.9862 13.8862 61.7451C13.2886 66.8109 24.0879 68.2863 24.0879 68.2863C24.0879 68.2863 16.8269 74.2406 25.9624 77.8105" stroke="#272626" stroke-width="1.5" stroke-miterlimit="10" stroke-linecap="round" stroke-linejoin="round"/>
<path d="M28.6035 77.6519C28.6035 77.6519 31.4771 75.501 32.8908 71.2709" stroke="#272626" stroke-width="1.5" stroke-miterlimit="10" stroke-linecap="round" stroke-linejoin="round"/>
<path d="M20.4582 83.5157C20.4582 83.5157 23.4801 82.5992 25.5394 80.2561" stroke="#272626" stroke-width="1.5" stroke-miterlimit="10" stroke-linecap="round" stroke-linejoin="round"/>
<path d="M221.476 40.5899L66.0889 39.8906L65.4906 172.84L220.877 173.539L221.476 40.5899Z" fill="#9B67C6"/>
<path d="M220.605 39.8198L64.4668 39.1172L63.779 191.957L219.917 192.66L220.605 39.8198Z" fill="#FBCCED" stroke="black" stroke-width="1.5" stroke-miterlimit="10" stroke-linecap="round" stroke-linejoin="round"/>
<path d="M66.0889 39.8906L143.568 140.171L221.474 40.5842" fill="#FBCCED"/>
<path d="M66.0889 39.8906L143.568 140.171L221.474 40.5842" stroke="black" stroke-width="1.5" stroke-miterlimit="10" stroke-linecap="round" stroke-linejoin="round"/>
<path d="M137.497 16.8605C137.288 16.8605 137.078 16.7913 136.904 16.6487C134.832 14.9622 132.311 14.3656 129.414 14.8731C127.178 15.2659 125.545 16.2004 125.529 16.2089C125.079 16.4698 124.503 16.3159 124.243 15.8661C123.982 15.4155 124.134 14.8396 124.583 14.5773C124.886 14.3998 132.088 10.296 138.092 15.1839C138.496 15.5125 138.558 16.107 138.23 16.5112C138.043 16.7414 137.771 16.8605 137.497 16.8605Z" fill="#272626"/>
<path d="M140.828 34.585C140.828 43.3563 136.543 50.4668 131.257 50.4668C125.972 50.4668 121.687 43.3563 121.687 34.585C121.687 25.8136 125.972 18.7031 131.257 18.7031C136.543 18.7024 140.828 25.8136 140.828 34.585Z" fill="white"/>
<path d="M140.828 34.585C140.828 43.3563 136.543 50.4668 131.257 50.4668C125.972 50.4668 121.687 43.3563 121.687 34.585C121.687 25.8136 125.972 18.7031 131.257 18.7031C136.543 18.7024 140.828 25.8136 140.828 34.585Z" stroke="#272626" stroke-width="1.5" stroke-miterlimit="10" stroke-linecap="round" stroke-linejoin="round"/>
<path d="M128.968 19.1641C128.968 19.1641 134.711 21.3924 136.282 32.2195C136.323 32.5047 136.163 32.7819 135.896 32.8903L131.527 34.6738C131.029 34.8769 131 35.5727 131.479 35.8172L135.684 37.9649C135.891 38.0704 136.022 38.28 136.027 38.5131C136.06 40.1462 135.827 46.6422 130.298 50.3853C130.298 50.3853 122.592 49.1549 121.714 35.5898C120.836 22.0246 128.968 19.1641 128.968 19.1641Z" fill="#272626"/>
<path d="M160.479 16.8606C160.269 16.8606 160.06 16.7914 159.885 16.6489C157.813 14.9623 155.293 14.3657 152.395 14.8732C150.159 15.266 148.526 16.2005 148.51 16.2098C148.06 16.4692 147.484 16.3167 147.223 15.8662C146.963 15.4157 147.114 14.8397 147.563 14.5774C147.868 14.4006 155.069 10.2954 161.073 15.184C161.478 15.5126 161.539 16.1071 161.211 16.5113C161.024 16.7415 160.753 16.8606 160.479 16.8606Z" fill="#272626"/>
<path d="M163.835 34.585C163.835 43.3563 159.55 50.4668 154.264 50.4668C148.978 50.4668 144.693 43.3563 144.693 34.585C144.693 25.8136 148.979 18.7031 154.264 18.7031C159.55 18.7024 163.835 25.8136 163.835 34.585Z" fill="white"/>
<path d="M163.835 34.585C163.835 43.3563 159.55 50.4668 154.264 50.4668C148.978 50.4668 144.693 43.3563 144.693 34.585C144.693 25.8136 148.979 18.7031 154.264 18.7031C159.55 18.7024 163.835 25.8136 163.835 34.585Z" stroke="#272626" stroke-width="1.5" stroke-miterlimit="10" stroke-linecap="round" stroke-linejoin="round"/>
<path d="M151.953 19.1641C151.953 19.1641 157.696 21.3931 159.267 32.2202C159.308 32.5054 159.147 32.7827 158.881 32.891L154.512 34.6745C154.014 34.8777 153.985 35.5727 154.464 35.8179L158.668 37.9656C158.875 38.0711 159.006 38.2807 159.011 38.5138C159.044 40.1469 158.811 46.6429 153.282 50.386C153.282 50.386 145.576 49.1549 144.698 35.5898C143.821 22.0246 151.953 19.1641 151.953 19.1641Z" fill="#272626"/>
<path d="M145.632 50.4667C145.632 52.308 144.142 53.8006 142.304 53.8006C140.466 53.8006 138.977 52.308 138.977 50.4667C138.977 48.6255 140.466 47.1328 142.304 47.1328C144.142 47.1328 145.632 48.6255 145.632 50.4667Z" fill="#F5DC34"/>
<path d="M145.632 50.4667C145.632 52.308 144.142 53.8006 142.304 53.8006C140.466 53.8006 138.977 52.308 138.977 50.4667C138.977 48.6255 140.466 47.1328 142.304 47.1328C144.142 47.1328 145.632 48.6255 145.632 50.4667Z" fill="#E385B0" stroke="#272626" stroke-width="1.5" stroke-miterlimit="10" stroke-linecap="round" stroke-linejoin="round"/>
<path d="M153.059 65.3329C153.046 65.3443 153.034 65.35 153.021 65.3614C148.77 68.3068 143.106 69.0638 137.986 67.8677C136.161 67.4429 134.165 66.7144 132.408 65.6857C129.665 64.0926 127.513 61.7687 127.541 58.7271C127.577 55.9093 129.935 55.0931 132.673 55.056C135.089 55.0261 137.811 55.6035 139.484 55.9599C140.936 56.26 142.394 56.4682 143.883 56.3598C146.287 56.198 148.454 55.1473 150.82 54.8814C151.286 54.8286 151.816 54.798 152.378 54.8194C153.993 54.8607 155.824 55.2164 156.88 56.1089C160.024 58.7927 155.445 63.6727 153.059 65.3329Z" fill="#272626"/>
<path d="M153.064 65.3293C153.051 65.3407 153.039 65.3464 153.026 65.3578C148.776 68.3032 143.112 69.0602 137.991 67.8641C136.166 67.4392 134.17 66.7107 132.413 65.6821C134.431 63.0247 138.237 61.1884 142.634 61.1122C147.05 61.0309 150.936 62.7296 153.064 65.3293Z" fill="#C9611C"/>
<path d="M153.059 65.3329C153.046 65.3443 153.034 65.35 153.021 65.3614C148.77 68.3068 143.106 69.0638 137.986 67.8677C136.161 67.4429 134.165 66.7144 132.408 65.6857C129.665 64.0926 127.513 61.7687 127.541 58.7271C127.577 55.9093 129.935 55.0931 132.673 55.056C135.089 55.0261 137.811 55.6035 139.484 55.9599C140.936 56.26 142.394 56.4682 143.883 56.3598C146.287 56.198 148.454 55.1473 150.82 54.8814C151.286 54.8286 151.816 54.798 152.378 54.8194C153.993 54.8607 155.824 55.2164 156.88 56.1089C160.024 58.7927 155.445 63.6727 153.059 65.3329Z" stroke="#272626" stroke-width="1.5" stroke-miterlimit="10" stroke-linecap="round" stroke-linejoin="round"/>
<path d="M153.064 65.3293C153.051 65.3407 153.039 65.3464 153.026 65.3578C148.776 68.3032 143.112 69.0602 137.991 67.8641C136.166 67.4392 134.17 66.7107 132.413 65.6821C134.431 63.0247 138.237 61.1884 142.634 61.1122C147.05 61.0309 150.936 62.7296 153.064 65.3293Z" stroke="#272626" stroke-width="1.5" stroke-miterlimit="10" stroke-linecap="round" stroke-linejoin="round"/>
</svg>
