<svg width="182" height="224" viewBox="0 0 182 224" fill="none" xmlns="http://www.w3.org/2000/svg">
<path d="M4.758 12.169C4.134 12.169 3.57933 12.0737 3.094 11.883C2.60867 11.6923 2.19267 11.4107 1.846 11.038C1.508 10.6653 1.25233 10.2103 1.079 9.673C0.905667 9.127 0.819 8.50733 0.819 7.814C0.819 7.112 0.905667 6.48367 1.079 5.929C1.261 5.36567 1.521 4.88467 1.859 4.486C2.20567 4.08733 2.613 3.784 3.081 3.576C3.55767 3.35933 4.09067 3.251 4.68 3.251C5.13067 3.251 5.54667 3.316 5.928 3.446C6.30933 3.56733 6.63867 3.74933 6.916 3.992C7.202 4.226 7.423 4.512 7.579 4.85C7.74367 5.188 7.826 5.565 7.826 5.981L6.695 6.267C6.70367 5.825 6.61267 5.461 6.422 5.175C6.24 4.88033 5.98867 4.65933 5.668 4.512C5.356 4.36467 5.018 4.291 4.654 4.291C4.316 4.291 3.98667 4.36033 3.666 4.499C3.354 4.629 3.07667 4.837 2.834 5.123C2.59133 5.40033 2.39633 5.76 2.249 6.202C2.11033 6.63533 2.041 7.15967 2.041 7.775C2.041 8.56367 2.15367 9.205 2.379 9.699C2.613 10.1843 2.938 10.5397 3.354 10.765C3.77 10.9903 4.251 11.103 4.797 11.103C5.32567 11.103 5.75033 11.0077 6.071 10.817C6.40033 10.6177 6.643 10.3447 6.799 9.998C6.955 9.64267 7.04167 9.23533 7.059 8.776L8.138 8.971C8.12933 9.413 8.06 9.829 7.93 10.219C7.8 10.6003 7.59633 10.9383 7.319 11.233C7.05033 11.5277 6.70367 11.7573 6.279 11.922C5.85433 12.0867 5.34733 12.169 4.758 12.169ZM11.8435 12.169C11.0982 12.169 10.5305 11.9133 10.1405 11.402C9.75917 10.882 9.56851 10.102 9.56851 9.062V5.279H10.7645V8.958C10.7645 9.686 10.8772 10.2277 11.1025 10.583C11.3278 10.9383 11.6875 11.116 12.1815 11.116C12.4502 11.116 12.6885 11.051 12.8965 10.921C13.1132 10.791 13.2995 10.6047 13.4555 10.362C13.6202 10.1193 13.7545 9.83333 13.8585 9.504C13.9625 9.17467 14.0362 8.81067 14.0795 8.412V5.279H15.2625V9.192V12H14.2095L14.3135 9.855H14.1055C13.9928 10.3837 13.8325 10.8213 13.6245 11.168C13.4252 11.506 13.1738 11.7573 12.8705 11.922C12.5672 12.0867 12.2248 12.169 11.8435 12.169ZM19.8111 12.169C19.3431 12.169 18.9271 12.117 18.5631 12.013C18.1991 11.9177 17.8958 11.779 17.6531 11.597C17.4104 11.4063 17.2241 11.181 17.0941 10.921C16.9641 10.661 16.8948 10.3793 16.8861 10.076L17.8871 9.803C17.8784 10.089 17.9521 10.3403 18.1081 10.557C18.2641 10.765 18.4894 10.9253 18.7841 11.038C19.0874 11.1507 19.4514 11.207 19.8761 11.207C20.3961 11.207 20.7948 11.1203 21.0721 10.947C21.3581 10.7737 21.5011 10.5353 21.5011 10.232C21.5011 9.98933 21.4231 9.803 21.2671 9.673C21.1111 9.53433 20.8944 9.426 20.6171 9.348C20.3398 9.26133 20.0148 9.18333 19.6421 9.114C19.3301 9.04467 19.0181 8.96667 18.7061 8.88C18.4028 8.79333 18.1211 8.68067 17.8611 8.542C17.6011 8.39467 17.3931 8.204 17.2371 7.97C17.0811 7.736 17.0031 7.44567 17.0031 7.099C17.0031 6.69167 17.1114 6.34067 17.3281 6.046C17.5448 5.75133 17.8524 5.52167 18.2511 5.357C18.6498 5.19233 19.1264 5.11 19.6811 5.11C20.2358 5.11 20.7081 5.19667 21.0981 5.37C21.4881 5.53467 21.7958 5.76867 22.0211 6.072C22.2464 6.37533 22.3764 6.73067 22.4111 7.138L21.3841 7.398C21.3754 7.10333 21.2974 6.86067 21.1501 6.67C21.0028 6.47067 20.7991 6.32333 20.5391 6.228C20.2878 6.124 19.9888 6.072 19.6421 6.072C19.1741 6.072 18.8058 6.15867 18.5371 6.332C18.2684 6.50533 18.1341 6.74367 18.1341 7.047C18.1341 7.27233 18.2121 7.45433 18.3681 7.593C18.5328 7.73167 18.7538 7.84 19.0311 7.918C19.3084 7.996 19.6161 8.074 19.9541 8.152C20.3008 8.22133 20.6301 8.29933 20.9421 8.386C21.2628 8.47267 21.5488 8.58533 21.8001 8.724C22.0514 8.86267 22.2508 9.049 22.3981 9.283C22.5454 9.50833 22.6191 9.79867 22.6191 10.154C22.6191 10.596 22.5021 10.9687 22.2681 11.272C22.0341 11.5667 21.7048 11.792 21.2801 11.948C20.8641 12.0953 20.3744 12.169 19.8111 12.169ZM26.3016 12.13C25.6776 12.13 25.214 11.961 24.9106 11.623C24.6073 11.285 24.4556 10.7693 24.4556 10.076V6.267H23.4546L23.4676 5.279H24.0916C24.3083 5.279 24.4643 5.24433 24.5596 5.175C24.6636 5.097 24.7243 4.967 24.7416 4.785L24.8716 3.758H25.5996V5.279H27.5366V6.28H25.5996V10.05C25.5996 10.3967 25.6776 10.648 25.8336 10.804C25.9983 10.9513 26.2323 11.025 26.5356 11.025C26.7003 11.025 26.8693 11.0033 27.0426 10.96C27.2246 10.9167 27.4023 10.83 27.5756 10.7V11.883C27.333 11.9783 27.1033 12.0433 26.8866 12.078C26.67 12.1127 26.475 12.13 26.3016 12.13ZM31.843 12.169C31.193 12.169 30.621 12.0303 30.127 11.753C29.6417 11.467 29.2603 11.0597 28.983 10.531C28.7143 10.0023 28.58 9.361 28.58 8.607C28.58 7.827 28.723 7.18133 29.009 6.67C29.3037 6.15 29.6937 5.76 30.179 5.5C30.6643 5.24 31.2103 5.11 31.817 5.11C32.4323 5.11 32.987 5.24867 33.481 5.526C33.975 5.79467 34.365 6.19333 34.651 6.722C34.937 7.242 35.08 7.88767 35.08 8.659C35.08 9.43033 34.937 10.076 34.651 10.596C34.365 11.116 33.975 11.5103 33.481 11.779C32.9957 12.039 32.4497 12.169 31.843 12.169ZM31.882 11.194C32.298 11.194 32.6533 11.0943 32.948 10.895C33.2513 10.687 33.481 10.3967 33.637 10.024C33.8017 9.65133 33.884 9.20933 33.884 8.698C33.884 8.16933 33.8017 7.71433 33.637 7.333C33.4723 6.943 33.2297 6.644 32.909 6.436C32.597 6.21933 32.2243 6.111 31.791 6.111C31.3837 6.111 31.0283 6.20633 30.725 6.397C30.4217 6.58767 30.1877 6.86933 30.023 7.242C29.8583 7.606 29.776 8.05233 29.776 8.581C29.776 9.39567 29.9667 10.037 30.348 10.505C30.7293 10.9643 31.2407 11.194 31.882 11.194ZM36.7643 12V7.814V5.279H37.8173L37.7133 7.398H37.9213C38.034 6.88667 38.1856 6.462 38.3763 6.124C38.5756 5.786 38.814 5.53467 39.0913 5.37C39.3773 5.19667 39.7023 5.11 40.0663 5.11C40.491 5.11 40.842 5.214 41.1193 5.422C41.3966 5.63 41.6003 5.90733 41.7303 6.254C41.869 6.592 41.9426 6.96033 41.9513 7.359H42.1463C42.2503 6.87367 42.3976 6.46633 42.5883 6.137C42.7876 5.799 43.0346 5.54333 43.3293 5.37C43.6326 5.19667 43.9706 5.11 44.3433 5.11C44.69 5.11 44.9933 5.17933 45.2533 5.318C45.5133 5.45667 45.7343 5.66467 45.9163 5.942C46.0983 6.21067 46.2326 6.54433 46.3193 6.943C46.4146 7.34167 46.4623 7.801 46.4623 8.321V12H45.2663V8.477C45.2663 7.96567 45.2186 7.541 45.1233 7.203C45.0366 6.85633 44.898 6.60067 44.7073 6.436C44.5253 6.26267 44.2913 6.176 44.0053 6.176C43.676 6.176 43.3856 6.28867 43.1343 6.514C42.883 6.73067 42.675 7.034 42.5103 7.424C42.3456 7.814 42.2416 8.26033 42.1983 8.763V12H41.0283V8.594C41.0283 8.05667 40.9806 7.61033 40.8853 7.255C40.7986 6.89967 40.66 6.631 40.4693 6.449C40.2786 6.267 40.0403 6.176 39.7543 6.176C39.4076 6.176 39.1086 6.293 38.8573 6.527C38.606 6.761 38.4023 7.08167 38.2463 7.489C38.099 7.88767 37.9993 8.32967 37.9473 8.815V12H36.7643ZM51.3176 12.169C50.7803 12.169 50.3079 12.091 49.9006 11.935C49.5019 11.7703 49.1639 11.5363 48.8866 11.233C48.6093 10.9297 48.4013 10.57 48.2626 10.154C48.1239 9.738 48.0546 9.27 48.0546 8.75C48.0546 8.22133 48.1239 7.736 48.2626 7.294C48.4013 6.852 48.6049 6.46633 48.8736 6.137C49.1423 5.80767 49.4716 5.55633 49.8616 5.383C50.2603 5.201 50.7066 5.11 51.2006 5.11C51.6426 5.11 52.0456 5.18367 52.4096 5.331C52.7736 5.47833 53.0813 5.708 53.3326 6.02C53.5926 6.32333 53.7876 6.709 53.9176 7.177C54.0476 7.63633 54.0996 8.178 54.0736 8.802L48.7956 8.854V8.048L53.3586 7.996L52.9556 8.555C52.9989 8.009 52.9469 7.55833 52.7996 7.203C52.6609 6.839 52.4529 6.566 52.1756 6.384C51.8983 6.202 51.5733 6.111 51.2006 6.111C50.8019 6.111 50.4509 6.215 50.1476 6.423C49.8529 6.631 49.6233 6.93 49.4586 7.32C49.2939 7.71 49.2116 8.18233 49.2116 8.737C49.2116 9.53433 49.3893 10.1453 49.7446 10.57C50.0999 10.986 50.6286 11.194 51.3306 11.194C51.6079 11.194 51.8463 11.1637 52.0456 11.103C52.2449 11.0337 52.4139 10.9427 52.5526 10.83C52.6999 10.7173 52.8213 10.583 52.9166 10.427C53.0119 10.271 53.0856 10.102 53.1376 9.92L54.1776 10.154C54.0909 10.4747 53.9653 10.7607 53.8006 11.012C53.6446 11.2547 53.4453 11.4627 53.2026 11.636C52.9686 11.8093 52.6956 11.9393 52.3836 12.026C52.0716 12.1213 51.7163 12.169 51.3176 12.169ZM55.7692 12V8.36V5.279H56.8482L56.7312 7.606H56.9522C57.0389 7.10333 57.1602 6.66567 57.3162 6.293C57.4809 5.92033 57.7019 5.63 57.9792 5.422C58.2565 5.214 58.5945 5.11 58.9932 5.11C59.0885 5.11 59.1925 5.11867 59.3052 5.136C59.4179 5.14467 59.5435 5.17067 59.6822 5.214L59.6172 6.462C59.4959 6.41 59.3659 6.37533 59.2272 6.358C59.0972 6.332 58.9759 6.319 58.8632 6.319C58.5165 6.319 58.2219 6.42733 57.9792 6.644C57.7365 6.86067 57.5329 7.15533 57.3682 7.528C57.2035 7.892 57.0692 8.29933 56.9652 8.75V12H55.7692ZM63.4449 12.169C62.9769 12.169 62.5609 12.117 62.1969 12.013C61.8329 11.9177 61.5295 11.779 61.2869 11.597C61.0442 11.4063 60.8579 11.181 60.7279 10.921C60.5979 10.661 60.5285 10.3793 60.5199 10.076L61.5209 9.803C61.5122 10.089 61.5859 10.3403 61.7419 10.557C61.8979 10.765 62.1232 10.9253 62.4179 11.038C62.7212 11.1507 63.0852 11.207 63.5099 11.207C64.0299 11.207 64.4285 11.1203 64.7059 10.947C64.9919 10.7737 65.1349 10.5353 65.1349 10.232C65.1349 9.98933 65.0569 9.803 64.9009 9.673C64.7449 9.53433 64.5282 9.426 64.2509 9.348C63.9735 9.26133 63.6485 9.18333 63.2759 9.114C62.9639 9.04467 62.6519 8.96667 62.3399 8.88C62.0365 8.79333 61.7549 8.68067 61.4949 8.542C61.2349 8.39467 61.0269 8.204 60.8709 7.97C60.7149 7.736 60.6369 7.44567 60.6369 7.099C60.6369 6.69167 60.7452 6.34067 60.9619 6.046C61.1785 5.75133 61.4862 5.52167 61.8849 5.357C62.2835 5.19233 62.7602 5.11 63.3149 5.11C63.8695 5.11 64.3419 5.19667 64.7319 5.37C65.1219 5.53467 65.4295 5.76867 65.6549 6.072C65.8802 6.37533 66.0102 6.73067 66.0449 7.138L65.0179 7.398C65.0092 7.10333 64.9312 6.86067 64.7839 6.67C64.6365 6.47067 64.4329 6.32333 64.1729 6.228C63.9215 6.124 63.6225 6.072 63.2759 6.072C62.8079 6.072 62.4395 6.15867 62.1709 6.332C61.9022 6.50533 61.7679 6.74367 61.7679 7.047C61.7679 7.27233 61.8459 7.45433 62.0019 7.593C62.1665 7.73167 62.3875 7.84 62.6649 7.918C62.9422 7.996 63.2499 8.074 63.5879 8.152C63.9345 8.22133 64.2639 8.29933 64.5759 8.386C64.8965 8.47267 65.1825 8.58533 65.4339 8.724C65.6852 8.86267 65.8845 9.049 66.0319 9.283C66.1792 9.50833 66.2529 9.79867 66.2529 10.154C66.2529 10.596 66.1359 10.9687 65.9019 11.272C65.6679 11.5667 65.3385 11.792 64.9139 11.948C64.4979 12.0953 64.0082 12.169 63.4449 12.169Z" fill="black"/>
<path d="M1.044 40V32.08H2.136V40H1.044ZM1.392 40V39.04H5.844V40H1.392ZM9.56541 40.156C8.97341 40.156 8.44941 40.028 7.99341 39.772C7.54541 39.508 7.19341 39.132 6.93741 38.644C6.68141 38.156 6.55341 37.564 6.55341 36.868C6.55341 36.148 6.68541 35.552 6.94941 35.08C7.22141 34.6 7.58141 34.24 8.02941 34C8.48541 33.76 8.98941 33.64 9.54141 33.64C10.1174 33.64 10.6294 33.768 11.0774 34.024C11.5334 34.272 11.8934 34.64 12.1574 35.128C12.4214 35.608 12.5534 36.204 12.5534 36.916C12.5534 37.628 12.4214 38.224 12.1574 38.704C11.9014 39.184 11.5454 39.548 11.0894 39.796C10.6414 40.036 10.1334 40.156 9.56541 40.156ZM9.61341 39.256C9.99741 39.256 10.3254 39.164 10.5974 38.98C10.8694 38.788 11.0814 38.52 11.2334 38.176C11.3854 37.832 11.4614 37.424 11.4614 36.952C11.4614 36.464 11.3814 36.044 11.2214 35.692C11.0694 35.332 10.8494 35.056 10.5614 34.864C10.2734 34.664 9.92541 34.564 9.51741 34.564C9.14141 34.564 8.81341 34.652 8.53341 34.828C8.25341 35.004 8.03741 35.264 7.88541 35.608C7.73341 35.944 7.65741 36.356 7.65741 36.844C7.65741 37.596 7.83341 38.188 8.18541 38.62C8.53741 39.044 9.01341 39.256 9.61341 39.256ZM16.4362 42.112C15.7802 42.112 15.2402 42.06 14.8162 41.956C14.4002 41.86 14.0882 41.708 13.8802 41.5C13.6802 41.292 13.5802 41.036 13.5802 40.732C13.5802 40.364 13.7242 40.064 14.0122 39.832C14.3002 39.592 14.7402 39.432 15.3322 39.352V39.124C14.9002 39.124 14.5762 39.072 14.3602 38.968C14.1522 38.864 14.0482 38.708 14.0482 38.5C14.0482 38.284 14.1562 38.104 14.3722 37.96C14.5882 37.808 14.9362 37.668 15.4162 37.54V37.312C14.9362 37.304 14.5642 37.16 14.3002 36.88C14.0442 36.592 13.9162 36.22 13.9162 35.764C13.9162 35.356 14.0282 35.004 14.2522 34.708C14.4762 34.404 14.7962 34.172 15.2122 34.012C15.6362 33.844 16.1402 33.76 16.7242 33.76H19.6402V34.684L17.7322 34.384V34.612C18.1962 34.708 18.5522 34.872 18.8002 35.104C19.0482 35.328 19.1722 35.632 19.1722 36.016C19.1722 36.36 19.0722 36.66 18.8722 36.916C18.6722 37.172 18.3762 37.372 17.9842 37.516C17.5922 37.652 17.1122 37.72 16.5442 37.72C16.4322 37.72 16.3162 37.716 16.1962 37.708C16.0762 37.692 15.9122 37.668 15.7042 37.636C15.4962 37.772 15.3242 37.896 15.1882 38.008C15.0602 38.12 14.9962 38.22 14.9962 38.308C14.9962 38.396 15.0562 38.468 15.1762 38.524C15.3042 38.572 15.4562 38.608 15.6322 38.632C15.8082 38.648 15.9722 38.656 16.1242 38.656H17.5162C17.6762 38.656 17.8762 38.672 18.1162 38.704C18.3642 38.728 18.6082 38.792 18.8482 38.896C19.0962 39 19.3042 39.164 19.4722 39.388C19.6402 39.604 19.7242 39.9 19.7242 40.276C19.7242 40.716 19.5962 41.068 19.3402 41.332C19.0842 41.604 18.7122 41.8 18.2242 41.92C17.7362 42.048 17.1402 42.112 16.4362 42.112ZM16.4602 41.212C16.9882 41.212 17.4162 41.176 17.7442 41.104C18.0802 41.04 18.3242 40.932 18.4762 40.78C18.6362 40.636 18.7162 40.452 18.7162 40.228C18.7162 40.02 18.6642 39.86 18.5602 39.748C18.4562 39.628 18.3242 39.544 18.1642 39.496C18.0042 39.448 17.8402 39.42 17.6722 39.412C17.5122 39.404 17.3762 39.4 17.2642 39.4H15.8722C15.4082 39.496 15.0882 39.636 14.9122 39.82C14.7362 40.004 14.6482 40.2 14.6482 40.408C14.6482 40.632 14.7282 40.8 14.8882 40.912C15.0482 41.032 15.2642 41.112 15.5362 41.152C15.8162 41.192 16.1242 41.212 16.4602 41.212ZM16.6042 37.012C17.1082 37.012 17.4882 36.908 17.7442 36.7C18.0002 36.492 18.1282 36.212 18.1282 35.86C18.1282 35.484 17.9962 35.176 17.7322 34.936C17.4762 34.688 17.0882 34.564 16.5682 34.564C16.0642 34.564 15.6762 34.68 15.4042 34.912C15.1402 35.144 15.0082 35.444 15.0082 35.812C15.0082 36.052 15.0682 36.264 15.1882 36.448C15.3082 36.624 15.4842 36.764 15.7162 36.868C15.9562 36.964 16.2522 37.012 16.6042 37.012ZM24.2471 40V32.08H25.3631V40H24.2471ZM27.3623 40V36.124V33.796H28.3463L28.2383 35.74H28.4423C28.5543 35.26 28.7023 34.868 28.8863 34.564C29.0783 34.252 29.3183 34.02 29.6063 33.868C29.8943 33.716 30.2303 33.64 30.6143 33.64C31.3023 33.64 31.8223 33.888 32.1743 34.384C32.5343 34.872 32.7143 35.6 32.7143 36.568V40H31.6103V36.664C31.6103 35.968 31.4983 35.452 31.2743 35.116C31.0583 34.78 30.7383 34.612 30.3143 34.612C29.9303 34.612 29.6023 34.732 29.3303 34.972C29.0663 35.212 28.8583 35.528 28.7063 35.92C28.5543 36.304 28.4703 36.72 28.4543 37.168V40H27.3623Z" fill="black" fill-opacity="0.6"/>
<path d="M3.804 67.156C3.284 67.156 2.824 67.1 2.424 66.988C2.024 66.876 1.688 66.712 1.416 66.496C1.152 66.272 0.956 66 0.828 65.68C0.7 65.36 0.648 64.988 0.672 64.564L1.656 64.348C1.624 64.764 1.692 65.112 1.86 65.392C2.028 65.672 2.284 65.884 2.628 66.028C2.972 66.164 3.38 66.232 3.852 66.232C4.3 66.232 4.68 66.176 4.992 66.064C5.304 65.952 5.536 65.796 5.688 65.596C5.848 65.396 5.928 65.168 5.928 64.912C5.928 64.624 5.836 64.396 5.652 64.228C5.468 64.06 5.22 63.932 4.908 63.844C4.604 63.748 4.264 63.66 3.888 63.58C3.52 63.5 3.152 63.408 2.784 63.304C2.416 63.2 2.084 63.068 1.788 62.908C1.492 62.74 1.256 62.524 1.08 62.26C0.904 61.988 0.816 61.644 0.816 61.228C0.816 60.756 0.932 60.348 1.164 60.004C1.404 59.66 1.74 59.396 2.172 59.212C2.604 59.02 3.108 58.924 3.684 58.924C4.268 58.924 4.784 59.016 5.232 59.2C5.68 59.384 6.036 59.656 6.3 60.016C6.572 60.368 6.716 60.804 6.732 61.324L5.7 61.576C5.7 61.288 5.648 61.036 5.544 60.82C5.448 60.596 5.312 60.416 5.136 60.28C4.96 60.136 4.748 60.028 4.5 59.956C4.252 59.876 3.976 59.836 3.672 59.836C3.32 59.836 3.008 59.892 2.736 60.004C2.464 60.116 2.252 60.268 2.1 60.46C1.948 60.652 1.872 60.88 1.872 61.144C1.872 61.456 1.98 61.704 2.196 61.888C2.412 62.064 2.696 62.204 3.048 62.308C3.408 62.412 3.788 62.508 4.188 62.596C4.532 62.668 4.868 62.756 5.196 62.86C5.532 62.956 5.836 63.088 6.108 63.256C6.38 63.416 6.596 63.628 6.756 63.892C6.916 64.156 6.996 64.492 6.996 64.9C6.996 65.356 6.876 65.752 6.636 66.088C6.404 66.424 6.052 66.688 5.58 66.88C5.108 67.064 4.516 67.156 3.804 67.156ZM8.61263 67V60.796H9.70463V67H8.61263ZM9.15263 59.704C8.89663 59.704 8.70463 59.652 8.57663 59.548C8.44863 59.444 8.38463 59.288 8.38463 59.08C8.38463 58.872 8.44863 58.716 8.57663 58.612C8.70463 58.508 8.89263 58.456 9.14062 58.456C9.39663 58.456 9.58863 58.508 9.71663 58.612C9.85263 58.716 9.92063 58.872 9.92063 59.08C9.92063 59.288 9.85263 59.444 9.71663 59.548C9.58863 59.652 9.40063 59.704 9.15263 59.704ZM13.9401 69.112C13.2841 69.112 12.7441 69.06 12.3201 68.956C11.9041 68.86 11.5921 68.708 11.3841 68.5C11.1841 68.292 11.0841 68.036 11.0841 67.732C11.0841 67.364 11.2281 67.064 11.5161 66.832C11.8041 66.592 12.2441 66.432 12.8361 66.352V66.124C12.4041 66.124 12.0801 66.072 11.8641 65.968C11.6561 65.864 11.5521 65.708 11.5521 65.5C11.5521 65.284 11.6601 65.104 11.8761 64.96C12.0921 64.808 12.4401 64.668 12.9201 64.54V64.312C12.4401 64.304 12.0681 64.16 11.8041 63.88C11.5481 63.592 11.4201 63.22 11.4201 62.764C11.4201 62.356 11.5321 62.004 11.7561 61.708C11.9801 61.404 12.3001 61.172 12.7161 61.012C13.1401 60.844 13.6441 60.76 14.2281 60.76H17.1441V61.684L15.2361 61.384V61.612C15.7001 61.708 16.0561 61.872 16.3041 62.104C16.5521 62.328 16.6761 62.632 16.6761 63.016C16.6761 63.36 16.5761 63.66 16.3761 63.916C16.1761 64.172 15.8801 64.372 15.4881 64.516C15.0961 64.652 14.6161 64.72 14.0481 64.72C13.9361 64.72 13.8201 64.716 13.7001 64.708C13.5801 64.692 13.4161 64.668 13.2081 64.636C13.0001 64.772 12.8281 64.896 12.6921 65.008C12.5641 65.12 12.5001 65.22 12.5001 65.308C12.5001 65.396 12.5601 65.468 12.6801 65.524C12.8081 65.572 12.9601 65.608 13.1361 65.632C13.3121 65.648 13.4761 65.656 13.6281 65.656H15.0201C15.1801 65.656 15.3801 65.672 15.6201 65.704C15.8681 65.728 16.1121 65.792 16.3521 65.896C16.6001 66 16.8081 66.164 16.9761 66.388C17.1441 66.604 17.2281 66.9 17.2281 67.276C17.2281 67.716 17.1001 68.068 16.8441 68.332C16.5881 68.604 16.2161 68.8 15.7281 68.92C15.2401 69.048 14.6441 69.112 13.9401 69.112ZM13.9641 68.212C14.4921 68.212 14.9201 68.176 15.2481 68.104C15.5841 68.04 15.8281 67.932 15.9801 67.78C16.1401 67.636 16.2201 67.452 16.2201 67.228C16.2201 67.02 16.1681 66.86 16.0641 66.748C15.9601 66.628 15.8281 66.544 15.6681 66.496C15.5081 66.448 15.3441 66.42 15.1761 66.412C15.0161 66.404 14.8801 66.4 14.7681 66.4H13.3761C12.9121 66.496 12.5921 66.636 12.4161 66.82C12.2401 67.004 12.1521 67.2 12.1521 67.408C12.1521 67.632 12.2321 67.8 12.3921 67.912C12.5521 68.032 12.7681 68.112 13.0401 68.152C13.3201 68.192 13.6281 68.212 13.9641 68.212ZM14.1081 64.012C14.6121 64.012 14.9921 63.908 15.2481 63.7C15.5041 63.492 15.6321 63.212 15.6321 62.86C15.6321 62.484 15.5001 62.176 15.2361 61.936C14.9801 61.688 14.5921 61.564 14.0721 61.564C13.5681 61.564 13.1801 61.68 12.9081 61.912C12.6441 62.144 12.5121 62.444 12.5121 62.812C12.5121 63.052 12.5721 63.264 12.6921 63.448C12.8121 63.624 12.9881 63.764 13.2201 63.868C13.4601 63.964 13.7561 64.012 14.1081 64.012ZM18.6202 67V63.124V60.796H19.6042L19.4962 62.74H19.7002C19.8122 62.26 19.9602 61.868 20.1442 61.564C20.3362 61.252 20.5762 61.02 20.8642 60.868C21.1522 60.716 21.4882 60.64 21.8722 60.64C22.5602 60.64 23.0802 60.888 23.4322 61.384C23.7922 61.872 23.9722 62.6 23.9722 63.568V67H22.8682V63.664C22.8682 62.968 22.7562 62.452 22.5322 62.116C22.3162 61.78 21.9962 61.612 21.5722 61.612C21.1882 61.612 20.8602 61.732 20.5882 61.972C20.3242 62.212 20.1162 62.528 19.9642 62.92C19.8122 63.304 19.7282 63.72 19.7122 64.168V67H18.6202ZM32.1749 67.156C31.7429 67.156 31.3509 67.108 30.9989 67.012C30.6469 66.924 30.3349 66.792 30.0629 66.616C29.7989 66.432 29.5789 66.212 29.4029 65.956C29.2269 65.7 29.0909 65.408 28.9949 65.08C28.9069 64.752 28.8629 64.388 28.8629 63.988V59.08H29.9669V63.952C29.9669 64.432 30.0509 64.836 30.2189 65.164C30.3869 65.492 30.6349 65.74 30.9629 65.908C31.2909 66.068 31.6949 66.148 32.1749 66.148C32.6709 66.148 33.0789 66.068 33.3989 65.908C33.7269 65.74 33.9709 65.492 34.1309 65.164C34.2989 64.836 34.3829 64.432 34.3829 63.952V59.08H35.4869V63.988C35.4869 64.996 35.2029 65.776 34.6349 66.328C34.0749 66.88 33.2549 67.156 32.1749 67.156ZM37.3819 68.956V63.916V60.796H38.3539L38.3059 62.38H38.4859C38.5819 62.036 38.7139 61.736 38.8819 61.48C39.0579 61.216 39.2779 61.012 39.5419 60.868C39.8139 60.716 40.1459 60.64 40.5379 60.64C41.1059 60.64 41.5779 60.784 41.9539 61.072C42.3379 61.352 42.6259 61.74 42.8179 62.236C43.0099 62.732 43.1059 63.288 43.1059 63.904C43.1059 64.52 43.0099 65.076 42.8179 65.572C42.6259 66.06 42.3419 66.448 41.9659 66.736C41.5979 67.016 41.1459 67.156 40.6099 67.156C40.1699 67.156 39.8099 67.068 39.5299 66.892C39.2499 66.708 39.0259 66.472 38.8579 66.184C38.6899 65.888 38.5579 65.58 38.4619 65.26H38.2579C38.3059 65.476 38.3419 65.7 38.3659 65.932C38.3979 66.164 38.4219 66.392 38.4379 66.616C38.4619 66.84 38.4739 67.056 38.4739 67.264V68.956H37.3819ZM40.3339 66.208C40.6859 66.208 40.9819 66.108 41.2219 65.908C41.4619 65.7 41.6459 65.42 41.7739 65.068C41.9019 64.716 41.9659 64.32 41.9659 63.88C41.9659 63.408 41.8979 63.004 41.7619 62.668C41.6339 62.332 41.4499 62.072 41.2099 61.888C40.9699 61.696 40.6779 61.6 40.3339 61.6C40.0379 61.6 39.7739 61.668 39.5419 61.804C39.3179 61.932 39.1259 62.108 38.9659 62.332C38.8059 62.548 38.6819 62.788 38.5939 63.052C38.5139 63.308 38.4739 63.564 38.4739 63.82V63.964C38.4739 64.124 38.4979 64.304 38.5459 64.504C38.5939 64.704 38.6659 64.904 38.7619 65.104C38.8579 65.296 38.9779 65.476 39.1219 65.644C39.2739 65.812 39.4499 65.948 39.6499 66.052C39.8499 66.156 40.0779 66.208 40.3339 66.208Z" fill="black" fill-opacity="0.6"/>
<path d="M1.118 95V86.42H2.977L5.824 93.752H5.889L8.736 86.42H10.504V95H9.373L9.451 87.629H9.347L6.396 95H5.226L2.288 87.616H2.184L2.262 95H1.118ZM15.5549 95.169C15.0176 95.169 14.5452 95.091 14.1379 94.935C13.7392 94.7703 13.4012 94.5363 13.1239 94.233C12.8466 93.9297 12.6386 93.57 12.4999 93.154C12.3612 92.738 12.2919 92.27 12.2919 91.75C12.2919 91.2213 12.3612 90.736 12.4999 90.294C12.6386 89.852 12.8422 89.4663 13.1109 89.137C13.3796 88.8077 13.7089 88.5563 14.0989 88.383C14.4976 88.201 14.9439 88.11 15.4379 88.11C15.8799 88.11 16.2829 88.1837 16.6469 88.331C17.0109 88.4783 17.3186 88.708 17.5699 89.02C17.8299 89.3233 18.0249 89.709 18.1549 90.177C18.2849 90.6363 18.3369 91.178 18.3109 91.802L13.0329 91.854V91.048L17.5959 90.996L17.1929 91.555C17.2362 91.009 17.1842 90.5583 17.0369 90.203C16.8982 89.839 16.6902 89.566 16.4129 89.384C16.1356 89.202 15.8106 89.111 15.4379 89.111C15.0392 89.111 14.6882 89.215 14.3849 89.423C14.0902 89.631 13.8606 89.93 13.6959 90.32C13.5312 90.71 13.4489 91.1823 13.4489 91.737C13.4489 92.5343 13.6266 93.1453 13.9819 93.57C14.3372 93.986 14.8659 94.194 15.5679 94.194C15.8452 94.194 16.0836 94.1637 16.2829 94.103C16.4822 94.0337 16.6512 93.9427 16.7899 93.83C16.9372 93.7173 17.0586 93.583 17.1539 93.427C17.2492 93.271 17.3229 93.102 17.3749 92.92L18.4149 93.154C18.3282 93.4747 18.2026 93.7607 18.0379 94.012C17.8819 94.2547 17.6826 94.4627 17.4399 94.636C17.2059 94.8093 16.9329 94.9393 16.6209 95.026C16.3089 95.1213 15.9536 95.169 15.5549 95.169ZM20.0065 95V90.814V88.279H21.0595L20.9555 90.398H21.1635C21.2762 89.8867 21.4278 89.462 21.6185 89.124C21.8178 88.786 22.0562 88.5347 22.3335 88.37C22.6195 88.1967 22.9445 88.11 23.3085 88.11C23.7332 88.11 24.0842 88.214 24.3615 88.422C24.6388 88.63 24.8425 88.9073 24.9725 89.254C25.1112 89.592 25.1848 89.9603 25.1935 90.359H25.3885C25.4925 89.8737 25.6398 89.4663 25.8305 89.137C26.0298 88.799 26.2768 88.5433 26.5715 88.37C26.8748 88.1967 27.2128 88.11 27.5855 88.11C27.9322 88.11 28.2355 88.1793 28.4955 88.318C28.7555 88.4567 28.9765 88.6647 29.1585 88.942C29.3405 89.2107 29.4748 89.5443 29.5615 89.943C29.6568 90.3417 29.7045 90.801 29.7045 91.321V95H28.5085V91.477C28.5085 90.9657 28.4608 90.541 28.3655 90.203C28.2788 89.8563 28.1402 89.6007 27.9495 89.436C27.7675 89.2627 27.5335 89.176 27.2475 89.176C26.9182 89.176 26.6278 89.2887 26.3765 89.514C26.1252 89.7307 25.9172 90.034 25.7525 90.424C25.5878 90.814 25.4838 91.2603 25.4405 91.763V95H24.2705V91.594C24.2705 91.0567 24.2228 90.6103 24.1275 90.255C24.0408 89.8997 23.9022 89.631 23.7115 89.449C23.5208 89.267 23.2825 89.176 22.9965 89.176C22.6498 89.176 22.3508 89.293 22.0995 89.527C21.8482 89.761 21.6445 90.0817 21.4885 90.489C21.3412 90.8877 21.2415 91.3297 21.1895 91.815V95H20.0065ZM35.1448 95.169C34.7115 95.169 34.3431 95.0823 34.0398 94.909C33.7365 94.7357 33.4895 94.5017 33.2988 94.207C33.1168 93.9037 32.9738 93.5657 32.8698 93.193H32.6748L32.7268 95H31.6608V91.685V85.9H32.8568V88.006C32.8568 88.2313 32.8438 88.4697 32.8178 88.721C32.8005 88.9637 32.7745 89.215 32.7398 89.475C32.7051 89.7263 32.6661 89.9777 32.6228 90.229H32.8438C32.9478 89.865 33.0865 89.5227 33.2598 89.202C33.4418 88.8813 33.6845 88.6213 33.9878 88.422C34.2998 88.2227 34.6898 88.123 35.1578 88.123C35.7211 88.123 36.2021 88.2747 36.6008 88.578C37.0081 88.8727 37.3201 89.2843 37.5368 89.813C37.7535 90.3417 37.8618 90.957 37.8618 91.659C37.8618 92.335 37.7578 92.9373 37.5498 93.466C37.3418 93.9947 37.0341 94.4107 36.6268 94.714C36.2281 95.0173 35.7341 95.169 35.1448 95.169ZM34.8718 94.129C35.2358 94.129 35.5478 94.0293 35.8078 93.83C36.0765 93.6307 36.2801 93.3447 36.4188 92.972C36.5575 92.5993 36.6268 92.166 36.6268 91.672C36.6268 91.1867 36.5575 90.7577 36.4188 90.385C36.2888 90.0037 36.0895 89.7047 35.8208 89.488C35.5608 89.2627 35.2401 89.15 34.8588 89.15C34.5901 89.15 34.3475 89.2063 34.1308 89.319C33.9141 89.423 33.7235 89.566 33.5588 89.748C33.4028 89.93 33.2685 90.1293 33.1558 90.346C33.0518 90.5627 32.9738 90.7793 32.9218 90.996C32.8698 91.2127 32.8438 91.412 32.8438 91.594V91.75C32.8438 92.01 32.8915 92.2787 32.9868 92.556C33.0821 92.8333 33.2165 93.0933 33.3898 93.336C33.5631 93.57 33.7711 93.7607 34.0138 93.908C34.2651 94.0553 34.5511 94.129 34.8718 94.129ZM42.4817 95.169C41.9443 95.169 41.472 95.091 41.0647 94.935C40.666 94.7703 40.328 94.5363 40.0507 94.233C39.7733 93.9297 39.5653 93.57 39.4267 93.154C39.288 92.738 39.2187 92.27 39.2187 91.75C39.2187 91.2213 39.288 90.736 39.4267 90.294C39.5653 89.852 39.769 89.4663 40.0377 89.137C40.3063 88.8077 40.6357 88.5563 41.0257 88.383C41.4243 88.201 41.8707 88.11 42.3647 88.11C42.8067 88.11 43.2097 88.1837 43.5737 88.331C43.9377 88.4783 44.2453 88.708 44.4967 89.02C44.7567 89.3233 44.9517 89.709 45.0817 90.177C45.2117 90.6363 45.2637 91.178 45.2377 91.802L39.9597 91.854V91.048L44.5227 90.996L44.1197 91.555C44.163 91.009 44.111 90.5583 43.9637 90.203C43.825 89.839 43.617 89.566 43.3397 89.384C43.0623 89.202 42.7373 89.111 42.3647 89.111C41.966 89.111 41.615 89.215 41.3117 89.423C41.017 89.631 40.7873 89.93 40.6227 90.32C40.458 90.71 40.3757 91.1823 40.3757 91.737C40.3757 92.5343 40.5533 93.1453 40.9087 93.57C41.264 93.986 41.7927 94.194 42.4947 94.194C42.772 94.194 43.0103 94.1637 43.2097 94.103C43.409 94.0337 43.578 93.9427 43.7167 93.83C43.864 93.7173 43.9853 93.583 44.0807 93.427C44.176 93.271 44.2497 93.102 44.3017 92.92L45.3417 93.154C45.255 93.4747 45.1293 93.7607 44.9647 94.012C44.8087 94.2547 44.6093 94.4627 44.3667 94.636C44.1327 94.8093 43.8597 94.9393 43.5477 95.026C43.2357 95.1213 42.8803 95.169 42.4817 95.169ZM46.9333 95V91.36V88.279H48.0123L47.8953 90.606H48.1163C48.2029 90.1033 48.3243 89.6657 48.4803 89.293C48.6449 88.9203 48.8659 88.63 49.1433 88.422C49.4206 88.214 49.7586 88.11 50.1573 88.11C50.2526 88.11 50.3566 88.1187 50.4693 88.136C50.5819 88.1447 50.7076 88.1707 50.8463 88.214L50.7813 89.462C50.6599 89.41 50.5299 89.3753 50.3913 89.358C50.2613 89.332 50.1399 89.319 50.0273 89.319C49.6806 89.319 49.3859 89.4273 49.1433 89.644C48.9006 89.8607 48.6969 90.1553 48.5323 90.528C48.3676 90.892 48.2333 91.2993 48.1293 91.75V95H46.9333ZM54.6089 95.169C54.1409 95.169 53.7249 95.117 53.3609 95.013C52.9969 94.9177 52.6936 94.779 52.4509 94.597C52.2083 94.4063 52.0219 94.181 51.8919 93.921C51.7619 93.661 51.6926 93.3793 51.6839 93.076L52.6849 92.803C52.6763 93.089 52.7499 93.3403 52.9059 93.557C53.0619 93.765 53.2873 93.9253 53.5819 94.038C53.8853 94.1507 54.2493 94.207 54.6739 94.207C55.1939 94.207 55.5926 94.1203 55.8699 93.947C56.1559 93.7737 56.2989 93.5353 56.2989 93.232C56.2989 92.9893 56.2209 92.803 56.0649 92.673C55.9089 92.5343 55.6923 92.426 55.4149 92.348C55.1376 92.2613 54.8126 92.1833 54.4399 92.114C54.1279 92.0447 53.8159 91.9667 53.5039 91.88C53.2006 91.7933 52.9189 91.6807 52.6589 91.542C52.3989 91.3947 52.1909 91.204 52.0349 90.97C51.8789 90.736 51.8009 90.4457 51.8009 90.099C51.8009 89.6917 51.9093 89.3407 52.1259 89.046C52.3426 88.7513 52.6503 88.5217 53.0489 88.357C53.4476 88.1923 53.9243 88.11 54.4789 88.11C55.0336 88.11 55.5059 88.1967 55.8959 88.37C56.2859 88.5347 56.5936 88.7687 56.8189 89.072C57.0443 89.3753 57.1743 89.7307 57.2089 90.138L56.1819 90.398C56.1733 90.1033 56.0953 89.8607 55.9479 89.67C55.8006 89.4707 55.5969 89.3233 55.3369 89.228C55.0856 89.124 54.7866 89.072 54.4399 89.072C53.9719 89.072 53.6036 89.1587 53.3349 89.332C53.0663 89.5053 52.9319 89.7437 52.9319 90.047C52.9319 90.2723 53.0099 90.4543 53.1659 90.593C53.3306 90.7317 53.5516 90.84 53.8289 90.918C54.1063 90.996 54.4139 91.074 54.7519 91.152C55.0986 91.2213 55.4279 91.2993 55.7399 91.386C56.0606 91.4727 56.3466 91.5853 56.5979 91.724C56.8493 91.8627 57.0486 92.049 57.1959 92.283C57.3433 92.5083 57.4169 92.7987 57.4169 93.154C57.4169 93.596 57.2999 93.9687 57.0659 94.272C56.8319 94.5667 56.5026 94.792 56.0779 94.948C55.6619 95.0953 55.1723 95.169 54.6089 95.169ZM59.0192 95V90.905V85.9H60.2412V87.993C60.2412 88.1837 60.2369 88.3787 60.2282 88.578C60.2195 88.7687 60.2022 88.9637 60.1762 89.163C60.1589 89.3623 60.1329 89.5617 60.0982 89.761C60.0722 89.9603 60.0419 90.1597 60.0072 90.359H60.2412C60.3625 89.865 60.5229 89.4533 60.7222 89.124C60.9215 88.786 61.1729 88.5347 61.4762 88.37C61.7795 88.1967 62.1392 88.11 62.5552 88.11C63.3179 88.11 63.8855 88.3787 64.2582 88.916C64.6395 89.4447 64.8302 90.2377 64.8302 91.295V95H63.6342V91.412C63.6342 90.632 63.5129 90.0643 63.2702 89.709C63.0275 89.345 62.6679 89.163 62.1912 89.163C61.7925 89.163 61.4545 89.28 61.1772 89.514C60.9085 89.748 60.6919 90.0643 60.5272 90.463C60.3712 90.8617 60.2629 91.3123 60.2022 91.815V95H59.0192ZM66.789 95V88.279H67.972V95H66.789ZM67.387 87.096C67.1097 87.096 66.9017 87.0397 66.763 86.927C66.6244 86.8143 66.555 86.6453 66.555 86.42C66.555 86.2033 66.6244 86.0387 66.763 85.926C66.9017 85.8047 67.1054 85.744 67.374 85.744C67.6514 85.744 67.8594 85.8047 67.998 85.926C68.1454 86.0387 68.219 86.2033 68.219 86.42C68.219 86.6453 68.1454 86.8143 67.998 86.927C67.8594 87.0397 67.6557 87.096 67.387 87.096ZM70.0387 97.106V91.646V88.279H71.1047L71.0397 89.995L71.2477 90.008C71.3431 89.6267 71.4817 89.2973 71.6637 89.02C71.8544 88.734 72.0971 88.513 72.3917 88.357C72.6864 88.1923 73.0417 88.11 73.4577 88.11C74.0731 88.11 74.5844 88.266 74.9917 88.578C75.4077 88.8813 75.7197 89.3017 75.9277 89.839C76.1357 90.3677 76.2397 90.97 76.2397 91.646C76.2397 92.3133 76.1357 92.9157 75.9277 93.453C75.7197 93.9817 75.4164 94.402 75.0177 94.714C74.6191 95.0173 74.1251 95.169 73.5357 95.169C73.0677 95.169 72.6777 95.0737 72.3657 94.883C72.0624 94.6837 71.8197 94.428 71.6377 94.116C71.4557 93.7953 71.3171 93.4573 71.2217 93.102H71.0007C71.0441 93.3447 71.0831 93.5917 71.1177 93.843C71.1524 94.0943 71.1784 94.3413 71.1957 94.584C71.2217 94.8267 71.2347 95.0607 71.2347 95.286V97.106H70.0387ZM73.2367 94.142C73.6181 94.142 73.9387 94.0337 74.1987 93.817C74.4674 93.5917 74.6667 93.2883 74.7967 92.907C74.9354 92.5257 75.0047 92.0967 75.0047 91.62C75.0047 91.1087 74.9354 90.671 74.7967 90.307C74.6581 89.943 74.4544 89.6613 74.1857 89.462C73.9257 89.254 73.6094 89.15 73.2367 89.15C72.9247 89.15 72.6431 89.2237 72.3917 89.371C72.1491 89.5097 71.9411 89.7003 71.7677 89.943C71.5944 90.177 71.4601 90.437 71.3647 90.723C71.2694 91.0003 71.2217 91.2777 71.2217 91.555V91.711C71.2217 91.8843 71.2477 92.0793 71.2997 92.296C71.3517 92.5127 71.4297 92.7293 71.5337 92.946C71.6464 93.154 71.7807 93.349 71.9367 93.531C72.1014 93.713 72.2921 93.8603 72.5087 93.973C72.7254 94.0857 72.9681 94.142 73.2367 94.142ZM80.4947 95.169C80.0267 95.169 79.6107 95.117 79.2467 95.013C78.8827 94.9177 78.5793 94.779 78.3367 94.597C78.094 94.4063 77.9077 94.181 77.7777 93.921C77.6477 93.661 77.5783 93.3793 77.5697 93.076L78.5707 92.803C78.562 93.089 78.6357 93.3403 78.7917 93.557C78.9477 93.765 79.173 93.9253 79.4677 94.038C79.771 94.1507 80.135 94.207 80.5597 94.207C81.0797 94.207 81.4783 94.1203 81.7557 93.947C82.0417 93.7737 82.1847 93.5353 82.1847 93.232C82.1847 92.9893 82.1067 92.803 81.9507 92.673C81.7947 92.5343 81.578 92.426 81.3007 92.348C81.0233 92.2613 80.6983 92.1833 80.3257 92.114C80.0137 92.0447 79.7017 91.9667 79.3897 91.88C79.0863 91.7933 78.8047 91.6807 78.5447 91.542C78.2847 91.3947 78.0767 91.204 77.9207 90.97C77.7647 90.736 77.6867 90.4457 77.6867 90.099C77.6867 89.6917 77.795 89.3407 78.0117 89.046C78.2283 88.7513 78.536 88.5217 78.9347 88.357C79.3333 88.1923 79.81 88.11 80.3647 88.11C80.9193 88.11 81.3917 88.1967 81.7817 88.37C82.1717 88.5347 82.4793 88.7687 82.7047 89.072C82.93 89.3753 83.06 89.7307 83.0947 90.138L82.0677 90.398C82.059 90.1033 81.981 89.8607 81.8337 89.67C81.6863 89.4707 81.4827 89.3233 81.2227 89.228C80.9713 89.124 80.6723 89.072 80.3257 89.072C79.8577 89.072 79.4893 89.1587 79.2207 89.332C78.952 89.5053 78.8177 89.7437 78.8177 90.047C78.8177 90.2723 78.8957 90.4543 79.0517 90.593C79.2163 90.7317 79.4373 90.84 79.7147 90.918C79.992 90.996 80.2997 91.074 80.6377 91.152C80.9843 91.2213 81.3137 91.2993 81.6257 91.386C81.9463 91.4727 82.2323 91.5853 82.4837 91.724C82.735 91.8627 82.9343 92.049 83.0817 92.283C83.229 92.5083 83.3027 92.7987 83.3027 93.154C83.3027 93.596 83.1857 93.9687 82.9517 94.272C82.7177 94.5667 82.3883 94.792 81.9637 94.948C81.5477 95.0953 81.058 95.169 80.4947 95.169Z" fill="black"/>
<line x1="4.37114e-08" y1="111.5" x2="176" y2="111.5" stroke="black" stroke-opacity="0.15" stroke-dasharray="2 2"/>
<path d="M6.812 137V128.42H8.008V137H6.812ZM1.118 137V128.42H2.314V137H1.118ZM1.716 133.126V132.099H7.293V133.126H1.716ZM13.0539 137.169C12.5166 137.169 12.0443 137.091 11.6369 136.935C11.2383 136.77 10.9003 136.536 10.6229 136.233C10.3456 135.93 10.1376 135.57 9.99893 135.154C9.86026 134.738 9.79093 134.27 9.79093 133.75C9.79093 133.221 9.86026 132.736 9.99893 132.294C10.1376 131.852 10.3413 131.466 10.6099 131.137C10.8786 130.808 11.2079 130.556 11.5979 130.383C11.9966 130.201 12.4429 130.11 12.9369 130.11C13.3789 130.11 13.7819 130.184 14.1459 130.331C14.5099 130.478 14.8176 130.708 15.0689 131.02C15.3289 131.323 15.5239 131.709 15.6539 132.177C15.7839 132.636 15.8359 133.178 15.8099 133.802L10.5319 133.854V133.048L15.0949 132.996L14.6919 133.555C14.7353 133.009 14.6833 132.558 14.5359 132.203C14.3973 131.839 14.1893 131.566 13.9119 131.384C13.6346 131.202 13.3096 131.111 12.9369 131.111C12.5383 131.111 12.1873 131.215 11.8839 131.423C11.5893 131.631 11.3596 131.93 11.1949 132.32C11.0303 132.71 10.9479 133.182 10.9479 133.737C10.9479 134.534 11.1256 135.145 11.4809 135.57C11.8363 135.986 12.3649 136.194 13.0669 136.194C13.3443 136.194 13.5826 136.164 13.7819 136.103C13.9813 136.034 14.1503 135.943 14.2889 135.83C14.4363 135.717 14.5576 135.583 14.6529 135.427C14.7483 135.271 14.8219 135.102 14.8739 134.92L15.9139 135.154C15.8273 135.475 15.7016 135.761 15.5369 136.012C15.3809 136.255 15.1816 136.463 14.9389 136.636C14.7049 136.809 14.4319 136.939 14.1199 137.026C13.8079 137.121 13.4526 137.169 13.0539 137.169ZM19.0906 137.169C18.7266 137.169 18.3973 137.1 18.1026 136.961C17.8079 136.814 17.5739 136.601 17.4006 136.324C17.2273 136.038 17.1406 135.678 17.1406 135.245C17.1406 134.924 17.1969 134.643 17.3096 134.4C17.4309 134.157 17.6129 133.949 17.8556 133.776C18.1069 133.603 18.4276 133.46 18.8176 133.347C19.2163 133.226 19.6929 133.13 20.2476 133.061C20.5683 133.018 20.8283 132.974 21.0276 132.931C21.2356 132.888 21.3873 132.818 21.4826 132.723C21.5779 132.619 21.6256 132.467 21.6256 132.268C21.6256 131.939 21.5129 131.661 21.2876 131.436C21.0623 131.211 20.7069 131.098 20.2216 131.098C19.9703 131.098 19.7146 131.141 19.4546 131.228C19.1946 131.315 18.9649 131.462 18.7656 131.67C18.5749 131.869 18.4536 132.151 18.4016 132.515L17.3096 132.151C17.3789 131.83 17.4916 131.549 17.6476 131.306C17.8123 131.055 18.0203 130.842 18.2716 130.669C18.5229 130.487 18.8133 130.348 19.1426 130.253C19.4806 130.158 19.8533 130.11 20.2606 130.11C20.8326 130.11 21.3049 130.205 21.6776 130.396C22.0503 130.587 22.3276 130.881 22.5096 131.28C22.7003 131.67 22.7956 132.173 22.7956 132.788V134.283C22.7956 134.552 22.7999 134.846 22.8086 135.167C22.8259 135.479 22.8476 135.795 22.8736 136.116C22.8996 136.428 22.9256 136.723 22.9516 137H21.8596C21.8336 136.723 21.8076 136.45 21.7816 136.181C21.7643 135.904 21.7513 135.622 21.7426 135.336H21.5736C21.4436 135.657 21.2703 135.96 21.0536 136.246C20.8369 136.523 20.5639 136.749 20.2346 136.922C19.9139 137.087 19.5326 137.169 19.0906 137.169ZM19.4416 136.207C19.6323 136.207 19.8229 136.177 20.0136 136.116C20.2129 136.055 20.4079 135.96 20.5986 135.83C20.7979 135.691 20.9843 135.514 21.1576 135.297C21.3396 135.08 21.4999 134.816 21.6386 134.504V133.204L21.9896 133.269C21.8423 133.408 21.6516 133.512 21.4176 133.581C21.1923 133.65 20.9409 133.707 20.6636 133.75C20.3949 133.793 20.1176 133.841 19.8316 133.893C19.5543 133.936 19.2986 134.006 19.0646 134.101C18.8393 134.188 18.6573 134.313 18.5186 134.478C18.3799 134.643 18.3106 134.868 18.3106 135.154C18.3106 135.501 18.4146 135.765 18.6226 135.947C18.8393 136.12 19.1123 136.207 19.4416 136.207ZM24.7926 137V127.9H25.9756V137H24.7926ZM30.1737 137.13C29.5497 137.13 29.086 136.961 28.7827 136.623C28.4794 136.285 28.3277 135.769 28.3277 135.076V131.267H27.3267L27.3397 130.279H27.9637C28.1804 130.279 28.3364 130.244 28.4317 130.175C28.5357 130.097 28.5964 129.967 28.6137 129.785L28.7437 128.758H29.4717V130.279H31.4087V131.28H29.4717V135.05C29.4717 135.397 29.5497 135.648 29.7057 135.804C29.8704 135.951 30.1044 136.025 30.4077 136.025C30.5724 136.025 30.7414 136.003 30.9147 135.96C31.0967 135.917 31.2744 135.83 31.4477 135.7V136.883C31.205 136.978 30.9754 137.043 30.7587 137.078C30.542 137.113 30.347 137.13 30.1737 137.13ZM32.9176 137V132.905V127.9H34.1396V129.993C34.1396 130.184 34.1353 130.379 34.1266 130.578C34.118 130.769 34.1006 130.964 34.0746 131.163C34.0573 131.362 34.0313 131.562 33.9966 131.761C33.9706 131.96 33.9403 132.16 33.9056 132.359H34.1396C34.261 131.865 34.4213 131.453 34.6206 131.124C34.82 130.786 35.0713 130.535 35.3746 130.37C35.678 130.197 36.0376 130.11 36.4536 130.11C37.2163 130.11 37.784 130.379 38.1566 130.916C38.538 131.445 38.7286 132.238 38.7286 133.295V137H37.5326V133.412C37.5326 132.632 37.4113 132.064 37.1686 131.709C36.926 131.345 36.5663 131.163 36.0896 131.163C35.691 131.163 35.353 131.28 35.0756 131.514C34.807 131.748 34.5903 132.064 34.4256 132.463C34.2696 132.862 34.1613 133.312 34.1006 133.815V137H32.9176ZM43.5605 137.169C42.9711 137.169 42.4728 137.074 42.0655 136.883C41.6581 136.692 41.3245 136.437 41.0645 136.116C40.8045 135.787 40.6138 135.418 40.4925 135.011C40.3798 134.595 40.3235 134.162 40.3235 133.711C40.3235 133.217 40.3885 132.753 40.5185 132.32C40.6485 131.887 40.8435 131.505 41.1035 131.176C41.3721 130.838 41.7015 130.578 42.0915 130.396C42.4901 130.205 42.9538 130.11 43.4825 130.11C43.9938 130.11 44.4445 130.201 44.8345 130.383C45.2245 130.556 45.5408 130.803 45.7835 131.124C46.0348 131.445 46.1995 131.822 46.2775 132.255L45.1465 132.58C45.1205 132.337 45.0425 132.103 44.9125 131.878C44.7911 131.653 44.6091 131.471 44.3665 131.332C44.1325 131.185 43.8335 131.111 43.4695 131.111C43.1401 131.111 42.8541 131.176 42.6115 131.306C42.3688 131.436 42.1651 131.618 42.0005 131.852C41.8445 132.086 41.7231 132.359 41.6365 132.671C41.5585 132.983 41.5195 133.321 41.5195 133.685C41.5195 134.179 41.5888 134.617 41.7275 134.998C41.8748 135.371 42.1001 135.661 42.4035 135.869C42.7068 136.077 43.0968 136.181 43.5735 136.181C43.9288 136.181 44.2321 136.12 44.4835 135.999C44.7348 135.869 44.9341 135.691 45.0815 135.466C45.2288 135.232 45.3285 134.959 45.3805 134.647L46.4595 134.894C46.3988 135.267 46.2861 135.596 46.1215 135.882C45.9568 136.168 45.7488 136.406 45.4975 136.597C45.2548 136.788 44.9688 136.931 44.6395 137.026C44.3101 137.121 43.9505 137.169 43.5605 137.169ZM49.5213 137.169C49.1573 137.169 48.8279 137.1 48.5333 136.961C48.2386 136.814 48.0046 136.601 47.8313 136.324C47.6579 136.038 47.5713 135.678 47.5713 135.245C47.5713 134.924 47.6276 134.643 47.7403 134.4C47.8616 134.157 48.0436 133.949 48.2863 133.776C48.5376 133.603 48.8583 133.46 49.2483 133.347C49.6469 133.226 50.1236 133.13 50.6783 133.061C50.9989 133.018 51.2589 132.974 51.4583 132.931C51.6663 132.888 51.8179 132.818 51.9133 132.723C52.0086 132.619 52.0563 132.467 52.0563 132.268C52.0563 131.939 51.9436 131.661 51.7183 131.436C51.4929 131.211 51.1376 131.098 50.6523 131.098C50.4009 131.098 50.1453 131.141 49.8853 131.228C49.6253 131.315 49.3956 131.462 49.1963 131.67C49.0056 131.869 48.8843 132.151 48.8323 132.515L47.7403 132.151C47.8096 131.83 47.9223 131.549 48.0783 131.306C48.2429 131.055 48.4509 130.842 48.7023 130.669C48.9536 130.487 49.2439 130.348 49.5733 130.253C49.9113 130.158 50.2839 130.11 50.6913 130.11C51.2633 130.11 51.7356 130.205 52.1083 130.396C52.4809 130.587 52.7583 130.881 52.9403 131.28C53.1309 131.67 53.2263 132.173 53.2263 132.788V134.283C53.2263 134.552 53.2306 134.846 53.2393 135.167C53.2566 135.479 53.2783 135.795 53.3043 136.116C53.3303 136.428 53.3563 136.723 53.3823 137H52.2903C52.2643 136.723 52.2383 136.45 52.2123 136.181C52.1949 135.904 52.1819 135.622 52.1733 135.336H52.0043C51.8743 135.657 51.7009 135.96 51.4843 136.246C51.2676 136.523 50.9946 136.749 50.6653 136.922C50.3446 137.087 49.9633 137.169 49.5213 137.169ZM49.8723 136.207C50.0629 136.207 50.2536 136.177 50.4443 136.116C50.6436 136.055 50.8386 135.96 51.0293 135.83C51.2286 135.691 51.4149 135.514 51.5883 135.297C51.7703 135.08 51.9306 134.816 52.0693 134.504V133.204L52.4203 133.269C52.2729 133.408 52.0823 133.512 51.8483 133.581C51.6229 133.65 51.3716 133.707 51.0943 133.75C50.8256 133.793 50.5483 133.841 50.2623 133.893C49.9849 133.936 49.7293 134.006 49.4953 134.101C49.2699 134.188 49.0879 134.313 48.9493 134.478C48.8106 134.643 48.7413 134.868 48.7413 135.154C48.7413 135.501 48.8453 135.765 49.0533 135.947C49.2699 136.12 49.5429 136.207 49.8723 136.207ZM55.2233 137V133.36V130.279H56.3023L56.1853 132.606H56.4063C56.493 132.103 56.6143 131.666 56.7703 131.293C56.935 130.92 57.156 130.63 57.4333 130.422C57.7106 130.214 58.0486 130.11 58.4473 130.11C58.5426 130.11 58.6466 130.119 58.7593 130.136C58.872 130.145 58.9976 130.171 59.1363 130.214L59.0713 131.462C58.95 131.41 58.82 131.375 58.6813 131.358C58.5513 131.332 58.43 131.319 58.3173 131.319C57.9706 131.319 57.676 131.427 57.4333 131.644C57.1906 131.861 56.987 132.155 56.8223 132.528C56.6576 132.892 56.5233 133.299 56.4193 133.75V137H55.2233ZM63.2131 137.169C62.6758 137.169 62.2034 137.091 61.7961 136.935C61.3974 136.77 61.0594 136.536 60.7821 136.233C60.5048 135.93 60.2968 135.57 60.1581 135.154C60.0194 134.738 59.9501 134.27 59.9501 133.75C59.9501 133.221 60.0194 132.736 60.1581 132.294C60.2968 131.852 60.5004 131.466 60.7691 131.137C61.0378 130.808 61.3671 130.556 61.7571 130.383C62.1558 130.201 62.6021 130.11 63.0961 130.11C63.5381 130.11 63.9411 130.184 64.3051 130.331C64.6691 130.478 64.9768 130.708 65.2281 131.02C65.4881 131.323 65.6831 131.709 65.8131 132.177C65.9431 132.636 65.9951 133.178 65.9691 133.802L60.6911 133.854V133.048L65.2541 132.996L64.8511 133.555C64.8944 133.009 64.8424 132.558 64.6951 132.203C64.5564 131.839 64.3484 131.566 64.0711 131.384C63.7938 131.202 63.4688 131.111 63.0961 131.111C62.6974 131.111 62.3464 131.215 62.0431 131.423C61.7484 131.631 61.5188 131.93 61.3541 132.32C61.1894 132.71 61.1071 133.182 61.1071 133.737C61.1071 134.534 61.2848 135.145 61.6401 135.57C61.9954 135.986 62.5241 136.194 63.2261 136.194C63.5034 136.194 63.7418 136.164 63.9411 136.103C64.1404 136.034 64.3094 135.943 64.4481 135.83C64.5954 135.717 64.7168 135.583 64.8121 135.427C64.9074 135.271 64.9811 135.102 65.0331 134.92L66.0731 135.154C65.9864 135.475 65.8608 135.761 65.6961 136.012C65.5401 136.255 65.3408 136.463 65.0981 136.636C64.8641 136.809 64.5911 136.939 64.2791 137.026C63.9671 137.121 63.6118 137.169 63.2131 137.169ZM71.6935 134.374V133.36H73.8125C74.6358 133.36 75.2511 133.204 75.6585 132.892C76.0745 132.58 76.2825 132.069 76.2825 131.358C76.2825 130.708 76.0875 130.223 75.6975 129.902C75.3161 129.573 74.7311 129.408 73.9425 129.408H71.6935V128.42H73.9685C74.5231 128.42 75.0215 128.485 75.4635 128.615C75.9055 128.745 76.2781 128.936 76.5815 129.187C76.8848 129.438 77.1145 129.75 77.2705 130.123C77.4265 130.487 77.5045 130.912 77.5045 131.397C77.5045 132.047 77.3571 132.593 77.0625 133.035C76.7765 133.468 76.3475 133.802 75.7755 134.036C75.2035 134.261 74.5015 134.374 73.6695 134.374H71.6935ZM71.0565 137V128.42H72.2525V137H71.0565ZM79.027 137V133.36V130.279H80.106L79.989 132.606H80.21C80.2967 132.103 80.418 131.666 80.574 131.293C80.7387 130.92 80.9597 130.63 81.237 130.422C81.5143 130.214 81.8523 130.11 82.251 130.11C82.3463 130.11 82.4503 130.119 82.563 130.136C82.6757 130.145 82.8013 130.171 82.94 130.214L82.875 131.462C82.7537 131.41 82.6237 131.375 82.485 131.358C82.355 131.332 82.2337 131.319 82.121 131.319C81.7743 131.319 81.4797 131.427 81.237 131.644C80.9943 131.861 80.7907 132.155 80.626 132.528C80.4613 132.892 80.327 133.299 80.223 133.75V137H79.027ZM87.0295 137.169C86.3795 137.169 85.8075 137.03 85.3135 136.753C84.8282 136.467 84.4468 136.06 84.1695 135.531C83.9008 135.002 83.7665 134.361 83.7665 133.607C83.7665 132.827 83.9095 132.181 84.1955 131.67C84.4902 131.15 84.8802 130.76 85.3655 130.5C85.8508 130.24 86.3968 130.11 87.0035 130.11C87.6188 130.11 88.1735 130.249 88.6675 130.526C89.1615 130.795 89.5515 131.193 89.8375 131.722C90.1235 132.242 90.2665 132.888 90.2665 133.659C90.2665 134.43 90.1235 135.076 89.8375 135.596C89.5515 136.116 89.1615 136.51 88.6675 136.779C88.1822 137.039 87.6362 137.169 87.0295 137.169ZM87.0685 136.194C87.4845 136.194 87.8398 136.094 88.1345 135.895C88.4378 135.687 88.6675 135.397 88.8235 135.024C88.9882 134.651 89.0705 134.209 89.0705 133.698C89.0705 133.169 88.9882 132.714 88.8235 132.333C88.6588 131.943 88.4162 131.644 88.0955 131.436C87.7835 131.219 87.4108 131.111 86.9775 131.111C86.5702 131.111 86.2148 131.206 85.9115 131.397C85.6082 131.588 85.3742 131.869 85.2095 132.242C85.0448 132.606 84.9625 133.052 84.9625 133.581C84.9625 134.396 85.1532 135.037 85.5345 135.505C85.9158 135.964 86.4272 136.194 87.0685 136.194ZM92.4711 137V132.255H91.2751V131.306L92.9651 131.41V131.176C92.7485 131.098 92.5665 130.985 92.4191 130.838C92.2718 130.682 92.1591 130.504 92.0811 130.305C92.0118 130.106 91.9771 129.893 91.9771 129.668C91.9771 129.304 92.0595 128.988 92.2241 128.719C92.3888 128.45 92.6185 128.238 92.9131 128.082C93.2165 127.926 93.5718 127.848 93.9791 127.848C94.3085 127.848 94.6031 127.896 94.8631 127.991C95.1318 128.078 95.3571 128.19 95.5391 128.329L95.3961 129.434C95.2228 129.287 95.0191 129.17 94.7851 129.083C94.5598 128.988 94.3301 128.94 94.0961 128.94C93.8015 128.94 93.5631 129.031 93.3811 129.213C93.1991 129.395 93.1081 129.677 93.1081 130.058C93.1081 130.266 93.1385 130.452 93.1991 130.617C93.2598 130.773 93.3378 130.907 93.4331 131.02C93.5371 131.124 93.6411 131.206 93.7451 131.267H95.4091V132.255H93.6411V137H92.4711ZM99.636 137.169C99.0986 137.169 98.6263 137.091 98.219 136.935C97.8203 136.77 97.4823 136.536 97.205 136.233C96.9276 135.93 96.7196 135.57 96.581 135.154C96.4423 134.738 96.373 134.27 96.373 133.75C96.373 133.221 96.4423 132.736 96.581 132.294C96.7196 131.852 96.9233 131.466 97.192 131.137C97.4606 130.808 97.79 130.556 98.18 130.383C98.5786 130.201 99.025 130.11 99.519 130.11C99.961 130.11 100.364 130.184 100.728 130.331C101.092 130.478 101.4 130.708 101.651 131.02C101.911 131.323 102.106 131.709 102.236 132.177C102.366 132.636 102.418 133.178 102.392 133.802L97.114 133.854V133.048L101.677 132.996L101.274 133.555C101.317 133.009 101.265 132.558 101.118 132.203C100.979 131.839 100.771 131.566 100.494 131.384C100.217 131.202 99.8916 131.111 99.519 131.111C99.1203 131.111 98.7693 131.215 98.466 131.423C98.1713 131.631 97.9416 131.93 97.777 132.32C97.6123 132.71 97.53 133.182 97.53 133.737C97.53 134.534 97.7076 135.145 98.063 135.57C98.4183 135.986 98.947 136.194 99.649 136.194C99.9263 136.194 100.165 136.164 100.364 136.103C100.563 136.034 100.732 135.943 100.871 135.83C101.018 135.717 101.14 135.583 101.235 135.427C101.33 135.271 101.404 135.102 101.456 134.92L102.496 135.154C102.409 135.475 102.284 135.761 102.119 136.012C101.963 136.255 101.764 136.463 101.521 136.636C101.287 136.809 101.014 136.939 100.702 137.026C100.39 137.121 100.035 137.169 99.636 137.169ZM106.685 137.169C106.217 137.169 105.801 137.117 105.437 137.013C105.073 136.918 104.77 136.779 104.527 136.597C104.284 136.406 104.098 136.181 103.968 135.921C103.838 135.661 103.769 135.379 103.76 135.076L104.761 134.803C104.752 135.089 104.826 135.34 104.982 135.557C105.138 135.765 105.363 135.925 105.658 136.038C105.961 136.151 106.325 136.207 106.75 136.207C107.27 136.207 107.669 136.12 107.946 135.947C108.232 135.774 108.375 135.535 108.375 135.232C108.375 134.989 108.297 134.803 108.141 134.673C107.985 134.534 107.768 134.426 107.491 134.348C107.214 134.261 106.889 134.183 106.516 134.114C106.204 134.045 105.892 133.967 105.58 133.88C105.277 133.793 104.995 133.681 104.735 133.542C104.475 133.395 104.267 133.204 104.111 132.97C103.955 132.736 103.877 132.446 103.877 132.099C103.877 131.692 103.985 131.341 104.202 131.046C104.419 130.751 104.726 130.522 105.125 130.357C105.524 130.192 106 130.11 106.555 130.11C107.11 130.11 107.582 130.197 107.972 130.37C108.362 130.535 108.67 130.769 108.895 131.072C109.12 131.375 109.25 131.731 109.285 132.138L108.258 132.398C108.249 132.103 108.171 131.861 108.024 131.67C107.877 131.471 107.673 131.323 107.413 131.228C107.162 131.124 106.863 131.072 106.516 131.072C106.048 131.072 105.68 131.159 105.411 131.332C105.142 131.505 105.008 131.744 105.008 132.047C105.008 132.272 105.086 132.454 105.242 132.593C105.407 132.732 105.628 132.84 105.905 132.918C106.182 132.996 106.49 133.074 106.828 133.152C107.175 133.221 107.504 133.299 107.816 133.386C108.137 133.473 108.423 133.585 108.674 133.724C108.925 133.863 109.125 134.049 109.272 134.283C109.419 134.508 109.493 134.799 109.493 135.154C109.493 135.596 109.376 135.969 109.142 136.272C108.908 136.567 108.579 136.792 108.154 136.948C107.738 137.095 107.248 137.169 106.685 137.169ZM113.693 137.169C113.225 137.169 112.809 137.117 112.445 137.013C112.081 136.918 111.778 136.779 111.535 136.597C111.292 136.406 111.106 136.181 110.976 135.921C110.846 135.661 110.777 135.379 110.768 135.076L111.769 134.803C111.76 135.089 111.834 135.34 111.99 135.557C112.146 135.765 112.371 135.925 112.666 136.038C112.969 136.151 113.333 136.207 113.758 136.207C114.278 136.207 114.677 136.12 114.954 135.947C115.24 135.774 115.383 135.535 115.383 135.232C115.383 134.989 115.305 134.803 115.149 134.673C114.993 134.534 114.776 134.426 114.499 134.348C114.222 134.261 113.897 134.183 113.524 134.114C113.212 134.045 112.9 133.967 112.588 133.88C112.285 133.793 112.003 133.681 111.743 133.542C111.483 133.395 111.275 133.204 111.119 132.97C110.963 132.736 110.885 132.446 110.885 132.099C110.885 131.692 110.993 131.341 111.21 131.046C111.427 130.751 111.734 130.522 112.133 130.357C112.532 130.192 113.008 130.11 113.563 130.11C114.118 130.11 114.59 130.197 114.98 130.37C115.37 130.535 115.678 130.769 115.903 131.072C116.128 131.375 116.258 131.731 116.293 132.138L115.266 132.398C115.257 132.103 115.179 131.861 115.032 131.67C114.885 131.471 114.681 131.323 114.421 131.228C114.17 131.124 113.871 131.072 113.524 131.072C113.056 131.072 112.688 131.159 112.419 131.332C112.15 131.505 112.016 131.744 112.016 132.047C112.016 132.272 112.094 132.454 112.25 132.593C112.415 132.732 112.636 132.84 112.913 132.918C113.19 132.996 113.498 133.074 113.836 133.152C114.183 133.221 114.512 133.299 114.824 133.386C115.145 133.473 115.431 133.585 115.682 133.724C115.933 133.863 116.133 134.049 116.28 134.283C116.427 134.508 116.501 134.799 116.501 135.154C116.501 135.596 116.384 135.969 116.15 136.272C115.916 136.567 115.587 136.792 115.162 136.948C114.746 137.095 114.256 137.169 113.693 137.169ZM118.116 137V130.279H119.299V137H118.116ZM118.714 129.096C118.437 129.096 118.229 129.04 118.09 128.927C117.952 128.814 117.882 128.645 117.882 128.42C117.882 128.203 117.952 128.039 118.09 127.926C118.229 127.805 118.433 127.744 118.701 127.744C118.979 127.744 119.187 127.805 119.325 127.926C119.473 128.039 119.546 128.203 119.546 128.42C119.546 128.645 119.473 128.814 119.325 128.927C119.187 129.04 118.983 129.096 118.714 129.096ZM124.265 137.169C123.615 137.169 123.043 137.03 122.549 136.753C122.064 136.467 121.682 136.06 121.405 135.531C121.136 135.002 121.002 134.361 121.002 133.607C121.002 132.827 121.145 132.181 121.431 131.67C121.726 131.15 122.116 130.76 122.601 130.5C123.086 130.24 123.632 130.11 124.239 130.11C124.854 130.11 125.409 130.249 125.903 130.526C126.397 130.795 126.787 131.193 127.073 131.722C127.359 132.242 127.502 132.888 127.502 133.659C127.502 134.43 127.359 135.076 127.073 135.596C126.787 136.116 126.397 136.51 125.903 136.779C125.418 137.039 124.872 137.169 124.265 137.169ZM124.304 136.194C124.72 136.194 125.075 136.094 125.37 135.895C125.673 135.687 125.903 135.397 126.059 135.024C126.224 134.651 126.306 134.209 126.306 133.698C126.306 133.169 126.224 132.714 126.059 132.333C125.894 131.943 125.652 131.644 125.331 131.436C125.019 131.219 124.646 131.111 124.213 131.111C123.806 131.111 123.45 131.206 123.147 131.397C122.844 131.588 122.61 131.869 122.445 132.242C122.28 132.606 122.198 133.052 122.198 133.581C122.198 134.396 122.389 135.037 122.77 135.505C123.151 135.964 123.663 136.194 124.304 136.194ZM129.186 137V132.814V130.279H130.265L130.148 132.398H130.356C130.478 131.869 130.642 131.44 130.85 131.111C131.058 130.773 131.318 130.522 131.63 130.357C131.942 130.192 132.306 130.11 132.722 130.11C133.468 130.11 134.031 130.379 134.412 130.916C134.802 131.445 134.997 132.233 134.997 133.282V137H133.801V133.386C133.801 132.632 133.68 132.073 133.437 131.709C133.203 131.345 132.852 131.163 132.384 131.163C131.977 131.163 131.626 131.293 131.331 131.553C131.037 131.813 130.807 132.155 130.642 132.58C130.486 132.996 130.395 133.451 130.369 133.945V137H129.186ZM138.49 137.169C138.126 137.169 137.797 137.1 137.502 136.961C137.207 136.814 136.973 136.601 136.8 136.324C136.627 136.038 136.54 135.678 136.54 135.245C136.54 134.924 136.596 134.643 136.709 134.4C136.83 134.157 137.012 133.949 137.255 133.776C137.506 133.603 137.827 133.46 138.217 133.347C138.616 133.226 139.092 133.13 139.647 133.061C139.968 133.018 140.228 132.974 140.427 132.931C140.635 132.888 140.787 132.818 140.882 132.723C140.977 132.619 141.025 132.467 141.025 132.268C141.025 131.939 140.912 131.661 140.687 131.436C140.462 131.211 140.106 131.098 139.621 131.098C139.37 131.098 139.114 131.141 138.854 131.228C138.594 131.315 138.364 131.462 138.165 131.67C137.974 131.869 137.853 132.151 137.801 132.515L136.709 132.151C136.778 131.83 136.891 131.549 137.047 131.306C137.212 131.055 137.42 130.842 137.671 130.669C137.922 130.487 138.213 130.348 138.542 130.253C138.88 130.158 139.253 130.11 139.66 130.11C140.232 130.11 140.704 130.205 141.077 130.396C141.45 130.587 141.727 130.881 141.909 131.28C142.1 131.67 142.195 132.173 142.195 132.788V134.283C142.195 134.552 142.199 134.846 142.208 135.167C142.225 135.479 142.247 135.795 142.273 136.116C142.299 136.428 142.325 136.723 142.351 137H141.259C141.233 136.723 141.207 136.45 141.181 136.181C141.164 135.904 141.151 135.622 141.142 135.336H140.973C140.843 135.657 140.67 135.96 140.453 136.246C140.236 136.523 139.963 136.749 139.634 136.922C139.313 137.087 138.932 137.169 138.49 137.169ZM138.841 136.207C139.032 136.207 139.222 136.177 139.413 136.116C139.612 136.055 139.807 135.96 139.998 135.83C140.197 135.691 140.384 135.514 140.557 135.297C140.739 135.08 140.899 134.816 141.038 134.504V133.204L141.389 133.269C141.242 133.408 141.051 133.512 140.817 133.581C140.592 133.65 140.34 133.707 140.063 133.75C139.794 133.793 139.517 133.841 139.231 133.893C138.954 133.936 138.698 134.006 138.464 134.101C138.239 134.188 138.057 134.313 137.918 134.478C137.779 134.643 137.71 134.868 137.71 135.154C137.71 135.501 137.814 135.765 138.022 135.947C138.239 136.12 138.512 136.207 138.841 136.207ZM144.192 137V127.9H145.375V137H144.192ZM149.925 137.169C149.457 137.169 149.041 137.117 148.677 137.013C148.313 136.918 148.01 136.779 147.767 136.597C147.525 136.406 147.338 136.181 147.208 135.921C147.078 135.661 147.009 135.379 147 135.076L148.001 134.803C147.993 135.089 148.066 135.34 148.222 135.557C148.378 135.765 148.604 135.925 148.898 136.038C149.202 136.151 149.566 136.207 149.99 136.207C150.51 136.207 150.909 136.12 151.186 135.947C151.472 135.774 151.615 135.535 151.615 135.232C151.615 134.989 151.537 134.803 151.381 134.673C151.225 134.534 151.009 134.426 150.731 134.348C150.454 134.261 150.129 134.183 149.756 134.114C149.444 134.045 149.132 133.967 148.82 133.88C148.517 133.793 148.235 133.681 147.975 133.542C147.715 133.395 147.507 133.204 147.351 132.97C147.195 132.736 147.117 132.446 147.117 132.099C147.117 131.692 147.226 131.341 147.442 131.046C147.659 130.751 147.967 130.522 148.365 130.357C148.764 130.192 149.241 130.11 149.795 130.11C150.35 130.11 150.822 130.197 151.212 130.37C151.602 130.535 151.91 130.769 152.135 131.072C152.361 131.375 152.491 131.731 152.525 132.138L151.498 132.398C151.49 132.103 151.412 131.861 151.264 131.67C151.117 131.471 150.913 131.323 150.653 131.228C150.402 131.124 150.103 131.072 149.756 131.072C149.288 131.072 148.92 131.159 148.651 131.332C148.383 131.505 148.248 131.744 148.248 132.047C148.248 132.272 148.326 132.454 148.482 132.593C148.647 132.732 148.868 132.84 149.145 132.918C149.423 132.996 149.73 133.074 150.068 133.152C150.415 133.221 150.744 133.299 151.056 133.386C151.377 133.473 151.663 133.585 151.914 133.724C152.166 133.863 152.365 134.049 152.512 134.283C152.66 134.508 152.733 134.799 152.733 135.154C152.733 135.596 152.616 135.969 152.382 136.272C152.148 136.567 151.819 136.792 151.394 136.948C150.978 137.095 150.489 137.169 149.925 137.169Z" fill="black"/>
<path d="M1.044 165V157.08H2.136V165H1.044ZM1.392 165V164.04H5.844V165H1.392ZM9.56541 165.156C8.97341 165.156 8.44941 165.028 7.99341 164.772C7.54541 164.508 7.19341 164.132 6.93741 163.644C6.68141 163.156 6.55341 162.564 6.55341 161.868C6.55341 161.148 6.68541 160.552 6.94941 160.08C7.22141 159.6 7.58141 159.24 8.02941 159C8.48541 158.76 8.98941 158.64 9.54141 158.64C10.1174 158.64 10.6294 158.768 11.0774 159.024C11.5334 159.272 11.8934 159.64 12.1574 160.128C12.4214 160.608 12.5534 161.204 12.5534 161.916C12.5534 162.628 12.4214 163.224 12.1574 163.704C11.9014 164.184 11.5454 164.548 11.0894 164.796C10.6414 165.036 10.1334 165.156 9.56541 165.156ZM9.61341 164.256C9.99741 164.256 10.3254 164.164 10.5974 163.98C10.8694 163.788 11.0814 163.52 11.2334 163.176C11.3854 162.832 11.4614 162.424 11.4614 161.952C11.4614 161.464 11.3814 161.044 11.2214 160.692C11.0694 160.332 10.8494 160.056 10.5614 159.864C10.2734 159.664 9.92541 159.564 9.51741 159.564C9.14141 159.564 8.81341 159.652 8.53341 159.828C8.25341 160.004 8.03741 160.264 7.88541 160.608C7.73341 160.944 7.65741 161.356 7.65741 161.844C7.65741 162.596 7.83341 163.188 8.18541 163.62C8.53741 164.044 9.01341 164.256 9.61341 164.256ZM16.4362 167.112C15.7802 167.112 15.2402 167.06 14.8162 166.956C14.4002 166.86 14.0882 166.708 13.8802 166.5C13.6802 166.292 13.5802 166.036 13.5802 165.732C13.5802 165.364 13.7242 165.064 14.0122 164.832C14.3002 164.592 14.7402 164.432 15.3322 164.352V164.124C14.9002 164.124 14.5762 164.072 14.3602 163.968C14.1522 163.864 14.0482 163.708 14.0482 163.5C14.0482 163.284 14.1562 163.104 14.3722 162.96C14.5882 162.808 14.9362 162.668 15.4162 162.54V162.312C14.9362 162.304 14.5642 162.16 14.3002 161.88C14.0442 161.592 13.9162 161.22 13.9162 160.764C13.9162 160.356 14.0282 160.004 14.2522 159.708C14.4762 159.404 14.7962 159.172 15.2122 159.012C15.6362 158.844 16.1402 158.76 16.7242 158.76H19.6402V159.684L17.7322 159.384V159.612C18.1962 159.708 18.5522 159.872 18.8002 160.104C19.0482 160.328 19.1722 160.632 19.1722 161.016C19.1722 161.36 19.0722 161.66 18.8722 161.916C18.6722 162.172 18.3762 162.372 17.9842 162.516C17.5922 162.652 17.1122 162.72 16.5442 162.72C16.4322 162.72 16.3162 162.716 16.1962 162.708C16.0762 162.692 15.9122 162.668 15.7042 162.636C15.4962 162.772 15.3242 162.896 15.1882 163.008C15.0602 163.12 14.9962 163.22 14.9962 163.308C14.9962 163.396 15.0562 163.468 15.1762 163.524C15.3042 163.572 15.4562 163.608 15.6322 163.632C15.8082 163.648 15.9722 163.656 16.1242 163.656H17.5162C17.6762 163.656 17.8762 163.672 18.1162 163.704C18.3642 163.728 18.6082 163.792 18.8482 163.896C19.0962 164 19.3042 164.164 19.4722 164.388C19.6402 164.604 19.7242 164.9 19.7242 165.276C19.7242 165.716 19.5962 166.068 19.3402 166.332C19.0842 166.604 18.7122 166.8 18.2242 166.92C17.7362 167.048 17.1402 167.112 16.4362 167.112ZM16.4602 166.212C16.9882 166.212 17.4162 166.176 17.7442 166.104C18.0802 166.04 18.3242 165.932 18.4762 165.78C18.6362 165.636 18.7162 165.452 18.7162 165.228C18.7162 165.02 18.6642 164.86 18.5602 164.748C18.4562 164.628 18.3242 164.544 18.1642 164.496C18.0042 164.448 17.8402 164.42 17.6722 164.412C17.5122 164.404 17.3762 164.4 17.2642 164.4H15.8722C15.4082 164.496 15.0882 164.636 14.9122 164.82C14.7362 165.004 14.6482 165.2 14.6482 165.408C14.6482 165.632 14.7282 165.8 14.8882 165.912C15.0482 166.032 15.2642 166.112 15.5362 166.152C15.8162 166.192 16.1242 166.212 16.4602 166.212ZM16.6042 162.012C17.1082 162.012 17.4882 161.908 17.7442 161.7C18.0002 161.492 18.1282 161.212 18.1282 160.86C18.1282 160.484 17.9962 160.176 17.7322 159.936C17.4762 159.688 17.0882 159.564 16.5682 159.564C16.0642 159.564 15.6762 159.68 15.4042 159.912C15.1402 160.144 15.0082 160.444 15.0082 160.812C15.0082 161.052 15.0682 161.264 15.1882 161.448C15.3082 161.624 15.4842 161.764 15.7162 161.868C15.9562 161.964 16.2522 162.012 16.6042 162.012ZM24.2471 165V157.08H25.3631V165H24.2471ZM27.3623 165V161.124V158.796H28.3463L28.2383 160.74H28.4423C28.5543 160.26 28.7023 159.868 28.8863 159.564C29.0783 159.252 29.3183 159.02 29.6063 158.868C29.8943 158.716 30.2303 158.64 30.6143 158.64C31.3023 158.64 31.8223 158.888 32.1743 159.384C32.5343 159.872 32.7143 160.6 32.7143 161.568V165H31.6103V161.664C31.6103 160.968 31.4983 160.452 31.2743 160.116C31.0583 159.78 30.7383 159.612 30.3143 159.612C29.9303 159.612 29.6023 159.732 29.3303 159.972C29.0663 160.212 28.8583 160.528 28.7063 160.92C28.5543 161.304 28.4703 161.72 28.4543 162.168V165H27.3623Z" fill="black" fill-opacity="0.6"/>
<path d="M3.804 192.156C3.284 192.156 2.824 192.1 2.424 191.988C2.024 191.876 1.688 191.712 1.416 191.496C1.152 191.272 0.956 191 0.828 190.68C0.7 190.36 0.648 189.988 0.672 189.564L1.656 189.348C1.624 189.764 1.692 190.112 1.86 190.392C2.028 190.672 2.284 190.884 2.628 191.028C2.972 191.164 3.38 191.232 3.852 191.232C4.3 191.232 4.68 191.176 4.992 191.064C5.304 190.952 5.536 190.796 5.688 190.596C5.848 190.396 5.928 190.168 5.928 189.912C5.928 189.624 5.836 189.396 5.652 189.228C5.468 189.06 5.22 188.932 4.908 188.844C4.604 188.748 4.264 188.66 3.888 188.58C3.52 188.5 3.152 188.408 2.784 188.304C2.416 188.2 2.084 188.068 1.788 187.908C1.492 187.74 1.256 187.524 1.08 187.26C0.904 186.988 0.816 186.644 0.816 186.228C0.816 185.756 0.932 185.348 1.164 185.004C1.404 184.66 1.74 184.396 2.172 184.212C2.604 184.02 3.108 183.924 3.684 183.924C4.268 183.924 4.784 184.016 5.232 184.2C5.68 184.384 6.036 184.656 6.3 185.016C6.572 185.368 6.716 185.804 6.732 186.324L5.7 186.576C5.7 186.288 5.648 186.036 5.544 185.82C5.448 185.596 5.312 185.416 5.136 185.28C4.96 185.136 4.748 185.028 4.5 184.956C4.252 184.876 3.976 184.836 3.672 184.836C3.32 184.836 3.008 184.892 2.736 185.004C2.464 185.116 2.252 185.268 2.1 185.46C1.948 185.652 1.872 185.88 1.872 186.144C1.872 186.456 1.98 186.704 2.196 186.888C2.412 187.064 2.696 187.204 3.048 187.308C3.408 187.412 3.788 187.508 4.188 187.596C4.532 187.668 4.868 187.756 5.196 187.86C5.532 187.956 5.836 188.088 6.108 188.256C6.38 188.416 6.596 188.628 6.756 188.892C6.916 189.156 6.996 189.492 6.996 189.9C6.996 190.356 6.876 190.752 6.636 191.088C6.404 191.424 6.052 191.688 5.58 191.88C5.108 192.064 4.516 192.156 3.804 192.156ZM8.61263 192V185.796H9.70463V192H8.61263ZM9.15263 184.704C8.89663 184.704 8.70463 184.652 8.57663 184.548C8.44863 184.444 8.38463 184.288 8.38463 184.08C8.38463 183.872 8.44863 183.716 8.57663 183.612C8.70463 183.508 8.89263 183.456 9.14062 183.456C9.39663 183.456 9.58863 183.508 9.71663 183.612C9.85263 183.716 9.92063 183.872 9.92063 184.08C9.92063 184.288 9.85263 184.444 9.71663 184.548C9.58863 184.652 9.40063 184.704 9.15263 184.704ZM13.9401 194.112C13.2841 194.112 12.7441 194.06 12.3201 193.956C11.9041 193.86 11.5921 193.708 11.3841 193.5C11.1841 193.292 11.0841 193.036 11.0841 192.732C11.0841 192.364 11.2281 192.064 11.5161 191.832C11.8041 191.592 12.2441 191.432 12.8361 191.352V191.124C12.4041 191.124 12.0801 191.072 11.8641 190.968C11.6561 190.864 11.5521 190.708 11.5521 190.5C11.5521 190.284 11.6601 190.104 11.8761 189.96C12.0921 189.808 12.4401 189.668 12.9201 189.54V189.312C12.4401 189.304 12.0681 189.16 11.8041 188.88C11.5481 188.592 11.4201 188.22 11.4201 187.764C11.4201 187.356 11.5321 187.004 11.7561 186.708C11.9801 186.404 12.3001 186.172 12.7161 186.012C13.1401 185.844 13.6441 185.76 14.2281 185.76H17.1441V186.684L15.2361 186.384V186.612C15.7001 186.708 16.0561 186.872 16.3041 187.104C16.5521 187.328 16.6761 187.632 16.6761 188.016C16.6761 188.36 16.5761 188.66 16.3761 188.916C16.1761 189.172 15.8801 189.372 15.4881 189.516C15.0961 189.652 14.6161 189.72 14.0481 189.72C13.9361 189.72 13.8201 189.716 13.7001 189.708C13.5801 189.692 13.4161 189.668 13.2081 189.636C13.0001 189.772 12.8281 189.896 12.6921 190.008C12.5641 190.12 12.5001 190.22 12.5001 190.308C12.5001 190.396 12.5601 190.468 12.6801 190.524C12.8081 190.572 12.9601 190.608 13.1361 190.632C13.3121 190.648 13.4761 190.656 13.6281 190.656H15.0201C15.1801 190.656 15.3801 190.672 15.6201 190.704C15.8681 190.728 16.1121 190.792 16.3521 190.896C16.6001 191 16.8081 191.164 16.9761 191.388C17.1441 191.604 17.2281 191.9 17.2281 192.276C17.2281 192.716 17.1001 193.068 16.8441 193.332C16.5881 193.604 16.2161 193.8 15.7281 193.92C15.2401 194.048 14.6441 194.112 13.9401 194.112ZM13.9641 193.212C14.4921 193.212 14.9201 193.176 15.2481 193.104C15.5841 193.04 15.8281 192.932 15.9801 192.78C16.1401 192.636 16.2201 192.452 16.2201 192.228C16.2201 192.02 16.1681 191.86 16.0641 191.748C15.9601 191.628 15.8281 191.544 15.6681 191.496C15.5081 191.448 15.3441 191.42 15.1761 191.412C15.0161 191.404 14.8801 191.4 14.7681 191.4H13.3761C12.9121 191.496 12.5921 191.636 12.4161 191.82C12.2401 192.004 12.1521 192.2 12.1521 192.408C12.1521 192.632 12.2321 192.8 12.3921 192.912C12.5521 193.032 12.7681 193.112 13.0401 193.152C13.3201 193.192 13.6281 193.212 13.9641 193.212ZM14.1081 189.012C14.6121 189.012 14.9921 188.908 15.2481 188.7C15.5041 188.492 15.6321 188.212 15.6321 187.86C15.6321 187.484 15.5001 187.176 15.2361 186.936C14.9801 186.688 14.5921 186.564 14.0721 186.564C13.5681 186.564 13.1801 186.68 12.9081 186.912C12.6441 187.144 12.5121 187.444 12.5121 187.812C12.5121 188.052 12.5721 188.264 12.6921 188.448C12.8121 188.624 12.9881 188.764 13.2201 188.868C13.4601 188.964 13.7561 189.012 14.1081 189.012ZM18.6202 192V188.124V185.796H19.6042L19.4962 187.74H19.7002C19.8122 187.26 19.9602 186.868 20.1442 186.564C20.3362 186.252 20.5762 186.02 20.8642 185.868C21.1522 185.716 21.4882 185.64 21.8722 185.64C22.5602 185.64 23.0802 185.888 23.4322 186.384C23.7922 186.872 23.9722 187.6 23.9722 188.568V192H22.8682V188.664C22.8682 187.968 22.7562 187.452 22.5322 187.116C22.3162 186.78 21.9962 186.612 21.5722 186.612C21.1882 186.612 20.8602 186.732 20.5882 186.972C20.3242 187.212 20.1162 187.528 19.9642 187.92C19.8122 188.304 19.7282 188.72 19.7122 189.168V192H18.6202ZM32.1749 192.156C31.7429 192.156 31.3509 192.108 30.9989 192.012C30.6469 191.924 30.3349 191.792 30.0629 191.616C29.7989 191.432 29.5789 191.212 29.4029 190.956C29.2269 190.7 29.0909 190.408 28.9949 190.08C28.9069 189.752 28.8629 189.388 28.8629 188.988V184.08H29.9669V188.952C29.9669 189.432 30.0509 189.836 30.2189 190.164C30.3869 190.492 30.6349 190.74 30.9629 190.908C31.2909 191.068 31.6949 191.148 32.1749 191.148C32.6709 191.148 33.0789 191.068 33.3989 190.908C33.7269 190.74 33.9709 190.492 34.1309 190.164C34.2989 189.836 34.3829 189.432 34.3829 188.952V184.08H35.4869V188.988C35.4869 189.996 35.2029 190.776 34.6349 191.328C34.0749 191.88 33.2549 192.156 32.1749 192.156ZM37.3819 193.956V188.916V185.796H38.3539L38.3059 187.38H38.4859C38.5819 187.036 38.7139 186.736 38.8819 186.48C39.0579 186.216 39.2779 186.012 39.5419 185.868C39.8139 185.716 40.1459 185.64 40.5379 185.64C41.1059 185.64 41.5779 185.784 41.9539 186.072C42.3379 186.352 42.6259 186.74 42.8179 187.236C43.0099 187.732 43.1059 188.288 43.1059 188.904C43.1059 189.52 43.0099 190.076 42.8179 190.572C42.6259 191.06 42.3419 191.448 41.9659 191.736C41.5979 192.016 41.1459 192.156 40.6099 192.156C40.1699 192.156 39.8099 192.068 39.5299 191.892C39.2499 191.708 39.0259 191.472 38.8579 191.184C38.6899 190.888 38.5579 190.58 38.4619 190.26H38.2579C38.3059 190.476 38.3419 190.7 38.3659 190.932C38.3979 191.164 38.4219 191.392 38.4379 191.616C38.4619 191.84 38.4739 192.056 38.4739 192.264V193.956H37.3819ZM40.3339 191.208C40.6859 191.208 40.9819 191.108 41.2219 190.908C41.4619 190.7 41.6459 190.42 41.7739 190.068C41.9019 189.716 41.9659 189.32 41.9659 188.88C41.9659 188.408 41.8979 188.004 41.7619 187.668C41.6339 187.332 41.4499 187.072 41.2099 186.888C40.9699 186.696 40.6779 186.6 40.3339 186.6C40.0379 186.6 39.7739 186.668 39.5419 186.804C39.3179 186.932 39.1259 187.108 38.9659 187.332C38.8059 187.548 38.6819 187.788 38.5939 188.052C38.5139 188.308 38.4739 188.564 38.4739 188.82V188.964C38.4739 189.124 38.4979 189.304 38.5459 189.504C38.5939 189.704 38.6659 189.904 38.7619 190.104C38.8579 190.296 38.9779 190.476 39.1219 190.644C39.2739 190.812 39.4499 190.948 39.6499 191.052C39.8499 191.156 40.0779 191.208 40.3339 191.208Z" fill="black" fill-opacity="0.6"/>
<path d="M1.118 220V211.42H2.977L5.824 218.752H5.889L8.736 211.42H10.504V220H9.373L9.451 212.629H9.347L6.396 220H5.226L2.288 212.616H2.184L2.262 220H1.118ZM15.5549 220.169C15.0176 220.169 14.5452 220.091 14.1379 219.935C13.7392 219.77 13.4012 219.536 13.1239 219.233C12.8466 218.93 12.6386 218.57 12.4999 218.154C12.3612 217.738 12.2919 217.27 12.2919 216.75C12.2919 216.221 12.3612 215.736 12.4999 215.294C12.6386 214.852 12.8422 214.466 13.1109 214.137C13.3796 213.808 13.7089 213.556 14.0989 213.383C14.4976 213.201 14.9439 213.11 15.4379 213.11C15.8799 213.11 16.2829 213.184 16.6469 213.331C17.0109 213.478 17.3186 213.708 17.5699 214.02C17.8299 214.323 18.0249 214.709 18.1549 215.177C18.2849 215.636 18.3369 216.178 18.3109 216.802L13.0329 216.854V216.048L17.5959 215.996L17.1929 216.555C17.2362 216.009 17.1842 215.558 17.0369 215.203C16.8982 214.839 16.6902 214.566 16.4129 214.384C16.1356 214.202 15.8106 214.111 15.4379 214.111C15.0392 214.111 14.6882 214.215 14.3849 214.423C14.0902 214.631 13.8606 214.93 13.6959 215.32C13.5312 215.71 13.4489 216.182 13.4489 216.737C13.4489 217.534 13.6266 218.145 13.9819 218.57C14.3372 218.986 14.8659 219.194 15.5679 219.194C15.8452 219.194 16.0836 219.164 16.2829 219.103C16.4822 219.034 16.6512 218.943 16.7899 218.83C16.9372 218.717 17.0586 218.583 17.1539 218.427C17.2492 218.271 17.3229 218.102 17.3749 217.92L18.4149 218.154C18.3282 218.475 18.2026 218.761 18.0379 219.012C17.8819 219.255 17.6826 219.463 17.4399 219.636C17.2059 219.809 16.9329 219.939 16.6209 220.026C16.3089 220.121 15.9536 220.169 15.5549 220.169ZM20.0065 220V215.814V213.279H21.0595L20.9555 215.398H21.1635C21.2762 214.887 21.4278 214.462 21.6185 214.124C21.8178 213.786 22.0562 213.535 22.3335 213.37C22.6195 213.197 22.9445 213.11 23.3085 213.11C23.7332 213.11 24.0842 213.214 24.3615 213.422C24.6388 213.63 24.8425 213.907 24.9725 214.254C25.1112 214.592 25.1848 214.96 25.1935 215.359H25.3885C25.4925 214.874 25.6398 214.466 25.8305 214.137C26.0298 213.799 26.2768 213.543 26.5715 213.37C26.8748 213.197 27.2128 213.11 27.5855 213.11C27.9322 213.11 28.2355 213.179 28.4955 213.318C28.7555 213.457 28.9765 213.665 29.1585 213.942C29.3405 214.211 29.4748 214.544 29.5615 214.943C29.6568 215.342 29.7045 215.801 29.7045 216.321V220H28.5085V216.477C28.5085 215.966 28.4608 215.541 28.3655 215.203C28.2788 214.856 28.1402 214.601 27.9495 214.436C27.7675 214.263 27.5335 214.176 27.2475 214.176C26.9182 214.176 26.6278 214.289 26.3765 214.514C26.1252 214.731 25.9172 215.034 25.7525 215.424C25.5878 215.814 25.4838 216.26 25.4405 216.763V220H24.2705V216.594C24.2705 216.057 24.2228 215.61 24.1275 215.255C24.0408 214.9 23.9022 214.631 23.7115 214.449C23.5208 214.267 23.2825 214.176 22.9965 214.176C22.6498 214.176 22.3508 214.293 22.0995 214.527C21.8482 214.761 21.6445 215.082 21.4885 215.489C21.3412 215.888 21.2415 216.33 21.1895 216.815V220H20.0065ZM35.1448 220.169C34.7115 220.169 34.3431 220.082 34.0398 219.909C33.7365 219.736 33.4895 219.502 33.2988 219.207C33.1168 218.904 32.9738 218.566 32.8698 218.193H32.6748L32.7268 220H31.6608V216.685V210.9H32.8568V213.006C32.8568 213.231 32.8438 213.47 32.8178 213.721C32.8005 213.964 32.7745 214.215 32.7398 214.475C32.7051 214.726 32.6661 214.978 32.6228 215.229H32.8438C32.9478 214.865 33.0865 214.523 33.2598 214.202C33.4418 213.881 33.6845 213.621 33.9878 213.422C34.2998 213.223 34.6898 213.123 35.1578 213.123C35.7211 213.123 36.2021 213.275 36.6008 213.578C37.0081 213.873 37.3201 214.284 37.5368 214.813C37.7535 215.342 37.8618 215.957 37.8618 216.659C37.8618 217.335 37.7578 217.937 37.5498 218.466C37.3418 218.995 37.0341 219.411 36.6268 219.714C36.2281 220.017 35.7341 220.169 35.1448 220.169ZM34.8718 219.129C35.2358 219.129 35.5478 219.029 35.8078 218.83C36.0765 218.631 36.2801 218.345 36.4188 217.972C36.5575 217.599 36.6268 217.166 36.6268 216.672C36.6268 216.187 36.5575 215.758 36.4188 215.385C36.2888 215.004 36.0895 214.705 35.8208 214.488C35.5608 214.263 35.2401 214.15 34.8588 214.15C34.5901 214.15 34.3475 214.206 34.1308 214.319C33.9141 214.423 33.7235 214.566 33.5588 214.748C33.4028 214.93 33.2685 215.129 33.1558 215.346C33.0518 215.563 32.9738 215.779 32.9218 215.996C32.8698 216.213 32.8438 216.412 32.8438 216.594V216.75C32.8438 217.01 32.8915 217.279 32.9868 217.556C33.0821 217.833 33.2165 218.093 33.3898 218.336C33.5631 218.57 33.7711 218.761 34.0138 218.908C34.2651 219.055 34.5511 219.129 34.8718 219.129ZM42.4817 220.169C41.9443 220.169 41.472 220.091 41.0647 219.935C40.666 219.77 40.328 219.536 40.0507 219.233C39.7733 218.93 39.5653 218.57 39.4267 218.154C39.288 217.738 39.2187 217.27 39.2187 216.75C39.2187 216.221 39.288 215.736 39.4267 215.294C39.5653 214.852 39.769 214.466 40.0377 214.137C40.3063 213.808 40.6357 213.556 41.0257 213.383C41.4243 213.201 41.8707 213.11 42.3647 213.11C42.8067 213.11 43.2097 213.184 43.5737 213.331C43.9377 213.478 44.2453 213.708 44.4967 214.02C44.7567 214.323 44.9517 214.709 45.0817 215.177C45.2117 215.636 45.2637 216.178 45.2377 216.802L39.9597 216.854V216.048L44.5227 215.996L44.1197 216.555C44.163 216.009 44.111 215.558 43.9637 215.203C43.825 214.839 43.617 214.566 43.3397 214.384C43.0623 214.202 42.7373 214.111 42.3647 214.111C41.966 214.111 41.615 214.215 41.3117 214.423C41.017 214.631 40.7873 214.93 40.6227 215.32C40.458 215.71 40.3757 216.182 40.3757 216.737C40.3757 217.534 40.5533 218.145 40.9087 218.57C41.264 218.986 41.7927 219.194 42.4947 219.194C42.772 219.194 43.0103 219.164 43.2097 219.103C43.409 219.034 43.578 218.943 43.7167 218.83C43.864 218.717 43.9853 218.583 44.0807 218.427C44.176 218.271 44.2497 218.102 44.3017 217.92L45.3417 218.154C45.255 218.475 45.1293 218.761 44.9647 219.012C44.8087 219.255 44.6093 219.463 44.3667 219.636C44.1327 219.809 43.8597 219.939 43.5477 220.026C43.2357 220.121 42.8803 220.169 42.4817 220.169ZM46.9333 220V216.36V213.279H48.0123L47.8953 215.606H48.1163C48.2029 215.103 48.3243 214.666 48.4803 214.293C48.6449 213.92 48.8659 213.63 49.1433 213.422C49.4206 213.214 49.7586 213.11 50.1573 213.11C50.2526 213.11 50.3566 213.119 50.4693 213.136C50.5819 213.145 50.7076 213.171 50.8463 213.214L50.7813 214.462C50.6599 214.41 50.5299 214.375 50.3913 214.358C50.2613 214.332 50.1399 214.319 50.0273 214.319C49.6806 214.319 49.3859 214.427 49.1433 214.644C48.9006 214.861 48.6969 215.155 48.5323 215.528C48.3676 215.892 48.2333 216.299 48.1293 216.75V220H46.9333ZM54.6089 220.169C54.1409 220.169 53.7249 220.117 53.3609 220.013C52.9969 219.918 52.6936 219.779 52.4509 219.597C52.2083 219.406 52.0219 219.181 51.8919 218.921C51.7619 218.661 51.6926 218.379 51.6839 218.076L52.6849 217.803C52.6763 218.089 52.7499 218.34 52.9059 218.557C53.0619 218.765 53.2873 218.925 53.5819 219.038C53.8853 219.151 54.2493 219.207 54.6739 219.207C55.1939 219.207 55.5926 219.12 55.8699 218.947C56.1559 218.774 56.2989 218.535 56.2989 218.232C56.2989 217.989 56.2209 217.803 56.0649 217.673C55.9089 217.534 55.6923 217.426 55.4149 217.348C55.1376 217.261 54.8126 217.183 54.4399 217.114C54.1279 217.045 53.8159 216.967 53.5039 216.88C53.2006 216.793 52.9189 216.681 52.6589 216.542C52.3989 216.395 52.1909 216.204 52.0349 215.97C51.8789 215.736 51.8009 215.446 51.8009 215.099C51.8009 214.692 51.9093 214.341 52.1259 214.046C52.3426 213.751 52.6503 213.522 53.0489 213.357C53.4476 213.192 53.9243 213.11 54.4789 213.11C55.0336 213.11 55.5059 213.197 55.8959 213.37C56.2859 213.535 56.5936 213.769 56.8189 214.072C57.0443 214.375 57.1743 214.731 57.2089 215.138L56.1819 215.398C56.1733 215.103 56.0953 214.861 55.9479 214.67C55.8006 214.471 55.5969 214.323 55.3369 214.228C55.0856 214.124 54.7866 214.072 54.4399 214.072C53.9719 214.072 53.6036 214.159 53.3349 214.332C53.0663 214.505 52.9319 214.744 52.9319 215.047C52.9319 215.272 53.0099 215.454 53.1659 215.593C53.3306 215.732 53.5516 215.84 53.8289 215.918C54.1063 215.996 54.4139 216.074 54.7519 216.152C55.0986 216.221 55.4279 216.299 55.7399 216.386C56.0606 216.473 56.3466 216.585 56.5979 216.724C56.8493 216.863 57.0486 217.049 57.1959 217.283C57.3433 217.508 57.4169 217.799 57.4169 218.154C57.4169 218.596 57.2999 218.969 57.0659 219.272C56.8319 219.567 56.5026 219.792 56.0779 219.948C55.6619 220.095 55.1723 220.169 54.6089 220.169ZM59.0192 220V215.905V210.9H60.2412V212.993C60.2412 213.184 60.2369 213.379 60.2282 213.578C60.2195 213.769 60.2022 213.964 60.1762 214.163C60.1589 214.362 60.1329 214.562 60.0982 214.761C60.0722 214.96 60.0419 215.16 60.0072 215.359H60.2412C60.3625 214.865 60.5229 214.453 60.7222 214.124C60.9215 213.786 61.1729 213.535 61.4762 213.37C61.7795 213.197 62.1392 213.11 62.5552 213.11C63.3179 213.11 63.8855 213.379 64.2582 213.916C64.6395 214.445 64.8302 215.238 64.8302 216.295V220H63.6342V216.412C63.6342 215.632 63.5129 215.064 63.2702 214.709C63.0275 214.345 62.6679 214.163 62.1912 214.163C61.7925 214.163 61.4545 214.28 61.1772 214.514C60.9085 214.748 60.6919 215.064 60.5272 215.463C60.3712 215.862 60.2629 216.312 60.2022 216.815V220H59.0192ZM66.789 220V213.279H67.972V220H66.789ZM67.387 212.096C67.1097 212.096 66.9017 212.04 66.763 211.927C66.6244 211.814 66.555 211.645 66.555 211.42C66.555 211.203 66.6244 211.039 66.763 210.926C66.9017 210.805 67.1054 210.744 67.374 210.744C67.6514 210.744 67.8594 210.805 67.998 210.926C68.1454 211.039 68.219 211.203 68.219 211.42C68.219 211.645 68.1454 211.814 67.998 211.927C67.8594 212.04 67.6557 212.096 67.387 212.096ZM70.0387 222.106V216.646V213.279H71.1047L71.0397 214.995L71.2477 215.008C71.3431 214.627 71.4817 214.297 71.6637 214.02C71.8544 213.734 72.0971 213.513 72.3917 213.357C72.6864 213.192 73.0417 213.11 73.4577 213.11C74.0731 213.11 74.5844 213.266 74.9917 213.578C75.4077 213.881 75.7197 214.302 75.9277 214.839C76.1357 215.368 76.2397 215.97 76.2397 216.646C76.2397 217.313 76.1357 217.916 75.9277 218.453C75.7197 218.982 75.4164 219.402 75.0177 219.714C74.6191 220.017 74.1251 220.169 73.5357 220.169C73.0677 220.169 72.6777 220.074 72.3657 219.883C72.0624 219.684 71.8197 219.428 71.6377 219.116C71.4557 218.795 71.3171 218.457 71.2217 218.102H71.0007C71.0441 218.345 71.0831 218.592 71.1177 218.843C71.1524 219.094 71.1784 219.341 71.1957 219.584C71.2217 219.827 71.2347 220.061 71.2347 220.286V222.106H70.0387ZM73.2367 219.142C73.6181 219.142 73.9387 219.034 74.1987 218.817C74.4674 218.592 74.6667 218.288 74.7967 217.907C74.9354 217.526 75.0047 217.097 75.0047 216.62C75.0047 216.109 74.9354 215.671 74.7967 215.307C74.6581 214.943 74.4544 214.661 74.1857 214.462C73.9257 214.254 73.6094 214.15 73.2367 214.15C72.9247 214.15 72.6431 214.224 72.3917 214.371C72.1491 214.51 71.9411 214.7 71.7677 214.943C71.5944 215.177 71.4601 215.437 71.3647 215.723C71.2694 216 71.2217 216.278 71.2217 216.555V216.711C71.2217 216.884 71.2477 217.079 71.2997 217.296C71.3517 217.513 71.4297 217.729 71.5337 217.946C71.6464 218.154 71.7807 218.349 71.9367 218.531C72.1014 218.713 72.2921 218.86 72.5087 218.973C72.7254 219.086 72.9681 219.142 73.2367 219.142ZM80.4947 220.169C80.0267 220.169 79.6107 220.117 79.2467 220.013C78.8827 219.918 78.5793 219.779 78.3367 219.597C78.094 219.406 77.9077 219.181 77.7777 218.921C77.6477 218.661 77.5783 218.379 77.5697 218.076L78.5707 217.803C78.562 218.089 78.6357 218.34 78.7917 218.557C78.9477 218.765 79.173 218.925 79.4677 219.038C79.771 219.151 80.135 219.207 80.5597 219.207C81.0797 219.207 81.4783 219.12 81.7557 218.947C82.0417 218.774 82.1847 218.535 82.1847 218.232C82.1847 217.989 82.1067 217.803 81.9507 217.673C81.7947 217.534 81.578 217.426 81.3007 217.348C81.0233 217.261 80.6983 217.183 80.3257 217.114C80.0137 217.045 79.7017 216.967 79.3897 216.88C79.0863 216.793 78.8047 216.681 78.5447 216.542C78.2847 216.395 78.0767 216.204 77.9207 215.97C77.7647 215.736 77.6867 215.446 77.6867 215.099C77.6867 214.692 77.795 214.341 78.0117 214.046C78.2283 213.751 78.536 213.522 78.9347 213.357C79.3333 213.192 79.81 213.11 80.3647 213.11C80.9193 213.11 81.3917 213.197 81.7817 213.37C82.1717 213.535 82.4793 213.769 82.7047 214.072C82.93 214.375 83.06 214.731 83.0947 215.138L82.0677 215.398C82.059 215.103 81.981 214.861 81.8337 214.67C81.6863 214.471 81.4827 214.323 81.2227 214.228C80.9713 214.124 80.6723 214.072 80.3257 214.072C79.8577 214.072 79.4893 214.159 79.2207 214.332C78.952 214.505 78.8177 214.744 78.8177 215.047C78.8177 215.272 78.8957 215.454 79.0517 215.593C79.2163 215.732 79.4373 215.84 79.7147 215.918C79.992 215.996 80.2997 216.074 80.6377 216.152C80.9843 216.221 81.3137 216.299 81.6257 216.386C81.9463 216.473 82.2323 216.585 82.4837 216.724C82.735 216.863 82.9343 217.049 83.0817 217.283C83.229 217.508 83.3027 217.799 83.3027 218.154C83.3027 218.596 83.1857 218.969 82.9517 219.272C82.7177 219.567 82.3883 219.792 81.9637 219.948C81.5477 220.095 81.058 220.169 80.4947 220.169Z" fill="black"/>
</svg>
