<svg width="975" height="189" viewBox="0 0 975 189" fill="none" xmlns="http://www.w3.org/2000/svg">
<path d="M151.198 31.9804V25.0804H159.658C162.458 25.0804 164.538 24.5204 165.898 23.4004C167.298 22.2804 167.998 20.4204 167.998 17.8204C167.998 15.4604 167.358 13.7004 166.078 12.5404C164.798 11.3404 162.818 10.7404 160.138 10.7404H151.198V3.84043H160.618C162.978 3.84043 165.158 4.12043 167.158 4.68043C169.158 5.24043 170.878 6.10043 172.318 7.26043C173.758 8.42043 174.878 9.88043 175.678 11.6404C176.478 13.4004 176.878 15.4804 176.878 17.8804C176.878 20.9604 176.178 23.5604 174.778 25.6804C173.378 27.7604 171.338 29.3404 168.658 30.4204C165.978 31.4604 162.658 31.9804 158.698 31.9804H151.198ZM145.078 43.4404V3.84043H153.718V43.4404H145.078ZM181.224 43.4404V27.4804V11.9404H188.604L188.484 24.0004H189.264C189.544 20.9204 190.044 18.4404 190.764 16.5604C191.524 14.6804 192.524 13.3204 193.764 12.4804C195.004 11.6404 196.464 11.2204 198.144 11.2204C198.704 11.2204 199.284 11.2804 199.884 11.4004C200.484 11.5204 201.104 11.7204 201.744 12.0004L201.324 21.3604C200.604 20.9604 199.864 20.6804 199.104 20.5204C198.344 20.3604 197.644 20.2804 197.004 20.2804C195.564 20.2804 194.324 20.6804 193.284 21.4804C192.284 22.2404 191.484 23.3804 190.884 24.9004C190.324 26.3804 189.984 28.2004 189.864 30.3604V43.4404H181.224ZM219.531 44.2804C216.451 44.2804 213.731 43.6604 211.371 42.4204C209.011 41.1804 207.151 39.3404 205.791 36.9004C204.471 34.4204 203.811 31.3404 203.811 27.6604C203.811 23.9004 204.491 20.8004 205.851 18.3604C207.211 15.9204 209.071 14.1004 211.431 12.9004C213.831 11.7004 216.531 11.1004 219.531 11.1004C222.651 11.1004 225.391 11.7204 227.751 12.9604C230.111 14.2004 231.951 16.0404 233.271 18.4804C234.591 20.9204 235.251 24.0004 235.251 27.7204C235.251 31.5204 234.551 34.6404 233.151 37.0804C231.791 39.5204 229.911 41.3404 227.511 42.5404C225.151 43.7004 222.491 44.2804 219.531 44.2804ZM219.711 37.8004C221.191 37.8004 222.431 37.4404 223.431 36.7204C224.471 35.9604 225.251 34.8604 225.771 33.4204C226.291 31.9804 226.551 30.2404 226.551 28.2004C226.551 26.0004 226.271 24.1404 225.711 22.6204C225.151 21.1004 224.331 19.9404 223.251 19.1404C222.171 18.3004 220.871 17.8804 219.351 17.8804C217.911 17.8804 216.671 18.2604 215.631 19.0204C214.631 19.7404 213.851 20.8204 213.291 22.2604C212.771 23.7004 212.511 25.4604 212.511 27.5404C212.511 30.8204 213.151 33.3604 214.431 35.1604C215.711 36.9204 217.471 37.8004 219.711 37.8004ZM242.693 43.4404V23.4604H237.953V17.1604L246.833 17.6404V16.9204C244.953 16.6004 243.473 16.0604 242.393 15.3004C241.353 14.5004 240.613 13.5804 240.173 12.5404C239.773 11.4604 239.573 10.4004 239.573 9.36043C239.573 7.60043 240.013 6.08043 240.893 4.80043C241.813 3.48043 243.093 2.48043 244.733 1.80043C246.373 1.08043 248.253 0.720429 250.373 0.720429C252.173 0.720429 253.793 0.960428 255.233 1.44043C256.673 1.92043 257.913 2.58043 258.953 3.42043L258.233 11.2804C257.233 10.5204 256.173 9.94043 255.053 9.54043C253.973 9.10043 252.893 8.88043 251.813 8.88043C250.573 8.88043 249.553 9.20043 248.753 9.84043C247.993 10.4404 247.613 11.3804 247.613 12.6604C247.613 13.5404 247.793 14.2804 248.153 14.8804C248.553 15.4404 249.093 15.8804 249.773 16.2004C250.493 16.5204 251.333 16.7004 252.293 16.7404H258.713V23.4604H251.153V43.4404H242.693ZM277.135 44.2804C274.415 44.2804 272.055 43.9004 270.055 43.1404C268.055 42.3404 266.395 41.2204 265.075 39.7804C263.755 38.3404 262.775 36.6604 262.135 34.7404C261.495 32.7804 261.175 30.6204 261.175 28.2604C261.175 25.9004 261.495 23.6804 262.135 21.6004C262.775 19.5204 263.735 17.7004 265.015 16.1404C266.295 14.5404 267.895 13.3004 269.815 12.4204C271.735 11.5404 273.975 11.1004 276.535 11.1004C279.055 11.1004 281.255 11.5204 283.135 12.3604C285.015 13.2004 286.535 14.4204 287.695 16.0204C288.895 17.6204 289.735 19.5204 290.215 21.7204C290.695 23.8804 290.795 26.3204 290.515 29.0404L266.635 29.3404V24.5404L284.635 24.3004L282.595 26.9404C282.835 24.9404 282.735 23.2804 282.295 21.9604C281.855 20.6004 281.135 19.5804 280.135 18.9004C279.175 18.2204 277.995 17.8804 276.595 17.8804C275.035 17.8804 273.715 18.3004 272.635 19.1404C271.595 19.9404 270.795 21.1004 270.235 22.6204C269.715 24.1004 269.455 25.8804 269.455 27.9604C269.455 31.3204 270.115 33.8204 271.435 35.4604C272.795 37.0604 274.715 37.8604 277.195 37.8604C278.315 37.8604 279.235 37.7204 279.955 37.4404C280.715 37.1204 281.335 36.7004 281.815 36.1804C282.295 35.6604 282.655 35.0604 282.895 34.3804C283.135 33.7004 283.275 33.0004 283.315 32.2804L291.055 33.3004C290.975 34.7404 290.655 36.1204 290.095 37.4404C289.535 38.7204 288.695 39.8804 287.575 40.9204C286.495 41.9604 285.095 42.7804 283.375 43.3804C281.655 43.9804 279.575 44.2804 277.135 44.2804ZM308.913 44.2804C306.793 44.2804 304.853 44.0604 303.093 43.6204C301.373 43.2204 299.873 42.6004 298.593 41.7604C297.313 40.9204 296.313 39.8404 295.593 38.5204C294.873 37.2004 294.493 35.6404 294.453 33.8404L301.593 32.2804C301.713 33.4804 302.073 34.5204 302.673 35.4004C303.313 36.2404 304.173 36.8804 305.253 37.3204C306.373 37.7604 307.713 37.9804 309.273 37.9804C310.953 37.9804 312.293 37.7204 313.293 37.2004C314.293 36.6404 314.793 35.8404 314.793 34.8004C314.793 34.0804 314.553 33.5204 314.073 33.1204C313.593 32.6804 312.833 32.3004 311.793 31.9804C310.793 31.6604 309.493 31.3404 307.893 31.0204C306.173 30.5804 304.533 30.1404 302.973 29.7004C301.413 29.2604 300.013 28.6804 298.773 27.9604C297.533 27.2404 296.553 26.3404 295.833 25.2604C295.153 24.1404 294.813 22.7404 294.813 21.0604C294.813 18.9804 295.353 17.2204 296.433 15.7804C297.553 14.3004 299.113 13.1604 301.113 12.3604C303.153 11.5204 305.533 11.1004 308.253 11.1004C310.733 11.1004 312.973 11.4804 314.973 12.2404C317.013 12.9604 318.653 14.0804 319.893 15.6004C321.133 17.1204 321.753 19.0604 321.753 21.4204L314.553 22.8604C314.553 21.7004 314.273 20.7204 313.713 19.9204C313.153 19.1204 312.393 18.5204 311.433 18.1204C310.473 17.6804 309.333 17.4604 308.013 17.4604C306.413 17.4604 305.153 17.7604 304.233 18.3604C303.353 18.9204 302.913 19.6604 302.913 20.5804C302.913 21.3404 303.193 21.9604 303.753 22.4404C304.313 22.8804 305.133 23.2604 306.213 23.5804C307.333 23.8604 308.653 24.1804 310.173 24.5404C311.653 24.8204 313.133 25.1804 314.613 25.6204C316.093 26.0204 317.453 26.5804 318.693 27.3004C319.973 27.9804 320.993 28.9004 321.753 30.0604C322.513 31.2204 322.893 32.7004 322.893 34.5004C322.893 36.5004 322.333 38.2404 321.213 39.7204C320.133 41.2004 318.553 42.3404 316.473 43.1404C314.393 43.9004 311.873 44.2804 308.913 44.2804ZM340.671 44.2804C338.551 44.2804 336.611 44.0604 334.851 43.6204C333.131 43.2204 331.631 42.6004 330.351 41.7604C329.071 40.9204 328.071 39.8404 327.351 38.5204C326.631 37.2004 326.251 35.6404 326.211 33.8404L333.351 32.2804C333.471 33.4804 333.831 34.5204 334.431 35.4004C335.071 36.2404 335.931 36.8804 337.011 37.3204C338.131 37.7604 339.471 37.9804 341.031 37.9804C342.711 37.9804 344.051 37.7204 345.051 37.2004C346.051 36.6404 346.551 35.8404 346.551 34.8004C346.551 34.0804 346.311 33.5204 345.831 33.1204C345.351 32.6804 344.591 32.3004 343.551 31.9804C342.551 31.6604 341.251 31.3404 339.651 31.0204C337.931 30.5804 336.291 30.1404 334.731 29.7004C333.171 29.2604 331.771 28.6804 330.531 27.9604C329.291 27.2404 328.311 26.3404 327.591 25.2604C326.911 24.1404 326.571 22.7404 326.571 21.0604C326.571 18.9804 327.111 17.2204 328.191 15.7804C329.311 14.3004 330.871 13.1604 332.871 12.3604C334.911 11.5204 337.291 11.1004 340.011 11.1004C342.491 11.1004 344.731 11.4804 346.731 12.2404C348.771 12.9604 350.411 14.0804 351.651 15.6004C352.891 17.1204 353.511 19.0604 353.511 21.4204L346.311 22.8604C346.311 21.7004 346.031 20.7204 345.471 19.9204C344.911 19.1204 344.151 18.5204 343.191 18.1204C342.231 17.6804 341.091 17.4604 339.771 17.4604C338.171 17.4604 336.911 17.7604 335.991 18.3604C335.111 18.9204 334.671 19.6604 334.671 20.5804C334.671 21.3404 334.951 21.9604 335.511 22.4404C336.071 22.8804 336.891 23.2604 337.971 23.5804C339.091 23.8604 340.411 24.1804 341.931 24.5404C343.411 24.8204 344.891 25.1804 346.371 25.6204C347.851 26.0204 349.211 26.5804 350.451 27.3004C351.731 27.9804 352.751 28.9004 353.511 30.0604C354.271 31.2204 354.651 32.7004 354.651 34.5004C354.651 36.5004 354.091 38.2404 352.971 39.7204C351.891 41.2004 350.311 42.3404 348.231 43.1404C346.151 43.9004 343.631 44.2804 340.671 44.2804ZM359.173 43.4404V11.9404H367.813V43.4404H359.173ZM363.433 8.34043C361.753 8.34043 360.473 8.00043 359.593 7.32043C358.713 6.60043 358.273 5.56043 358.273 4.20043C358.273 2.80043 358.713 1.76043 359.593 1.08043C360.513 0.360428 361.793 0.000427485 363.433 0.000427485C365.153 0.000427485 366.453 0.360428 367.333 1.08043C368.253 1.80043 368.713 2.84043 368.713 4.20043C368.713 5.52043 368.253 6.54043 367.333 7.26043C366.453 7.98043 365.153 8.34043 363.433 8.34043ZM388.398 44.2804C385.318 44.2804 382.598 43.6604 380.238 42.4204C377.878 41.1804 376.018 39.3404 374.658 36.9004C373.338 34.4204 372.678 31.3404 372.678 27.6604C372.678 23.9004 373.358 20.8004 374.718 18.3604C376.078 15.9204 377.938 14.1004 380.298 12.9004C382.698 11.7004 385.398 11.1004 388.398 11.1004C391.518 11.1004 394.258 11.7204 396.618 12.9604C398.978 14.2004 400.818 16.0404 402.138 18.4804C403.458 20.9204 404.118 24.0004 404.118 27.7204C404.118 31.5204 403.418 34.6404 402.018 37.0804C400.658 39.5204 398.778 41.3404 396.378 42.5404C394.018 43.7004 391.358 44.2804 388.398 44.2804ZM388.578 37.8004C390.058 37.8004 391.298 37.4404 392.298 36.7204C393.338 35.9604 394.118 34.8604 394.638 33.4204C395.158 31.9804 395.418 30.2404 395.418 28.2004C395.418 26.0004 395.138 24.1404 394.578 22.6204C394.018 21.1004 393.198 19.9404 392.118 19.1404C391.038 18.3004 389.738 17.8804 388.218 17.8804C386.778 17.8804 385.538 18.2604 384.498 19.0204C383.498 19.7404 382.718 20.8204 382.158 22.2604C381.638 23.7004 381.378 25.4604 381.378 27.5404C381.378 30.8204 382.018 33.3604 383.298 35.1604C384.578 36.9204 386.338 37.8004 388.578 37.8004ZM408.977 43.4404V25.4404V11.9404H416.237L416.057 23.5804H416.897C417.257 20.7404 417.877 18.4004 418.757 16.5604C419.637 14.7204 420.817 13.3604 422.297 12.4804C423.777 11.5604 425.597 11.1004 427.757 11.1004C431.317 11.1004 433.997 12.3204 435.797 14.7604C437.597 17.2004 438.497 20.9404 438.497 25.9804V43.4404H429.797V26.9404C429.797 24.0604 429.377 21.9404 428.537 20.5804C427.697 19.1804 426.397 18.4804 424.637 18.4804C423.157 18.4804 421.897 18.9804 420.857 19.9804C419.817 20.9404 419.017 22.3604 418.457 24.2404C417.897 26.1204 417.617 28.4404 417.617 31.2004V43.4404H408.977ZM451.992 44.2804C450.352 44.2804 448.832 43.9804 447.432 43.3804C446.032 42.7404 444.912 41.7804 444.072 40.5004C443.232 39.1804 442.812 37.5204 442.812 35.5204C442.812 33.6804 443.152 32.1804 443.832 31.0204C444.552 29.8204 445.552 28.8604 446.832 28.1404C448.112 27.3804 449.592 26.8004 451.272 26.4004C452.952 25.9604 454.752 25.5804 456.672 25.2604C458.432 24.9404 459.792 24.6804 460.752 24.4804C461.712 24.2404 462.372 23.9404 462.732 23.5804C463.132 23.2204 463.332 22.7004 463.332 22.0204C463.332 20.7804 462.872 19.7804 461.952 19.0204C461.072 18.2604 459.812 17.8804 458.172 17.8804C457.172 17.8804 456.172 18.0804 455.172 18.4804C454.212 18.8404 453.412 19.4404 452.772 20.2804C452.132 21.1204 451.732 22.2404 451.572 23.6404L443.892 22.3204C444.092 20.2404 444.612 18.4804 445.452 17.0404C446.332 15.6004 447.432 14.4604 448.752 13.6204C450.112 12.7404 451.612 12.1004 453.252 11.7004C454.932 11.3004 456.672 11.1004 458.472 11.1004C461.472 11.1004 463.952 11.6404 465.912 12.7204C467.872 13.7604 469.332 15.3204 470.292 17.4004C471.292 19.4804 471.792 22.1004 471.792 25.2604V30.7804C471.792 32.1804 471.792 33.6004 471.792 35.0404C471.832 36.4404 471.872 37.8404 471.912 39.2404C471.992 40.6404 472.052 42.0404 472.092 43.4404H464.472C464.432 42.1204 464.392 40.7604 464.352 39.3604C464.312 37.9204 464.292 36.4204 464.292 34.8604H463.572C463.212 36.5804 462.512 38.1604 461.472 39.6004C460.432 41.0404 459.112 42.1804 457.512 43.0204C455.912 43.8604 454.072 44.2804 451.992 44.2804ZM455.532 37.9204C456.332 37.9204 457.152 37.7804 457.992 37.5004C458.832 37.1804 459.612 36.7204 460.332 36.1204C461.092 35.4804 461.752 34.6804 462.312 33.7204C462.872 32.7204 463.232 31.5604 463.392 30.2404L463.332 27.2404H464.832C464.352 27.7604 463.672 28.1804 462.792 28.5004C461.912 28.8204 460.952 29.0604 459.912 29.2204C458.912 29.3804 457.892 29.5604 456.852 29.7604C455.852 29.9604 454.932 30.2204 454.092 30.5404C453.252 30.8604 452.572 31.3004 452.052 31.8604C451.572 32.4204 451.332 33.2004 451.332 34.2004C451.332 35.3604 451.712 36.2804 452.472 36.9604C453.272 37.6004 454.292 37.9204 455.532 37.9204ZM477.532 43.4404V1.20043H486.112V43.4404H477.532ZM530.448 43.4404V3.84043H539.088V43.4404H530.448ZM505.488 43.4404V3.84043H514.128V43.4404H505.488ZM511.248 27.0604V19.8604H534.468V27.0604H511.248ZM560.201 44.2804C557.481 44.2804 555.121 43.9004 553.121 43.1404C551.121 42.3404 549.461 41.2204 548.141 39.7804C546.821 38.3404 545.841 36.6604 545.201 34.7404C544.561 32.7804 544.241 30.6204 544.241 28.2604C544.241 25.9004 544.561 23.6804 545.201 21.6004C545.841 19.5204 546.801 17.7004 548.081 16.1404C549.361 14.5404 550.961 13.3004 552.881 12.4204C554.801 11.5404 557.041 11.1004 559.601 11.1004C562.121 11.1004 564.321 11.5204 566.201 12.3604C568.081 13.2004 569.601 14.4204 570.761 16.0204C571.961 17.6204 572.801 19.5204 573.281 21.7204C573.761 23.8804 573.861 26.3204 573.581 29.0404L549.701 29.3404V24.5404L567.701 24.3004L565.661 26.9404C565.901 24.9404 565.801 23.2804 565.361 21.9604C564.921 20.6004 564.201 19.5804 563.201 18.9004C562.241 18.2204 561.061 17.8804 559.661 17.8804C558.101 17.8804 556.781 18.3004 555.701 19.1404C554.661 19.9404 553.861 21.1004 553.301 22.6204C552.781 24.1004 552.521 25.8804 552.521 27.9604C552.521 31.3204 553.181 33.8204 554.501 35.4604C555.861 37.0604 557.781 37.8604 560.261 37.8604C561.381 37.8604 562.301 37.7204 563.021 37.4404C563.781 37.1204 564.401 36.7004 564.881 36.1804C565.361 35.6604 565.721 35.0604 565.961 34.3804C566.201 33.7004 566.341 33.0004 566.381 32.2804L574.121 33.3004C574.041 34.7404 573.721 36.1204 573.161 37.4404C572.601 38.7204 571.761 39.8804 570.641 40.9204C569.561 41.9604 568.161 42.7804 566.441 43.3804C564.721 43.9804 562.641 44.2804 560.201 44.2804ZM586.582 44.2804C584.942 44.2804 583.422 43.9804 582.022 43.3804C580.622 42.7404 579.502 41.7804 578.662 40.5004C577.822 39.1804 577.402 37.5204 577.402 35.5204C577.402 33.6804 577.742 32.1804 578.422 31.0204C579.142 29.8204 580.142 28.8604 581.422 28.1404C582.702 27.3804 584.182 26.8004 585.862 26.4004C587.542 25.9604 589.342 25.5804 591.262 25.2604C593.022 24.9404 594.382 24.6804 595.342 24.4804C596.302 24.2404 596.962 23.9404 597.322 23.5804C597.722 23.2204 597.922 22.7004 597.922 22.0204C597.922 20.7804 597.462 19.7804 596.542 19.0204C595.662 18.2604 594.402 17.8804 592.762 17.8804C591.762 17.8804 590.762 18.0804 589.762 18.4804C588.802 18.8404 588.002 19.4404 587.362 20.2804C586.722 21.1204 586.322 22.2404 586.162 23.6404L578.482 22.3204C578.682 20.2404 579.202 18.4804 580.042 17.0404C580.922 15.6004 582.022 14.4604 583.342 13.6204C584.702 12.7404 586.202 12.1004 587.842 11.7004C589.522 11.3004 591.262 11.1004 593.062 11.1004C596.062 11.1004 598.542 11.6404 600.502 12.7204C602.462 13.7604 603.922 15.3204 604.882 17.4004C605.882 19.4804 606.382 22.1004 606.382 25.2604V30.7804C606.382 32.1804 606.382 33.6004 606.382 35.0404C606.422 36.4404 606.462 37.8404 606.502 39.2404C606.582 40.6404 606.642 42.0404 606.682 43.4404H599.062C599.022 42.1204 598.982 40.7604 598.942 39.3604C598.902 37.9204 598.882 36.4204 598.882 34.8604H598.162C597.802 36.5804 597.102 38.1604 596.062 39.6004C595.022 41.0404 593.702 42.1804 592.102 43.0204C590.502 43.8604 588.662 44.2804 586.582 44.2804ZM590.122 37.9204C590.922 37.9204 591.742 37.7804 592.582 37.5004C593.422 37.1804 594.202 36.7204 594.922 36.1204C595.682 35.4804 596.342 34.6804 596.902 33.7204C597.462 32.7204 597.822 31.5604 597.982 30.2404L597.922 27.2404H599.422C598.942 27.7604 598.262 28.1804 597.382 28.5004C596.502 28.8204 595.542 29.0604 594.502 29.2204C593.502 29.3804 592.482 29.5604 591.442 29.7604C590.442 29.9604 589.522 30.2204 588.682 30.5404C587.842 30.8604 587.162 31.3004 586.642 31.8604C586.162 32.4204 585.922 33.2004 585.922 34.2004C585.922 35.3604 586.302 36.2804 587.062 36.9604C587.862 37.6004 588.882 37.9204 590.122 37.9204ZM612.122 43.4404V1.20043H620.702V43.4404H612.122ZM638.826 44.1604C635.346 44.1604 632.746 43.2404 631.026 41.4004C629.346 39.5604 628.506 36.6804 628.506 32.7604V18.7204H624.486L624.546 12.6004H626.226C627.986 12.4804 629.246 12.0204 630.006 11.2204C630.806 10.3804 631.306 9.08043 631.506 7.32043L631.866 4.86043H636.906V11.9404H644.646V18.9604H636.906V32.2204C636.906 33.7004 637.266 34.7804 637.986 35.4604C638.706 36.1004 639.686 36.4204 640.926 36.4204C641.566 36.4204 642.226 36.3404 642.906 36.1804C643.586 35.9804 644.186 35.7204 644.706 35.4004V43.2604C643.506 43.6204 642.426 43.8604 641.466 43.9804C640.506 44.1004 639.626 44.1604 638.826 44.1604ZM649.446 43.4404V25.8004V1.20043H658.086V10.0204C658.086 10.8204 658.046 11.8004 657.966 12.9604C657.886 14.0804 657.766 15.2804 657.606 16.5604C657.446 17.8404 657.286 19.1004 657.126 20.3404C656.966 21.5404 656.826 22.6604 656.706 23.7004H657.546C657.986 20.8604 658.646 18.5204 659.526 16.6804C660.446 14.8004 661.626 13.4004 663.066 12.4804C664.546 11.5604 666.346 11.1004 668.466 11.1004C672.026 11.1004 674.666 12.3604 676.386 14.8804C678.106 17.3604 678.966 21.1204 678.966 26.1604V43.4404H670.266V27.0004C670.266 24.0804 669.846 21.9404 669.006 20.5804C668.206 19.2204 666.946 18.5404 665.226 18.5404C663.746 18.5404 662.486 19.0404 661.446 20.0404C660.406 21.0404 659.586 22.4804 658.986 24.3604C658.426 26.2404 658.126 28.5404 658.086 31.2604V43.4404H649.446ZM699.361 44.2804C696.641 44.2804 694.281 43.8804 692.281 43.0804C690.281 42.2404 688.621 41.0804 687.301 39.6004C685.981 38.1204 685.001 36.4004 684.361 34.4404C683.721 32.4804 683.401 30.3404 683.401 28.0204C683.401 25.6604 683.721 23.4604 684.361 21.4204C685.001 19.3804 685.961 17.5804 687.241 16.0204C688.561 14.4604 690.201 13.2604 692.161 12.4204C694.161 11.5404 696.481 11.1004 699.121 11.1004C702.081 11.1004 704.541 11.6404 706.501 12.7204C708.461 13.7604 709.941 15.1604 710.941 16.9204C711.941 18.6404 712.441 20.5804 712.441 22.7404L704.701 24.2404C704.701 22.8404 704.441 21.6804 703.921 20.7604C703.441 19.8004 702.761 19.0804 701.881 18.6004C701.041 18.1204 700.041 17.8804 698.881 17.8804C697.841 17.8804 696.901 18.0804 696.061 18.4804C695.221 18.8804 694.501 19.5004 693.901 20.3404C693.341 21.1404 692.901 22.1604 692.581 23.4004C692.261 24.6004 692.101 26.0204 692.101 27.6604C692.101 29.8204 692.381 31.6604 692.941 33.1804C693.501 34.7004 694.321 35.8404 695.401 36.6004C696.521 37.3604 697.881 37.7404 699.481 37.7404C701.081 37.7404 702.321 37.4004 703.201 36.7204C704.121 36.0404 704.761 35.1604 705.121 34.0804C705.521 33.0004 705.701 31.9004 705.661 30.7804L713.461 31.8004C713.501 33.4804 713.241 35.0804 712.681 36.6004C712.161 38.0804 711.321 39.4004 710.161 40.5604C709.001 41.7204 707.521 42.6404 705.721 43.3204C703.961 43.9604 701.841 44.2804 699.361 44.2804ZM725.508 44.2804C723.868 44.2804 722.348 43.9804 720.948 43.3804C719.548 42.7404 718.428 41.7804 717.588 40.5004C716.748 39.1804 716.328 37.5204 716.328 35.5204C716.328 33.6804 716.668 32.1804 717.348 31.0204C718.068 29.8204 719.068 28.8604 720.348 28.1404C721.628 27.3804 723.108 26.8004 724.788 26.4004C726.468 25.9604 728.268 25.5804 730.188 25.2604C731.948 24.9404 733.308 24.6804 734.268 24.4804C735.228 24.2404 735.888 23.9404 736.248 23.5804C736.648 23.2204 736.848 22.7004 736.848 22.0204C736.848 20.7804 736.388 19.7804 735.468 19.0204C734.588 18.2604 733.328 17.8804 731.688 17.8804C730.688 17.8804 729.688 18.0804 728.688 18.4804C727.728 18.8404 726.928 19.4404 726.288 20.2804C725.648 21.1204 725.248 22.2404 725.088 23.6404L717.408 22.3204C717.608 20.2404 718.128 18.4804 718.968 17.0404C719.848 15.6004 720.948 14.4604 722.268 13.6204C723.628 12.7404 725.128 12.1004 726.768 11.7004C728.448 11.3004 730.188 11.1004 731.988 11.1004C734.988 11.1004 737.468 11.6404 739.428 12.7204C741.388 13.7604 742.848 15.3204 743.808 17.4004C744.808 19.4804 745.308 22.1004 745.308 25.2604V30.7804C745.308 32.1804 745.308 33.6004 745.308 35.0404C745.348 36.4404 745.388 37.8404 745.428 39.2404C745.508 40.6404 745.568 42.0404 745.608 43.4404H737.988C737.948 42.1204 737.908 40.7604 737.868 39.3604C737.828 37.9204 737.808 36.4204 737.808 34.8604H737.088C736.728 36.5804 736.028 38.1604 734.988 39.6004C733.948 41.0404 732.628 42.1804 731.028 43.0204C729.428 43.8604 727.588 44.2804 725.508 44.2804ZM729.048 37.9204C729.848 37.9204 730.668 37.7804 731.508 37.5004C732.348 37.1804 733.128 36.7204 733.848 36.1204C734.608 35.4804 735.268 34.6804 735.828 33.7204C736.388 32.7204 736.748 31.5604 736.908 30.2404L736.848 27.2404H738.348C737.868 27.7604 737.188 28.1804 736.308 28.5004C735.428 28.8204 734.468 29.0604 733.428 29.2204C732.428 29.3804 731.408 29.5604 730.368 29.7604C729.368 29.9604 728.448 30.2204 727.608 30.5404C726.768 30.8604 726.088 31.3004 725.568 31.8604C725.088 32.4204 724.848 33.2004 724.848 34.2004C724.848 35.3604 725.228 36.2804 725.988 36.9604C726.788 37.6004 727.808 37.9204 729.048 37.9204ZM751.048 43.4404V27.4804V11.9404H758.428L758.308 24.0004H759.088C759.368 20.9204 759.868 18.4404 760.588 16.5604C761.348 14.6804 762.348 13.3204 763.588 12.4804C764.828 11.6404 766.288 11.2204 767.968 11.2204C768.528 11.2204 769.108 11.2804 769.708 11.4004C770.308 11.5204 770.928 11.7204 771.568 12.0004L771.148 21.3604C770.428 20.9604 769.688 20.6804 768.928 20.5204C768.168 20.3604 767.468 20.2804 766.828 20.2804C765.388 20.2804 764.148 20.6804 763.108 21.4804C762.108 22.2404 761.308 23.3804 760.708 24.9004C760.148 26.3804 759.808 28.2004 759.688 30.3604V43.4404H751.048ZM789.595 44.2804C786.875 44.2804 784.515 43.9004 782.515 43.1404C780.515 42.3404 778.855 41.2204 777.535 39.7804C776.215 38.3404 775.235 36.6604 774.595 34.7404C773.955 32.7804 773.635 30.6204 773.635 28.2604C773.635 25.9004 773.955 23.6804 774.595 21.6004C775.235 19.5204 776.195 17.7004 777.475 16.1404C778.755 14.5404 780.355 13.3004 782.275 12.4204C784.195 11.5404 786.435 11.1004 788.995 11.1004C791.515 11.1004 793.715 11.5204 795.595 12.3604C797.475 13.2004 798.995 14.4204 800.155 16.0204C801.355 17.6204 802.195 19.5204 802.675 21.7204C803.155 23.8804 803.255 26.3204 802.975 29.0404L779.095 29.3404V24.5404L797.095 24.3004L795.055 26.9404C795.295 24.9404 795.195 23.2804 794.755 21.9604C794.315 20.6004 793.595 19.5804 792.595 18.9004C791.635 18.2204 790.455 17.8804 789.055 17.8804C787.495 17.8804 786.175 18.3004 785.095 19.1404C784.055 19.9404 783.255 21.1004 782.695 22.6204C782.175 24.1004 781.915 25.8804 781.915 27.9604C781.915 31.3204 782.575 33.8204 783.895 35.4604C785.255 37.0604 787.175 37.8604 789.655 37.8604C790.775 37.8604 791.695 37.7204 792.415 37.4404C793.175 37.1204 793.795 36.7004 794.275 36.1804C794.755 35.6604 795.115 35.0604 795.355 34.3804C795.595 33.7004 795.735 33.0004 795.775 32.2804L803.515 33.3004C803.435 34.7404 803.115 36.1204 802.555 37.4404C801.995 38.7204 801.155 39.8804 800.035 40.9204C798.955 41.9604 797.555 42.7804 795.835 43.3804C794.115 43.9804 792.035 44.2804 789.595 44.2804ZM0.000136822 115.44V75.8404H8.76014V115.44H0.000136822ZM15.2275 115.44V97.4404V83.9404H22.4875L22.3075 95.5804H23.1475C23.5075 92.7404 24.1275 90.4004 25.0075 88.5604C25.8875 86.7204 27.0675 85.3604 28.5475 84.4804C30.0275 83.5604 31.8475 83.1004 34.0075 83.1004C37.5675 83.1004 40.2475 84.3204 42.0475 86.7604C43.8475 89.2004 44.7475 92.9404 44.7475 97.9804V115.44H36.0475V98.9404C36.0475 96.0604 35.6275 93.9404 34.7875 92.5804C33.9475 91.1804 32.6475 90.4804 30.8875 90.4804C29.4075 90.4804 28.1475 90.9804 27.1075 91.9804C26.0675 92.9404 25.2675 94.3604 24.7075 96.2404C24.1475 98.1204 23.8675 100.44 23.8675 103.2V115.44H15.2275ZM69.8115 103.98V97.0804H78.2715C81.0715 97.0804 83.1515 96.5204 84.5115 95.4004C85.9115 94.2804 86.6115 92.4204 86.6115 89.8204C86.6115 87.4604 85.9715 85.7004 84.6915 84.5404C83.4115 83.3404 81.4315 82.7404 78.7515 82.7404H69.8115V75.8404H79.2315C81.5915 75.8404 83.7715 76.1204 85.7715 76.6804C87.7715 77.2404 89.4915 78.1004 90.9315 79.2604C92.3715 80.4204 93.4915 81.8804 94.2915 83.6404C95.0915 85.4004 95.4915 87.4804 95.4915 89.8804C95.4915 92.9604 94.7915 95.5604 93.3915 97.6804C91.9915 99.7604 89.9515 101.34 87.2715 102.42C84.5915 103.46 81.2715 103.98 77.3115 103.98H69.8115ZM63.6915 115.44V75.8404H72.3315V115.44H63.6915ZM114.302 116.28C111.582 116.28 109.222 115.9 107.222 115.14C105.222 114.34 103.562 113.22 102.242 111.78C100.922 110.34 99.9425 108.66 99.3025 106.74C98.6625 104.78 98.3425 102.62 98.3425 100.26C98.3425 97.9004 98.6625 95.6804 99.3025 93.6004C99.9425 91.5204 100.902 89.7004 102.182 88.1404C103.462 86.5404 105.062 85.3004 106.982 84.4204C108.902 83.5404 111.142 83.1004 113.702 83.1004C116.222 83.1004 118.422 83.5204 120.302 84.3604C122.182 85.2004 123.702 86.4204 124.862 88.0204C126.062 89.6204 126.902 91.5204 127.382 93.7204C127.862 95.8804 127.962 98.3204 127.682 101.04L103.802 101.34V96.5404L121.802 96.3004L119.762 98.9404C120.002 96.9404 119.902 95.2804 119.462 93.9604C119.022 92.6004 118.302 91.5804 117.302 90.9004C116.342 90.2204 115.162 89.8804 113.762 89.8804C112.202 89.8804 110.882 90.3004 109.802 91.1404C108.762 91.9404 107.962 93.1004 107.402 94.6204C106.882 96.1004 106.622 97.8804 106.622 99.9604C106.622 103.32 107.282 105.82 108.602 107.46C109.962 109.06 111.882 109.86 114.362 109.86C115.482 109.86 116.402 109.72 117.122 109.44C117.882 109.12 118.502 108.7 118.982 108.18C119.462 107.66 119.822 107.06 120.062 106.38C120.302 105.7 120.442 105 120.482 104.28L128.222 105.3C128.142 106.74 127.822 108.12 127.262 109.44C126.702 110.72 125.862 111.88 124.742 112.92C123.662 113.96 122.262 114.78 120.542 115.38C118.822 115.98 116.742 116.28 114.302 116.28ZM132.884 115.44V99.4804V83.9404H140.264L140.144 96.0004H140.924C141.204 92.9204 141.704 90.4404 142.424 88.5604C143.184 86.6804 144.184 85.3204 145.424 84.4804C146.664 83.6404 148.124 83.2204 149.804 83.2204C150.364 83.2204 150.944 83.2804 151.544 83.4004C152.144 83.5204 152.764 83.7204 153.404 84.0004L152.984 93.3604C152.264 92.9604 151.524 92.6804 150.764 92.5204C150.004 92.3604 149.304 92.2804 148.664 92.2804C147.224 92.2804 145.984 92.6804 144.944 93.4804C143.944 94.2404 143.144 95.3804 142.544 96.9004C141.984 98.3804 141.644 100.2 141.524 102.36V115.44H132.884ZM170.104 116.28C167.984 116.28 166.044 116.06 164.284 115.62C162.564 115.22 161.064 114.6 159.784 113.76C158.504 112.92 157.504 111.84 156.784 110.52C156.064 109.2 155.684 107.64 155.644 105.84L162.784 104.28C162.904 105.48 163.264 106.52 163.864 107.4C164.504 108.24 165.364 108.88 166.444 109.32C167.564 109.76 168.904 109.98 170.464 109.98C172.144 109.98 173.484 109.72 174.484 109.2C175.484 108.64 175.984 107.84 175.984 106.8C175.984 106.08 175.744 105.52 175.264 105.12C174.784 104.68 174.024 104.3 172.984 103.98C171.984 103.66 170.684 103.34 169.084 103.02C167.364 102.58 165.724 102.14 164.164 101.7C162.604 101.26 161.204 100.68 159.964 99.9604C158.724 99.2404 157.744 98.3404 157.024 97.2604C156.344 96.1404 156.004 94.7404 156.004 93.0604C156.004 90.9804 156.544 89.2204 157.624 87.7804C158.744 86.3004 160.304 85.1604 162.304 84.3604C164.344 83.5204 166.724 83.1004 169.444 83.1004C171.924 83.1004 174.164 83.4804 176.164 84.2404C178.204 84.9604 179.844 86.0804 181.084 87.6004C182.324 89.1204 182.944 91.0604 182.944 93.4204L175.744 94.8604C175.744 93.7004 175.464 92.7204 174.904 91.9204C174.344 91.1204 173.584 90.5204 172.624 90.1204C171.664 89.6804 170.524 89.4604 169.204 89.4604C167.604 89.4604 166.344 89.7604 165.424 90.3604C164.544 90.9204 164.104 91.6604 164.104 92.5804C164.104 93.3404 164.384 93.9604 164.944 94.4404C165.504 94.8804 166.324 95.2604 167.404 95.5804C168.524 95.8604 169.844 96.1804 171.364 96.5404C172.844 96.8204 174.324 97.1804 175.804 97.6204C177.284 98.0204 178.644 98.5804 179.884 99.3004C181.164 99.9804 182.184 100.9 182.944 102.06C183.704 103.22 184.084 104.7 184.084 106.5C184.084 108.5 183.524 110.24 182.404 111.72C181.324 113.2 179.744 114.34 177.664 115.14C175.584 115.9 173.064 116.28 170.104 116.28ZM203.184 116.28C200.104 116.28 197.384 115.66 195.024 114.42C192.664 113.18 190.804 111.34 189.444 108.9C188.124 106.42 187.464 103.34 187.464 99.6604C187.464 95.9004 188.144 92.8004 189.504 90.3604C190.864 87.9204 192.724 86.1004 195.084 84.9004C197.484 83.7004 200.184 83.1004 203.184 83.1004C206.304 83.1004 209.044 83.7204 211.404 84.9604C213.764 86.2004 215.604 88.0404 216.924 90.4804C218.244 92.9204 218.904 96.0004 218.904 99.7204C218.904 103.52 218.204 106.64 216.804 109.08C215.444 111.52 213.564 113.34 211.164 114.54C208.804 115.7 206.144 116.28 203.184 116.28ZM203.364 109.8C204.844 109.8 206.084 109.44 207.084 108.72C208.124 107.96 208.904 106.86 209.424 105.42C209.944 103.98 210.204 102.24 210.204 100.2C210.204 98.0004 209.924 96.1404 209.364 94.6204C208.804 93.1004 207.984 91.9404 206.904 91.1404C205.824 90.3004 204.524 89.8804 203.004 89.8804C201.564 89.8804 200.324 90.2604 199.284 91.0204C198.284 91.7404 197.504 92.8204 196.944 94.2604C196.424 95.7004 196.164 97.4604 196.164 99.5404C196.164 102.82 196.804 105.36 198.084 107.16C199.364 108.92 201.124 109.8 203.364 109.8ZM223.763 115.44V97.4404V83.9404H231.023L230.843 95.5804H231.683C232.043 92.7404 232.663 90.4004 233.543 88.5604C234.423 86.7204 235.603 85.3604 237.083 84.4804C238.563 83.5604 240.383 83.1004 242.543 83.1004C246.103 83.1004 248.783 84.3204 250.583 86.7604C252.383 89.2004 253.283 92.9404 253.283 97.9804V115.44H244.583V98.9404C244.583 96.0604 244.163 93.9404 243.323 92.5804C242.483 91.1804 241.183 90.4804 239.423 90.4804C237.943 90.4804 236.683 90.9804 235.643 91.9804C234.603 92.9404 233.803 94.3604 233.243 96.2404C232.683 98.1204 232.403 100.44 232.403 103.2V115.44H223.763ZM255.677 123.24C256.397 121.32 256.897 119.56 257.177 117.96C257.497 116.36 257.677 114.78 257.717 113.22C257.797 111.66 257.837 110 257.837 108.24H265.757C265.757 110.84 265.597 113.08 265.277 114.96C264.957 116.8 264.517 118.38 263.957 119.7C263.437 121.06 262.877 122.24 262.277 123.24H255.677ZM289.78 115.44L281.02 75.8404H290.44L296.2 107.58H296.62L303.16 75.8404H313.78L320.5 107.58H320.86L326.62 75.8404H335.5L326.74 115.44H314.68L308.5 84.0604H308.14L301.96 115.44H289.78ZM339.661 115.44V97.8004V73.2004H348.301V82.0204C348.301 82.8204 348.261 83.8004 348.181 84.9604C348.101 86.0804 347.981 87.2804 347.821 88.5604C347.661 89.8404 347.501 91.1004 347.341 92.3404C347.181 93.5404 347.041 94.6604 346.921 95.7004H347.761C348.201 92.8604 348.861 90.5204 349.741 88.6804C350.661 86.8004 351.841 85.4004 353.281 84.4804C354.761 83.5604 356.561 83.1004 358.681 83.1004C362.241 83.1004 364.881 84.3604 366.601 86.8804C368.321 89.3604 369.181 93.1204 369.181 98.1604V115.44H360.481V99.0004C360.481 96.0804 360.061 93.9404 359.221 92.5804C358.421 91.2204 357.161 90.5404 355.441 90.5404C353.961 90.5404 352.701 91.0404 351.661 92.0404C350.621 93.0404 349.801 94.4804 349.201 96.3604C348.641 98.2404 348.341 100.54 348.301 103.26V115.44H339.661ZM389.576 116.28C386.856 116.28 384.496 115.9 382.496 115.14C380.496 114.34 378.836 113.22 377.516 111.78C376.196 110.34 375.216 108.66 374.576 106.74C373.936 104.78 373.616 102.62 373.616 100.26C373.616 97.9004 373.936 95.6804 374.576 93.6004C375.216 91.5204 376.176 89.7004 377.456 88.1404C378.736 86.5404 380.336 85.3004 382.256 84.4204C384.176 83.5404 386.416 83.1004 388.976 83.1004C391.496 83.1004 393.696 83.5204 395.576 84.3604C397.456 85.2004 398.976 86.4204 400.136 88.0204C401.336 89.6204 402.176 91.5204 402.656 93.7204C403.136 95.8804 403.236 98.3204 402.956 101.04L379.076 101.34V96.5404L397.076 96.3004L395.036 98.9404C395.276 96.9404 395.176 95.2804 394.736 93.9604C394.296 92.6004 393.576 91.5804 392.576 90.9004C391.616 90.2204 390.436 89.8804 389.036 89.8804C387.476 89.8804 386.156 90.3004 385.076 91.1404C384.036 91.9404 383.236 93.1004 382.676 94.6204C382.156 96.1004 381.896 97.8804 381.896 99.9604C381.896 103.32 382.556 105.82 383.876 107.46C385.236 109.06 387.156 109.86 389.636 109.86C390.756 109.86 391.676 109.72 392.396 109.44C393.156 109.12 393.776 108.7 394.256 108.18C394.736 107.66 395.096 107.06 395.336 106.38C395.576 105.7 395.716 105 395.756 104.28L403.496 105.3C403.416 106.74 403.096 108.12 402.536 109.44C401.976 110.72 401.136 111.88 400.016 112.92C398.936 113.96 397.536 114.78 395.816 115.38C394.096 115.98 392.016 116.28 389.576 116.28ZM408.157 115.44V99.4804V83.9404H415.537L415.417 96.0004H416.197C416.477 92.9204 416.977 90.4404 417.697 88.5604C418.457 86.6804 419.457 85.3204 420.697 84.4804C421.937 83.6404 423.397 83.2204 425.077 83.2204C425.637 83.2204 426.217 83.2804 426.817 83.4004C427.417 83.5204 428.037 83.7204 428.677 84.0004L428.257 93.3604C427.537 92.9604 426.797 92.6804 426.037 92.5204C425.277 92.3604 424.577 92.2804 423.937 92.2804C422.497 92.2804 421.257 92.6804 420.217 93.4804C419.217 94.2404 418.417 95.3804 417.817 96.9004C417.257 98.3804 416.917 100.2 416.797 102.36V115.44H408.157ZM446.705 116.28C443.985 116.28 441.625 115.9 439.625 115.14C437.625 114.34 435.965 113.22 434.645 111.78C433.325 110.34 432.345 108.66 431.705 106.74C431.065 104.78 430.745 102.62 430.745 100.26C430.745 97.9004 431.065 95.6804 431.705 93.6004C432.345 91.5204 433.305 89.7004 434.585 88.1404C435.865 86.5404 437.465 85.3004 439.385 84.4204C441.305 83.5404 443.545 83.1004 446.105 83.1004C448.625 83.1004 450.825 83.5204 452.705 84.3604C454.585 85.2004 456.105 86.4204 457.265 88.0204C458.465 89.6204 459.305 91.5204 459.785 93.7204C460.265 95.8804 460.365 98.3204 460.085 101.04L436.205 101.34V96.5404L454.205 96.3004L452.165 98.9404C452.405 96.9404 452.305 95.2804 451.865 93.9604C451.425 92.6004 450.705 91.5804 449.705 90.9004C448.745 90.2204 447.565 89.8804 446.165 89.8804C444.605 89.8804 443.285 90.3004 442.205 91.1404C441.165 91.9404 440.365 93.1004 439.805 94.6204C439.285 96.1004 439.025 97.8804 439.025 99.9604C439.025 103.32 439.685 105.82 441.005 107.46C442.365 109.06 444.285 109.86 446.765 109.86C447.885 109.86 448.805 109.72 449.525 109.44C450.285 109.12 450.905 108.7 451.385 108.18C451.865 107.66 452.225 107.06 452.465 106.38C452.705 105.7 452.845 105 452.885 104.28L460.625 105.3C460.545 106.74 460.225 108.12 459.665 109.44C459.105 110.72 458.265 111.88 457.145 112.92C456.065 113.96 454.665 114.78 452.945 115.38C451.225 115.98 449.145 116.28 446.705 116.28ZM471.793 115.44L461.533 83.9404H470.893L477.373 108.36H477.913L484.513 83.9404H493.393L483.133 115.44H471.793ZM510.279 116.28C507.559 116.28 505.199 115.9 503.199 115.14C501.199 114.34 499.539 113.22 498.219 111.78C496.899 110.34 495.919 108.66 495.279 106.74C494.639 104.78 494.319 102.62 494.319 100.26C494.319 97.9004 494.639 95.6804 495.279 93.6004C495.919 91.5204 496.879 89.7004 498.159 88.1404C499.439 86.5404 501.039 85.3004 502.959 84.4204C504.879 83.5404 507.119 83.1004 509.679 83.1004C512.199 83.1004 514.399 83.5204 516.279 84.3604C518.159 85.2004 519.679 86.4204 520.839 88.0204C522.039 89.6204 522.879 91.5204 523.359 93.7204C523.839 95.8804 523.939 98.3204 523.659 101.04L499.779 101.34V96.5404L517.779 96.3004L515.739 98.9404C515.979 96.9404 515.879 95.2804 515.439 93.9604C514.999 92.6004 514.279 91.5804 513.279 90.9004C512.319 90.2204 511.139 89.8804 509.739 89.8804C508.179 89.8804 506.859 90.3004 505.779 91.1404C504.739 91.9404 503.939 93.1004 503.379 94.6204C502.859 96.1004 502.599 97.8804 502.599 99.9604C502.599 103.32 503.259 105.82 504.579 107.46C505.939 109.06 507.859 109.86 510.339 109.86C511.459 109.86 512.379 109.72 513.099 109.44C513.859 109.12 514.479 108.7 514.959 108.18C515.439 107.66 515.799 107.06 516.039 106.38C516.279 105.7 516.419 105 516.459 104.28L524.199 105.3C524.119 106.74 523.799 108.12 523.239 109.44C522.679 110.72 521.839 111.88 520.719 112.92C519.639 113.96 518.239 114.78 516.519 115.38C514.799 115.98 512.719 116.28 510.279 116.28ZM528.86 115.44V99.4804V83.9404H536.24L536.12 96.0004H536.9C537.18 92.9204 537.68 90.4404 538.4 88.5604C539.16 86.6804 540.16 85.3204 541.4 84.4804C542.64 83.6404 544.1 83.2204 545.78 83.2204C546.34 83.2204 546.92 83.2804 547.52 83.4004C548.12 83.5204 548.74 83.7204 549.38 84.0004L548.96 93.3604C548.24 92.9604 547.5 92.6804 546.74 92.5204C545.98 92.3604 545.28 92.2804 544.64 92.2804C543.2 92.2804 541.96 92.6804 540.92 93.4804C539.92 94.2404 539.12 95.3804 538.52 96.9004C537.96 98.3804 537.62 100.2 537.5 102.36V115.44H528.86ZM577.103 115.44V102.6L563.483 75.8404H573.743L581.363 94.7404H581.603L589.223 75.8404H599.423L585.803 102.6V115.44H577.103ZM612.461 116.28C609.381 116.28 606.661 115.66 604.301 114.42C601.941 113.18 600.081 111.34 598.721 108.9C597.401 106.42 596.741 103.34 596.741 99.6604C596.741 95.9004 597.421 92.8004 598.781 90.3604C600.141 87.9204 602.001 86.1004 604.361 84.9004C606.761 83.7004 609.461 83.1004 612.461 83.1004C615.581 83.1004 618.321 83.7204 620.681 84.9604C623.041 86.2004 624.881 88.0404 626.201 90.4804C627.521 92.9204 628.181 96.0004 628.181 99.7204C628.181 103.52 627.481 106.64 626.081 109.08C624.721 111.52 622.841 113.34 620.441 114.54C618.081 115.7 615.421 116.28 612.461 116.28ZM612.641 109.8C614.121 109.8 615.361 109.44 616.361 108.72C617.401 107.96 618.181 106.86 618.701 105.42C619.221 103.98 619.481 102.24 619.481 100.2C619.481 98.0004 619.201 96.1404 618.641 94.6204C618.081 93.1004 617.261 91.9404 616.181 91.1404C615.101 90.3004 613.801 89.8804 612.281 89.8804C610.841 89.8804 609.601 90.2604 608.561 91.0204C607.561 91.7404 606.781 92.8204 606.221 94.2604C605.701 95.7004 605.441 97.4604 605.441 99.5404C605.441 102.82 606.081 105.36 607.361 107.16C608.641 108.92 610.401 109.8 612.641 109.8ZM643.24 116.28C639.68 116.28 637.02 115.04 635.26 112.56C633.5 110.08 632.62 106.28 632.62 101.16V83.9404H641.32V100.62C641.32 103.54 641.72 105.64 642.52 106.92C643.36 108.2 644.62 108.84 646.3 108.84C647.34 108.84 648.28 108.58 649.12 108.06C649.96 107.54 650.68 106.76 651.28 105.72C651.88 104.68 652.34 103.42 652.66 101.94C652.98 100.42 653.14 98.6604 653.14 96.6604V83.9404H661.78V101.58V115.44H654.52L654.64 104.04H653.92C653.52 106.92 652.88 109.26 652 111.06C651.12 112.82 649.96 114.14 648.52 115.02C647.08 115.86 645.32 116.28 643.24 116.28ZM678.452 115.44L691.952 75.8404H703.832L717.272 115.44H707.912L698.132 82.8004H697.592L687.752 115.44H678.452ZM685.832 107.82V101.76H711.032V107.82H685.832ZM720.872 115.44V99.4804V83.9404H728.252L728.132 96.0004H728.912C729.192 92.9204 729.692 90.4404 730.412 88.5604C731.172 86.6804 732.172 85.3204 733.412 84.4804C734.652 83.6404 736.112 83.2204 737.792 83.2204C738.352 83.2204 738.932 83.2804 739.532 83.4004C740.132 83.5204 740.752 83.7204 741.392 84.0004L740.972 93.3604C740.252 92.9604 739.512 92.6804 738.752 92.5204C737.992 92.3604 737.292 92.2804 736.652 92.2804C735.212 92.2804 733.972 92.6804 732.932 93.4804C731.932 94.2404 731.132 95.3804 730.532 96.9004C729.972 98.3804 729.632 100.2 729.512 102.36V115.44H720.872ZM759.42 116.28C756.7 116.28 754.34 115.9 752.34 115.14C750.34 114.34 748.68 113.22 747.36 111.78C746.04 110.34 745.06 108.66 744.42 106.74C743.78 104.78 743.46 102.62 743.46 100.26C743.46 97.9004 743.78 95.6804 744.42 93.6004C745.06 91.5204 746.02 89.7004 747.3 88.1404C748.58 86.5404 750.18 85.3004 752.1 84.4204C754.02 83.5404 756.26 83.1004 758.82 83.1004C761.34 83.1004 763.54 83.5204 765.42 84.3604C767.3 85.2004 768.82 86.4204 769.98 88.0204C771.18 89.6204 772.02 91.5204 772.5 93.7204C772.98 95.8804 773.08 98.3204 772.8 101.04L748.92 101.34V96.5404L766.92 96.3004L764.88 98.9404C765.12 96.9404 765.02 95.2804 764.58 93.9604C764.14 92.6004 763.42 91.5804 762.42 90.9004C761.46 90.2204 760.28 89.8804 758.88 89.8804C757.32 89.8804 756 90.3004 754.92 91.1404C753.88 91.9404 753.08 93.1004 752.52 94.6204C752 96.1004 751.74 97.8804 751.74 99.9604C751.74 103.32 752.4 105.82 753.72 107.46C755.08 109.06 757 109.86 759.48 109.86C760.6 109.86 761.52 109.72 762.24 109.44C763 109.12 763.62 108.7 764.1 108.18C764.58 107.66 764.94 107.06 765.18 106.38C765.42 105.7 765.56 105 765.6 104.28L773.34 105.3C773.26 106.74 772.94 108.12 772.38 109.44C771.82 110.72 770.98 111.88 769.86 112.92C768.78 113.96 767.38 114.78 765.66 115.38C763.94 115.98 761.86 116.28 759.42 116.28ZM781.838 116.22C779.998 116.22 778.598 115.82 777.638 115.02C776.718 114.22 776.258 112.98 776.258 111.3C776.258 109.58 776.718 108.32 777.638 107.52C778.598 106.72 779.998 106.32 781.838 106.32C783.718 106.32 785.118 106.72 786.038 107.52C786.998 108.32 787.478 109.58 787.478 111.3C787.478 114.58 785.598 116.22 781.838 116.22ZM822.18 116.28C819.3 116.28 816.74 115.84 814.5 114.96C812.26 114.04 810.34 112.72 808.74 111C807.18 109.24 805.98 107.1 805.14 104.58C804.34 102.02 803.94 99.1004 803.94 95.8204C803.94 91.1404 804.72 87.2804 806.28 84.2404C807.88 81.1604 810.08 78.8604 812.88 77.3404C815.68 75.7804 818.88 75.0004 822.48 75.0004C825.24 75.0004 827.74 75.4404 829.98 76.3204C832.22 77.2004 834.12 78.5204 835.68 80.2804C837.28 82.0004 838.5 84.1604 839.34 86.7604C840.18 89.3204 840.6 92.2804 840.6 95.6404C840.6 99.0004 840.16 101.98 839.28 104.58C838.44 107.14 837.2 109.3 835.56 111.06C833.96 112.78 832.02 114.08 829.74 114.96C827.5 115.84 824.98 116.28 822.18 116.28ZM822.42 109.2C824.46 109.2 826.16 108.7 827.52 107.7C828.92 106.7 829.96 105.22 830.64 103.26C831.36 101.3 831.72 98.8804 831.72 96.0004C831.72 93.0004 831.34 90.4804 830.58 88.4404C829.86 86.4004 828.8 84.8404 827.4 83.7604C826 82.6804 824.26 82.1404 822.18 82.1404C820.22 82.1404 818.54 82.6604 817.14 83.7004C815.74 84.7404 814.68 86.2604 813.96 88.2604C813.24 90.2604 812.88 92.7204 812.88 95.6404C812.88 97.8404 813.08 99.8004 813.48 101.52C813.88 103.2 814.48 104.62 815.28 105.78C816.08 106.9 817.08 107.76 818.28 108.36C819.48 108.92 820.86 109.2 822.42 109.2ZM845.97 115.44V97.4404V83.9404H853.23L853.05 95.5804H853.89C854.25 92.7404 854.87 90.4004 855.75 88.5604C856.63 86.7204 857.81 85.3604 859.29 84.4804C860.77 83.5604 862.59 83.1004 864.75 83.1004C868.31 83.1004 870.99 84.3204 872.79 86.7604C874.59 89.2004 875.49 92.9404 875.49 97.9804V115.44H866.79V98.9404C866.79 96.0604 866.37 93.9404 865.53 92.5804C864.69 91.1804 863.39 90.4804 861.63 90.4804C860.15 90.4804 858.89 90.9804 857.85 91.9804C856.81 92.9404 856.01 94.3604 855.45 96.2404C854.89 98.1204 854.61 100.44 854.61 103.2V115.44H845.97ZM881.185 115.44V73.2004H889.765V115.44H881.185ZM895.892 115.44V83.9404H904.532V115.44H895.892ZM900.152 80.3404C898.472 80.3404 897.192 80.0004 896.312 79.3204C895.432 78.6004 894.992 77.5604 894.992 76.2004C894.992 74.8004 895.432 73.7604 896.312 73.0804C897.232 72.3604 898.512 72.0004 900.152 72.0004C901.872 72.0004 903.172 72.3604 904.052 73.0804C904.972 73.8004 905.432 74.8404 905.432 76.2004C905.432 77.5204 904.972 78.5404 904.052 79.2604C903.172 79.9804 901.872 80.3404 900.152 80.3404ZM910.657 115.44V97.4404V83.9404H917.917L917.737 95.5804H918.577C918.937 92.7404 919.557 90.4004 920.437 88.5604C921.317 86.7204 922.497 85.3604 923.977 84.4804C925.457 83.5604 927.277 83.1004 929.437 83.1004C932.997 83.1004 935.677 84.3204 937.477 86.7604C939.277 89.2004 940.177 92.9404 940.177 97.9804V115.44H931.477V98.9404C931.477 96.0604 931.057 93.9404 930.217 92.5804C929.377 91.1804 928.077 90.4804 926.317 90.4804C924.837 90.4804 923.577 90.9804 922.537 91.9804C921.497 92.9404 920.697 94.3604 920.137 96.2404C919.577 98.1204 919.297 100.44 919.297 103.2V115.44H910.657ZM960.572 116.28C957.852 116.28 955.492 115.9 953.492 115.14C951.492 114.34 949.832 113.22 948.512 111.78C947.192 110.34 946.212 108.66 945.572 106.74C944.932 104.78 944.612 102.62 944.612 100.26C944.612 97.9004 944.932 95.6804 945.572 93.6004C946.212 91.5204 947.172 89.7004 948.452 88.1404C949.732 86.5404 951.332 85.3004 953.252 84.4204C955.172 83.5404 957.412 83.1004 959.972 83.1004C962.492 83.1004 964.692 83.5204 966.572 84.3604C968.452 85.2004 969.972 86.4204 971.132 88.0204C972.332 89.6204 973.172 91.5204 973.652 93.7204C974.132 95.8804 974.232 98.3204 973.952 101.04L950.072 101.34V96.5404L968.072 96.3004L966.032 98.9404C966.272 96.9404 966.172 95.2804 965.732 93.9604C965.292 92.6004 964.572 91.5804 963.572 90.9004C962.612 90.2204 961.432 89.8804 960.032 89.8804C958.472 89.8804 957.152 90.3004 956.072 91.1404C955.032 91.9404 954.232 93.1004 953.672 94.6204C953.152 96.1004 952.892 97.8804 952.892 99.9604C952.892 103.32 953.552 105.82 954.872 107.46C956.232 109.06 958.152 109.86 960.632 109.86C961.752 109.86 962.672 109.72 963.392 109.44C964.152 109.12 964.772 108.7 965.252 108.18C965.732 107.66 966.092 107.06 966.332 106.38C966.572 105.7 966.712 105 966.752 104.28L974.492 105.3C974.412 106.74 974.092 108.12 973.532 109.44C972.972 110.72 972.132 111.88 971.012 112.92C969.932 113.96 968.532 114.78 966.812 115.38C965.092 115.98 963.012 116.28 960.572 116.28ZM729.221 188.22C727.381 188.22 725.981 187.82 725.021 187.02C724.101 186.22 723.641 184.98 723.641 183.3C723.641 181.58 724.101 180.32 725.021 179.52C725.981 178.72 727.381 178.32 729.221 178.32C731.101 178.32 732.501 178.72 733.421 179.52C734.381 180.32 734.861 181.58 734.861 183.3C734.861 186.58 732.981 188.22 729.221 188.22Z" fill="#102379"/>
<path d="M246.362 187.44L237.602 147.84H247.022L252.782 179.58H253.202L259.742 147.84H270.362L277.082 179.58H277.442L283.202 147.84H292.082L283.322 187.44H271.262L265.082 156.06H264.722L258.542 187.44H246.362ZM296.243 187.44V169.8V145.2H304.883V154.02C304.883 154.82 304.843 155.8 304.763 156.96C304.683 158.08 304.563 159.28 304.403 160.56C304.243 161.84 304.083 163.1 303.923 164.34C303.763 165.54 303.623 166.66 303.503 167.7H304.343C304.783 164.86 305.443 162.52 306.323 160.68C307.243 158.8 308.423 157.4 309.863 156.48C311.343 155.56 313.143 155.1 315.263 155.1C318.823 155.1 321.463 156.36 323.183 158.88C324.903 161.36 325.763 165.12 325.763 170.16V187.44H317.063V171C317.063 168.08 316.643 165.94 315.803 164.58C315.003 163.22 313.743 162.54 312.023 162.54C310.543 162.54 309.283 163.04 308.243 164.04C307.203 165.04 306.383 166.48 305.783 168.36C305.223 170.24 304.923 172.54 304.883 175.26V187.44H296.243ZM346.158 188.28C343.438 188.28 341.078 187.9 339.078 187.14C337.078 186.34 335.418 185.22 334.098 183.78C332.778 182.34 331.798 180.66 331.158 178.74C330.518 176.78 330.198 174.62 330.198 172.26C330.198 169.9 330.518 167.68 331.158 165.6C331.798 163.52 332.758 161.7 334.038 160.14C335.318 158.54 336.918 157.3 338.838 156.42C340.758 155.54 342.998 155.1 345.558 155.1C348.078 155.1 350.278 155.52 352.158 156.36C354.038 157.2 355.558 158.42 356.718 160.02C357.918 161.62 358.758 163.52 359.238 165.72C359.718 167.88 359.818 170.32 359.538 173.04L335.658 173.34V168.54L353.658 168.3L351.618 170.94C351.858 168.94 351.758 167.28 351.318 165.96C350.878 164.6 350.158 163.58 349.158 162.9C348.198 162.22 347.018 161.88 345.618 161.88C344.058 161.88 342.738 162.3 341.658 163.14C340.618 163.94 339.818 165.1 339.258 166.62C338.738 168.1 338.478 169.88 338.478 171.96C338.478 175.32 339.138 177.82 340.458 179.46C341.818 181.06 343.738 181.86 346.218 181.86C347.338 181.86 348.258 181.72 348.978 181.44C349.738 181.12 350.358 180.7 350.838 180.18C351.318 179.66 351.678 179.06 351.918 178.38C352.158 177.7 352.298 177 352.338 176.28L360.078 177.3C359.998 178.74 359.678 180.12 359.118 181.44C358.558 182.72 357.718 183.88 356.598 184.92C355.518 185.96 354.118 186.78 352.398 187.38C350.678 187.98 348.598 188.28 346.158 188.28ZM364.739 187.44V169.44V155.94H371.999L371.819 167.58H372.659C373.019 164.74 373.639 162.4 374.519 160.56C375.399 158.72 376.579 157.36 378.059 156.48C379.539 155.56 381.359 155.1 383.519 155.1C387.079 155.1 389.759 156.32 391.559 158.76C393.359 161.2 394.259 164.94 394.259 169.98V187.44H385.559V170.94C385.559 168.06 385.139 165.94 384.299 164.58C383.459 163.18 382.159 162.48 380.399 162.48C378.919 162.48 377.659 162.98 376.619 163.98C375.579 164.94 374.779 166.36 374.219 168.24C373.659 170.12 373.379 172.44 373.379 175.2V187.44H364.739ZM423.763 187.44V174.6L410.143 147.84H420.403L428.023 166.74H428.263L435.883 147.84H446.083L432.463 174.6V187.44H423.763ZM459.121 188.28C456.041 188.28 453.321 187.66 450.961 186.42C448.601 185.18 446.741 183.34 445.381 180.9C444.061 178.42 443.401 175.34 443.401 171.66C443.401 167.9 444.081 164.8 445.441 162.36C446.801 159.92 448.661 158.1 451.021 156.9C453.421 155.7 456.121 155.1 459.121 155.1C462.241 155.1 464.981 155.72 467.341 156.96C469.701 158.2 471.541 160.04 472.861 162.48C474.181 164.92 474.841 168 474.841 171.72C474.841 175.52 474.141 178.64 472.741 181.08C471.381 183.52 469.501 185.34 467.101 186.54C464.741 187.7 462.081 188.28 459.121 188.28ZM459.301 181.8C460.781 181.8 462.021 181.44 463.021 180.72C464.061 179.96 464.841 178.86 465.361 177.42C465.881 175.98 466.141 174.24 466.141 172.2C466.141 170 465.861 168.14 465.301 166.62C464.741 165.1 463.921 163.94 462.841 163.14C461.761 162.3 460.461 161.88 458.941 161.88C457.501 161.88 456.261 162.26 455.221 163.02C454.221 163.74 453.441 164.82 452.881 166.26C452.361 167.7 452.101 169.46 452.101 171.54C452.101 174.82 452.741 177.36 454.021 179.16C455.301 180.92 457.061 181.8 459.301 181.8ZM489.9 188.28C486.34 188.28 483.68 187.04 481.92 184.56C480.16 182.08 479.28 178.28 479.28 173.16V155.94H487.98V172.62C487.98 175.54 488.38 177.64 489.18 178.92C490.02 180.2 491.28 180.84 492.96 180.84C494 180.84 494.94 180.58 495.78 180.06C496.62 179.54 497.34 178.76 497.94 177.72C498.54 176.68 499 175.42 499.32 173.94C499.64 172.42 499.8 170.66 499.8 168.66V155.94H508.44V173.58V187.44H501.18L501.3 176.04H500.58C500.18 178.92 499.54 181.26 498.66 183.06C497.78 184.82 496.62 186.14 495.18 187.02C493.74 187.86 491.98 188.28 489.9 188.28ZM527.813 187.44V147.84H539.333L555.893 176.04H556.253L556.013 147.84H564.533V187.44H553.853L536.453 158.22H536.093L536.333 187.44H527.813ZM585.631 188.28C582.911 188.28 580.551 187.9 578.551 187.14C576.551 186.34 574.891 185.22 573.571 183.78C572.251 182.34 571.271 180.66 570.631 178.74C569.991 176.78 569.671 174.62 569.671 172.26C569.671 169.9 569.991 167.68 570.631 165.6C571.271 163.52 572.231 161.7 573.511 160.14C574.791 158.54 576.391 157.3 578.311 156.42C580.231 155.54 582.471 155.1 585.031 155.1C587.551 155.1 589.751 155.52 591.631 156.36C593.511 157.2 595.031 158.42 596.191 160.02C597.391 161.62 598.231 163.52 598.711 165.72C599.191 167.88 599.291 170.32 599.011 173.04L575.131 173.34V168.54L593.131 168.3L591.091 170.94C591.331 168.94 591.231 167.28 590.791 165.96C590.351 164.6 589.631 163.58 588.631 162.9C587.671 162.22 586.491 161.88 585.091 161.88C583.531 161.88 582.211 162.3 581.131 163.14C580.091 163.94 579.291 165.1 578.731 166.62C578.211 168.1 577.951 169.88 577.951 171.96C577.951 175.32 578.611 177.82 579.931 179.46C581.291 181.06 583.211 181.86 585.691 181.86C586.811 181.86 587.731 181.72 588.451 181.44C589.211 181.12 589.831 180.7 590.311 180.18C590.791 179.66 591.151 179.06 591.391 178.38C591.631 177.7 591.771 177 591.811 176.28L599.551 177.3C599.471 178.74 599.151 180.12 598.591 181.44C598.031 182.72 597.191 183.88 596.071 184.92C594.991 185.96 593.591 186.78 591.871 187.38C590.151 187.98 588.071 188.28 585.631 188.28ZM618.97 188.28C616.25 188.28 613.89 187.9 611.89 187.14C609.89 186.34 608.23 185.22 606.91 183.78C605.59 182.34 604.61 180.66 603.97 178.74C603.33 176.78 603.01 174.62 603.01 172.26C603.01 169.9 603.33 167.68 603.97 165.6C604.61 163.52 605.57 161.7 606.85 160.14C608.13 158.54 609.73 157.3 611.65 156.42C613.57 155.54 615.81 155.1 618.37 155.1C620.89 155.1 623.09 155.52 624.97 156.36C626.85 157.2 628.37 158.42 629.53 160.02C630.73 161.62 631.57 163.52 632.05 165.72C632.53 167.88 632.63 170.32 632.35 173.04L608.47 173.34V168.54L626.47 168.3L624.43 170.94C624.67 168.94 624.57 167.28 624.13 165.96C623.69 164.6 622.97 163.58 621.97 162.9C621.01 162.22 619.83 161.88 618.43 161.88C616.87 161.88 615.55 162.3 614.47 163.14C613.43 163.94 612.63 165.1 612.07 166.62C611.55 168.1 611.29 169.88 611.29 171.96C611.29 175.32 611.95 177.82 613.27 179.46C614.63 181.06 616.55 181.86 619.03 181.86C620.15 181.86 621.07 181.72 621.79 181.44C622.55 181.12 623.17 180.7 623.65 180.18C624.13 179.66 624.49 179.06 624.73 178.38C624.97 177.7 625.11 177 625.15 176.28L632.89 177.3C632.81 178.74 632.49 180.12 631.93 181.44C631.37 182.72 630.53 183.88 629.41 184.92C628.33 185.96 626.93 186.78 625.21 187.38C623.49 187.98 621.41 188.28 618.97 188.28ZM649.126 188.28C646.686 188.28 644.526 187.64 642.646 186.36C640.766 185.08 639.286 183.2 638.206 180.72C637.126 178.24 636.586 175.16 636.586 171.48C636.586 168.08 637.066 165.16 638.026 162.72C638.986 160.28 640.366 158.42 642.166 157.14C644.006 155.82 646.206 155.16 648.766 155.16C650.726 155.16 652.406 155.56 653.806 156.36C655.246 157.12 656.426 158.3 657.346 159.9C658.266 161.5 658.926 163.5 659.326 165.9H660.286C660.046 164.5 659.826 163.14 659.626 161.82C659.426 160.5 659.266 159.26 659.146 158.1C659.026 156.9 658.966 155.82 658.966 154.86V145.2H667.606V174.06L667.666 187.44H660.226L660.286 177.84H659.506C659.066 180.16 658.386 182.1 657.466 183.66C656.546 185.18 655.386 186.34 653.986 187.14C652.626 187.9 651.006 188.28 649.126 188.28ZM652.006 181.26C653.126 181.26 654.106 181.02 654.946 180.54C655.826 180.02 656.566 179.34 657.166 178.5C657.766 177.62 658.226 176.64 658.546 175.56C658.866 174.44 659.026 173.3 659.026 172.14V171.36C659.026 170.44 658.906 169.54 658.666 168.66C658.466 167.74 658.146 166.9 657.706 166.14C657.306 165.38 656.826 164.72 656.266 164.16C655.706 163.56 655.046 163.1 654.286 162.78C653.566 162.46 652.786 162.3 651.946 162.3C650.546 162.3 649.366 162.72 648.406 163.56C647.446 164.4 646.706 165.54 646.186 166.98C645.706 168.38 645.466 170 645.466 171.84C645.466 173.64 645.726 175.26 646.246 176.7C646.766 178.14 647.506 179.26 648.466 180.06C649.466 180.86 650.646 181.26 652.006 181.26ZM686.953 187.44V147.84H695.713V187.44H686.953ZM714.061 188.16C710.581 188.16 707.981 187.24 706.261 185.4C704.581 183.56 703.741 180.68 703.741 176.76V162.72H699.721L699.781 156.6H701.461C703.221 156.48 704.481 156.02 705.241 155.22C706.041 154.38 706.541 153.08 706.741 151.32L707.101 148.86H712.141V155.94H719.881V162.96H712.141V176.22C712.141 177.7 712.501 178.78 713.221 179.46C713.941 180.1 714.921 180.42 716.161 180.42C716.801 180.42 717.461 180.34 718.141 180.18C718.821 179.98 719.421 179.72 719.941 179.4V187.26C718.741 187.62 717.661 187.86 716.701 187.98C715.741 188.1 714.861 188.16 714.061 188.16Z" fill="url(#paint0_linear_962_2960)"/>
<defs>
<linearGradient id="paint0_linear_962_2960" x1="268.498" y1="115.44" x2="919.598" y2="125.124" gradientUnits="userSpaceOnUse">
<stop stop-color="#9B67C6"/>
<stop offset="0.269592" stop-color="#00CACD"/>
<stop offset="0.496791" stop-color="#13267A"/>
<stop offset="0.643448" stop-color="#9B67C6"/>
<stop offset="0.873397" stop-color="#9775F6"/>
</linearGradient>
</defs>
</svg>
