<svg width="22" height="22" viewBox="0 0 22 22" fill="none" xmlns="http://www.w3.org/2000/svg">
<g clip-path="url(#clip0_965_31166)">
<g filter="url(#filter0_di_965_31166)">
<path d="M10.8553 10.6341C12.1788 10.6341 13.3248 10.1594 14.2614 9.22279C15.1976 8.28636 15.6725 7.14058 15.6725 5.81689C15.6725 4.49365 15.1978 3.34771 14.2612 2.41098C13.3246 1.4747 12.1787 1 10.8553 1C9.53159 1 8.3858 1.4747 7.44937 2.41113C6.51294 3.34756 6.03809 4.49349 6.03809 5.81689C6.03809 7.14058 6.51294 8.28652 7.44937 9.22295C8.38611 10.1592 9.53204 10.6341 10.8553 10.6341ZM8.27823 3.23983C8.99677 2.5213 9.83966 2.17203 10.8553 2.17203C11.8708 2.17203 12.7138 2.5213 13.4325 3.23983C14.151 3.95852 14.5005 4.80157 14.5005 5.81689C14.5005 6.83251 14.151 7.6754 13.4325 8.39409C12.7138 9.11278 11.8708 9.46205 10.8553 9.46205C9.83997 9.46205 8.99707 9.11263 8.27823 8.39409C7.55954 7.67556 7.21011 6.83251 7.21011 5.81689C7.21011 4.80157 7.55954 3.95852 8.27823 3.23983Z" fill="black"/>
</g>
<g filter="url(#filter1_di_965_31166)">
<path d="M19.2843 16.3784C19.2573 15.9887 19.2027 15.5636 19.1223 15.1146C19.0411 14.6624 18.9366 14.2348 18.8115 13.844C18.6821 13.4402 18.5064 13.0413 18.289 12.6591C18.0636 12.2623 17.7987 11.9169 17.5015 11.6326C17.1907 11.3352 16.8101 11.0961 16.3701 10.9217C15.9315 10.7482 15.4455 10.6603 14.9257 10.6603C14.7215 10.6603 14.524 10.7441 14.1427 10.9923C13.9081 11.1454 13.6335 11.3224 13.3272 11.5182C13.0652 11.6851 12.7102 11.8415 12.2719 11.9831C11.8441 12.1215 11.4099 12.1917 10.9811 12.1917C10.5526 12.1917 10.1184 12.1215 9.69037 11.9831C9.25244 11.8416 8.89737 11.6852 8.63583 11.5183C8.33234 11.3244 8.05768 11.1474 7.81949 10.9922C7.43848 10.7439 7.24103 10.6602 7.03687 10.6602C6.51685 10.6602 6.03101 10.7482 5.59262 10.9218C5.15286 11.0959 4.77216 11.3351 4.46103 11.6327C4.16379 11.9172 3.8989 12.2625 3.67368 12.6591C3.45654 13.0413 3.28076 13.44 3.15137 13.8442C3.0264 14.235 2.92188 14.6624 2.8407 15.1146C2.76013 15.5629 2.70566 15.9882 2.67865 16.3788C2.6521 16.7608 2.63867 17.1583 2.63867 17.5599C2.63867 18.6039 2.97055 19.4491 3.625 20.0724C4.27136 20.6875 5.12647 20.9993 6.16666 20.9993H15.7968C16.8367 20.9993 17.6918 20.6875 18.3383 20.0724C18.9929 19.4495 19.3248 18.604 19.3248 17.5597C19.3246 17.1567 19.311 16.7592 19.2843 16.3784ZM17.5302 19.2232C17.1031 19.6297 16.5361 19.8273 15.7966 19.8273H6.16666C5.42706 19.8273 4.86005 19.6297 4.43311 19.2234C4.01425 18.8247 3.8107 18.2804 3.8107 17.5599C3.8107 17.1851 3.82306 16.8151 3.84778 16.4599C3.87189 16.1114 3.92117 15.7285 3.99426 15.3217C4.06644 14.9199 4.15829 14.5429 4.26755 14.2016C4.37238 13.8743 4.51535 13.5502 4.69266 13.238C4.86188 12.9404 5.05658 12.6851 5.27142 12.4795C5.47238 12.287 5.72568 12.1296 6.02414 12.0115C6.22441 11.9322 6.44267 11.879 6.676 11.8523C6.85305 11.832 7.03041 11.8768 7.17969 11.9741C7.42062 12.1311 7.69833 12.3102 8.00534 12.5063C8.35141 12.727 8.79727 12.9262 9.32996 13.0982C9.87454 13.2743 10.43 13.3637 10.9813 13.3637C11.5326 13.3637 12.0881 13.2743 12.6324 13.0984C13.1656 12.9261 13.6113 12.727 13.9578 12.506C14.272 12.3052 14.5419 12.1313 14.7828 11.9741C14.9322 11.8769 15.1095 11.832 15.2865 11.8523C15.52 11.8789 15.7383 11.9322 15.9387 12.0115C16.237 12.1296 16.4903 12.2872 16.6913 12.4795C16.9061 12.685 17.1008 12.9403 17.27 13.2381C17.4475 13.5502 17.5906 13.8744 17.6953 14.2014C17.8047 14.5432 17.8967 14.9201 17.9687 15.3216C18.0417 15.7291 18.0911 16.1121 18.1152 16.46V16.4603C18.1401 16.8142 18.1526 17.184 18.1527 17.5599C18.1526 18.2805 17.949 18.8247 17.5302 19.2232Z" fill="black"/>
</g>
</g>
<defs>
<filter id="filter0_di_965_31166" x="-33.9619" y="-19" width="89.6348" height="89.6348" filterUnits="userSpaceOnUse" color-interpolation-filters="sRGB">
<feFlood flood-opacity="0" result="BackgroundImageFix"/>
<feColorMatrix in="SourceAlpha" type="matrix" values="0 0 0 0 0 0 0 0 0 0 0 0 0 0 0 0 0 0 127 0" result="hardAlpha"/>
<feOffset dy="20"/>
<feGaussianBlur stdDeviation="20"/>
<feColorMatrix type="matrix" values="0 0 0 0 0.811765 0 0 0 0 0.92549 0 0 0 0 0.972549 0 0 0 0.7 0"/>
<feBlend mode="normal" in2="BackgroundImageFix" result="effect1_dropShadow_965_31166"/>
<feBlend mode="normal" in="SourceGraphic" in2="effect1_dropShadow_965_31166" result="shape"/>
<feColorMatrix in="SourceAlpha" type="matrix" values="0 0 0 0 0 0 0 0 0 0 0 0 0 0 0 0 0 0 127 0" result="hardAlpha"/>
<feOffset dx="2" dy="9"/>
<feGaussianBlur stdDeviation="16"/>
<feComposite in2="hardAlpha" operator="arithmetic" k2="-1" k3="1"/>
<feColorMatrix type="matrix" values="0 0 0 0 1 0 0 0 0 1 0 0 0 0 1 0 0 0 0.25 0"/>
<feBlend mode="normal" in2="shape" result="effect2_innerShadow_965_31166"/>
</filter>
<filter id="filter1_di_965_31166" x="-37.3613" y="-9.33984" width="96.6865" height="90.3398" filterUnits="userSpaceOnUse" color-interpolation-filters="sRGB">
<feFlood flood-opacity="0" result="BackgroundImageFix"/>
<feColorMatrix in="SourceAlpha" type="matrix" values="0 0 0 0 0 0 0 0 0 0 0 0 0 0 0 0 0 0 127 0" result="hardAlpha"/>
<feOffset dy="20"/>
<feGaussianBlur stdDeviation="20"/>
<feColorMatrix type="matrix" values="0 0 0 0 0.811765 0 0 0 0 0.92549 0 0 0 0 0.972549 0 0 0 0.7 0"/>
<feBlend mode="normal" in2="BackgroundImageFix" result="effect1_dropShadow_965_31166"/>
<feBlend mode="normal" in="SourceGraphic" in2="effect1_dropShadow_965_31166" result="shape"/>
<feColorMatrix in="SourceAlpha" type="matrix" values="0 0 0 0 0 0 0 0 0 0 0 0 0 0 0 0 0 0 127 0" result="hardAlpha"/>
<feOffset dx="2" dy="9"/>
<feGaussianBlur stdDeviation="16"/>
<feComposite in2="hardAlpha" operator="arithmetic" k2="-1" k3="1"/>
<feColorMatrix type="matrix" values="0 0 0 0 1 0 0 0 0 1 0 0 0 0 1 0 0 0 0.25 0"/>
<feBlend mode="normal" in2="shape" result="effect2_innerShadow_965_31166"/>
</filter>
<clipPath id="clip0_965_31166">
<rect width="22" height="22" fill="white"/>
</clipPath>
</defs>
</svg>
