<svg width="11" height="13" viewBox="0 0 11 13" fill="none" xmlns="http://www.w3.org/2000/svg">
<path d="M9.3891 9.19242L5.49999 13L1.61091 9.19242C-0.53697 7.08948 -0.53697 3.68006 1.61091 1.57717C3.75879 -0.525722 7.24117 -0.525722 9.3891 1.57717C11.537 3.68006 11.537 7.08948 9.3891 9.19242ZM5.49999 7.77802C6.85 7.77802 7.94443 6.70651 7.94443 5.38478C7.94443 4.06303 6.85 2.99155 5.49999 2.99155C4.14996 2.99155 3.05555 4.06303 3.05555 5.38478C3.05555 6.70651 4.14996 7.77802 5.49999 7.77802ZM5.49999 6.5814C4.82496 6.5814 4.27777 6.04567 4.27777 5.38478C4.27777 4.72391 4.82496 4.18816 5.49999 4.18816C6.17502 4.18816 6.72221 4.72391 6.72221 5.38478C6.72221 6.04567 6.17502 6.5814 5.49999 6.5814Z" fill="black"/>
</svg>
