<svg width="21" height="21" viewBox="0 0 21 21" fill="none" xmlns="http://www.w3.org/2000/svg">
<path d="M1.78691 19.0144C1.73786 19.0144 1.68832 19.0087 1.63926 18.9975C1.34895 18.9283 1.14355 18.6694 1.14355 18.371C1.14355 12.5248 1.8831 7.66262 10.7939 7.44146V2.93039C10.7939 2.67465 10.9453 2.44352 11.1792 2.34107C11.4122 2.23926 11.6855 2.28333 11.874 2.458L20.2377 10.1783C20.3695 10.2994 20.4443 10.471 20.4443 10.6507C20.4443 10.8304 20.3695 11.002 20.2377 11.1232L11.874 18.8436C11.6861 19.0182 11.4129 19.0634 11.1792 18.9605C10.9453 18.8579 10.7939 18.6267 10.7939 18.371V13.8751C4.68139 14.0214 3.55358 16.2764 2.3624 18.6588C2.2519 18.8806 2.02624 19.0144 1.78691 19.0144ZM11.4373 12.5808C11.7929 12.5808 12.0807 12.8685 12.0807 13.2241V16.9014L18.8523 10.6507L12.0807 4.39998V8.07726C12.0807 8.43288 11.7929 8.72062 11.4373 8.72062C4.33011 8.72062 2.79972 11.4694 2.49879 15.8598C3.83135 14.0698 6.10257 12.5808 11.4373 12.5808Z" fill="black" fill-opacity="0.3"/>
</svg>
