<svg width="12" height="9" viewBox="0 0 12 9" fill="none" xmlns="http://www.w3.org/2000/svg">
<path d="M12 1.65651V7.34349C11.9999 7.43434 11.9759 7.52332 11.9306 7.6002C11.8853 7.67707 11.8206 7.7387 11.7439 7.77798C11.6673 7.81727 11.5818 7.83261 11.4973 7.82225C11.4129 7.81189 11.3329 7.77624 11.2666 7.71941L9.9699 6.607C9.94893 6.58898 9.93202 6.56616 9.9204 6.54022C9.90879 6.51428 9.90277 6.48589 9.90279 6.45714V2.54286C9.90277 2.51411 9.90879 2.48572 9.9204 2.45978C9.93202 2.43384 9.94893 2.41102 9.9699 2.393L11.2666 1.28059C11.3329 1.22376 11.4129 1.18811 11.4973 1.17775C11.5818 1.16739 11.6673 1.18273 11.7439 1.22202C11.8206 1.26131 11.8853 1.32293 11.9306 1.3998C11.9759 1.47668 11.9999 1.56566 12 1.65651ZM9.00398 7.0617V1.9383C9.03882 1.67733 9.01634 1.41127 8.93832 1.16118C8.86031 0.911098 8.72889 0.683858 8.55448 0.497452C8.38007 0.311045 8.16746 0.17059 7.93347 0.0872041C7.69949 0.00381854 7.45055 -0.0202076 7.20637 0.0170279H1.81354C1.56936 -0.0202076 1.32043 0.00381854 1.08644 0.0872041C0.852455 0.17059 0.639842 0.311045 0.465433 0.497452C0.291025 0.683858 0.159609 0.911098 0.0815911 1.16118C0.00357265 1.41127 -0.0189069 1.67733 0.0159319 1.9383V7.0617C-0.0189069 7.32267 0.00357265 7.58874 0.0815911 7.83882C0.159609 8.0889 0.291025 8.31614 0.465433 8.50255C0.639842 8.68896 0.852455 8.82941 1.08644 8.9128C1.32043 8.99618 1.56936 9.02021 1.81354 8.98297H7.20637C7.45055 9.02021 7.69949 8.99618 7.93347 8.9128C8.16746 8.82941 8.38007 8.68896 8.55448 8.50255C8.72889 8.31614 8.86031 8.0889 8.93832 7.83882C9.01634 7.58874 9.03882 7.32267 9.00398 7.0617Z" fill="black"/>
</svg>
