<svg width="16" height="11" viewBox="0 0 16 11" fill="none" xmlns="http://www.w3.org/2000/svg">
<path d="M14.2694 0H1.375C0.618383 0 0 0.615664 0 1.375V9.625C0 10.3846 0.618781 11 1.375 11H14.2694C15.0261 11 15.6444 10.3843 15.6444 9.625V1.375C15.6444 0.615481 15.0258 0 14.2694 0ZM14.0583 0.916667C13.6138 1.36269 8.39193 6.60153 8.1774 6.81676C7.99822 6.99649 7.64631 6.99661 7.46705 6.81676L1.58614 0.916667H14.0583ZM0.916667 9.45649V1.54351L4.86032 5.5L0.916667 9.45649ZM1.58614 10.0833L5.50746 6.14924L6.81783 7.4639C7.35481 8.00262 8.28985 8.00241 8.82664 7.4639L10.137 6.14927L14.0583 10.0833H1.58614ZM14.7278 9.45649L10.7841 5.5L14.7278 1.54351V9.45649Z" fill="black"/>
</svg>
