<svg width="554" height="730" viewBox="0 0 554 730" fill="none" xmlns="http://www.w3.org/2000/svg">
<path d="M57.8871 108.04C57.9019 107.866 57.9225 107.698 57.9385 107.526C57.9061 106.517 57.8871 105.503 57.8871 104.483C57.8871 67.7489 79.1164 40.5859 105.352 40.5859C127.801 40.5859 146.638 60.4755 151.609 89.2297C151.609 89.2297 158.345 111.955 156.499 123.66C154.653 135.364 159.73 152.626 166.654 164.766C173.578 176.906 173.753 199.524 152.894 195.831C132.035 192.139 120.957 192.139 97.8782 191.677C74.7991 191.216 53.8995 154.568 57.8871 108.04Z" fill="#683B11"/>
<path d="M92.2773 134.215V157.884C92.2773 165.13 98.1414 170.994 105.387 170.994C112.64 170.994 118.504 165.13 118.504 157.884V134.215C118.504 126.962 112.64 121.098 105.387 121.098C101.764 121.098 98.4867 122.567 96.1205 124.941C93.7471 127.314 92.2773 130.585 92.2773 134.215Z" fill="#FBB99F"/>
<path opacity="0.2" d="M92.2773 134.215V143.444C96.2162 146.332 100.669 147.956 105.387 147.956C110.105 147.956 114.565 146.332 118.504 143.444V134.215C118.504 126.962 112.64 121.098 105.387 121.098C101.764 121.098 98.4867 122.567 96.1205 124.941C93.7471 127.314 92.2773 130.585 92.2773 134.215Z" fill="#E5332A"/>
<path d="M88.2671 67.7807C88.2682 67.7796 88.2698 67.7785 88.2711 67.7773L89.5696 70.2817C89.5696 70.2817 100.255 85.7431 119.069 88.3979C130.692 90.0381 135.13 98.6487 136.828 104.993C135.745 126.398 122.046 146.048 105.352 146.048C87.9424 146.048 73.876 124.939 73.876 102.256C73.876 100.276 73.9882 98.331 74.1957 96.4267C88.4283 90.1407 88.2694 68.0235 88.2671 67.7807Z" fill="#FBB99F"/>
<path opacity="0.2" d="M120.629 92.3982C100.884 89.7435 89.6686 74.282 89.6686 74.282L88.306 71.7777C88.3044 71.7788 88.3031 71.78 88.3017 71.7811C88.3039 72.022 88.4598 93.7849 73.876 100.266C73.9247 98.9703 74.0161 97.6887 74.1535 96.4265C88.3859 90.1407 88.2271 68.0235 88.2249 67.7807C88.226 67.7796 88.2276 67.7785 88.2289 67.7773L89.5273 70.2817C89.5273 70.2817 100.213 85.7431 119.026 88.3979C128.092 89.6772 132.786 95.1963 135.219 100.574C132.309 96.6973 127.758 93.3569 120.629 92.3982Z" fill="#E5332A"/>
<path d="M104.547 131.291C98.7126 131.291 93.9824 128.217 93.9824 124.426H115.112C115.112 128.217 110.382 131.291 104.547 131.291Z" fill="white"/>
<path d="M125.279 98.3814C125.437 98.3814 125.598 98.3409 125.737 98.2567C126.091 98.0425 126.174 97.6261 125.921 97.3261C125.73 97.0998 121.172 91.8037 115.032 93.1872C114.61 93.282 114.36 93.6482 114.472 94.0044C114.585 94.3608 115.017 94.5723 115.438 94.4778C120.521 93.3309 124.595 98.0542 124.635 98.102C124.79 98.2843 125.032 98.3814 125.279 98.3814Z" fill="#683B11"/>
<path d="M82.7226 98.3815C82.9689 98.3815 83.2114 98.2843 83.3657 98.1024C83.4061 98.0545 87.48 93.332 92.5627 94.4781C92.9833 94.5727 93.4167 94.3614 93.529 94.0048C93.6413 93.6486 93.3907 93.2826 92.9692 93.1876C86.8265 91.8027 82.271 97.1001 82.0806 97.3265C81.8273 97.6265 81.9097 98.0429 82.264 98.2571C82.4035 98.3411 82.5638 98.3815 82.7226 98.3815Z" fill="#683B11"/>
<path d="M114.335 102.748C114.335 105.531 115.804 107.786 117.62 107.786C119.436 107.786 120.905 105.531 120.905 102.748C120.905 101.889 120.77 101.082 120.517 100.373C120.322 99.8075 120.052 99.3096 119.74 98.9025C119.166 98.156 118.431 97.7109 117.62 97.7109C115.804 97.7109 114.335 99.9658 114.335 102.748Z" fill="#422918"/>
<path d="M117.62 102.009L120.517 100.373C120.322 99.8073 120.052 99.3095 119.74 98.9023L117.62 102.009Z" fill="white"/>
<path d="M87.6055 102.748C87.6055 105.531 89.0748 107.786 90.8906 107.786C92.7062 107.786 94.1755 105.531 94.1755 102.748C94.1755 101.889 94.0404 101.082 93.787 100.373C93.5928 99.8075 93.3226 99.3096 93.01 98.9025C92.4358 98.156 91.7011 97.7109 90.8904 97.7109C89.075 97.7109 87.6055 99.9658 87.6055 102.748Z" fill="#422918"/>
<path d="M90.8906 102.009L93.7873 100.373C93.593 99.8073 93.3229 99.3095 93.0103 98.9023L90.8906 102.009Z" fill="white"/>
<path d="M134.443 547.434C144.209 547.434 152.126 536.438 152.126 522.874L155.876 371.211H106.299L116.84 525.199C117.703 537.806 125.326 547.434 134.443 547.434Z" fill="#F7B097"/>
<path d="M128.014 670.322H140.379C143.583 670.322 146.204 667.051 146.286 662.949L148.649 545.052C148.649 534.989 142.279 526.832 134.421 526.832H133.972C126.113 526.832 119.743 534.989 119.743 545.052L122.107 662.949C122.189 667.051 124.81 670.322 128.014 670.322Z" fill="#F7B097"/>
<path d="M73.0907 547.434C63.3247 547.434 55.4077 536.438 55.4077 522.874L51.6582 371.211H101.235L90.6943 525.199C89.8313 537.806 82.2082 547.434 73.0907 547.434Z" fill="#F7B097"/>
<path d="M79.5199 670.322H67.1554C63.9509 670.322 61.3303 667.051 61.2481 662.949L58.8848 545.052C58.8848 534.989 65.255 526.832 73.1131 526.832H73.5624C81.4206 526.832 87.7908 534.989 87.7908 545.052L85.4275 662.949C85.3451 667.051 82.7244 670.322 79.5199 670.322Z" fill="#F7B097"/>
<path d="M45.1836 695.511C49.9852 699.682 64.8663 698.316 71.8882 696.451C73.0407 696.143 73.978 695.82 74.6308 695.511C79.2481 693.308 87.7756 680.084 87.7756 680.084V668.372C87.7756 666.786 86.6463 665.391 85.033 665.016C72.4029 662.087 62.8765 664.054 59.1043 665.141C57.9904 665.464 57.0607 666.206 56.5229 667.197C53.9571 671.882 46.2054 686.634 45.1836 695.511Z" fill="#2C9FF4"/>
<path d="M45.5781 700.291C49.0373 708.216 74.6348 705.332 76.7105 700.291C78.7861 695.248 87.7799 683.006 87.7799 683.006V680.086C87.7799 680.086 79.2469 693.311 74.6348 695.515C70.0227 697.719 50.7763 700.364 45.184 695.515C44.9538 697.434 45.0495 699.078 45.5781 700.291Z" fill="#1573BA"/>
<path opacity="0.2" d="M71.8887 696.45C73.0411 696.142 73.9785 695.819 74.6313 695.51C79.2485 693.308 87.7761 680.083 87.7761 680.083V668.371C87.7761 668.371 77.9043 693.227 71.8887 696.45Z" fill="#29235C"/>
<path d="M161.177 695.621C156.376 699.792 141.494 698.426 134.473 696.561C133.32 696.252 132.383 695.929 131.73 695.621C127.113 693.418 118.585 680.193 118.585 680.193V668.481C118.585 666.895 119.714 665.5 121.328 665.126C133.958 662.196 143.484 664.164 147.256 665.251C148.37 665.574 149.3 666.315 149.838 667.307C152.404 671.991 160.155 686.743 161.177 695.621Z" fill="#2C9FF4"/>
<path d="M160.783 700.4C157.324 708.325 131.726 705.442 129.65 700.4C127.575 695.358 118.581 683.116 118.581 683.116V680.195C118.581 680.195 127.114 693.42 131.726 695.624C136.338 697.828 155.585 700.473 161.177 695.624C161.407 697.544 161.311 699.188 160.783 700.4Z" fill="#1573BA"/>
<path opacity="0.2" d="M134.473 696.56C133.32 696.251 132.383 695.928 131.73 695.62C127.113 693.417 118.585 680.192 118.585 680.192V668.48C118.585 668.48 128.457 693.336 134.473 696.56Z" fill="#29235C"/>
<path d="M53.7607 333.974C58.0241 323.118 63.1821 311.445 62.1527 299.727L49.7716 193.313C49.4202 187.082 52.6092 181.245 57.8287 178.567L95.3056 159.335C100.653 156.591 106.88 156.591 112.227 159.335L149.704 178.567C154.924 181.245 158.113 187.082 157.761 193.313L145.38 299.727C144.351 311.445 149.509 323.118 153.772 333.974C156.36 340.562 157.788 347.774 157.788 355.337C157.788 386.497 133.602 411.757 103.767 411.757C73.9313 411.757 49.7451 386.497 49.7451 355.337C49.7451 347.774 51.1733 340.562 53.7607 333.974Z" fill="#F7B097"/>
<path d="M6.38383 284.472C-0.0510301 280.696 -1.88884 271.806 2.27884 264.616L47.1904 187.133C51.3578 179.943 59.953 177.175 66.3876 180.951C72.8225 184.726 74.6603 193.616 70.4929 200.806L25.5813 278.29C21.4136 285.48 12.8187 288.248 6.38383 284.472Z" fill="#F7B097"/>
<path d="M208.943 290.973C215.647 287.698 218.219 279.105 214.688 271.78L176.64 192.841C173.109 185.515 164.812 182.232 158.109 185.507C151.405 188.782 148.833 197.375 152.364 204.7L187.072 285.299C190.603 292.624 202.239 294.248 208.943 290.973Z" fill="#F7B097"/>
<path d="M48.4202 371.155C48.5927 405.385 49.5165 450.204 50.64 493.787C52.6793 573.051 55.3704 648.236 55.3704 648.236H87.7895L99.0125 412.82C100.435 413.466 107.676 413.079 107.676 413.079L118.581 648.236H149.842C160.502 561.24 158.147 405.807 156.639 342.89V342.887C156.227 325.619 155.876 315.32 155.876 315.32H49.7456C48.6275 323.055 48.2828 343.698 48.4202 371.155Z" fill="#35A8E0"/>
<path opacity="0.2" d="M48.4202 371.155C57.9031 352.02 156.639 342.89 156.639 342.89V342.887C156.227 325.619 155.877 315.32 155.877 315.32H49.7458C48.6275 323.055 48.2828 343.698 48.4202 371.155Z" fill="#1D70B7"/>
<path opacity="0.2" d="M99.0127 412.82C100.435 413.466 107.677 413.079 107.677 413.079L118.582 648.236H139.939C113.363 638.417 112.978 399.695 112.396 402.605C111.814 405.514 99.0127 412.82 99.0127 412.82Z" fill="#1D70B7"/>
<path opacity="0.2" d="M50.6396 493.785C52.6789 573.049 55.3701 648.235 55.3701 648.235H73.3363C73.3363 648.235 56.7736 558.696 50.6396 493.785Z" fill="#1D70B7"/>
<path d="M10.9766 245.263C10.9766 245.263 23.5827 244.587 36.076 248.558C39.4525 249.632 42.8226 251.046 45.9314 252.904L52.4345 232.281C55.4971 268.359 43.3952 339.971 43.3952 339.971C47.1809 338.798 57.6309 338.044 66.2813 337.397C71.3208 337.023 75.7519 336.685 77.8969 336.321C102.415 332.179 137.796 337.555 137.796 337.555C139.795 337.951 142.535 338.506 145.485 339.113C153.671 340.793 163.482 342.854 163.586 342.888C158.489 330.877 154.613 232.707 154.613 232.707L172.886 257.547C173.795 255.304 175.643 253.24 178.016 251.373C187.336 244.027 204.716 239.718 204.716 239.718C204.716 239.718 179.528 195.775 171.148 187.15C162.767 178.521 135.448 167.77 135.448 167.77C98.0299 236.528 72.0082 167.77 72.0082 167.77C72.0082 167.77 51.9392 177.407 47.8618 182.481C47.8618 182.481 24.239 210.578 10.9766 245.263Z" fill="#1573BA"/>
<path opacity="0.2" d="M141.981 248.824C140.136 249.523 138.431 250.16 136.738 250.658C135.053 251.157 133.4 251.503 131.778 251.576C130.154 251.666 128.568 251.469 126.95 250.993C125.336 250.502 123.727 249.718 121.961 248.824C122.715 250.589 124.072 252.114 125.837 253.208C126.726 253.743 127.72 254.143 128.758 254.407C129.801 254.665 130.886 254.742 131.951 254.696C134.091 254.593 136.11 253.896 137.823 252.876C139.528 251.842 141.014 250.509 141.981 248.824Z" fill="#2D2E82"/>
<path opacity="0.2" d="M68.2451 248.824C69.2119 250.509 70.6983 251.842 72.4029 252.876C74.1161 253.896 76.1352 254.593 78.2755 254.696C79.3406 254.742 80.4254 254.665 81.4681 254.407C82.5067 254.143 83.5004 253.743 84.3897 253.208C86.1543 252.114 87.5113 250.589 88.2654 248.824C86.4992 249.718 84.8906 250.502 83.276 250.993C81.6581 251.469 80.072 251.666 78.4482 251.576C76.827 251.503 75.1731 251.157 73.488 250.658C71.7952 250.16 70.0904 249.523 68.2451 248.824Z" fill="#2D2E82"/>
<path opacity="0.2" d="M43.3954 339.971C47.1811 338.798 57.6311 338.043 66.2815 337.397C59.0773 330.522 55.8137 221.016 55.8137 221.016C55.3361 227.407 36.3859 247.062 36.3859 247.062L36.0762 248.558C39.4527 249.632 42.8227 251.046 45.9316 252.903L52.4347 232.28C55.4973 268.359 43.3954 339.971 43.3954 339.971Z" fill="#2D2E82"/>
<path opacity="0.2" d="M163.586 342.887C158.489 330.877 154.612 232.707 154.612 232.707L172.886 257.547C173.795 255.304 175.643 253.24 178.016 251.373C178.016 251.373 157.427 234.711 151.755 221.016C151.755 221.016 152.049 336.693 145.484 339.113C153.67 340.793 163.482 342.854 163.586 342.887Z" fill="#2D2E82"/>
<path d="M210.154 242.833C210.154 242.833 176.922 252.474 170.844 261.784L156.639 238.029C156.639 238.029 173.457 477.085 185.696 501.524C185.696 501.524 151.959 512.192 126.068 510.35C126.068 510.35 123.937 273.082 114.12 238.029L134.508 164.414C134.508 164.414 161.469 172.949 174.853 187.108C188.236 201.267 210.154 242.833 210.154 242.833Z" fill="#D4F9F2"/>
<path d="M72.7246 164.414L94.0662 236.467C94.0662 236.467 73.7902 465.059 78.2547 503.076C78.2547 503.076 51.491 513.744 25.1118 502.106C25.1118 502.106 53.5301 245.64 52.6076 234.606L45.8662 258.099C45.8662 258.099 16.5775 245.879 8.04297 246.267C8.04297 246.267 34.81 189.629 46.642 180.125C58.4738 170.621 72.7246 164.414 72.7246 164.414Z" fill="#D4F9F2"/>
<path d="M114.12 238.03L134.435 163L153.963 172.539L136.828 206.795L130.435 208.541L131.971 216.523L114.12 238.03Z" fill="#BEEDE4"/>
<path d="M72.7243 164.414L55.8027 173.601L71.4692 203.983L78.2546 206.504V213.875L94.0661 236.467L72.7243 164.414Z" fill="#BEEDE4"/>
<path d="M58.0084 354.887C58.0084 354.887 48.5438 402.286 36.3906 411.754C36.3906 411.754 43.6146 434.783 58.9476 426.257C74.2805 417.731 75.0838 381.47 58.0084 354.887Z" fill="#BEEDE4"/>
<path d="M141.819 389.567L148.703 380.688C149.038 380.256 149.501 379.93 150.038 379.71C150.25 379.134 150.492 378.559 150.771 377.987C152.915 373.58 156.632 370.217 160.867 368.372C160.907 368.152 160.956 367.931 161.015 367.707L183.581 282.74C187.041 271.665 196.538 263.9 204.792 265.395C213.047 266.89 216.932 277.08 213.472 288.154L183.359 371.754C183.316 371.875 183.27 371.993 183.223 372.111C182.418 374.081 182.143 376.219 182.501 378.317C183.042 381.48 182.57 384.969 180.924 388.351C179.758 390.749 178.126 392.837 176.199 394.541L169.446 403.261C168.334 404.697 165.941 405.065 164.101 404.083C163.1 403.549 162.472 402.725 162.284 401.854L162.084 402.112C160.972 403.547 158.451 403.846 156.453 402.779C154.815 401.905 154.04 400.385 154.426 399.074C153.22 400.04 151.356 400.262 149.849 399.516L149.057 399.124C147.236 398.222 146.63 396.251 147.702 394.721L148.019 394.269C146.744 394.927 144.934 394.904 143.422 394.096C141.424 393.03 140.706 391.002 141.819 389.567Z" fill="#F7B097"/>
<path d="M149.228 354.887C149.228 354.887 158.693 402.286 170.846 411.754C170.846 411.754 163.622 434.783 148.289 426.257C132.956 417.731 132.153 381.47 149.228 354.887Z" fill="#BEEDE4"/>
<path d="M61.3302 332.641H149.224V270.425H61.3302L61.3302 332.641Z" fill="#18D6B2"/>
<path d="M90.3311 294.427H99.4571V285.301H111.096V294.427H120.222V306.066H111.096V315.192H99.4571V306.066H90.3311V294.427Z" fill="white"/>
<path d="M57.1241 271.715H155.734V262.611H57.1241V271.715Z" fill="#1CF2C9"/>
<path opacity="0.2" d="M61.3302 276.836H149.224V271.714H61.3302V276.836Z" fill="#00A099"/>
<path d="M4.13743 265.568C10.1546 260.517 20.5292 262.092 27.3097 269.086L71.298 319.097C73.7765 321.914 77.2016 323.776 80.965 324.35C82.1042 324.524 83.2713 324.704 84.4599 324.89C87.1464 323.137 102.916 313.009 105.987 314.755C108.12 315.968 102.057 322.776 97.8569 327.105C119.857 330.961 141.838 336.056 132.087 339.814C116.224 345.927 73.5005 341.228 64.0722 340.091C63.7482 340.078 63.4226 340.038 63.0979 339.972C62.5201 339.9 62.2019 339.724 62.2019 339.724C61.3665 339.425 60.567 338.949 59.8745 338.3L5.51938 287.377C-1.26108 280.383 -1.87974 270.619 4.13743 265.568Z" fill="#F7B097"/>
<path d="M53.7707 251.955L89.9727 254.316L91.3616 233.025L55.1596 230.663L53.7707 251.955Z" fill="white"/>
<path d="M57.9386 237.714L73.9395 238.758L74.1162 236.048L58.1154 235.004L57.9386 237.714Z" fill="#D9D9D9"/>
<path d="M62.6784 243.531L73.582 244.242L73.7588 241.532L62.8552 240.821L62.6784 243.531Z" fill="#D9D9D9"/>
<path d="M78.2757 241.842C78.0597 245.156 79.9353 247.976 82.4652 248.141C84.9951 248.306 87.2212 245.753 87.4372 242.439C87.6533 239.126 85.7777 236.305 83.2478 236.14C80.7181 235.975 78.492 238.528 78.2757 241.842Z" fill="#D9D9D9"/>
<path d="M78.1251 227.32L69.028 226.727L68.8515 229.435C68.7224 231.413 70.2218 233.122 72.2004 233.251L74.1326 233.377C76.1112 233.506 77.8197 232.006 77.9486 230.028L78.1251 227.32Z" fill="#394859"/>
<path d="M508.692 109.995C508.692 144.894 483.125 145.914 454.71 145.914C426.296 145.914 405.795 144.894 405.795 109.995C405.795 75.0961 428.829 46.8047 457.243 46.8047C485.658 46.8047 508.692 75.0961 508.692 109.995Z" fill="#B75E1C"/>
<path d="M471.431 142.983V167.285C471.431 174.724 465.41 180.745 457.97 180.745C450.524 180.745 444.503 174.724 444.503 167.285V142.983C444.503 135.536 450.524 129.516 457.97 129.516C461.69 129.516 465.055 131.025 467.485 133.462C469.922 135.899 471.431 139.256 471.431 142.983Z" fill="#FBB99F"/>
<path opacity="0.2" d="M471.431 142.983V152.459C467.386 155.425 462.814 157.092 457.97 157.092C453.127 157.092 448.547 155.425 444.503 152.459V142.983C444.503 135.536 450.524 129.516 457.97 129.516C461.69 129.516 465.055 131.025 467.485 133.462C469.922 135.899 471.431 139.256 471.431 142.983Z" fill="#E5332A"/>
<path d="M487.821 110.166C487.821 133.456 480.159 147.884 457.967 147.884C435.34 147.884 428.112 133.456 428.112 110.166C428.112 107.695 428.263 105.281 428.556 102.918C428.571 102.775 428.592 102.631 428.614 102.495C428.728 101.607 428.864 100.734 429.022 99.8671C442.45 96.7446 461.809 82.9151 465.798 80C470.016 83.4807 478.532 89.9836 484.598 91.0865C484.892 91.903 485.171 92.7408 485.422 93.5858C485.472 93.7291 485.515 93.8796 485.558 94.0229C487.012 98.9933 487.821 104.443 487.821 110.166Z" fill="#FBB99F"/>
<path d="M458.634 139.513C464.625 139.513 469.481 136.357 469.481 132.465H447.787C447.787 136.357 452.643 139.513 458.634 139.513Z" fill="white"/>
<path d="M437.547 104.874C437.384 104.874 437.219 104.832 437.077 104.746C436.713 104.526 436.628 104.099 436.888 103.79C437.084 103.558 441.763 98.1205 448.068 99.541C448.5 99.6385 448.758 100.014 448.642 100.38C448.527 100.746 448.083 100.963 447.65 100.866C442.432 99.6888 438.249 104.538 438.207 104.587C438.049 104.774 437.8 104.874 437.547 104.874Z" fill="#683B11"/>
<path d="M481.24 104.874C480.987 104.874 480.738 104.775 480.579 104.588C480.538 104.539 476.355 99.6898 471.137 100.866C470.705 100.964 470.26 100.747 470.145 100.38C470.029 100.015 470.287 99.6388 470.72 99.5413C477.026 98.1196 481.703 103.558 481.899 103.791C482.159 104.099 482.074 104.526 481.711 104.746C481.568 104.833 481.403 104.874 481.24 104.874Z" fill="#683B11"/>
<path d="M448.783 109.359C448.783 112.216 447.274 114.531 445.41 114.531C443.546 114.531 442.037 112.216 442.037 109.359C442.037 108.476 442.176 107.648 442.436 106.92C442.635 106.34 442.913 105.829 443.234 105.411C443.823 104.644 444.578 104.188 445.41 104.188C447.274 104.187 448.783 106.502 448.783 109.359Z" fill="#422918"/>
<path d="M445.409 108.6L442.436 106.92C442.635 106.339 442.913 105.828 443.233 105.41L445.409 108.6Z" fill="white"/>
<path d="M476.226 109.359C476.226 112.216 474.717 114.531 472.853 114.531C470.989 114.531 469.48 112.216 469.48 109.359C469.48 108.476 469.619 107.648 469.879 106.92C470.079 106.34 470.356 105.829 470.677 105.411C471.267 104.644 472.021 104.188 472.853 104.188C474.718 104.187 476.226 106.502 476.226 109.359Z" fill="#422918"/>
<path d="M472.854 108.6L469.88 106.92C470.079 106.339 470.357 105.828 470.678 105.41L472.854 108.6Z" fill="white"/>
<path opacity="0.2" d="M485.476 93.5861C479.395 92.6979 470.608 85.9945 466.303 82.4421C462.221 85.4286 442.125 99.7811 428.668 102.495C428.782 101.607 428.918 100.734 429.076 99.8671C442.504 96.7446 461.863 82.9151 465.852 80C470.071 83.4807 478.586 89.9836 484.652 91.0865C484.946 91.903 485.225 92.741 485.476 93.5861Z" fill="#E5332A"/>
<path opacity="0.2" d="M457.071 70.6523C457.071 70.6523 451.377 88.8624 423.112 92.2771C423.112 92.2771 446.923 84.3626 457.071 70.6523Z" fill="#422918"/>
<path opacity="0.2" d="M438.624 72.4883C438.624 72.4883 436.495 85.4157 417.603 90.443C417.603 90.443 433.036 82.7825 438.624 72.4883Z" fill="#422918"/>
<path opacity="0.2" d="M494.387 86.1839C494.387 86.1839 484.351 88.2537 474.034 73.7109C474.034 73.7109 485.013 84.5248 494.387 86.1839Z" fill="#422918"/>
<path d="M545.416 294.503C552.391 291.437 555.459 282.707 552.269 275.003L517.897 191.982C514.707 184.278 506.468 180.518 499.493 183.584C492.519 186.65 489.451 195.38 492.64 203.084L527.012 286.105C530.202 293.809 538.442 297.569 545.416 294.503Z" fill="#FBB99F"/>
<path d="M393.099 300.616C385.612 299.052 380.702 291.15 382.133 282.967L397.548 194.774C398.978 186.59 406.207 181.223 413.694 182.786C421.182 184.35 426.091 192.252 424.661 200.436L409.245 288.629C407.815 296.812 400.586 302.179 393.099 300.616Z" fill="#FBB99F"/>
<path d="M389.082 383.692L408.203 294.598C410.265 282.797 405.868 271.964 398.381 270.4C390.894 268.837 383.152 277.135 381.09 288.935L368.815 379.46C368.712 380.213 368.696 380.95 368.756 381.651C369.002 384.537 368.452 387.408 367.455 390.139C367.307 390.543 367.193 390.969 367.115 391.413L363.835 410.175C363.179 413.933 365.433 417.561 368.871 418.279L378.29 420.246C381.728 420.964 385.047 418.5 385.704 414.742L388.983 395.98C389.159 394.974 389.126 393.978 388.917 393.045C388.232 389.985 388.389 386.822 389.067 383.761C389.072 383.738 389.077 383.715 389.082 383.692Z" fill="#FBB99F"/>
<path d="M362.748 430.921C361.395 430.638 360.508 429.211 360.766 427.732L364.525 406.226C364.784 404.748 366.09 403.778 367.442 404.061C368.795 404.343 369.682 405.771 369.424 407.249L365.665 428.755C365.407 430.234 364.101 431.203 362.748 430.921Z" fill="#FBB99F"/>
<path d="M367.443 437.257C366.09 436.974 365.203 435.547 365.462 434.068L369.221 412.562C369.479 411.084 370.785 410.114 372.138 410.397C373.491 410.679 374.378 412.107 374.119 413.585L370.36 435.091C370.102 436.57 368.796 437.539 367.443 437.257Z" fill="#FBB99F"/>
<path d="M372.855 440.526C371.502 440.244 370.615 438.816 370.874 437.338L374.633 415.832C374.891 414.353 376.197 413.384 377.55 413.666C378.903 413.949 379.79 415.376 379.531 416.855L375.772 438.36C375.514 439.839 374.208 440.809 372.855 440.526Z" fill="#FBB99F"/>
<path d="M378.814 439.632C377.461 439.349 376.574 437.922 376.833 436.443L380.592 414.937C380.85 413.459 382.156 412.489 383.509 412.772C384.862 413.054 385.749 414.482 385.49 415.96L381.731 437.466C381.473 438.944 380.167 439.914 378.814 439.632Z" fill="#FBB99F"/>
<path d="M390.069 421.629L389.497 421.927C387.973 422.722 386.503 421.506 386.215 419.212L384.038 401.927C383.749 399.633 384.75 397.129 386.274 396.334L386.846 396.036C388.37 395.242 389.839 396.457 390.128 398.752L392.305 416.037C392.594 418.331 391.593 420.835 390.069 421.629Z" fill="#FBB99F"/>
<path d="M413.768 335.69C417.993 324.789 418.502 311.325 417.482 299.558L405.214 192.699C404.865 186.441 408.025 180.58 413.197 177.89L450.332 158.578C455.631 155.823 461.802 155.823 467.1 158.578L504.235 177.89C509.407 180.58 512.567 186.441 512.219 192.699L499.951 299.558C498.93 311.326 501.583 322.283 505.808 333.185C508.372 339.801 507.679 359.402 507.679 366.996C507.679 398.287 488.279 412.057 458.716 412.057C429.153 412.057 408.711 388.68 408.711 357.39C408.711 349.796 411.205 342.306 413.768 335.69Z" fill="#FBB99F"/>
<path d="M505.186 549.175C505.179 549.015 505.17 548.855 505.16 548.696C504.913 544.842 505.562 521.959 506.62 518.236C507.532 515.03 504.636 374.469 504.636 374.469L455.557 376.503L472.815 530.562C473.119 533.275 475.628 543.556 475.64 543.819L485.15 668.642C485.413 672.754 487.136 675.833 490.309 675.702L502.549 675.195C505.722 675.063 505.029 669.815 504.929 665.696L505.186 549.175Z" fill="#FBB99F"/>
<path d="M505.94 667.461C506.935 669.197 508.327 670.686 510.006 671.824C514.726 675.026 525.282 682.979 533.767 695.127C542.633 707.819 502.52 690.921 487.646 684.365C484.758 683.092 483.484 679.001 484.625 674.675L484.198 656.156L503.07 662.449L505.94 667.461Z" fill="#FBB99F"/>
<path d="M460.912 377.915L411.97 373.812L405.587 526.505C405.255 530.217 403.581 548.17 403.566 548.33L397.001 666.978C396.715 671.089 397.372 674.076 400.535 674.341L412.741 675.364C415.905 675.629 417.576 672.436 418.023 668.339L434.719 537.496C434.742 537.234 439.312 514.819 439.738 512.122L460.912 377.915Z" fill="#FBB99F"/>
<path d="M417.11 670.511C417.11 670.511 411.31 693.539 405.118 697.75C398.904 701.976 381.384 707.427 383.317 694.249C385.25 681.072 400.561 666.34 400.561 666.34L417.11 670.511Z" fill="#FBB99F"/>
<path d="M484.571 672.371C484.571 672.371 501.86 686.355 511.585 684.569C521.31 682.782 519.81 679.327 519.81 679.327C519.81 679.327 540.588 691.498 538.005 699.729C537.255 702.122 513.829 699.837 497.747 688.546C497.318 688.244 496.721 688.445 496.572 688.948L495.062 694.044L485.687 693.137C485.687 693.137 483.362 684.166 484.571 672.371Z" fill="#394859"/>
<path d="M417.864 669.469C417.864 669.469 410.098 687.978 403.33 689.236C398.536 690.128 393.349 687.869 392.679 684.73C392.01 681.59 393.608 675.56 395.079 672.189C395.079 672.189 388.101 678.503 385.156 686.597C382.212 694.692 382.531 700.851 386.169 702.442C392.332 705.137 401.082 702.759 405.092 698.907C409.102 695.055 417.417 674.164 417.864 669.469Z" fill="#394859"/>
<path d="M391.349 656.157H421.812C434.416 643.797 456.133 412.72 456.133 412.72H458.717L465.024 481.081L481.179 656.157H506.797C513.56 606.642 517.346 562.84 519.125 524.595C524.267 414.19 512.704 350.097 507.774 328.55C506.512 323.031 505.686 320.305 505.686 320.305L415.227 316.879C413.332 322.183 411.578 328.036 409.955 334.36C405.857 350.32 402.59 369.263 399.993 389.849L399.99 389.879C386.139 499.66 391.349 656.157 391.349 656.157Z" fill="#18D6B2"/>
<path opacity="0.2" d="M399.99 389.879C399.99 389.879 509.976 396.411 513.851 415.399C517.726 434.387 519.125 524.596 519.125 524.596C524.268 414.191 512.704 350.098 507.774 328.551L409.955 334.361C405.857 350.321 402.59 369.263 399.993 389.85L399.99 389.879Z" fill="#00A099"/>
<path opacity="0.2" d="M411.548 656.158H421.811C434.416 643.798 456.133 412.721 456.133 412.721H458.716L465.024 481.082C465.024 481.082 469.879 400.577 460.912 401.448C451.946 402.32 446.714 415.972 447.586 441.262C448.458 466.55 411.548 656.158 411.548 656.158Z" fill="#00A099"/>
<path d="M408.712 303.764L414.231 268.851L411.454 316.878L395.614 382.17L420.587 383.056L476.787 385.05L524.469 386.74L512.244 319.418L508.711 253.996L521.463 288.463L533.487 277.982C534.62 276.994 535.683 275.931 536.671 274.795L538.18 273.06L551.184 258.108C551.184 258.108 533.603 215.517 521.501 193.273C517.468 185.857 514.042 180.703 512.08 180.141L490.159 168.045L477.656 162.426L474.443 172.66C469.508 188.384 447.323 188.577 442.11 172.942L438.975 163.534L426.212 169.621L410.426 177.151C410.216 177.232 399.789 181.266 397.116 183.741C394.417 186.241 375.203 284.281 375.203 284.281L385.572 292.755C390.058 296.418 395.171 299.238 400.666 301.076L408.712 303.764Z" fill="#D4F9F2"/>
<path d="M434.078 372.579H440.82C448.578 372.579 454.867 366.289 454.867 358.531V337.742H420.03V358.531C420.03 366.289 426.32 372.579 434.078 372.579Z" fill="#ADF2E5"/>
<path opacity="0.2" d="M395.614 382.172L420.587 383.057C420.606 382.627 420.428 382.169 420.03 381.685C413.943 374.274 415.598 277.641 416.088 254.434C414.131 269.442 400.665 301.077 400.665 301.077L408.712 303.766L414.231 268.852L411.454 316.879L395.614 382.172Z" fill="#35A8E0"/>
<path opacity="0.2" d="M512.244 319.416L508.71 253.994L521.463 288.461L533.487 277.98C534.62 276.992 535.683 275.929 536.671 274.794L538.18 273.058C538.18 273.058 517.338 264.654 503 231.328C503 231.328 505.468 377.452 481.179 383.054C478.918 383.576 477.497 384.252 476.787 385.048L524.47 386.738L512.244 319.416Z" fill="#35A8E0"/>
<path d="M464.034 305.64L531.419 295.855L518.768 208.737L451.384 218.522L464.034 305.64Z" fill="#2C9FF4"/>
<path d="M466.257 236.1L509.504 229.82L508.477 222.751L465.23 229.031L466.257 236.1Z" fill="#ECECEC"/>
<path d="M448.731 314.134L514.536 296.641L491.92 211.565L426.115 229.058L448.731 314.134Z" fill="#394859"/>
<path d="M442.92 244.801L485.153 233.574L483.318 226.671L441.085 237.898L442.92 244.801Z" fill="#ECECEC"/>
<path d="M449.395 327.401L508.602 293.77L465.122 217.224L405.915 250.855L449.395 327.401Z" fill="#1CF2C9"/>
<path d="M453.077 311.537L491.075 289.953L487.547 283.742L449.549 305.326L453.077 311.537Z" fill="#ECECEC"/>
<path d="M447.673 247.125L452.625 244.088L449.587 239.136L454.051 236.398L457.088 241.35L462.04 238.313L464.778 242.776L459.826 245.814L462.863 250.766L458.4 253.504L455.362 248.552L450.41 251.589L447.673 247.125Z" fill="#F5F5F5"/>
<path d="M411.109 262.317L420.328 260.248C418.852 259.465 418.376 257.261 419.27 255.288C420.174 253.295 422.134 252.295 423.647 253.055L432.409 257.457C435.445 257.232 438.699 257.865 441.691 259.071C443.697 259.88 445.803 260.333 447.942 260.495C448.113 260.509 448.285 260.526 448.458 260.549L533.33 271.584C544.404 273.449 552.336 280.562 551.046 287.471C549.756 294.379 539.734 298.468 528.66 296.603L453.2 280.957C449.25 280.138 445.162 280.616 441.582 282.387C440.755 282.796 439.911 283.187 439.06 283.561C436.791 284.559 434.453 285.077 432.191 285.164L424.689 286.84C423.063 287.204 421.387 286.059 420.946 284.283C420.724 283.385 420.861 282.498 421.26 281.793L420.47 281.969C418.843 282.332 417.137 281.062 416.66 279.133C416.276 277.582 416.805 276.078 417.873 275.359C417.863 275.316 417.854 275.272 417.846 275.228L416.906 275.484C415.239 275.938 413.497 274.921 413.014 273.213L412.804 272.469C412.433 271.153 412.919 269.813 413.924 269.059L412.849 269.3C410.75 269.771 408.659 268.59 408.178 266.662C407.698 264.733 409.01 262.788 411.109 262.317Z" fill="#FBB99F"/>
<path d="M329.027 394.574H222.244L207.728 176.118C207.287 167.488 211.297 159.404 217.862 155.694L264.995 129.057C271.728 125.252 279.543 125.252 286.276 129.057L333.409 155.694C339.973 159.404 343.984 167.488 343.542 176.118L329.027 394.574Z" fill="#FBB99F"/>
<path d="M163.163 300.738L162.268 300.395C153.045 296.861 148.236 285.964 151.526 276.056L185.639 173.317C188.928 163.409 199.071 158.242 208.294 161.776L209.189 162.12C218.412 165.654 223.221 176.55 219.931 186.458L185.818 289.198C182.528 299.106 172.386 304.272 163.163 300.738Z" fill="#FBB99F"/>
<path d="M383.383 293.319L382.06 293.904C373.128 297.852 362.907 293.274 359.232 283.678L321.79 185.914C318.115 176.318 322.376 165.338 331.309 161.39L332.632 160.805C341.564 156.857 351.784 161.435 355.46 171.031L392.902 268.794C396.577 278.39 392.316 289.37 383.383 293.319Z" fill="#FBB99F"/>
<path d="M239.974 559.637C227.499 559.637 217.387 547.615 217.387 532.785V366.965H275.925L262.461 535.326C261.358 549.11 251.621 559.637 239.974 559.637Z" fill="#FBB99F"/>
<path d="M248.187 702.173H232.393C228.299 702.173 224.952 698.411 224.847 693.692L221.828 558.068C221.828 546.493 229.965 537.109 240.003 537.109H240.577C250.615 537.109 258.752 546.493 258.752 558.068L255.733 693.692C255.628 698.411 252.281 702.173 248.187 702.173Z" fill="#FBB99F"/>
<path d="M328.584 560.235C340.989 558.914 349.771 545.888 348.2 531.141L330.636 366.254L272.427 372.455L303.649 538.443C306.205 552.032 317.003 561.469 328.584 560.235Z" fill="#FBB99F"/>
<path d="M340.543 693.772L356.156 691.388C360.203 690.77 362.972 686.73 362.399 682.281L345.931 554.399C344.27 543.524 334.88 535.935 324.957 537.45L324.39 537.537C314.467 539.052 307.769 549.096 309.429 559.972L331.867 686.942C332.648 691.36 336.497 694.389 340.543 693.772Z" fill="#FBB99F"/>
<path d="M332.548 200.853C332.203 199.262 331.965 198.147 331.851 197.598C332.105 198.672 332.335 199.754 332.548 200.853Z" fill="#29235C"/>
<path d="M255.134 101.476V135.263C255.134 145.614 263.811 153.987 274.53 153.987C285.248 153.987 293.926 145.614 293.926 135.263V101.476C293.926 91.1352 285.248 82.7617 274.53 82.7617C269.171 82.7617 264.324 84.86 260.815 88.25C257.314 91.6297 255.134 96.3108 255.134 101.476Z" fill="#FBB99F"/>
<path d="M236.778 66.0735C236.778 96.1237 253.878 120.503 274.973 120.503C296.067 120.503 313.167 96.1237 313.167 66.0735C313.167 64.2851 313.113 62.5203 312.986 60.7788C311.124 33.2231 294.82 11.6445 274.973 11.6445C256.047 11.6445 240.339 31.2702 237.321 56.9904C236.959 59.9555 236.778 62.9671 236.778 66.0735Z" fill="#7C4416"/>
<path d="M241.021 50.9824C241.021 51.4194 241.024 51.8538 241.032 52.2854C241.511 78.9282 256.581 100.31 275.114 100.31C293.94 100.31 309.201 78.2274 309.201 50.9824C309.201 48.6789 309.092 46.4108 308.88 44.1925C308.691 42.2132 308.42 40.2726 308.077 38.373C304.228 17.2279 290.923 9.09375 275.111 9.09375C260.951 9.09375 248.816 14.1298 243.659 31.9047C241.96 37.768 241.021 44.217 241.021 50.9824Z" fill="#FBB99F"/>
<path d="M317.72 66.0721C317.72 71.3522 314.761 75.6324 311.112 75.6324V56.5117C314.762 56.5117 317.72 60.7919 317.72 66.0721Z" fill="#FBB99F"/>
<path d="M231.101 66.0721C231.101 71.3522 234.274 75.6324 238.189 75.6324V56.5117C234.274 56.5117 231.101 60.7919 231.101 66.0721Z" fill="#FBB99F"/>
<path opacity="0.2" d="M255.134 101.476V125.356C259.972 129.573 266.877 132.216 274.53 132.216C282.182 132.216 289.088 129.573 293.926 125.356V101.476C293.926 91.1352 285.248 82.7617 274.53 82.7617C269.171 82.7617 264.324 84.86 260.815 88.25C257.314 91.6297 255.134 96.3108 255.134 101.476Z" fill="#E5332A"/>
<path d="M251.18 89.8594C252.198 89.0045 252.784 87.7842 252.751 86.4928C252.749 86.4331 252.748 86.3742 252.748 86.3163C252.748 79.7298 262.5 74.3906 274.529 74.3906C286.558 74.3906 296.31 79.7298 296.31 86.3163C296.31 86.3729 296.309 86.4301 296.308 86.4883C296.276 87.7831 296.864 89.0061 297.884 89.8635C301.919 93.256 304.333 97.5453 304.333 102.213C304.333 113.199 290.99 122.104 274.529 122.104C258.069 122.104 244.726 113.199 244.726 102.213C244.726 97.5438 247.142 93.2526 251.18 89.8594Z" fill="#7C4416"/>
<path d="M274.53 92.0275C269.269 92.0275 265.003 89.3062 265.003 85.9492H284.057C284.057 89.3062 279.792 92.0275 274.53 92.0275Z" fill="white"/>
<path d="M286.203 55.5627C286.203 58.6837 287.853 61.2089 289.882 61.2089C291.918 61.2089 293.561 58.6837 293.561 55.5627C293.561 54.1724 293.232 52.8814 292.684 51.8884C292.214 51.0514 291.589 50.413 290.868 50.1152C290.558 49.9733 290.223 49.9023 289.882 49.9023C287.853 49.9023 286.203 52.4417 286.203 55.5627Z" fill="#422918"/>
<path d="M289.882 55.5607L292.684 51.8864C292.214 51.0495 291.589 50.4111 290.867 50.1133L289.882 55.5607Z" fill="white"/>
<path d="M255.403 55.5627C255.403 58.6837 257.053 61.2089 259.082 61.2089C261.118 61.2089 262.761 58.6837 262.761 55.5627C262.761 54.1724 262.432 52.8814 261.885 51.8884C261.414 51.0514 260.789 50.413 260.068 50.1152C259.759 49.9733 259.423 49.9023 259.082 49.9023C257.053 49.9023 255.403 52.4417 255.403 55.5627Z" fill="#422918"/>
<path d="M259.082 55.5607L261.885 51.8864C261.414 51.0495 260.789 50.4111 260.068 50.1133L259.082 55.5607Z" fill="white"/>
<path d="M301.606 47.4379C297.861 46.3275 289.539 43.9651 286.176 43.8591C285.795 43.847 285.633 43.3475 285.948 43.1227C287.953 41.6896 293.097 39.6683 301.947 46.7189C302.289 46.9913 302.021 47.5608 301.606 47.4379Z" fill="#683B11"/>
<path d="M248.467 46.5461C252.178 45.6119 261.13 43.4604 264.449 43.5729C264.781 43.5841 264.927 43.1572 264.666 42.9437C262.804 41.418 257.662 38.8979 248.195 45.9072C247.89 46.1336 248.102 46.638 248.467 46.5461Z" fill="#683B11"/>
<path opacity="0.2" d="M241.021 50.9827C241.021 51.4197 241.024 51.854 241.032 52.2856C246.942 42.271 259.521 24.4029 272.921 26.7312C272.921 26.7312 293.637 42.6725 308.88 44.1926C308.691 42.2132 308.42 40.2726 308.077 38.373C304.228 17.2279 290.923 9.09375 275.111 9.09375C260.951 9.09375 248.816 14.1298 243.659 31.9047C241.96 37.7682 241.021 44.2173 241.021 50.9827Z" fill="#E5332A"/>
<path d="M272.92 23.5267C272.92 23.5267 302.176 46.0417 316.736 40.1085C331.296 34.1753 319.365 6.86884 313.166 9.09382C306.968 11.3188 292.54 7.08465 292.54 7.08465C292.54 7.08465 266.585 -3.77007 256.424 1.39241C244.849 7.27328 238.852 20.0842 237.416 28.9841C235.981 37.8837 237.503 55.5564 237.503 55.5564C237.503 55.5564 254.432 20.3128 272.92 23.5267Z" fill="#7C4416"/>
<path opacity="0.2" d="M286.203 21.2422C286.203 21.2422 307.618 36.3665 313.167 30.6884C313.167 30.6884 297.531 27.0651 286.203 21.2422Z" fill="#3C3C3B"/>
<path d="M278.115 50.7524V62.2691C278.115 64.9066 280.693 67.0447 283.874 67.0447H301.908C304.894 67.0447 307.385 65.1516 307.645 62.6843L308.857 51.1674C309.151 48.3767 306.498 45.9766 303.12 45.9766H283.874C280.693 45.9768 278.115 48.1149 278.115 50.7524ZM280.669 51.6315C280.669 49.3967 282.82 47.5851 285.472 47.5851H301.522C304.339 47.5851 306.551 49.6188 306.306 51.9834L305.295 61.7418C305.079 63.8323 303.002 65.4366 300.511 65.4366H285.471C282.819 65.4366 280.669 63.625 280.669 61.3901L280.669 51.6315Z" fill="#394859"/>
<path d="M266.645 45.9766H247.399C244.021 45.9766 241.368 48.3765 241.662 51.1673L242.874 62.6843C243.133 65.1514 245.624 67.0446 248.611 67.0446H266.645C269.825 67.0446 272.403 64.9066 272.403 62.2691V50.7523C272.403 48.1146 269.825 45.9766 266.645 45.9766ZM269.849 61.3899C269.849 63.6248 267.699 65.4363 265.047 65.4363H250.008C247.517 65.4363 245.44 63.8323 245.223 61.7416L244.212 51.9832C243.967 49.6185 246.18 47.5849 248.997 47.5849H265.047C267.699 47.5849 269.849 49.3964 269.849 51.6313V61.3899Z" fill="#394859"/>
<path d="M278.642 52.7438H271.861C271.333 52.7438 270.901 52.3119 270.901 51.784C270.901 51.2561 271.333 50.8242 271.861 50.8242H278.642C279.17 50.8242 279.601 51.2561 279.601 51.784C279.601 52.3119 279.169 52.7438 278.642 52.7438Z" fill="#394859"/>
<path d="M257.139 701.714L255.32 712.065L254.306 717.843C254.035 719.399 252.812 720.545 251.358 720.609L176.675 723.916C176.205 723.936 175.752 723.887 175.319 723.771C174.633 723.594 174.001 723.259 173.461 722.801C172.568 722.054 171.919 720.983 171.667 719.757C171.547 719.188 171.514 718.585 171.582 717.964C171.7 716.892 171.972 715.735 172.479 714.541C172.54 714.395 172.623 714.25 172.729 714.097C176.949 707.995 215.723 696.587 225.253 693.853C226.634 693.459 228.085 693.383 229.499 693.631L254.472 698.015L254.555 698.03C256.286 698.335 257.443 699.983 257.139 701.714Z" fill="#394859"/>
<path d="M257.873 698.971L255.32 712.066L254.576 715.89L186.251 718.614L178.891 718.907C178.76 718.912 178.632 718.915 178.504 718.91C175.531 718.848 173.227 716.706 172.729 714.098C172.515 712.994 172.629 711.81 173.149 710.662C173.172 710.615 173.192 710.568 173.214 710.522C175.752 705.14 216.219 694.413 225.988 691.893C227.369 691.536 228.818 691.467 230.234 691.691L255.29 695.654C256.065 695.777 256.724 696.141 257.189 696.649C257.763 697.272 258.042 698.112 257.873 698.971Z" fill="#1573BA"/>
<path opacity="0.2" d="M257.873 698.971L255.32 712.065L254.306 717.843C254.034 719.399 252.812 720.545 251.358 720.609L176.675 723.916C176.204 723.936 175.752 723.887 175.319 723.771C174.622 723.436 173.999 723.111 173.46 722.801C172.568 722.054 171.919 720.983 171.667 719.757C172.638 719.232 174.826 718.929 178.503 718.909C178.632 718.914 178.76 718.912 178.891 718.907C181.32 718.907 183.78 718.804 186.25 718.614C214.936 716.419 245.377 702.47 254.472 698.015C256.228 697.156 257.189 696.648 257.189 696.648C257.762 697.271 258.041 698.111 257.873 698.971Z" fill="#2D2E82"/>
<path d="M387.641 709.385C384.81 716.615 368.702 721.294 360.475 721.987C359.123 722.098 357.987 722.099 357.153 721.996C351.242 721.241 339.325 706.306 339.325 706.306L333.315 691.777C332.501 689.809 332.741 687.242 334.433 686.439C348.385 679.819 355.994 681.306 360.457 681.039C361.776 680.962 363.119 681.484 364.185 682.484C369.245 687.197 382.028 698.809 387.641 709.385Z" fill="#1573BA"/>
<path d="M389.685 715.481C389.489 723.998 361.705 731.717 357.452 728.813C351.707 724.891 340.82 709.932 340.82 709.932L339.321 706.309C339.321 706.309 351.244 721.241 357.15 722C363.056 722.759 384.34 717.798 387.642 709.387C388.865 711.67 389.724 713.761 389.685 715.481Z" fill="#394859"/>
<path opacity="0.2" d="M361.886 721.837C365.058 721.779 357.987 722.098 357.153 721.995C351.242 721.239 339.325 706.305 339.325 706.305L333.124 691.223C333.124 691.223 354.003 720.414 361.886 721.837Z" fill="#2D2E82"/>
<path d="M366.233 670.261L325.384 679.93C325.379 679.933 325.373 679.936 325.364 679.936L323.27 680.43C319.602 673.168 275.926 400.989 275.926 400.989C271.695 445.466 264.56 684.886 264.56 684.886L251.481 683.522L221.828 680.43C207.132 579.105 211.497 436.604 214.153 378.391C214.912 361.809 215.532 352.065 215.532 352.065L336.421 350.645C339.657 363.454 342.811 384.29 345.78 409.357C345.783 409.357 345.783 409.357 345.783 409.357C350.133 446.069 354.094 491.85 357.345 534.77C357.345 534.795 357.348 534.821 357.351 534.846C357.351 534.861 357.351 534.881 357.353 534.903C362.783 606.596 366.233 670.261 366.233 670.261Z" fill="#1573BA"/>
<path opacity="0.2" d="M275.926 400.989C271.695 445.466 264.56 684.886 264.56 684.886L251.481 683.522L246.656 680.43C246.656 680.43 273.945 405.842 268.217 384.656L275.926 400.989Z" fill="#2D2E82"/>
<path opacity="0.2" d="M345.78 409.357C345.26 409.025 290.082 373.967 214.153 378.391C214.912 361.809 215.532 352.065 215.532 352.065L336.42 350.645C339.657 363.454 342.811 384.29 345.78 409.357Z" fill="#2D2E82"/>
<path opacity="0.2" d="M366.232 670.26L325.384 679.929C365.016 668.33 357.637 539.63 357.353 534.902C362.783 606.594 366.232 670.26 366.232 670.26Z" fill="#2D2E82"/>
<path d="M340.541 305.721L343.576 381.065C331.185 387.464 318.145 391.521 305.302 393.942C304.117 394.167 302.932 394.377 301.75 394.573C301.745 394.573 301.736 394.573 301.73 394.576C301.708 394.582 301.685 394.584 301.662 394.587C255.889 402.168 213.666 389.703 213.666 389.703L212.535 312.316L212.305 307.841L210 263.188L209.77 258.701L208.378 231.705L208.182 227.917L207.863 221.734L204.656 159.572L203.277 155.554L242.364 138.633C277.774 183.528 304.103 137.92 304.93 136.463L304.95 136.426L343.576 153.31L343.414 161.456L342.099 227.5L341.53 255.982L341.527 256.11L340.541 305.721Z" fill="#2C9FF4"/>
<path d="M304.929 136.461L274.972 194.279L242.363 138.632C277.774 183.526 304.102 137.919 304.929 136.461Z" fill="white"/>
<path opacity="0.2" d="M229.526 305.295C221.357 324.733 213.398 353.136 213.665 389.703L212.535 312.316L212.304 307.841C207.528 308.369 203.093 308.693 198.967 308.841C197.225 284.016 196.898 263.211 199.62 259.369L209.77 258.701L208.378 231.705L208.182 227.917L199.62 259.369C199.62 259.369 195.941 242.826 207.863 221.734C208.92 219.859 210.105 217.949 211.424 216.012C211.424 216.012 219.618 240.082 229.7 257.392C235.133 266.717 241.114 274.082 246.657 274.662C246.657 274.662 237.98 285.172 229.526 305.295Z" fill="#2D2E82"/>
<path opacity="0.2" d="M343.576 381.064C331.184 387.463 318.145 391.521 305.302 393.942C322.669 389.518 325.911 371.96 330.156 357.151C333.818 344.375 321.307 274.169 325.808 272.45C330.309 270.731 334.503 210.891 334.503 210.891L342.098 227.499L341.53 255.981L341.527 256.109L340.541 305.721L343.576 381.064Z" fill="#2D2E82"/>
<path d="M292.432 263.26L293.982 279.855C294.362 283.923 291.208 287.656 286.797 288.358L180.673 305.24C166.663 306.751 154.413 298.423 153.313 286.64C152.212 274.856 162.677 264.08 176.687 262.569L283.818 256.46C288.27 256.207 292.052 259.192 292.432 263.26Z" fill="#FBB99F"/>
<path d="M253.84 265.97L256.137 249.475C256.701 245.432 260.613 242.647 265.049 243.133L371.777 254.818C385.702 257.057 395.668 268.367 394.037 280.079C392.405 291.791 379.794 299.47 365.869 297.232L260.632 274.837C256.258 273.907 253.277 270.014 253.84 265.97Z" fill="#FBB99F"/>
<path opacity="0.2" d="M228.851 309.92C223.016 310.969 217.589 311.756 212.535 312.318L210.001 263.19L282.045 258.453C281.508 266.432 295.883 295.96 295.883 295.96C295.883 295.96 306.547 295.96 228.851 309.92Z" fill="#2D2E82"/>
<path d="M229.526 305.298C229.301 305.338 229.077 305.38 228.85 305.42C222.928 306.483 217.422 307.281 212.304 307.844C207.528 308.372 203.092 308.696 198.966 308.844C178.849 309.574 166.176 306.156 158.223 301.843C149.599 297.163 145.118 286.712 147.309 276.602C168.412 179.149 193.332 159.489 203.277 155.557C206.081 154.446 207.695 154.588 207.695 154.588L217.365 194.189L211.423 216.014L208.181 227.92L199.62 259.372L209.77 258.704L229.699 257.394L282.044 253.953C281.507 261.932 295.882 291.46 295.882 291.46C295.882 291.46 306.483 291.46 229.526 305.298Z" fill="#2C9FF4"/>
<path d="M254.371 269.835C254.371 269.835 237.438 258.305 219.296 258.119C219.296 258.119 236.276 242.135 259.081 244.652L254.371 269.835Z" fill="#FBB99F"/>
<path opacity="0.2" d="M260.309 243.887L341.527 256.113L340.541 305.725C295.11 294.18 251.123 280.862 251.123 280.862C251.123 280.862 253.099 246.788 260.309 243.887Z" fill="#2D2E82"/>
<path d="M343.575 153.312C343.575 153.312 374.411 171.685 396.125 274.667C399.078 288.674 390.202 302.443 376.936 304.218C369.921 305.156 360.659 304.657 348.442 301.588C301.595 289.823 254.923 275.692 254.923 275.692C254.923 275.692 256.9 241.618 264.108 238.715L345.394 250.952L328.34 213.904L343.575 153.312Z" fill="#2C9FF4"/>
<path d="M351.223 248.297C350.734 246.562 349.029 245.582 347.414 246.107L330.032 251.763L329.716 250.641L349.354 244.251C350.968 243.726 351.881 241.894 351.392 240.16C350.903 238.425 349.198 237.445 347.583 237.97L327.908 244.372C327.794 244.076 327.664 243.792 327.522 243.518L345.074 237.807C346.689 237.282 347.601 235.45 347.112 233.715C346.623 231.981 344.918 231 343.304 231.526L319.82 239.166C319.648 239.223 319.485 239.296 319.33 239.38C319.109 239.425 318.887 239.481 318.666 239.547L322.636 236.505C324.749 234.886 325.12 232.493 323.464 231.161L322.843 230.661C321.188 229.33 318.133 229.562 316.02 231.182L300.102 243.381C299.04 244.195 298.419 245.205 298.274 246.177L298.005 246.265C293.902 247.6 291.583 252.255 292.826 256.663L296.231 268.742C297.473 273.15 301.807 275.641 305.91 274.306L322.085 269.043L345.569 261.402C347.183 260.877 348.096 259.045 347.606 257.311C347.118 255.576 345.412 254.596 343.798 255.121L331.886 258.997C331.862 258.684 331.824 258.37 331.766 258.056L349.185 252.388C350.799 251.863 351.712 250.031 351.223 248.297Z" fill="#FBB99F"/>
<path d="M294.013 243.219L347.462 252.949L354.345 261.592L295.882 278.163L289.67 250.652L294.013 243.219Z" fill="#2C9FF4"/>
<path d="M316.707 254.842C313.743 257.211 310.087 258.207 306.408 257.646L301.15 256.844L301.685 253.398L306.942 254.2C309.699 254.62 312.441 253.874 314.661 252.098C316.873 250.329 318.261 247.786 318.573 244.933L320.203 218.487L320.911 206.993L320.915 206.953C322.095 195.848 316.149 187.061 306.46 185.584C296.768 184.106 288.436 190.716 286.196 201.659L286.177 201.737L283.379 212.872L276.916 238.581C276.349 241.394 276.904 244.235 278.476 246.581C280.057 248.936 282.446 250.465 285.203 250.885L290.215 251.649L289.681 255.095L284.668 254.331C280.989 253.77 277.801 251.731 275.694 248.588C273.586 245.443 272.85 241.635 273.622 237.864L273.64 237.786L280.031 212.361L282.901 200.939C284.134 194.957 287.126 189.778 291.327 186.352C295.791 182.712 301.208 181.255 306.994 182.137C312.778 183.019 317.503 186.023 320.657 190.825C323.625 195.343 324.91 201.175 324.274 207.248L323.551 218.997L321.938 245.191L321.932 245.23C321.527 249.058 319.672 252.471 316.707 254.842Z" fill="#D9D9D9"/>
<path d="M290.547 255.582L285.957 254.882C285.491 254.81 285.171 254.378 285.242 253.915L285.65 251.289C285.722 250.826 286.158 250.509 286.624 250.58L291.214 251.28C291.68 251.351 292 251.784 291.928 252.246L291.521 254.873C291.449 255.335 291.013 255.653 290.547 255.582Z" fill="#394859"/>
<path d="M305.424 257.847L300.834 257.147C300.368 257.076 300.048 256.644 300.119 256.181L300.527 253.554C300.598 253.092 301.035 252.775 301.501 252.846L306.091 253.546C306.557 253.617 306.877 254.05 306.805 254.512L306.398 257.139C306.326 257.601 305.89 257.918 305.424 257.847Z" fill="#394859"/>
<path d="M323.551 218.997L320.203 218.487L320.911 206.993L320.915 206.953C322.095 195.848 316.149 187.061 306.46 185.583C296.769 184.105 288.436 190.715 286.196 201.659L286.177 201.737L283.379 212.871L280.031 212.361L282.902 200.939C284.134 194.957 287.127 189.778 291.327 186.352C295.791 182.712 301.208 181.255 306.994 182.137C312.778 183.019 317.503 186.023 320.657 190.825C323.626 195.343 324.91 201.175 324.275 207.248L323.551 218.997Z" fill="#394859"/>
<path d="M308.121 184.137L305.638 183.583C311.877 156.145 307.775 143.055 303.235 136.906C298.962 131.118 294.039 130.652 293.987 130.648L293.946 128.098C294.205 128.12 300.34 128.713 305.289 135.416C308.386 139.612 310.324 145.271 311.049 152.236C311.949 160.898 310.964 171.631 308.121 184.137Z" fill="#394859"/>
<path d="M248.147 187.502C243.314 173.473 240.807 161.592 240.695 152.188C240.607 144.718 242.019 138.783 244.893 134.549C249.001 128.495 254.86 128.111 255.096 128.098V130.626C254.907 130.639 250.331 130.991 246.952 136.035C242.781 142.262 240.02 156.105 250.555 186.686L248.147 187.502Z" fill="#394859"/>
<path d="M250.989 199.209C255.855 199.209 259.8 195.298 259.8 190.474C259.8 185.649 255.855 181.738 250.989 181.738C246.123 181.738 242.179 185.649 242.179 190.474C242.179 195.298 246.123 199.209 250.989 199.209Z" fill="#394859"/>
<path d="M250.989 196.161C254.156 196.161 256.724 193.616 256.724 190.475C256.724 187.335 254.156 184.789 250.989 184.789C247.822 184.789 245.254 187.335 245.254 190.475C245.254 193.616 247.822 196.161 250.989 196.161Z" fill="#D9D9D9"/>
<path opacity="0.2" d="M299.314 394.834C299.388 394.826 299.468 394.817 299.556 394.809C299.468 394.82 299.386 394.828 299.314 394.834Z" fill="#2D2E82"/>
<path opacity="0.2" d="M299.892 394.774C300.346 394.723 300.954 394.661 301.73 394.578C301.707 394.584 301.685 394.587 301.662 394.59C300.94 394.663 300.343 394.726 299.892 394.774Z" fill="#2D2E82"/>
<path d="M261.496 214.18H223.231V236.684H261.496V214.18Z" fill="white"/>
<path d="M258.086 218.547H241.174V221.411H258.086V218.547Z" fill="#D9D9D9"/>
<path d="M252.699 224.344H241.174V227.208H252.699V224.344Z" fill="#D9D9D9"/>
<path d="M231.559 230.684C234.233 230.684 236.4 227.845 236.4 224.342C236.4 220.839 234.233 218 231.559 218C228.885 218 226.717 220.839 226.717 224.342C226.717 227.845 228.885 230.684 231.559 230.684Z" fill="#D9D9D9"/>
<path d="M237.556 209.066H247.171V211.929C247.171 214.02 245.476 215.715 243.384 215.715H241.342C239.251 215.715 237.556 214.02 237.556 211.929V209.066Z" fill="#394859"/>
</svg>
