<svg width="68" height="13" viewBox="0 0 68 13" fill="none" xmlns="http://www.w3.org/2000/svg">
<path d="M0 0H12.75V12.9931H0V0ZM13.8125 0H26.5625V12.9931H13.8125V0ZM27.625 0H40.375V12.9931H27.625V0ZM41.4375 0H54.1875V12.9931H41.4375V0ZM55.25 0H68V12.9931H55.25V0Z" fill="#00B67A"/>
<path d="M6.37461 8.75561L8.31367 8.25484L9.12383 10.7993L6.37461 8.75561ZM10.8371 5.46674H7.42383L6.37461 2.19141L5.32539 5.46674H1.91211L4.67461 7.49691L3.62539 10.7722L6.38789 8.74208L8.08789 7.49691L10.8371 5.46674ZM20.1871 8.75561L22.1262 8.25484L22.9363 10.7993L20.1871 8.75561ZM24.6496 5.46674H21.2363L20.1871 2.19141L19.1379 5.46674H15.7246L18.4871 7.49691L17.4379 10.7722L20.2004 8.74208L21.9004 7.49691L24.6496 5.46674ZM33.9996 8.75561L35.9387 8.25484L36.7488 10.7993L33.9996 8.75561ZM38.4621 5.46674H35.0488L33.9996 2.19141L32.9504 5.46674H29.5371L32.2996 7.49691L31.2504 10.7722L34.0129 8.74208L35.7129 7.49691L38.4621 5.46674ZM47.8121 8.75561L49.7512 8.25484L50.5613 10.7993L47.8121 8.75561ZM52.2746 5.46674H48.8613L47.8121 2.19141L46.7629 5.46674H43.3496L46.1121 7.49691L45.0629 10.7722L47.8254 8.74208L49.5254 7.49691L52.2746 5.46674ZM61.6246 8.75561L63.5637 8.25484L64.3738 10.7993L61.6246 8.75561ZM66.0871 5.46674H62.6738L61.6246 2.19141L60.5754 5.46674H57.1621L59.9246 7.49691L58.8754 10.7722L61.6379 8.74208L63.3379 7.49691L66.0871 5.46674Z" fill="white"/>
</svg>
