<svg width="14" height="14" viewBox="0 0 14 14" fill="none" xmlns="http://www.w3.org/2000/svg">
<path fill-rule="evenodd" clip-rule="evenodd" d="M3.91475 5.60396C4.13439 5.37663 4.49057 5.37663 4.71025 5.60396L6.56248 7.52076L12.1647 1.72323C12.3844 1.4959 12.7406 1.4959 12.9602 1.72323C13.1799 1.95056 13.1799 2.31912 12.9602 2.54645L6.96025 8.75562C6.74057 8.98294 6.38443 8.98294 6.16475 8.75562L3.91475 6.42718C3.69508 6.19985 3.69508 5.83129 3.91475 5.60396Z" fill="black"/>
<path fill-rule="evenodd" clip-rule="evenodd" d="M6.5625 1.16422C3.55945 1.16422 1.125 3.68354 1.125 6.79127C1.125 9.899 3.55945 12.4183 6.5625 12.4183C9.56555 12.4183 12 9.899 12 6.79127C12 6.46976 12.2518 6.20916 12.5625 6.20916C12.8732 6.20916 13.125 6.46976 13.125 6.79127C13.125 10.542 10.1869 13.5825 6.5625 13.5825C2.93813 13.5825 0 10.542 0 6.79127C0 3.04056 2.93813 0 6.5625 0C7.33855 0 8.08429 0.13965 8.77679 0.396478C9.06925 0.504938 9.22135 0.838198 9.11655 1.14086C9.01176 1.44348 8.6897 1.60088 8.39727 1.49243C7.8248 1.28012 7.20737 1.16422 6.5625 1.16422Z" fill="black"/>
</svg>
