<svg width="40" height="40" viewBox="0 0 40 40" fill="none" xmlns="http://www.w3.org/2000/svg">
<path d="M24.3171 24.4511C24.3171 23.9155 23.5273 23.8383 23.1131 24.2535C22.6688 24.6984 22.706 25.5618 23.2664 25.8211C23.4578 25.9111 23.6772 25.909 23.8742 25.8211C24.3684 25.6024 24.5812 24.9633 24.3539 24.5148C24.3427 24.493 24.3303 24.4718 24.3171 24.4511Z" fill="#F3A391"/>
<path d="M28.5808 24.452C28.5808 23.9127 27.7871 23.8444 27.3762 24.2544C26.9328 24.6998 26.9695 25.5629 27.5301 25.8221C28.229 26.1505 28.982 25.2327 28.6175 24.5158C28.6063 24.494 28.594 24.4727 28.5808 24.452Z" fill="#F3A391"/>
<path d="M33.6178 24.4515C33.6178 23.9137 32.8252 23.8438 32.4141 24.2544C31.9697 24.6995 32.0065 25.5629 32.5672 25.8221C32.7527 25.9093 32.9709 25.9125 33.1744 25.8227C33.6694 25.6036 33.8826 24.9643 33.6543 24.5152C33.6431 24.4934 33.631 24.4722 33.6178 24.4515Z" fill="#F3A391"/>
<path d="M34.5149 17.8911C32.5458 16.6949 30.0089 16.0292 27.3385 16.1873C27.4007 15.8596 27.3631 15.3559 27.3683 15.1428C27.3905 14.226 27.2978 13.307 27.1009 12.4115C26.6994 10.585 25.8543 9.08174 24.6631 7.63923C22.6158 5.15991 19.7128 3.8325 16.5206 3.44751C11.148 2.79958 5.14615 4.41811 2.38052 8.99543C0.235451 12.55 0.347314 17.3209 3.84536 20.8331C5.01033 27.558 4.56523 28.0253 5.23093 28.282C5.40572 28.3492 5.51681 28.3293 5.64985 28.287C6.01128 28.3927 6.37814 28.4801 6.75175 28.5275C7.78996 27.275 8.81725 25.9689 9.85197 24.6993C10.8726 25.251 12.9487 25.5592 13.9979 25.5734C15.2746 25.5908 16.551 25.3916 17.7666 25.0006C17.699 25.7738 17.8813 26.5984 18.0624 27.3451C18.7329 30.1098 20.8057 32.2719 23.4104 33.4158C25.8979 34.5082 28.4696 34.5158 31.2044 33.7722C31.5543 34.4397 32.0398 35.2154 32.2989 35.7508C32.5447 36.2585 33.0375 36.601 33.6002 36.6407C33.805 36.6551 34.0032 36.6645 34.1578 36.6582C34.2566 36.6839 34.3313 36.717 34.508 36.6546C35.1109 36.4402 34.7118 36.1988 35.8168 31.5855C37.9991 29.9794 39.2404 27.2232 39.0209 24.5024C38.777 21.4783 37.0665 19.251 34.5149 17.8911ZM4.69037 20.543C4.67458 20.4517 4.63035 20.3678 4.564 20.3034C1.31824 17.1294 1.1405 12.7578 3.13592 9.45154C6.50888 3.86812 15.602 2.74485 21.0805 6.23061C24.6395 8.49498 26.5618 12.7596 25.668 16.3982C24.5434 16.6169 23.4951 16.9816 22.5557 17.4978C20.2581 18.7644 18.5605 21.0235 18.048 23.4399C15.4395 24.1527 12.4455 24.067 10.2706 23.4411C9.82393 23.3124 9.21272 23.1372 8.69744 23.4916C8.05885 23.9232 8.02432 24.5082 5.64166 27.1267C5.40298 25.1989 5.12552 23.0327 4.69037 20.543ZM34.1346 35.4057C33.9143 35.1047 33.7138 34.8043 33.5059 34.4929C32.0978 32.3832 31.9086 32.1037 30.6626 32.3761C25.4745 33.4809 19.737 30.7304 18.8543 26.0813C18.2789 23.0726 20.146 19.8335 22.9811 18.271C25.7623 16.7428 29.527 16.6598 32.5655 17.9C38.3037 20.2121 39.5226 26.5496 35.3375 30.184C35.27 30.2431 35.2217 30.3207 35.1996 30.4074C34.6978 32.3674 34.3856 33.9575 34.1346 35.4057Z" fill="black"/>
<path d="M6.64051 11.4257C10.7061 11.6954 14.9233 11.7994 19.1957 11.7106C19.4392 11.7054 19.6325 11.5038 19.6276 11.2602C19.6222 11.0161 19.4177 10.8167 19.1773 10.8282C15.0344 10.9144 10.8363 10.8196 6.69911 10.5456C6.45611 10.5324 6.24558 10.7128 6.22949 10.9563C6.21341 11.1993 6.39752 11.4096 6.64051 11.4257Z" fill="#F3A391"/>
<path d="M14.7853 15.4336L8.14147 15.6381C7.8979 15.6456 7.70661 15.8495 7.71408 16.0931C7.72126 16.332 7.91743 16.5205 8.15468 16.5205H8.16847L14.8123 16.3159C15.3686 16.2989 15.3995 15.4522 14.7853 15.4336Z" fill="#F3A391"/>
</svg>
