<svg width="42" height="42" viewBox="0 0 42 42" fill="none" xmlns="http://www.w3.org/2000/svg">
<path d="M10.8752 14.1398C11.6663 14.7933 12.707 15.0847 13.6347 14.9111C12.711 14.7436 11.9153 14.2742 11.4029 13.6127C10.8772 12.9629 10.6469 12.148 10.6996 11.3797C10.7914 9.82172 12.1653 8.56622 13.6361 8.61423C15.1063 8.56935 16.4793 9.8254 16.57 11.3812C16.623 12.1486 16.3915 12.9629 15.8657 13.6118C15.3536 14.2731 14.5582 14.7423 13.6347 14.9111C14.5626 15.086 15.6034 14.7946 16.3959 14.1423C17.1845 13.4874 17.7147 12.4657 17.7619 11.3817C17.8383 10.2979 17.4026 9.183 16.6437 8.37401C15.8755 7.56721 14.7589 7.09535 13.6368 7.08789C12.5154 7.09661 11.3968 7.56474 10.6301 8.37368C9.87018 9.18192 9.43714 10.2969 9.51232 11.3797C9.55888 12.4628 10.0878 13.4844 10.8752 14.1398Z" fill="#F3A391"/>
<path d="M2.99647 34.6282C3.31061 34.6911 3.42909 34.6569 3.58971 34.6689L4.90733 34.6849C4.98237 35.4759 5.32653 36.2509 5.87973 36.8443C6.56767 37.5744 7.57549 37.9976 8.58583 38.0072C9.59682 37.9997 10.6034 37.5736 11.2933 36.8458C11.8185 36.2812 12.1676 35.5534 12.2659 34.8032C18.0173 34.8522 23.7687 34.8831 29.5202 34.8889C29.6329 35.6082 29.9758 36.302 30.4813 36.8443C31.1692 37.5744 32.177 37.9976 33.1874 38.0072C34.1984 37.9997 35.2049 37.5736 35.8949 36.8458C36.4015 36.3012 36.7462 35.6049 36.8582 34.883L38.1945 34.8791C38.4534 34.8784 38.5049 34.88 38.6175 34.8717C38.6967 34.8631 38.7761 34.8516 38.8534 34.83C39.4648 34.6744 39.9437 34.1127 39.9501 33.4254L39.9491 32.9417L39.9245 29.136C39.9166 28.8004 39.9303 28.5463 39.9041 28.1312C39.8072 26.9636 39.1932 25.8919 38.2598 25.221C37.6418 24.7718 36.8903 24.5097 36.1321 24.4721L35.8755 24.4642C35.568 24.4621 35.302 24.2609 35.1976 23.9839L35.1892 23.9617L35.172 23.9223C35.1327 23.8431 31.6727 16.8692 31.8891 17.3054C31.7255 17.0101 31.5078 16.7452 31.2472 16.5334C30.7373 16.1021 30.0433 15.8805 29.4054 15.9073L26.1349 15.9779L22.8643 16.0646L22.4555 16.0769L22.2511 16.083C22.1929 16.0861 22.1106 16.0822 22.0002 16.1014C21.5965 16.1671 21.2785 16.5241 21.2498 16.9196C21.2623 17.3518 21.3542 21.3519 21.5197 25.1247C21.6154 22.9444 21.6853 20.764 21.7458 18.5836L21.7968 16.9774C21.8197 16.8259 21.952 16.703 22.0942 16.6929C22.1726 16.695 26.4002 16.8063 26.1349 16.7993L29.4054 16.8698C29.8572 16.8729 30.2613 17.034 30.5757 17.3185C30.7317 17.4585 30.8616 17.6254 30.9554 17.8106C30.9913 17.889 34.2085 24.9158 34.0078 24.4775L33.9824 24.4161C34.2517 25.1911 34.9815 25.7537 35.8364 25.782L36.0552 25.7924C36.5633 25.8273 37.0544 26.0098 37.4577 26.3135C37.6473 26.4554 37.8138 26.6243 37.9577 26.8105C37.7323 26.7845 37.5069 26.7443 37.2815 26.7258L37.175 26.7171C36.9479 26.7084 36.7281 26.7817 36.5522 26.9086C36.3094 27.078 36.1466 27.3711 36.132 27.676C36.116 28.0069 36.1178 28.257 36.1134 28.5516L36.1185 28.9776C36.1207 29.0689 36.1162 29.0741 36.1271 29.2361C36.1718 29.7068 36.5311 30.0895 36.9833 30.1605C37.0497 30.1728 37.1529 30.1754 37.1901 30.1726L37.2966 30.1664L37.5096 30.15C37.8389 30.1226 38.1682 30.0685 38.4975 30.0244L38.4786 32.9417L38.4769 33.3979C38.4626 33.3985 38.2088 33.3975 38.1945 33.3974L36.9666 33.3938C36.8205 32.6491 36.4539 31.9453 35.9158 31.4091C35.2075 30.6897 34.1986 30.2688 33.1877 30.2704C32.1747 30.2607 31.1622 30.6838 30.454 31.4049C29.9166 31.941 29.5496 32.6439 29.4027 33.3879C23.6957 33.3941 17.9887 33.4246 12.2816 33.4732C12.1411 32.7247 11.7783 32.0178 11.2356 31.4877C10.5385 30.7974 9.55846 30.4047 8.58597 30.4183C7.61189 30.4233 6.64868 30.836 5.97719 31.5294C5.43685 32.0773 5.09367 32.8016 4.97902 33.5573C4.9765 33.5683 4.97613 33.5798 4.9737 33.5908L3.58971 33.6075C3.17228 33.6157 3.22439 33.6165 3.12506 33.5427C3.09551 33.5074 3.07328 33.4664 3.07058 33.4178L3.06158 32.9637C3.03184 31.1957 2.94811 26.2187 2.95019 26.3421L2.94222 25.8691C2.93979 25.7768 2.95769 25.7137 3.00188 25.6462C3.0435 25.5808 3.11029 25.533 3.18286 25.5064C3.22453 25.4931 3.2483 25.4893 3.31038 25.4864C3.38726 25.485 4.56972 25.4635 4.49284 25.4649L6.38469 25.4305C11.4297 25.3344 16.4747 25.262 21.5197 25.1247C19.036 25.0571 16.5524 25.0057 14.0687 24.959C14.1004 24.9364 14.1303 24.9115 14.1587 24.8835C14.1785 24.8639 14.2039 24.8533 14.2219 24.8311L14.2232 24.8295L14.2263 24.8269C14.2429 24.8061 14.258 24.7847 14.2746 24.764C14.7693 24.1497 15.2504 23.5167 15.7228 22.8765C16.5806 21.7364 17.4149 20.5815 18.192 19.377C19.3889 17.4745 20.5584 15.5247 21.2556 13.2826C22.0115 10.8939 21.1975 8.37821 19.7174 6.60126C18.1969 4.83064 15.8672 3.8376 13.6387 4.01215C15.8562 4.18507 17.932 5.30493 19.1324 7.06138C19.7447 7.92061 20.1658 8.9027 20.3476 9.92269C20.3924 10.1775 20.4076 10.4369 20.443 10.6916C20.4418 10.948 20.4664 11.2123 20.447 11.4597C20.4052 11.7026 20.3967 11.939 20.3371 12.184L20.1242 12.9233C19.3746 14.8917 18.2243 16.7793 16.9891 18.5819C15.9409 20.1306 14.8075 21.641 13.6386 23.1032C12.4695 21.6405 11.334 20.131 10.2871 18.5806C9.05 16.7787 7.90063 14.8901 7.15014 12.922L6.93695 12.183C6.87753 11.938 6.86877 11.7018 6.82696 11.459C6.80775 11.2115 6.83218 10.9474 6.83101 10.691C6.86699 10.4364 6.88261 10.1771 6.92726 9.92231C7.10941 8.90275 7.53024 7.92033 8.14398 7.06208C9.34508 5.30605 11.4208 4.18642 13.6387 4.01215C11.4096 3.83657 9.07913 4.82924 7.55578 6.59874C6.07376 8.3756 5.25732 10.8924 6.0142 13.2829C6.7116 15.5264 7.88414 17.4752 9.08091 19.3785C9.82902 20.5337 10.6274 21.6445 11.4485 22.7408C11.9662 23.4464 12.4956 24.1447 13.0478 24.8304C13.0797 24.8695 13.1185 24.9088 13.1592 24.942C13.0821 24.9405 3.13822 24.7598 3.54687 24.7673L3.31038 24.763C3.21511 24.7613 3.08041 24.7718 2.97102 24.8057C2.74334 24.8729 2.53668 25.013 2.39573 25.2057C2.25157 25.3923 2.17425 25.6461 2.17639 25.8691C2.17448 25.9825 2.11915 29.2714 2.12069 29.1799L2.05703 32.9637L2.05078 33.4554C2.05512 33.7229 2.15626 33.9901 2.32381 34.2C2.49305 34.4085 2.73062 34.5654 2.99647 34.6282ZM37.2182 27.7458C37.2124 27.7498 37.2091 27.7599 37.2036 27.7596C37.1962 27.7602 37.1886 27.759 37.1816 27.756C37.1816 27.756 37.1732 27.7534 37.175 27.7493L37.2182 27.7458ZM37.1901 29.115C37.1563 29.1121 37.185 29.1095 37.185 29.1095C37.2008 29.1066 37.2107 29.1117 37.2208 29.1168L37.1901 29.115ZM37.5096 29.1377L37.2966 29.1213L37.2515 29.1186C37.2531 29.0701 37.2538 28.986 37.2588 28.5516L37.2428 27.7438L37.2815 27.7407C37.6461 27.7108 38.0108 27.6537 38.3754 27.6036C38.4432 27.8104 38.4893 28.0219 38.5037 28.2386C38.5163 28.4567 38.5028 28.8376 38.5032 29.136L38.5024 29.2638C38.1715 29.2195 37.8405 29.1652 37.5096 29.1377ZM30.8355 34.1382C30.8368 33.5186 31.0902 32.9125 31.5292 32.4778C31.9671 32.0415 32.5704 31.7945 33.1863 31.7918C33.8043 31.7884 34.4109 32.0369 34.8495 32.4742C35.2898 32.9097 35.5439 33.517 35.5451 34.1382V34.1426C35.5455 34.2663 35.5835 34.3779 35.6373 34.4805C35.3828 35.6421 34.3208 36.5168 33.1874 36.4809C32.0562 36.5183 30.9952 35.648 30.7368 34.4896C30.7944 34.3832 30.8356 34.2675 30.8355 34.1382ZM6.80291 32.3533C7.27757 31.8893 7.93009 31.6318 8.58494 31.6439C9.24129 31.6525 9.87684 31.9292 10.3267 32.3956C10.7804 32.8583 11.0366 33.4948 11.029 34.1382V34.1402C11.0284 34.204 11.0472 34.262 11.0638 34.3205C10.8768 35.5609 9.77062 36.5185 8.58583 36.4809C7.34194 36.5221 6.17155 35.4693 6.07362 34.1383C6.06183 34.0273 6.06947 33.9145 6.07348 33.8021C6.15556 33.2537 6.40673 32.7366 6.80291 32.3533Z" fill="black"/>
<path d="M23.2656 24.8662C23.2827 25.0766 23.4661 25.2345 23.6772 25.2196C25.149 25.1156 26.6208 24.9964 28.0926 24.803C26.7675 24.6289 25.4425 24.5182 24.1174 24.4213C24.1865 23.5057 24.2445 22.59 24.2886 21.6744C24.334 20.8757 24.3546 20.0772 24.3786 19.2785L26.867 19.3082C26.9439 19.3075 29.1947 19.2858 29.0515 19.2872L29.0804 19.3458C29.9661 21.0593 30.8663 22.7649 31.8264 24.4387C30.5817 24.532 29.3371 24.6388 28.0926 24.803C29.5643 24.9972 31.0361 25.1175 32.5079 25.2214C32.8003 25.2408 33.0113 24.9526 32.9082 24.6822L32.8852 24.622C32.1266 22.6325 31.2753 20.6923 30.4171 18.756L30.2493 18.3961L30.2073 18.3061C30.2086 18.3137 30.1992 18.2753 30.1397 18.1785C30.0897 18.1014 30.0265 18.0328 29.9541 17.9771C29.8154 17.865 29.6127 17.8052 29.4587 17.8087C29.3818 17.8078 28.385 17.7972 28.4619 17.798L26.867 17.7832C26.7267 17.7849 23.4735 17.8237 23.6385 17.8217L23.624 17.8221C23.2388 17.8366 22.9382 18.1606 22.9526 18.5458C22.9918 19.5887 23.0063 20.6315 23.0656 21.6744C23.1632 23.6971 23.2598 24.7821 23.2656 24.8662Z" fill="black"/>
<path d="M24.5733 26.3858C24.2748 26.5068 23.9763 26.6664 23.6777 26.9863C23.9763 27.3062 24.2748 27.4658 24.5733 27.5867C25.1626 27.8076 25.7862 27.8017 26.3644 27.5846C26.663 27.4629 26.9615 27.3044 27.26 26.9863C26.9615 26.6682 26.663 26.5097 26.3644 26.3879C25.7869 26.1711 25.1634 26.1647 24.5733 26.3858Z" fill="black"/>
</svg>
