<svg width="39" height="36" viewBox="0 0 39 36" fill="none" xmlns="http://www.w3.org/2000/svg">
<path d="M1.38462 34.5385C1.92308 35 2.61538 35.3077 3.30769 35.3077H3.76923C4.53846 35.3077 11.7692 35.3077 11.6923 35.3077L25.0769 35.2308C26.0769 35.2308 21.3846 35.2308 35.0769 35.1539C35.7692 35.1539 36.4615 34.9231 37 34.5385C37.5385 34.1539 38 33.5385 38.2308 32.9231C38.3077 32.6154 38.3846 32.2308 38.3846 31.9231V31.0769V29.3846V26.1538L38.2308 19.4615L38.0769 12.7692L38 11.0769C38 10.4615 37.7692 9.92308 37.3846 9.46154C37 9 36.5385 8.69231 35.9231 8.53846C35.5385 8.46154 35.2308 8.46154 34.8462 8.46154C34.8462 8.15385 34.6923 3.84615 34.6923 4.07692C34.6923 3.84615 34.4615 3.61538 34.2308 3.61538C33.3077 3.69231 32.3846 3.30769 31.6923 2.69231C31 2.07692 30.5385 1.15385 30.4615 0.153846C30.4615 0.0769231 30.3846 0 30.2308 0C29.1538 0.0769231 28.0769 0.153846 26.9231 0.230769C27.9231 0.307692 29 0.384615 30 0.384615C30 1.38462 30.3846 2.46154 31.0769 3.23077C31.6923 3.92308 32.6923 4.46154 33.6154 4.53846L33.4615 8.46154C33.3846 9.84616 33.0769 11.1538 32.5385 12.3846C31.9231 13.6154 31.0769 14.6923 30 15.5385C29.5385 15.9231 28.9231 16.3077 28.2308 16.7692L27 17.7692C26.9231 17.6923 24.5385 16.1538 24.6923 16.2308C24.3846 16 24.1538 15.8462 23.8462 15.6154C21.7692 13.9231 20.4615 11.4615 20.3846 8.53846C20.3077 7.23077 20.3077 5.92308 20.3077 4.61539C21.3077 4.46154 22.2308 4 22.8462 3.30769C23.5385 2.53846 23.9231 1.46154 23.9231 0.461538C24.9231 0.384615 26 0.384616 27 0.307692C25.9231 0.230769 24.8462 0.153846 23.6923 0.076923C23.6154 0.076923 23.5385 0.153846 23.4615 0.230769C23.3846 1.23077 22.9231 2.15385 22.2308 2.76923C21.5385 3.38462 20.6154 3.76923 19.6923 3.69231C19.4615 3.69231 19.2308 3.84615 19.2308 4.15385V4.23077C19.1538 5.69231 19.1538 7.15385 19.0769 8.61539C14.8462 8.46154 10.5385 8.38462 6.30769 8.23077C6.23077 8.23077 3.61538 8.15385 3.76923 8.15385C3.53846 8.15385 3.15385 8.15385 2.84615 8.23077C1.53846 8.46154 0.461538 9.53846 0.307692 10.8462C0.230769 11.2308 0.307692 11.4615 0.230769 11.7692V12.6154C0.230769 12.7692 0.153846 17.6923 0.153846 17.6154C0.153846 20.5385 0.230769 10.1538 0 31.8462V32.3077C0 32.4615 0.0769231 32.6923 0.0769231 32.8462C0.461538 33.4615 0.846154 34.0769 1.38462 34.5385ZM3.15385 9C3.53846 8.92308 4.23077 8.92308 4.76923 8.92308H6.46154C10.6923 8.76923 15 8.69231 19.2308 8.53846C19.1538 10.0769 19.5385 11.6154 20.1538 13.0769C20.7692 14.5385 21.7692 15.7692 23 16.7692C23.4615 17.1538 24.2308 17.6923 24.8462 18.0769L26.5385 19.2308C26.6154 19.3077 26.7692 19.3846 26.9231 19.4615H27.0769C27.3077 19.4615 27.4615 19.3846 27.6154 19.2308C27.6923 19.1538 30.3846 17.3846 30.2308 17.4615C30.5385 17.2308 30.8462 17 31.1538 16.7692C33.6923 14.6923 35 11.5385 34.9231 8.53846C35.3077 8.53846 35.6154 8.53846 35.9231 8.69231C37 9 37.6923 10.0769 37.6923 11.0769V12.7692L37.5385 19.4615L37.3077 26.1538L37.2308 29.4615V31.1538V32C37.2308 32.2308 37.1538 32.4615 37.0769 32.6154C36.7692 33.4615 35.9231 34 35.0769 33.9231C21.3846 33.8462 26.1538 33.8462 25.0769 33.8462H11.7692C11.5385 33.8462 3.76923 33.8462 3.84615 33.8462C3.69231 33.8462 3.53846 33.8462 3.46154 33.8462C3.07692 33.8462 2.69231 33.6923 2.38462 33.3846C2.07692 33.1539 1.84615 32.7692 1.76923 32.3846C1.76923 32.3077 1.76923 32.1539 1.69231 32.0769C1.69231 31.7692 1.69231 31.9231 1.69231 30.9231L1.53846 17.5385L1.46154 10.9231C1.53846 10.0769 2.23077 9.23077 3.15385 9Z" fill="black"/>
<path d="M4.92285 26.3083C7.30747 26.616 9.76901 26.7698 12.1536 26.9237C14.5382 27.0775 16.9998 27.0775 19.3844 27.0775C21.769 27.0775 24.2305 27.0006 26.6152 26.9237C28.9998 26.8468 31.4613 26.616 33.8459 26.3083C31.4613 26.0006 28.9998 25.8468 26.6152 25.6929C24.2305 25.5391 21.769 25.5391 19.3844 25.5391C16.9998 25.5391 14.5382 25.616 12.1536 25.6929C9.76901 25.7698 7.30747 25.9237 4.92285 26.3083Z" fill="#F3A391"/>
<path d="M8.76901 29.6926C7.46131 29.7695 6.23054 30.0003 4.92285 30.308C6.23054 30.6157 7.46131 30.7695 8.76901 30.9234C11.4613 31.1541 13.9229 31.1541 16.3844 30.9234C17.6921 30.8465 18.9229 30.6157 20.2305 30.308C18.9229 30.0003 17.6921 29.8465 16.3844 29.6926C13.8459 29.4618 11.3844 29.4618 8.76901 29.6926Z" fill="#F3A391"/>
<path d="M9.07711 21.2305C10.4617 21.2305 11.8463 20.6151 12.7694 19.6151C13.6925 18.6151 14.3079 17.2305 14.231 15.9228C14.231 14.5382 13.5386 13.2305 12.6156 12.3843C11.6156 11.5382 10.3079 11.0766 9.07711 11.2305C7.84634 11.0766 6.53865 11.5382 5.53865 12.3843C4.53865 13.2305 3.92327 14.5382 3.92327 15.9228C3.84634 17.3074 4.3848 18.692 5.3848 19.6151C6.30788 20.6151 7.6925 21.2305 9.07711 21.2305ZM4.84634 15.9997C5.30788 16.1536 5.84634 16.2305 6.30788 16.3074C6.30788 17.1536 6.3848 18.0766 6.6925 18.9228C6.76942 19.1536 6.84634 19.3074 6.92327 19.5382C6.61557 19.3843 6.3848 19.1536 6.07711 18.9228C5.30788 18.1536 4.92327 17.0766 4.84634 15.9997ZM8.53865 16.4613C8.53865 17.692 8.6925 18.7689 8.92327 19.9997C8.6925 19.9228 8.53865 19.7689 8.30788 19.5382C8.07711 19.2305 7.84634 18.8459 7.6925 18.4613C7.46173 17.7689 7.30788 17.0766 7.23096 16.3074C7.6925 16.4613 8.07711 16.4613 8.53865 16.4613ZM10.8463 16.3843C10.7694 17.1536 10.6156 17.8459 10.3848 18.4613C10.231 18.8459 10.0002 19.2305 9.76942 19.5382C9.53865 19.7689 9.3848 19.9228 9.15404 19.9997C9.46173 18.7689 9.53865 17.692 9.53865 16.4613C10.0771 16.4613 10.4617 16.4613 10.8463 16.3843ZM12.0002 18.8459C11.7694 19.0766 11.4617 19.3074 11.154 19.4613C11.231 19.3074 11.3079 19.0766 11.3848 18.8459C11.6925 17.9997 11.7694 17.1536 11.7694 16.2305C12.231 16.1536 12.7694 16.0766 13.231 15.9228C13.231 17.0766 12.7694 18.1536 12.0002 18.8459ZM13.3079 15.8459C12.7694 15.692 12.3079 15.6151 11.7694 15.5382C11.6925 14.692 11.5387 13.8459 11.154 13.0766C10.9233 12.6151 10.6925 12.1536 10.3079 11.8459C10.154 11.692 9.92327 11.5382 9.6925 11.3843C10.6156 11.6151 11.4617 12.0766 12.0771 12.8459C12.9233 13.6151 13.3079 14.692 13.3079 15.8459ZM9.07711 11.2305C9.53865 11.3074 9.92327 11.6151 10.154 11.9997C10.3848 12.3843 10.5387 12.7689 10.6925 13.2305C10.9233 13.9228 11.0002 14.692 11.0002 15.4613C10.4617 15.3843 10.0771 15.3843 9.61557 15.3843C9.61557 14.7689 9.53865 14.1536 9.53865 13.6151C9.46173 12.7689 9.30788 11.9997 9.07711 11.2305C8.84634 11.9997 8.6925 12.7689 8.61557 13.6151C8.53865 14.1536 8.53865 14.7689 8.53865 15.3843C8.07711 15.3843 7.6925 15.3843 7.23096 15.4613C7.23096 14.692 7.30788 13.9997 7.53865 13.2305C7.61557 12.7689 7.84634 12.3843 8.07711 11.9997C8.23096 11.6151 8.61557 11.3074 9.07711 11.2305ZM5.92327 12.7689C6.53865 12.0766 7.3848 11.5382 8.30788 11.3074C8.07711 11.4613 7.92326 11.5382 7.6925 11.7689C7.30788 12.1536 7.07711 12.5382 6.84634 12.9997C6.53865 13.7689 6.30788 14.6151 6.23096 15.4613C5.6925 15.5382 5.23096 15.6151 4.6925 15.7689C4.76942 14.692 5.15403 13.6151 5.92327 12.7689Z" fill="black"/>
</svg>
