<svg width="42" height="42" viewBox="0 0 42 42" fill="none" xmlns="http://www.w3.org/2000/svg">
<path fill-rule="evenodd" clip-rule="evenodd" d="M29.33 30.5684C29.349 30.5863 29.5463 30.8361 29.5431 30.8912C29.5371 30.9957 29.8758 31.2499 30.0014 31.4584L30.6196 32.3199C30.6871 32.4087 30.9646 32.7454 30.9821 32.8128C31.0194 32.9565 31.1255 33.0283 31.2188 33.1475L32.1621 34.3338L29.3013 33.9586L28.4195 33.8469C28.031 33.811 27.6872 34.0923 27.6514 34.474L27.5531 35.4198C27.524 35.7049 27.5185 36.0078 27.4764 36.2988C27.4413 36.5412 27.451 36.7867 27.4012 37.0286L27.2963 37.9529L26.4817 36.9662C26.4135 36.8833 26.3377 36.8071 26.273 36.7218C26.146 36.5547 26.0164 36.3896 25.8786 36.2309C25.6139 35.9257 25.3748 35.5999 25.096 35.3061L24.6714 34.8422C24.6091 34.7708 24.5576 34.692 24.4873 34.6282C24.3694 34.5209 24.2396 34.4266 24.1455 34.2929C24.1412 34.2864 24.1344 34.2799 24.1277 34.276C24.0233 34.2108 23.9537 34.0573 23.8148 33.9667C23.7463 33.922 23.3683 33.476 23.3286 33.4269C23.1237 33.1741 22.8796 32.9896 22.7212 32.7799C22.6621 32.7017 22.4747 32.466 22.3898 32.4198C22.3373 32.3919 22.2883 32.3574 22.2409 32.3215C23.1427 31.9279 23.4118 31.3208 23.8548 30.57C24.2632 29.878 25.1107 29.6586 25.8344 30.0357C26.4999 30.3825 26.9171 30.7552 27.7643 30.7666C28.2664 30.7732 28.7475 30.6319 29.1672 30.38C29.217 30.4472 29.2687 30.5116 29.33 30.5684ZM19.8677 32.5035C19.7788 32.6005 19.7792 32.5152 19.6974 32.6282C19.6083 32.7509 19.4263 33.0231 19.3232 33.1171C19.1455 33.2791 18.7702 33.6991 18.598 33.8928C18.5236 33.9765 18.2483 34.3154 18.1842 34.3453C18.0526 34.4066 17.9953 34.5364 17.9017 34.6441L16.5113 36.2852L15.0594 38.0072L14.9061 36.5321C14.873 36.2467 14.8131 35.951 14.7917 35.6571C14.7738 35.4127 14.7113 35.1747 14.708 34.9278L14.662 34.4764C14.6233 34.1049 14.3108 33.8516 13.9002 33.8728L13.1074 33.9546L12.2008 34.0533C12.0027 34.0793 11.8042 34.1048 11.6065 34.1306L10.3347 34.2673L10.9718 33.4148C11.0289 33.34 11.0971 33.2736 11.1457 33.1933C11.2275 33.0566 11.2932 32.9119 11.4071 32.7937C11.4124 32.7882 11.417 32.7803 11.42 32.7733C11.4748 32.6418 11.6007 32.56 11.6613 32.4072C11.6914 32.3312 12.0546 31.8741 12.0949 31.8255C12.307 31.5701 12.4312 31.3071 12.6099 31.1057C12.6764 31.0308 12.8688 30.8041 12.8976 30.7111C12.9299 30.6063 12.9789 30.507 13.0392 30.4123C13.9208 30.9679 14.9798 30.9847 15.8759 30.4677C16.1389 30.316 16.5126 30.0754 16.7918 29.9663C17.0537 29.864 17.4952 29.8671 17.7531 29.9813C18.1578 30.1604 18.3086 30.3171 18.5062 30.6497C18.9281 31.3598 19.1948 31.9266 20.0476 32.3083L19.8677 32.5035ZM37.0415 16.6631C36.9752 15.7518 36.4793 15.0716 35.7056 14.6358C35.4401 14.4862 34.9069 14.2245 34.7055 13.9908C34.6635 13.9379 34.6145 13.8915 34.5792 13.8337C34.2326 13.3086 34.2008 12.7179 34.5076 12.195C34.7981 11.7 35.0525 11.3485 35.1719 10.7758C35.2709 10.301 35.253 9.91001 35.0682 9.45339C34.6596 8.44374 33.7846 7.8278 32.6709 7.83161C32.4642 7.83235 31.7991 7.8562 31.5827 7.80516C30.885 7.64074 30.3915 7.11908 30.318 6.44227C30.2951 6.2308 30.3079 5.70793 30.2966 5.44905C30.2508 4.40071 29.5903 3.56198 28.5865 3.25262C27.8668 3.03076 27.2053 3.1538 26.5832 3.5295C26.0378 3.85891 25.6384 4.19379 24.9654 4.1705C24.4983 4.15435 24.0636 3.9581 23.7279 3.62972C23.2387 3.15111 23.0626 2.24511 22.0751 1.84286C21.0934 1.44294 19.9009 1.78812 19.4224 2.76872C19.2735 3.074 19.4637 2.78357 19.5178 2.70739C19.5659 2.64002 19.6155 2.57869 19.6618 2.55029C19.6477 2.58824 19.6374 2.6261 19.6272 2.66405C19.5991 2.73624 19.5272 2.84453 19.6613 2.68901C19.6772 2.67008 19.6919 2.65515 19.7095 2.63714C19.5746 2.83729 19.2872 3.37659 19.2258 3.54602C19.6094 3.0946 19.7092 2.72567 20.2677 2.37919C20.616 2.16308 21.1706 2.06537 21.5782 2.1732C21.8482 2.24455 22.296 2.46919 22.4128 2.73392L22.9444 3.62387C23.5294 4.57487 24.6961 5.05543 25.7773 4.77567C26.1881 4.66943 26.6287 4.39802 27.0044 4.19249C27.5964 3.86856 28.217 3.90057 28.7826 4.31469C29.2072 4.62563 29.3965 5.16641 29.3366 5.67554C29.2534 6.38214 29.2933 6.86966 29.6252 7.50378C30.0373 8.29101 30.8823 8.79811 31.773 8.8432C32.1344 8.86148 32.7329 8.82696 32.9905 8.87763C33.9165 9.05977 34.4369 10.0844 34.0057 10.9194C33.745 11.4242 33.4527 11.7381 33.2958 12.3082C32.9804 13.4543 33.4793 14.607 34.5262 15.2289C35.0329 15.5298 35.5471 15.708 35.7898 16.2536C36.0671 16.8772 35.8651 17.661 35.226 18.0314C34.6225 18.3813 34.1187 18.5768 33.6929 19.1473C33.0612 19.9937 33.0058 21.0861 33.5104 22.0067C33.8475 22.6217 34.3139 23.1417 33.9757 23.8944C33.7393 24.4203 33.3067 24.7013 32.729 24.7239C32.3946 24.7371 32.0304 24.7063 31.6632 24.7298C30.5132 24.8037 29.4857 25.6903 29.2321 26.8221C29.1018 27.4036 29.217 28.0533 29.1264 28.4623C28.9735 29.1525 28.1972 29.6126 27.5177 29.4385C26.8977 29.2797 26.3733 28.6144 25.2501 28.5536C24.4521 28.5072 23.6562 28.834 23.1125 29.4047C22.6595 29.8748 22.4333 30.5529 22.131 30.8503C21.5815 31.391 20.6704 31.4046 20.1527 30.788C19.9617 30.5605 19.7064 30.0525 19.491 29.7344C18.8804 28.8333 17.7423 28.415 16.6748 28.624C15.7042 28.8141 15.2111 29.5392 14.4498 29.4951C13.7816 29.4562 13.1931 28.9322 13.1568 28.2505C13.1389 27.9139 13.1697 27.3469 13.1211 27.0403C12.9248 25.8004 12.029 24.9389 10.7981 24.7491C10.3958 24.6871 9.70851 24.7551 9.4176 24.7052C9.03273 24.6488 8.70575 24.4399 8.49235 24.1077C8.1869 23.635 8.19766 23.1545 8.45883 22.6935C8.69621 22.2744 8.90149 21.9988 9.06635 21.5526C9.31307 20.8413 9.228 20.0386 8.85399 19.3911C8.41228 18.6287 7.86161 18.4175 7.1491 17.9939C6.23811 17.4522 6.2959 16.1774 7.11463 15.6992C7.85462 15.2669 8.39189 15.068 8.84445 14.281C9.30845 13.4742 9.2855 12.4673 8.81452 11.6705C8.49481 11.1296 8.1614 10.7702 8.21352 10.1251C8.2478 9.70114 8.50718 9.21557 8.90234 9.02312C8.92254 9.01412 8.94398 9.00113 8.96182 8.9887C9.26747 8.78586 9.658 8.81815 10.016 8.80961C10.6238 8.79504 11.1477 8.74308 11.6886 8.43548C12.5023 7.97274 12.9526 7.12937 12.9449 6.21261C12.9392 5.51975 12.827 4.87969 13.4073 4.33891C13.8529 3.92377 14.4991 3.79525 15.0875 4.0057C15.8363 4.27368 16.3238 4.71749 17.2169 4.71452C17.49 4.71703 17.7495 4.65514 17.9236 4.56736C18.0641 4.49916 18.5682 4.25744 18.6902 4.09747C18.8044 3.94734 18.9944 3.73884 19.1187 3.48589C18.9572 3.68762 18.8409 3.82847 18.6047 3.94734C18.5739 3.96329 18.545 3.97573 18.5105 3.99772C18.2949 4.12995 18.0506 4.20473 17.9131 4.19926C17.8255 4.19193 17.5111 4.32796 16.9436 4.19379C16.7329 4.14489 16.5303 4.0611 16.3495 3.94483C15.6852 3.51902 15.2176 3.14034 14.3783 3.14869C13.1797 3.16057 12.1347 4.08967 12.0146 5.30717C11.9624 5.83691 12.0252 6.29761 11.8376 6.77176C11.6091 7.3491 11.0575 7.69122 10.431 7.69511L9.57944 7.68417C7.60478 7.71516 6.28409 9.79504 7.29687 11.6136C7.45153 11.8913 7.6789 12.233 7.79259 12.5145C7.90353 12.7893 7.89353 13.1642 7.78721 13.4448C7.5791 13.9939 7.18215 14.133 6.69285 14.4061C6.12698 14.722 5.71614 15.0275 5.40559 15.6478C4.84661 16.7644 5.14319 18.2122 6.19099 18.9806C6.50542 19.2112 6.89737 19.3903 7.21935 19.5976C7.83763 19.9957 8.00211 20.7694 7.62168 21.3935C7.16836 22.1371 6.77226 22.7564 6.90096 23.7131C7.07809 25.0305 8.20899 26.0665 9.5987 26.0762C9.89056 26.0783 10.4085 26.0509 10.7099 26.1046C11.26 26.2027 11.7255 26.7137 11.7696 27.3048C11.8021 27.7424 11.7414 28.1744 11.8213 28.6323C11.9188 29.1907 12.1975 29.71 12.6208 30.096C12.3864 30.2704 11.9563 30.6228 11.7572 30.8167C11.6305 30.94 11.5052 31.0641 11.3628 31.1669C10.9771 31.4468 9.76583 32.8788 9.41949 33.3025C9.40665 33.3185 9.39371 33.3354 9.37907 33.3489L8.25299 34.6569C7.85746 35.1275 8.23515 35.8528 8.87863 35.7842L9.77707 35.6994C10.9913 35.5613 12.2053 35.4262 13.4149 35.2575L13.4776 35.7095L13.6088 36.8079L13.6756 37.3551C13.6994 37.5033 13.7273 37.6509 13.7475 37.7995C13.7749 38.0021 13.7897 38.2066 13.831 38.4076L13.9781 39.6952C14.0367 40.1768 14.6543 40.3447 14.9575 39.972L16.4379 38.1323L17.0839 37.3047L17.6428 36.5834C17.674 36.5299 17.7286 36.5128 17.8386 36.3464L18.1969 35.8904C18.9514 34.9319 19.1747 34.6466 19.8205 33.5772L20.4887 32.4614C20.8724 32.5566 21.3035 32.5714 21.6902 32.4943C21.7731 32.7022 22.1304 33.3492 22.2527 33.5379C22.3483 33.6851 22.4459 33.8322 22.5181 33.9908C22.7188 34.4315 23.877 35.8757 24.2307 36.309C24.2437 36.3249 24.2574 36.3409 24.2686 36.3583L25.89 38.4126L27.2873 40.0793C27.672 40.5327 28.4462 40.3099 28.5003 39.7027L28.5903 38.6855L28.7527 36.8143C28.7636 36.7171 28.7624 36.6188 28.7715 36.5215L28.8798 35.4205C28.8843 35.3372 28.8895 35.2534 28.898 35.1706L29.2142 35.1911L32.7952 35.5393L33.4987 35.5926C33.9445 35.6295 34.2172 35.118 33.9308 34.7791L33.092 33.8058C33.0433 33.7624 33.0407 33.7094 32.8983 33.5683L32.5203 33.1273C31.727 32.2004 31.491 31.9251 30.5636 31.0785L29.5194 30.1297C30.1683 29.5896 30.4439 28.893 30.4387 28.0755C30.4375 27.8854 30.4129 27.2836 30.4565 27.0908C30.6107 26.4086 31.1873 25.9516 31.9074 25.93C32.625 25.9084 33.138 26.0139 33.8501 25.6696C35.0936 25.0684 35.6733 23.533 35.0216 22.25C34.8716 21.9548 34.6492 21.6336 34.4905 21.3227C34.2011 20.7553 34.3722 20.0243 34.8425 19.6007C35.2092 19.2704 35.9106 19.0835 36.4357 18.4882C36.8893 17.9744 37.0874 17.3303 37.0415 16.6631Z" fill="black"/>
<g clip-path="url(#clip0_963_24582)">
<path fill-rule="evenodd" clip-rule="evenodd" d="M25.6284 15.6209C25.5831 15.6732 25.6514 15.6991 25.6005 15.7676C25.4746 15.9371 25.6267 15.9476 25.4129 16.1348C25.3209 16.2154 25.306 16.3356 25.1938 16.4496C24.9788 16.668 25.0072 16.73 24.962 16.7788C24.8889 16.8576 24.9147 16.8635 24.9027 16.8735C24.8448 16.9155 24.8291 16.9908 24.7996 17.0551L24.685 17.1858C24.5351 17.4372 24.3682 17.5685 24.2136 17.7525C24.1554 17.8218 24.0901 17.8842 24.022 17.9436L23.4255 18.5846C23.3257 18.6898 23.2246 18.7941 23.1264 18.9008C23.0691 18.9631 23.0183 19.032 22.9612 19.0948L22.3235 19.7603C22.2331 19.8216 22.1871 19.9219 22.1078 19.9923L21.8579 20.2811C21.5087 20.6655 21.2965 20.8349 20.9311 21.182C20.6874 21.413 20.3039 21.4134 20.0579 21.1915L19.5225 20.6922L18.6326 19.903L18.0313 19.3727C17.9402 19.3253 17.9794 19.2734 17.9482 19.2415C17.9143 19.2076 17.8772 19.1777 17.8491 19.1378C17.8491 19.1378 17.5586 18.8721 17.4755 18.7367C17.414 18.6365 17.2177 18.6083 17.2381 18.5312C17.2497 18.4878 17.1368 18.395 17.1368 18.395C17.0118 18.3391 16.9411 18.181 16.9569 18.0788C16.9921 18.0663 17.0412 18.0913 17.0845 18.1067C17.0777 18.0406 17.1148 18.0802 17.148 18.0403C17.1681 18.0161 17.0348 17.8865 17.3677 18.0239C17.8339 18.2164 18.29 18.3286 18.7036 18.634L19.2035 19.0052C19.3063 19.0561 19.2663 19.0763 19.3042 19.09L20.0777 19.6646L20.4328 19.937C20.4766 19.8771 20.5306 19.8257 20.5786 19.7699L20.7337 19.5693L20.9961 19.278C21.0559 19.2127 21.1176 19.1493 21.1767 19.0829C21.2048 19.0515 21.2255 19.0131 21.2548 18.9826C21.4995 18.7282 21.5815 18.6136 21.7985 18.3521C22.1385 17.9424 22.7412 17.2964 23.1322 16.9199C23.1588 16.8949 23.1905 16.8735 23.2173 16.8481C23.2901 16.7773 23.4322 16.6206 23.5081 16.5758L23.7421 16.3368C23.8877 16.1996 24.3381 15.8036 24.4898 15.7637C24.636 15.7252 24.7261 15.6202 24.9002 15.5631C25.0748 15.5059 25.1371 15.4474 25.3401 15.4349C25.3787 15.4325 25.372 15.4646 25.4941 15.4668C25.5271 15.4674 25.5487 15.499 25.6384 15.4873C25.6161 15.6273 25.6642 15.5786 25.6284 15.6209ZM25.6427 10.5352C25.8636 10.5993 26.4947 10.7637 26.7077 10.7597L27.6836 10.8111C27.8149 10.8241 27.9426 10.8206 28.0396 10.7976C28.1972 10.7599 28.3906 10.7964 28.445 10.7653C28.5246 10.7189 28.6444 10.6989 28.7855 10.672C28.6437 10.6662 28.6332 10.6591 28.5083 10.6017C28.3975 10.5506 28.2309 10.5416 28.1236 10.448L26.8193 10.1008C26.1296 9.905 24.8708 9.41303 24.3238 9.06516C24.2357 9.0093 24.1427 8.95344 24.048 8.90204C23.3863 8.52642 22.764 8.08994 22.1684 7.61448L21.6015 7.12465C21.3667 6.9181 21.0068 6.9052 20.757 7.10971L20.3291 7.45841C19.6029 8.02239 18.9452 8.46407 18.1142 8.8382C17.4138 9.15359 17.1088 9.28563 16.3526 9.49171C15.2757 9.78512 14.5513 9.85174 13.4614 9.87828C13.0475 9.8883 12.743 10.1952 12.745 10.5822L12.7623 14.4467L12.8263 19.5115C12.8481 20.9085 13.3257 22.2419 14.2362 23.3187C14.8381 24.0306 15.1918 24.1722 15.8201 24.6785C16.0663 24.8769 16.5593 25.2043 16.8438 25.4123C17.2002 25.6727 17.5497 25.9435 17.9136 26.192C17.9711 26.2315 18.0273 26.2758 18.0838 26.3177L19.1556 27.1169C19.6749 27.5032 20.057 27.8479 20.7395 27.9764C21.4544 28.1109 22.1248 27.9006 22.6872 27.48L26.9595 24.2255C27.5203 23.798 28.043 23.2951 28.4019 22.6896L28.6319 22.3289C29.0668 21.493 29.3145 20.5309 29.3242 19.5887C29.3507 16.9987 29.062 14.4735 28.9201 11.9045C28.9033 11.5982 28.8886 11.289 28.8568 11.0161C28.8322 10.8057 28.8219 11.1783 28.8031 11.2376C28.7928 11.2251 28.7827 11.2141 28.7726 11.2021C28.7686 11.1856 28.7656 11.1597 28.76 11.1562L28.7348 11.2764L28.6984 10.7572C28.6095 11.2079 28.5571 12.0561 28.5706 12.4972C28.5745 12.6226 28.5501 13.2204 28.5209 13.3118C28.4625 13.4941 28.5126 14.4824 28.4864 14.8073C28.434 15.4578 28.4104 16.3204 28.3912 16.9808C28.3847 17.2049 28.3784 18.0975 28.3494 18.2244C28.2423 18.6931 28.4407 19.7161 28.1014 20.8553C27.7825 21.9257 27.1941 22.6887 26.3242 23.336L23.0106 25.7863C22.7198 25.9993 22.2108 26.3931 21.9116 26.5854C21.3585 26.9412 20.88 26.9021 20.3637 26.5076C19.239 25.6481 18.1306 24.7775 16.9943 23.9301C15.7871 23.0297 14.9635 22.5357 14.4181 21.0572C14.2018 20.4707 14.1531 19.7848 14.1538 19.1581L14.1512 15.9709C14.1465 15.5525 14.1415 15.1339 14.1365 14.7149L14.1324 11.2164C14.5039 11.1944 14.8746 11.1585 15.243 11.1041C15.6741 11.0344 16.4014 10.884 16.8363 10.7569C18.1887 10.3616 19.6501 9.63127 20.7422 8.73056L21.2145 8.3569L21.5228 8.59388C21.8236 8.77696 22.032 8.97478 22.3472 9.12167L22.8683 9.41999C23.9705 10.0419 24.4571 10.1878 25.6427 10.5352ZM29.33 30.5704C29.349 30.5882 29.5463 30.8381 29.5431 30.8931C29.5371 30.9977 29.8758 31.2518 30.0014 31.4603L30.6196 32.3219C30.6871 32.4106 30.9646 32.7473 30.9821 32.8148C31.0194 32.9584 31.1255 33.0303 31.2188 33.1495L32.1621 34.3357L29.3013 33.9606L28.4195 33.8488C28.031 33.8129 27.6872 34.0943 27.6514 34.4759L27.5531 35.4217C27.524 35.7069 27.5185 36.0097 27.4764 36.3007C27.4413 36.5432 27.451 36.7886 27.4012 37.0305L27.2963 37.9549L26.4817 36.9682C26.4135 36.8853 26.3377 36.809 26.273 36.7237C26.146 36.5566 26.0164 36.3916 25.8786 36.2329C25.6139 35.9276 25.3748 35.6018 25.096 35.3081L24.6714 34.8441C24.6091 34.7728 24.5576 34.694 24.4873 34.6301C24.3694 34.5229 24.2396 34.4286 24.1455 34.2949C24.1412 34.2884 24.1344 34.2819 24.1277 34.2779C24.0233 34.2128 23.9537 34.0593 23.8148 33.9686C23.7463 33.9239 23.3683 33.478 23.3286 33.4289C23.1237 33.176 22.8796 32.9916 22.7212 32.7819C22.6621 32.7036 22.4747 32.4679 22.3898 32.4217C22.3373 32.3938 22.2883 32.3594 22.2409 32.3235C23.1427 31.9299 23.4118 31.3227 23.8548 30.572C24.2632 29.8799 25.1107 29.6606 25.8344 30.0377C26.4999 30.3844 26.9171 30.7572 27.7643 30.7685C28.2664 30.7752 28.7475 30.6339 29.1672 30.3819C29.217 30.4491 29.2687 30.5135 29.33 30.5704ZM19.8677 32.5054C19.7788 32.6025 19.7792 32.5171 19.6974 32.6301C19.6083 32.7529 19.4263 33.0251 19.3232 33.1191C19.1455 33.2811 18.7702 33.701 18.598 33.8948C18.5236 33.9785 18.2483 34.3173 18.1842 34.3472C18.0526 34.4086 17.9953 34.5384 17.9017 34.646L16.5113 36.2872L15.0594 38.0092L14.9061 36.5341C14.873 36.2487 14.8131 35.9529 14.7917 35.6591C14.7738 35.4147 14.7113 35.1767 14.708 34.9297L14.662 34.4783C14.6233 34.1069 14.3108 33.8536 13.9002 33.8747L13.1074 33.9566L12.2008 34.0553C12.0027 34.0813 11.8042 34.1067 11.6065 34.1326L10.3347 34.2693L10.9718 33.4167C11.0289 33.3419 11.0971 33.2756 11.1457 33.1952C11.2275 33.0586 11.2932 32.9139 11.4071 32.7957C11.4124 32.7902 11.417 32.7822 11.42 32.7753C11.4748 32.6438 11.6007 32.5619 11.6613 32.4091C11.6914 32.3331 12.0546 31.876 12.0949 31.8274C12.307 31.5721 12.4312 31.3091 12.6099 31.1076C12.6764 31.0328 12.8688 30.8061 12.8976 30.713C12.9299 30.6083 12.9789 30.509 13.0392 30.4142C13.9208 30.9699 14.9798 30.9866 15.8759 30.4696C16.1389 30.3179 16.5126 30.0774 16.7918 29.9683C17.0537 29.8659 17.4952 29.8691 17.7531 29.9832C18.1578 30.1623 18.3086 30.319 18.5062 30.6517C18.9281 31.3617 19.1948 31.9286 20.0476 32.3103L19.8677 32.5054ZM37.0415 16.665C36.9752 15.7537 36.4793 15.0736 35.7056 14.6377C35.4401 14.4882 34.9069 14.2264 34.7055 13.9928C34.6635 13.9399 34.6145 13.8935 34.5792 13.8357C34.2326 13.3106 34.2008 12.7199 34.5076 12.197C34.7981 11.702 35.0525 11.3505 35.1719 10.7778C35.2709 10.303 35.253 9.91196 35.0682 9.45534C34.6596 8.4457 33.7846 7.82976 32.6709 7.83356C32.4642 7.8343 31.7991 7.85815 31.5827 7.80712C30.885 7.64269 30.3915 7.12103 30.318 6.44422C30.2951 6.23275 30.3079 5.70988 30.2966 5.451C30.2508 4.40266 29.5903 3.56393 28.5865 3.25457C27.8668 3.03271 27.2053 3.15575 26.5832 3.53146C26.0378 3.86086 25.6384 4.19574 24.9654 4.17245C24.4983 4.1563 24.0636 3.96005 23.7279 3.63167C23.2387 3.15306 23.0626 2.24706 22.0751 1.84482C21.0934 1.44489 19.9009 1.79007 19.4224 2.77067C19.2735 3.07595 19.4637 2.78552 19.5178 2.70934C19.5659 2.64197 19.6155 2.58064 19.6618 2.55225C19.6477 2.5902 19.6374 2.62805 19.6272 2.66601C19.5991 2.7382 19.5272 2.84648 19.6613 2.69097C19.6772 2.67204 19.6919 2.6571 19.7095 2.6391C19.5746 2.83924 19.2872 3.37854 19.2258 3.54797C19.6094 3.09655 19.7092 2.72762 20.2677 2.38114C20.616 2.16503 21.1706 2.06733 21.5782 2.17515C21.8482 2.2465 22.296 2.47115 22.4128 2.73588L22.9444 3.62582C23.5294 4.57683 24.6961 5.05738 25.7773 4.77762C26.1881 4.67138 26.6287 4.39997 27.0044 4.19444C27.5964 3.87051 28.217 3.90252 28.7826 4.31664C29.2072 4.62758 29.3965 5.16836 29.3366 5.6775C29.2534 6.38409 29.2933 6.87161 29.6252 7.50573C30.0373 8.29296 30.8823 8.80006 31.773 8.84516C32.1344 8.86343 32.7329 8.82892 32.9905 8.87958C33.9165 9.06173 34.4369 10.0863 34.0057 10.9213C33.745 11.4262 33.4527 11.74 33.2958 12.3101C32.9804 13.4563 33.4793 14.609 34.5262 15.2309C35.0329 15.5318 35.5471 15.7099 35.7898 16.2555C36.0671 16.8792 35.8651 17.663 35.226 18.0334C34.6225 18.3832 34.1187 18.5787 33.6929 19.1493C33.0612 19.9956 33.0058 21.088 33.5104 22.0087C33.8475 22.6236 34.3139 23.1437 33.9757 23.8963C33.7393 24.4222 33.3067 24.7032 32.729 24.7258C32.3946 24.739 32.0304 24.7082 31.6632 24.7318C30.5132 24.8056 29.4857 25.6923 29.2321 26.824C29.1018 27.4055 29.217 28.0552 29.1264 28.4643C28.9735 29.1544 28.1972 29.6146 27.5177 29.4405C26.8977 29.2816 26.3733 28.6163 25.2501 28.5556C24.4521 28.5092 23.6562 28.836 23.1125 29.4066C22.6595 29.8768 22.4333 30.5548 22.131 30.8523C21.5815 31.393 20.6704 31.4065 20.1527 30.7899C19.9617 30.5624 19.7064 30.0545 19.491 29.7364C18.8804 28.8352 17.7423 28.4169 16.6748 28.626C15.7042 28.816 15.2111 29.5412 14.4498 29.497C13.7816 29.4581 13.1931 28.9341 13.1568 28.2524C13.1389 27.9159 13.1697 27.3488 13.1211 27.0422C12.9248 25.8024 12.029 24.9408 10.7981 24.7511C10.3958 24.689 9.70851 24.757 9.4176 24.7072C9.03273 24.6508 8.70575 24.4418 8.49235 24.1096C8.1869 23.637 8.19766 23.1565 8.45883 22.6954C8.69621 22.2764 8.90149 22.0007 9.06635 21.5546C9.31307 20.8432 9.228 20.0405 8.85399 19.393C8.41228 18.6307 7.86161 18.4195 7.1491 17.9958C6.23811 17.4542 6.2959 16.1794 7.11463 15.7011C7.85462 15.2688 8.39189 15.07 8.84445 14.2829C9.30845 13.4762 9.2855 12.4692 8.81452 11.6725C8.49481 11.1316 8.1614 10.7721 8.21352 10.127C8.2478 9.70309 8.50718 9.21752 8.90234 9.02508C8.92254 9.01607 8.94398 9.00308 8.96182 8.99065C9.26747 8.78781 9.658 8.8201 10.016 8.81157C10.6238 8.797 11.1477 8.74504 11.6886 8.43744C12.5023 7.97469 12.9526 7.13133 12.9449 6.21457C12.9392 5.5217 12.827 4.88164 13.4073 4.34086C13.8529 3.92572 14.4991 3.79721 15.0875 4.00765C15.8363 4.27563 16.3238 4.71944 17.2169 4.71647C17.49 4.71898 17.7495 4.65709 17.9236 4.56931C18.0641 4.50111 18.5682 4.25939 18.6902 4.09942C18.8044 3.94929 18.9944 3.74079 19.1187 3.48785C18.9572 3.68957 18.8409 3.83042 18.6047 3.94929C18.5739 3.96525 18.545 3.97768 18.5105 3.99967C18.2949 4.1319 18.0506 4.20669 17.9131 4.20121C17.8255 4.19388 17.5111 4.32991 16.9436 4.19574C16.7329 4.14684 16.5303 4.06305 16.3495 3.94678C15.6852 3.52097 15.2176 3.1423 14.3783 3.15065C13.1797 3.16252 12.1347 4.09163 12.0146 5.30912C11.9624 5.83886 12.0252 6.29956 11.8376 6.77372C11.6091 7.35105 11.0575 7.69317 10.431 7.69707L9.57944 7.68612C7.60478 7.71711 6.28409 9.79699 7.29687 11.6156C7.45153 11.8933 7.6789 12.235 7.79259 12.5165C7.90353 12.7912 7.89353 13.1662 7.78721 13.4468C7.5791 13.9958 7.18215 14.1349 6.69285 14.4081C6.12698 14.7239 5.71614 15.0294 5.40559 15.6497C4.84661 16.7663 5.14319 18.2141 6.19099 18.9825C6.50542 19.2131 6.89737 19.3923 7.21935 19.5996C7.83763 19.9977 8.00211 20.7713 7.62168 21.3954C7.16836 22.1391 6.77226 22.7583 6.90096 23.7151C7.07809 25.0324 8.20899 26.0684 9.5987 26.0782C9.89056 26.0802 10.4085 26.0528 10.7099 26.1066C11.26 26.2046 11.7255 26.7156 11.7696 27.3068C11.8021 27.7444 11.7414 28.1763 11.8213 28.6342C11.9188 29.1927 12.1975 29.712 12.6208 30.0979C12.3864 30.2724 11.9563 30.6248 11.7572 30.8187C11.6305 30.9419 11.5052 31.0661 11.3628 31.1689C10.9771 31.4487 9.76583 32.8808 9.41949 33.3044C9.40665 33.3204 9.39371 33.3374 9.37907 33.3508L8.25299 34.6588C7.85746 35.1294 8.23515 35.8548 8.87863 35.7862L9.77707 35.7014C10.9913 35.5632 12.2053 35.4281 13.4149 35.2594L13.4776 35.7114L13.6088 36.8099L13.6756 37.357C13.6994 37.5052 13.7273 37.6529 13.7475 37.8015C13.7749 38.0041 13.7897 38.2086 13.831 38.4096L13.9781 39.6971C14.0367 40.1788 14.6543 40.3466 14.9575 39.974L16.4379 38.1342L17.0839 37.3067L17.6428 36.5853C17.674 36.5319 17.7286 36.5148 17.8386 36.3483L18.1969 35.8924C18.9514 34.9338 19.1747 34.6485 19.8205 33.5792L20.4887 32.4633C20.8724 32.5585 21.3035 32.5734 21.6902 32.4962C21.7731 32.7042 22.1304 33.3511 22.2527 33.5399C22.3483 33.687 22.4459 33.8342 22.5181 33.9928C22.7188 34.4334 23.877 35.8777 24.2307 36.3109C24.2437 36.3269 24.2574 36.3428 24.2686 36.3603L25.89 38.4146L27.2873 40.0813C27.672 40.5346 28.4462 40.3118 28.5003 39.7046L28.5903 38.6875L28.7527 36.8163C28.7636 36.719 28.7624 36.6208 28.7715 36.5234L28.8798 35.4225C28.8843 35.3391 28.8895 35.2554 28.898 35.1726L29.2142 35.1931L32.7952 35.5412L33.4987 35.5946C33.9445 35.6314 34.2172 35.12 33.9308 34.781L33.092 33.8077C33.0433 33.7643 33.0407 33.7113 32.8983 33.5703L32.5203 33.1293C31.727 32.2024 31.491 31.9271 30.5636 31.0805L29.5194 30.1317C30.1683 29.5916 30.4439 28.895 30.4387 28.0774C30.4375 27.8874 30.4129 27.2855 30.4565 27.0927C30.6107 26.4105 31.1873 25.9535 31.9074 25.9319C32.625 25.9104 33.138 26.0158 33.8501 25.6716C35.0936 25.0704 35.6733 23.535 35.0216 22.252C34.8716 21.9567 34.6492 21.6356 34.4905 21.3246C34.2011 20.7572 34.3722 20.0262 34.8425 19.6026C35.2092 19.2723 35.9106 19.0854 36.4357 18.4902C36.8893 17.9763 37.0874 17.3323 37.0415 16.665Z" fill="#F3A391"/>
</g>
<defs>
<clipPath id="clip0_963_24582">
<rect x="11.8477" y="6.7207" width="18.48" height="21.84" rx="9.24" fill="white"/>
</clipPath>
</defs>
</svg>
